<svg width="659" height="417" viewBox="0 0 659 417" fill="none" xmlns="http://www.w3.org/2000/svg">
<g opacity="0.08">
<path d="M4.60069 412.619C4.40178 412.619 4.20286 412.54 4.06362 412.396C3.91941 412.256 3.83984 412.057 3.83984 411.859C3.83984 411.655 3.91941 411.461 4.06362 411.321C4.20784 411.182 4.40178 411.098 4.60069 411.098C4.80458 411.098 4.99852 411.177 5.14273 411.321C5.28695 411.466 5.36651 411.66 5.36651 411.859C5.36651 412.057 5.28695 412.256 5.14273 412.396C4.99852 412.535 4.79961 412.619 4.60069 412.619Z" fill="white"/>
<path d="M642.328 411.859C642.328 409.542 644.208 407.662 646.525 407.662C648.843 407.662 650.717 409.542 650.717 411.859C650.717 414.172 648.838 416.056 646.525 416.056C644.208 416.051 642.328 414.172 642.328 411.859Z" fill="white"/>
<path d="M619.359 411.859C619.359 411.039 620.026 410.367 620.846 410.367C621.667 410.367 622.333 411.034 622.333 411.859C622.333 412.68 621.667 413.346 620.846 413.346C620.026 413.346 619.359 412.68 619.359 411.859Z" fill="white"/>
<path d="M591.312 411.86C591.312 409.736 593.038 408.006 595.166 408.006C597.295 408.006 599.02 409.731 599.02 411.86C599.02 413.988 597.295 415.714 595.166 415.714C593.038 415.709 591.312 413.983 591.312 411.86Z" fill="white"/>
<path d="M566.336 411.86C566.336 410.115 567.753 408.697 569.499 408.697C571.244 408.697 572.661 410.115 572.661 411.86C572.661 413.606 571.244 415.023 569.499 415.023C567.753 415.018 566.336 413.601 566.336 411.86Z" fill="white"/>
<path d="M542.797 411.859C542.797 411.297 543.254 410.84 543.816 410.84C544.378 410.84 544.831 411.297 544.831 411.859C544.831 412.421 544.373 412.879 543.816 412.879C543.254 412.874 542.797 412.416 542.797 411.859Z" fill="white"/>
<path d="M517.594 411.858C517.594 411.56 517.837 411.316 518.136 411.316C518.439 411.316 518.678 411.56 518.678 411.858C518.678 412.157 518.434 412.4 518.136 412.4C517.837 412.396 517.594 412.157 517.594 411.858Z" fill="white"/>
<path d="M487.863 411.86C487.863 409.319 489.922 407.26 492.463 407.26C495.004 407.26 497.063 409.319 497.063 411.86C497.063 414.401 495.004 416.46 492.463 416.46C489.922 416.455 487.863 414.396 487.863 411.86Z" fill="white"/>
<path d="M462.476 411.859C462.476 409.482 464.406 407.553 466.783 407.553C469.16 407.553 471.089 409.482 471.089 411.859C471.089 414.236 469.16 416.166 466.783 416.166C464.406 416.161 462.476 414.236 462.476 411.859Z" fill="white"/>
<path d="M437.352 411.859C437.352 409.785 439.037 408.1 441.111 408.1C443.185 408.1 444.871 409.785 444.871 411.859C444.871 413.933 443.185 415.619 441.111 415.619C439.032 415.619 437.352 413.933 437.352 411.859Z" fill="white"/>
<path d="M414.012 411.859C414.012 411.078 414.648 410.441 415.434 410.441C416.215 410.441 416.851 411.078 416.851 411.859C416.851 412.639 416.215 413.276 415.434 413.276C414.648 413.276 414.012 412.639 414.012 411.859Z" fill="white"/>
<path d="M386.363 411.859C386.363 409.989 387.88 408.473 389.75 408.473C391.62 408.473 393.136 409.989 393.136 411.859C393.136 413.729 391.62 415.251 389.75 415.251C387.88 415.246 386.363 413.729 386.363 411.859Z" fill="white"/>
<path d="M361.508 411.86C361.508 410.438 362.662 409.289 364.084 409.289C365.506 409.289 366.66 410.443 366.66 411.86C366.66 413.277 365.506 414.436 364.084 414.436C362.657 414.431 361.508 413.277 361.508 411.86Z" fill="white"/>
<path d="M334.496 411.859C334.496 409.706 336.247 407.955 338.4 407.955C340.553 407.955 342.303 409.706 342.303 411.859C342.303 414.012 340.558 415.762 338.4 415.762C336.247 415.757 334.496 414.012 334.496 411.859Z" fill="white"/>
<path d="M311.43 411.858C311.43 411.147 312.007 410.57 312.723 410.57C313.434 410.57 314.011 411.147 314.011 411.858C314.011 412.569 313.434 413.146 312.723 413.146C312.012 413.141 311.43 412.564 311.43 411.858Z" fill="white"/>
<path d="M282.379 411.859C282.379 409.283 284.472 407.189 287.048 407.189C289.624 407.189 291.718 409.283 291.718 411.859C291.718 414.435 289.629 416.528 287.048 416.528C284.472 416.523 282.379 414.43 282.379 411.859Z" fill="white"/>
<path d="M260.395 411.858C260.395 411.321 260.832 410.889 261.364 410.889C261.901 410.889 262.334 411.321 262.334 411.858C262.334 412.395 261.901 412.828 261.364 412.828C260.832 412.828 260.395 412.39 260.395 411.858Z" fill="white"/>
<path d="M234.125 411.859C234.125 410.994 234.826 410.293 235.691 410.293C236.557 410.293 237.258 410.994 237.258 411.859C237.258 412.725 236.557 413.426 235.691 413.426C234.826 413.421 234.125 412.72 234.125 411.859Z" fill="white"/>
<path d="M207.375 411.859C207.375 410.402 208.559 409.219 210.016 409.219C211.473 409.219 212.656 410.402 212.656 411.859C212.656 413.316 211.473 414.5 210.016 414.5C208.559 414.495 207.375 413.311 207.375 411.859Z" fill="white"/>
<path d="M183.82 411.859C183.82 411.576 184.049 411.342 184.337 411.342C184.621 411.342 184.855 411.576 184.855 411.859C184.855 412.147 184.621 412.376 184.337 412.376C184.054 412.371 183.82 412.142 183.82 411.859Z" fill="white"/>
<path d="M154.824 411.859C154.824 409.741 156.545 408.025 158.658 408.025C160.777 408.025 162.492 409.746 162.492 411.859C162.492 413.978 160.772 415.694 158.658 415.694C156.545 415.694 154.824 413.973 154.824 411.859Z" fill="white"/>
<path d="M128.195 411.859C128.195 409.214 130.344 407.07 132.984 407.07C135.63 407.07 137.773 409.214 137.773 411.859C137.773 414.5 135.63 416.648 132.984 416.648C130.339 416.648 128.195 414.5 128.195 411.859Z" fill="white"/>
<path d="M106.598 411.86C106.598 411.467 106.916 411.148 107.309 411.148C107.702 411.148 108.02 411.467 108.02 411.86C108.02 412.252 107.702 412.571 107.309 412.571C106.916 412.566 106.598 412.247 106.598 411.86Z" fill="white"/>
<path d="M78.1875 411.859C78.1875 409.96 79.7291 408.418 81.6287 408.418C83.5283 408.418 85.0699 409.96 85.0699 411.859C85.0699 413.759 83.5283 415.295 81.6287 415.295C79.7291 415.295 78.1875 413.754 78.1875 411.859Z" fill="white"/>
<path d="M51.4648 411.859C51.4648 409.382 53.4739 407.373 55.9504 407.373C58.4368 407.373 60.4309 409.382 60.4309 411.859C60.4309 414.335 58.4318 416.339 55.9504 416.339C53.4739 416.339 51.4648 414.33 51.4648 411.859Z" fill="white"/>
<path d="M29.1836 411.859C29.1836 411.257 29.6709 410.77 30.2727 410.77C30.8744 410.77 31.3617 411.257 31.3617 411.859C31.3617 412.46 30.8744 412.948 30.2727 412.948C29.6759 412.948 29.1836 412.46 29.1836 411.859Z" fill="white"/>
<path d="M4.60125 383.593C3.83046 383.593 3.06961 383.28 2.51762 382.733C1.96563 382.186 1.65234 381.42 1.65234 380.644C1.65234 379.863 1.96563 379.113 2.51762 378.561C3.06464 378.014 3.82548 377.695 4.60125 377.695C5.38199 377.695 6.14284 378.014 6.68985 378.561C7.23686 379.108 7.55015 379.863 7.55015 380.644C7.55015 381.42 7.23686 382.186 6.68985 382.733C6.13289 383.28 5.37702 383.593 4.60125 383.593Z" fill="white"/>
<path d="M643.535 380.645C643.535 378.994 644.868 377.656 646.524 377.656C648.175 377.656 649.513 378.994 649.513 380.645C649.513 382.296 648.175 383.634 646.524 383.634C644.868 383.634 643.535 382.296 643.535 380.645Z" fill="white"/>
<path d="M617.422 380.645C617.422 378.755 618.958 377.219 620.848 377.219C622.738 377.219 624.274 378.755 624.274 380.645C624.274 382.535 622.738 384.071 620.848 384.071C618.953 384.071 617.422 382.54 617.422 380.645Z" fill="white"/>
<path d="M592.109 380.645C592.109 378.959 593.477 377.592 595.163 377.592C596.849 377.592 598.216 378.959 598.216 380.645C598.216 382.331 596.849 383.698 595.163 383.698C593.482 383.698 592.109 382.331 592.109 380.645Z" fill="white"/>
<path d="M565.922 380.644C565.922 378.67 567.518 377.068 569.497 377.068C571.472 377.068 573.073 378.67 573.073 380.644C573.073 382.618 571.472 384.219 569.497 384.219C567.513 384.219 565.922 382.618 565.922 380.644Z" fill="white"/>
<path d="M539.859 380.644C539.859 378.461 541.63 376.686 543.818 376.686C546.001 376.686 547.776 378.461 547.776 380.644C547.776 382.827 546.006 384.602 543.818 384.602C541.63 384.602 539.859 382.827 539.859 380.644Z" fill="white"/>
<path d="M514.059 380.644C514.059 378.396 515.884 376.566 518.141 376.566C520.394 376.566 522.209 378.391 522.209 380.644C522.209 382.892 520.389 384.722 518.141 384.722C515.884 384.722 514.059 382.897 514.059 380.644Z" fill="white"/>
<path d="M489.793 380.645C489.793 379.173 490.991 377.975 492.463 377.975C493.935 377.975 495.134 379.173 495.134 380.645C495.134 382.117 493.935 383.315 492.463 383.315C490.991 383.315 489.793 382.117 489.793 380.645Z" fill="white"/>
<path d="M466.266 380.644C466.266 380.356 466.499 380.127 466.783 380.127C467.071 380.127 467.3 380.361 467.3 380.644C467.3 380.933 467.066 381.161 466.783 381.161C466.494 381.161 466.266 380.933 466.266 380.644Z" fill="white"/>
<path d="M439.82 380.644C439.82 379.933 440.397 379.352 441.113 379.352C441.824 379.352 442.406 379.928 442.406 380.644C442.406 381.356 441.829 381.932 441.113 381.932C440.397 381.937 439.82 381.361 439.82 380.644Z" fill="white"/>
<path d="M412.246 380.644C412.246 378.883 413.673 377.461 415.429 377.461C417.184 377.461 418.611 378.888 418.611 380.644C418.611 382.399 417.184 383.826 415.429 383.826C413.673 383.826 412.246 382.399 412.246 380.644Z" fill="white"/>
<path d="M388.684 380.644C388.684 380.057 389.161 379.58 389.753 379.58C390.34 379.58 390.817 380.057 390.817 380.644C390.817 381.231 390.34 381.708 389.753 381.708C389.161 381.708 388.684 381.231 388.684 380.644Z" fill="white"/>
<path d="M362.621 380.645C362.621 379.839 363.273 379.188 364.078 379.188C364.884 379.188 365.535 379.839 365.535 380.645C365.535 381.45 364.884 382.102 364.078 382.102C363.278 382.102 362.621 381.45 362.621 380.645Z" fill="white"/>
<path d="M334.676 380.645C334.676 378.591 336.347 376.92 338.4 376.92C340.454 376.92 342.125 378.591 342.125 380.645C342.125 382.698 340.459 384.369 338.4 384.369C336.347 384.369 334.676 382.698 334.676 380.645Z" fill="white"/>
<path d="M312.215 380.645C312.215 380.362 312.444 380.133 312.727 380.133C313.01 380.133 313.239 380.362 313.239 380.645C313.239 380.928 313.01 381.157 312.727 381.157C312.444 381.157 312.215 380.928 312.215 380.645Z" fill="white"/>
<path d="M283.91 380.645C283.91 378.914 285.312 377.512 287.043 377.512C288.774 377.512 290.176 378.914 290.176 380.645C290.176 382.375 288.774 383.778 287.043 383.778C285.317 383.778 283.91 382.375 283.91 380.645Z" fill="white"/>
<path d="M260.383 380.645C260.383 380.103 260.82 379.66 261.367 379.66C261.909 379.66 262.352 380.098 262.352 380.645C262.352 381.187 261.914 381.629 261.367 381.629C260.82 381.629 260.383 381.187 260.383 380.645Z" fill="white"/>
<path d="M233.258 380.644C233.258 379.301 234.347 378.207 235.695 378.207C237.037 378.207 238.131 379.301 238.131 380.644C238.131 381.991 237.042 383.08 235.695 383.08C234.347 383.08 233.258 381.991 233.258 380.644Z" fill="white"/>
<path d="M207.246 380.645C207.246 379.113 208.489 377.875 210.016 377.875C211.543 377.875 212.786 379.113 212.786 380.645C212.786 382.172 211.543 383.415 210.016 383.415C208.489 383.415 207.246 382.172 207.246 380.645Z" fill="white"/>
<path d="M181.551 380.644C181.551 379.108 182.799 377.859 184.331 377.859C185.872 377.859 187.115 379.103 187.115 380.644C187.115 382.181 185.872 383.424 184.331 383.424C182.799 383.429 181.551 382.181 181.551 380.644Z" fill="white"/>
<path d="M157.211 380.644C157.211 379.844 157.862 379.197 158.658 379.197C159.459 379.197 160.105 379.849 160.105 380.644C160.105 381.445 159.454 382.091 158.658 382.091C157.862 382.091 157.211 381.445 157.211 380.644Z" fill="white"/>
<path d="M128.992 380.644C128.992 378.441 130.782 376.65 132.985 376.65C135.188 376.65 136.979 378.441 136.979 380.644C136.979 382.847 135.188 384.637 132.985 384.637C130.777 384.637 128.992 382.852 128.992 380.644Z" fill="white"/>
<path d="M105.922 380.645C105.922 379.879 106.539 379.258 107.304 379.258C108.075 379.258 108.697 379.879 108.697 380.645C108.697 381.411 108.075 382.033 107.304 382.033C106.543 382.033 105.922 381.411 105.922 380.645Z" fill="white"/>
<path d="M79.6992 380.644C79.6992 379.58 80.5645 378.715 81.6287 378.715C82.6929 378.715 83.5582 379.58 83.5582 380.644C83.5582 381.709 82.6929 382.574 81.6287 382.574C80.5645 382.574 79.6992 381.709 79.6992 380.644Z" fill="white"/>
<path d="M51.6172 380.644C51.6172 378.252 53.5566 376.312 55.9485 376.312C58.3455 376.312 60.2799 378.252 60.2799 380.644C60.2799 383.031 58.3504 384.97 55.9485 384.97C53.5566 384.975 51.6172 383.036 51.6172 380.644Z" fill="white"/>
<path d="M27.2031 380.645C27.2031 378.944 28.5806 377.566 30.2813 377.566C31.9771 377.566 33.3595 378.944 33.3595 380.645C33.3595 382.34 31.982 383.723 30.2813 383.723C28.5806 383.723 27.2031 382.345 27.2031 380.645Z" fill="white"/>
<path d="M4.59989 354.035C3.38652 354.035 2.20795 353.547 1.35262 352.692C0.497286 351.837 0 350.648 0 349.435C0 348.222 0.497286 347.043 1.35262 346.183C2.20795 345.317 3.38652 344.83 4.59989 344.83C5.81327 344.83 6.99184 345.317 7.85712 346.183C8.71245 347.038 9.19979 348.217 9.19979 349.435C9.19979 350.648 8.71245 351.837 7.85712 352.692C7.00178 353.547 5.81327 354.035 4.59989 354.035Z" fill="white"/>
<path d="M644.141 349.436C644.141 348.118 645.205 347.049 646.528 347.049C647.845 347.049 648.915 348.118 648.915 349.436C648.915 350.754 647.845 351.823 646.528 351.823C645.205 351.823 644.141 350.754 644.141 349.436Z" fill="white"/>
<path d="M618.922 349.434C618.922 348.375 619.782 347.51 620.846 347.51C621.906 347.51 622.771 348.37 622.771 349.434C622.771 350.493 621.911 351.359 620.846 351.359C619.787 351.359 618.922 350.493 618.922 349.434Z" fill="white"/>
<path d="M591.137 349.435C591.137 347.212 592.942 345.402 595.165 345.402C597.388 345.402 599.193 347.207 599.193 349.435C599.193 351.658 597.388 353.463 595.165 353.463C592.937 353.463 591.137 351.658 591.137 349.435Z" fill="white"/>
<path d="M568.746 349.435C568.746 349.022 569.084 348.684 569.497 348.684C569.91 348.684 570.248 349.017 570.248 349.435C570.248 349.847 569.91 350.18 569.497 350.18C569.079 350.185 568.746 349.847 568.746 349.435Z" fill="white"/>
<path d="M542.918 349.435C542.918 348.938 543.321 348.535 543.818 348.535C544.315 348.535 544.718 348.938 544.718 349.435C544.718 349.933 544.315 350.335 543.818 350.335C543.316 350.335 542.918 349.933 542.918 349.435Z" fill="white"/>
<path d="M515.387 349.434C515.387 347.918 516.615 346.689 518.142 346.689C519.658 346.689 520.887 347.918 520.887 349.434C520.887 350.951 519.658 352.179 518.142 352.179C516.62 352.179 515.387 350.951 515.387 349.434Z" fill="white"/>
<path d="M488.305 349.435C488.305 347.142 490.17 345.277 492.462 345.277C494.755 345.277 496.614 347.137 496.614 349.435C496.614 351.727 494.755 353.587 492.462 353.587C490.17 353.592 488.305 351.727 488.305 349.435Z" fill="white"/>
<path d="M464.699 349.435C464.699 348.286 465.634 347.352 466.783 347.352C467.932 347.352 468.866 348.286 468.866 349.435C468.866 350.584 467.932 351.519 466.783 351.519C465.634 351.519 464.699 350.584 464.699 349.435Z" fill="white"/>
<path d="M439.512 349.435C439.512 348.55 440.228 347.834 441.113 347.834C441.993 347.834 442.709 348.55 442.709 349.435C442.709 350.315 441.993 351.032 441.113 351.032C440.228 351.032 439.512 350.315 439.512 349.435Z" fill="white"/>
<path d="M414.859 349.434C414.859 349.121 415.113 348.867 415.426 348.867C415.74 348.867 415.993 349.121 415.993 349.434C415.993 349.747 415.74 350.001 415.426 350.001C415.118 350.001 414.859 349.747 414.859 349.434Z" fill="white"/>
<path d="M385.828 349.434C385.828 347.271 387.584 345.516 389.757 345.516C391.92 345.516 393.67 347.271 393.67 349.434C393.67 351.597 391.925 353.353 389.757 353.353C387.584 353.353 385.828 351.597 385.828 349.434Z" fill="white"/>
<path d="M362.828 349.436C362.828 348.744 363.39 348.188 364.076 348.188C364.768 348.188 365.325 348.749 365.325 349.436C365.325 350.127 364.768 350.684 364.076 350.684C363.39 350.684 362.828 350.127 362.828 349.436Z" fill="white"/>
<path d="M334.129 349.435C334.129 347.078 336.038 345.168 338.396 345.168C340.753 345.168 342.662 347.083 342.662 349.435C342.662 351.792 340.748 353.701 338.396 353.701C336.038 353.701 334.129 351.792 334.129 349.435Z" fill="white"/>
<path d="M308.965 349.434C308.965 347.356 310.641 345.67 312.719 345.67C314.803 345.67 316.484 347.356 316.484 349.434C316.484 351.508 314.808 353.199 312.719 353.199C310.641 353.199 308.965 351.513 308.965 349.434Z" fill="white"/>
<path d="M286.074 349.436C286.074 348.899 286.512 348.461 287.049 348.461C287.586 348.461 288.024 348.899 288.024 349.436C288.024 349.973 287.586 350.405 287.049 350.405C286.512 350.405 286.074 349.973 286.074 349.436Z" fill="white"/>
<path d="M257.391 349.434C257.391 347.241 259.171 345.461 261.364 345.461C263.557 345.461 265.337 347.241 265.337 349.434C265.337 351.627 263.557 353.408 261.364 353.408C259.176 353.408 257.391 351.627 257.391 349.434Z" fill="white"/>
<path d="M234.133 349.435C234.133 348.574 234.834 347.873 235.694 347.873C236.555 347.873 237.256 348.574 237.256 349.435C237.256 350.295 236.555 350.996 235.694 350.996C234.834 350.996 234.133 350.295 234.133 349.435Z" fill="white"/>
<path d="M205.93 349.434C205.93 347.182 207.76 345.352 210.012 345.352C212.265 345.352 214.095 347.177 214.095 349.434C214.095 351.687 212.265 353.517 210.012 353.517C207.76 353.517 205.93 351.687 205.93 349.434Z" fill="white"/>
<path d="M183.141 349.436C183.141 348.774 183.673 348.242 184.334 348.242C184.995 348.242 185.528 348.779 185.528 349.436C185.528 350.097 184.995 350.629 184.334 350.629C183.673 350.629 183.141 350.097 183.141 349.436Z" fill="white"/>
<path d="M154.559 349.436C154.559 347.168 156.399 345.328 158.666 345.328C160.934 345.328 162.774 347.168 162.774 349.436C162.774 351.698 160.934 353.538 158.666 353.538C156.399 353.543 154.559 351.703 154.559 349.436Z" fill="white"/>
<path d="M128.125 349.436C128.125 346.755 130.303 344.582 132.979 344.582C135.659 344.582 137.832 346.76 137.832 349.436C137.832 352.116 135.659 354.289 132.979 354.289C130.303 354.289 128.125 352.116 128.125 349.436Z" fill="white"/>
<path d="M105.48 349.435C105.48 348.426 106.301 347.605 107.31 347.605C108.32 347.605 109.14 348.426 109.14 349.435C109.14 350.445 108.32 351.265 107.31 351.265C106.301 351.265 105.48 350.445 105.48 349.435Z" fill="white"/>
<path d="M76.8984 349.434C76.8984 346.824 79.0169 344.705 81.6276 344.705C84.2384 344.705 86.3568 346.824 86.3568 349.434C86.3568 352.045 84.2384 354.163 81.6276 354.163C79.0169 354.163 76.8984 352.045 76.8984 349.434Z" fill="white"/>
<path d="M53.8594 349.434C53.8594 348.281 54.7943 347.346 55.948 347.346C57.1067 347.346 58.0366 348.281 58.0366 349.434C58.0366 350.588 57.1017 351.523 55.948 351.523C54.7943 351.523 53.8594 350.588 53.8594 349.434Z" fill="white"/>
<path d="M28.6797 349.434C28.6797 348.549 29.3958 347.828 30.2809 347.828C31.1661 347.828 31.8822 348.544 31.8822 349.434C31.8822 350.32 31.1661 351.036 30.2809 351.036C29.3958 351.036 28.6797 350.32 28.6797 349.434Z" fill="white"/>
<path d="M4.60182 320.607C3.97524 320.607 3.36357 320.353 2.91602 319.911C2.46846 319.468 2.21484 318.851 2.21484 318.225C2.21484 317.598 2.46846 316.987 2.91602 316.539C3.3586 316.092 3.97026 315.838 4.60182 315.838C5.23337 315.838 5.84503 316.092 6.29259 316.539C6.73517 316.982 6.98879 317.598 6.98879 318.225C6.98879 318.851 6.73517 319.468 6.29259 319.911C5.84503 320.353 5.2284 320.607 4.60182 320.607Z" fill="white"/>
<path d="M645.395 318.226C645.395 317.599 645.902 317.092 646.528 317.092C647.155 317.092 647.662 317.599 647.662 318.226C647.662 318.852 647.155 319.359 646.528 319.359C645.902 319.359 645.395 318.852 645.395 318.226Z" fill="white"/>
<path d="M616.254 318.226C616.254 315.69 618.313 313.631 620.849 313.631C623.385 313.631 625.444 315.69 625.444 318.226C625.444 320.762 623.385 322.821 620.849 322.821C618.313 322.821 616.254 320.762 616.254 318.226Z" fill="white"/>
<path d="M593.043 318.226C593.043 317.057 593.993 316.107 595.161 316.107C596.335 316.107 597.28 317.057 597.28 318.226C597.28 319.394 596.335 320.344 595.161 320.344C593.998 320.344 593.043 319.394 593.043 318.226Z" fill="white"/>
<path d="M568.914 318.224C568.914 317.901 569.173 317.643 569.496 317.643C569.819 317.643 570.078 317.901 570.078 318.224C570.078 318.543 569.819 318.806 569.496 318.806C569.173 318.806 568.914 318.543 568.914 318.224Z" fill="white"/>
<path d="M541.938 318.225C541.938 317.186 542.778 316.346 543.817 316.346C544.852 316.346 545.697 317.186 545.697 318.225C545.697 319.26 544.857 320.105 543.817 320.105C542.778 320.105 541.938 319.26 541.938 318.225Z" fill="white"/>
<path d="M517.426 318.226C517.426 317.833 517.744 317.51 518.137 317.51C518.535 317.51 518.853 317.828 518.853 318.226C518.853 318.619 518.535 318.942 518.137 318.942C517.744 318.937 517.426 318.619 517.426 318.226Z" fill="white"/>
<path d="M489.383 318.225C489.383 316.524 490.76 315.146 492.461 315.146C494.162 315.146 495.539 316.524 495.539 318.225C495.539 319.925 494.162 321.303 492.461 321.303C490.765 321.303 489.383 319.925 489.383 318.225Z" fill="white"/>
<path d="M465.949 318.225C465.949 317.763 466.322 317.385 466.785 317.385C467.247 317.385 467.62 317.758 467.62 318.225C467.62 318.688 467.247 319.061 466.785 319.061C466.322 319.061 465.949 318.683 465.949 318.225Z" fill="white"/>
<path d="M436.621 318.225C436.621 315.748 438.625 313.734 441.112 313.734C443.588 313.734 445.602 315.748 445.602 318.225C445.602 320.701 443.593 322.715 441.112 322.715C438.625 322.71 436.621 320.701 436.621 318.225Z" fill="white"/>
<path d="M412.32 318.224C412.32 316.504 413.713 315.111 415.433 315.111C417.149 315.111 418.546 316.504 418.546 318.224C418.546 319.94 417.154 321.337 415.433 321.337C413.713 321.337 412.32 319.94 412.32 318.224Z" fill="white"/>
<path d="M387.77 318.225C387.77 317.131 388.66 316.246 389.749 316.246C390.843 316.246 391.728 317.131 391.728 318.225C391.728 319.319 390.843 320.204 389.749 320.204C388.66 320.204 387.77 319.314 387.77 318.225Z" fill="white"/>
<path d="M360.402 318.226C360.402 316.197 362.048 314.551 364.077 314.551C366.106 314.551 367.752 316.197 367.752 318.226C367.752 320.255 366.106 321.901 364.077 321.901C362.048 321.901 360.402 320.255 360.402 318.226Z" fill="white"/>
<path d="M337.016 318.224C337.016 317.458 337.632 316.842 338.398 316.842C339.159 316.842 339.781 317.458 339.781 318.224C339.781 318.985 339.164 319.607 338.398 319.607C337.632 319.607 337.016 318.985 337.016 318.224Z" fill="white"/>
<path d="M309.152 318.226C309.152 316.252 310.749 314.65 312.728 314.65C314.702 314.65 316.303 316.252 316.303 318.226C316.303 320.2 314.702 321.801 312.728 321.801C310.744 321.801 309.152 320.2 309.152 318.226Z" fill="white"/>
<path d="M284.488 318.226C284.488 316.814 285.632 315.67 287.044 315.67C288.457 315.67 289.6 316.819 289.6 318.226C289.6 319.638 288.457 320.782 287.044 320.782C285.637 320.782 284.488 319.638 284.488 318.226Z" fill="white"/>
<path d="M256.641 318.225C256.641 315.615 258.759 313.496 261.37 313.496C263.991 313.496 266.099 315.615 266.099 318.225C266.099 320.836 263.991 322.954 261.37 322.954C258.759 322.954 256.641 320.836 256.641 318.225Z" fill="white"/>
<path d="M233.957 318.226C233.957 317.266 234.733 316.49 235.693 316.49C236.652 316.49 237.428 317.266 237.428 318.226C237.428 319.186 236.652 319.961 235.693 319.961C234.738 319.961 233.957 319.181 233.957 318.226Z" fill="white"/>
<path d="M205.34 318.225C205.34 315.644 207.433 313.551 210.014 313.551C212.595 313.551 214.689 315.644 214.689 318.225C214.689 320.806 212.595 322.9 210.014 322.9C207.433 322.895 205.34 320.801 205.34 318.225Z" fill="white"/>
<path d="M180.652 318.225C180.652 316.191 182.298 314.535 184.342 314.535C186.381 314.535 188.032 316.191 188.032 318.225C188.032 320.259 186.381 321.915 184.342 321.915C182.298 321.91 180.652 320.259 180.652 318.225Z" fill="white"/>
<path d="M156.035 318.224C156.035 316.772 157.214 315.594 158.666 315.594C160.118 315.594 161.296 316.772 161.296 318.224C161.296 319.676 160.118 320.855 158.666 320.855C157.214 320.855 156.035 319.676 156.035 318.224Z" fill="white"/>
<path d="M132.477 318.225C132.477 317.946 132.7 317.723 132.979 317.723C133.257 317.723 133.481 317.946 133.481 318.225C133.481 318.503 133.257 318.727 132.979 318.727C132.705 318.727 132.477 318.498 132.477 318.225Z" fill="white"/>
<path d="M103.629 318.226C103.629 316.192 105.27 314.541 107.314 314.541C109.348 314.541 110.999 316.192 110.999 318.226C110.999 320.26 109.348 321.911 107.314 321.911C105.27 321.906 103.629 320.26 103.629 318.226Z" fill="white"/>
<path d="M79.0039 318.225C79.0039 316.773 80.1775 315.6 81.6296 315.6C83.0767 315.6 84.2552 316.773 84.2552 318.225C84.2552 319.672 83.0767 320.851 81.6296 320.851C80.1825 320.851 79.0039 319.672 79.0039 318.225Z" fill="white"/>
<path d="M51.2539 318.226C51.2539 315.635 53.3574 313.531 55.9483 313.531C58.5391 313.531 60.6427 315.635 60.6427 318.226C60.6427 320.816 58.5391 322.92 55.9483 322.92C53.3574 322.92 51.2539 320.816 51.2539 318.226Z" fill="white"/>
<path d="M29.0469 318.225C29.0469 317.544 29.5989 316.992 30.2801 316.992C30.9614 316.992 31.5134 317.544 31.5134 318.225C31.5134 318.902 30.9614 319.454 30.2801 319.454C29.5989 319.454 29.0469 318.902 29.0469 318.225Z" fill="white"/>
<path d="M4.59823 290.656C3.64344 290.656 2.70357 290.268 2.02229 289.592C1.34598 288.916 0.953125 287.976 0.953125 287.011C0.953125 286.056 1.34598 285.117 2.01732 284.44C2.70357 283.764 3.64344 283.371 4.59823 283.371C5.55799 283.371 6.50284 283.764 7.17914 284.44C7.85545 285.117 8.24334 286.051 8.24334 287.011C8.24334 287.971 7.85545 288.911 7.17914 289.592C6.49786 290.273 5.55799 290.656 4.59823 290.656Z" fill="white"/>
<path d="M641.758 287.015C641.758 284.384 643.896 282.246 646.527 282.246C649.157 282.246 651.296 284.384 651.296 287.015C651.296 289.646 649.162 291.784 646.527 291.784C643.896 291.779 641.758 289.646 641.758 287.015Z" fill="white"/>
<path d="M617.938 287.015C617.938 285.408 619.24 284.105 620.847 284.105C622.453 284.105 623.756 285.408 623.756 287.015C623.756 288.621 622.453 289.924 620.847 289.924C619.24 289.919 617.938 288.616 617.938 287.015Z" fill="white"/>
<path d="M594.535 287.016C594.535 286.668 594.819 286.385 595.167 286.385C595.515 286.385 595.793 286.668 595.793 287.016C595.793 287.364 595.51 287.643 595.167 287.643C594.819 287.643 594.535 287.359 594.535 287.016Z" fill="white"/>
<path d="M564.738 287.015C564.738 284.389 566.872 282.256 569.497 282.256C572.123 282.256 574.256 284.389 574.256 287.015C574.256 289.641 572.123 291.774 569.497 291.774C566.867 291.769 564.738 289.641 564.738 287.015Z" fill="white"/>
<path d="M541.871 287.016C541.871 285.941 542.741 285.076 543.811 285.076C544.88 285.076 545.75 285.946 545.75 287.016C545.75 288.085 544.88 288.955 543.811 288.955C542.741 288.955 541.871 288.085 541.871 287.016Z" fill="white"/>
<path d="M515.168 287.016C515.168 285.37 516.496 284.037 518.137 284.037C519.788 284.037 521.12 285.37 521.12 287.016C521.12 288.657 519.788 289.99 518.137 289.99C516.496 289.99 515.168 288.657 515.168 287.016Z" fill="white"/>
<path d="M491.398 287.015C491.398 286.429 491.876 285.951 492.463 285.951C493.049 285.951 493.527 286.429 493.527 287.015C493.527 287.602 493.049 288.08 492.463 288.08C491.876 288.08 491.398 287.602 491.398 287.015Z" fill="white"/>
<path d="M465.117 287.016C465.117 286.096 465.863 285.35 466.783 285.35C467.703 285.35 468.449 286.096 468.449 287.016C468.449 287.936 467.703 288.681 466.783 288.681C465.863 288.676 465.117 287.931 465.117 287.016Z" fill="white"/>
<path d="M436.406 287.016C436.406 284.42 438.505 282.316 441.106 282.316C443.701 282.316 445.81 284.42 445.81 287.016C445.81 289.612 443.701 291.715 441.106 291.715C438.505 291.715 436.406 289.607 436.406 287.016Z" fill="white"/>
<path d="M413.996 287.016C413.996 286.225 414.638 285.584 415.428 285.584C416.219 285.584 416.86 286.225 416.86 287.016C416.86 287.807 416.219 288.448 415.428 288.448C414.643 288.448 413.996 287.807 413.996 287.016Z" fill="white"/>
<path d="M385.098 287.015C385.098 284.449 387.181 282.365 389.757 282.365C392.323 282.365 394.397 284.449 394.397 287.015C394.397 289.581 392.323 291.664 389.757 291.664C387.181 291.664 385.098 289.581 385.098 287.015Z" fill="white"/>
<path d="M360.969 287.016C360.969 285.301 362.361 283.908 364.077 283.908C365.792 283.908 367.185 285.301 367.185 287.016C367.185 288.732 365.792 290.124 364.077 290.124C362.361 290.119 360.969 288.727 360.969 287.016Z" fill="white"/>
<path d="M336.418 287.016C336.418 285.922 337.303 285.037 338.397 285.037C339.491 285.037 340.376 285.922 340.376 287.016C340.376 288.11 339.491 288.996 338.397 288.996C337.303 288.996 336.418 288.105 336.418 287.016Z" fill="white"/>
<path d="M308.629 287.015C308.629 284.758 310.459 282.928 312.722 282.928C314.979 282.928 316.799 284.758 316.799 287.015C316.799 289.268 314.979 291.098 312.722 291.098C310.459 291.098 308.629 289.268 308.629 287.015Z" fill="white"/>
<path d="M285.109 287.016C285.109 285.946 285.98 285.076 287.044 285.076C288.113 285.076 288.978 285.946 288.978 287.016C288.978 288.085 288.108 288.95 287.044 288.95C285.98 288.95 285.109 288.08 285.109 287.016Z" fill="white"/>
<path d="M259.137 287.016C259.137 285.788 260.136 284.783 261.365 284.783C262.593 284.783 263.592 285.783 263.592 287.016C263.592 288.244 262.593 289.244 261.365 289.244C260.136 289.244 259.137 288.244 259.137 287.016Z" fill="white"/>
<path d="M232.18 287.016C232.18 285.076 233.756 283.5 235.696 283.5C237.635 283.5 239.211 285.076 239.211 287.016C239.211 288.955 237.635 290.532 235.696 290.532C233.756 290.532 232.18 288.955 232.18 287.016Z" fill="white"/>
<path d="M206.246 287.016C206.246 284.932 207.937 283.246 210.016 283.246C212.099 283.246 213.785 284.937 213.785 287.016C213.785 289.094 212.094 290.785 210.016 290.785C207.937 290.785 206.246 289.094 206.246 287.016Z" fill="white"/>
<path d="M181.961 287.015C181.961 285.702 183.02 284.633 184.338 284.633C185.651 284.633 186.725 285.702 186.725 287.015C186.725 288.328 185.656 289.397 184.338 289.397C183.025 289.392 181.961 288.323 181.961 287.015Z" fill="white"/>
<path d="M154.258 287.015C154.258 284.584 156.232 282.609 158.664 282.609C161.096 282.609 163.07 284.584 163.07 287.015C163.07 289.447 161.096 291.421 158.664 291.421C156.232 291.416 154.258 289.442 154.258 287.015Z" fill="white"/>
<path d="M129.578 287.015C129.578 285.135 131.105 283.613 132.98 283.613C134.859 283.613 136.381 285.14 136.381 287.015C136.381 288.889 134.854 290.416 132.98 290.416C131.105 290.416 129.578 288.889 129.578 287.015Z" fill="white"/>
<path d="M104.48 287.016C104.48 285.455 105.744 284.182 107.31 284.182C108.872 284.182 110.14 285.45 110.14 287.016C110.14 288.578 108.872 289.846 107.31 289.846C105.744 289.846 104.48 288.578 104.48 287.016Z" fill="white"/>
<path d="M77.4922 287.016C77.4922 284.729 79.3471 282.879 81.6346 282.879C83.9221 282.879 85.772 284.734 85.772 287.016C85.772 289.299 83.9171 291.154 81.6346 291.154C79.3471 291.154 77.4922 289.299 77.4922 287.016Z" fill="white"/>
<path d="M52.8828 287.016C52.8828 285.32 54.2553 283.947 55.9511 283.947C57.6518 283.947 59.0143 285.32 59.0143 287.016C59.0143 288.706 57.6468 290.079 55.9511 290.079C54.2603 290.079 52.8828 288.706 52.8828 287.016Z" fill="white"/>
<path d="M28.4141 287.015C28.4141 285.986 29.2495 285.15 30.2789 285.15C31.3083 285.15 32.1437 285.986 32.1437 287.015C32.1437 288.045 31.3083 288.88 30.2789 288.88C29.2495 288.875 28.4141 288.04 28.4141 287.015Z" fill="white"/>
<path d="M4.60097 257.66C4.11363 257.66 3.63624 257.461 3.28814 257.118C2.94501 256.775 2.74609 256.292 2.74609 255.805C2.74609 255.313 2.94501 254.84 3.28814 254.492C3.63624 254.149 4.11363 253.945 4.60097 253.945C5.09328 253.945 5.57068 254.144 5.91878 254.492C6.26191 254.84 6.46082 255.313 6.46082 255.805C6.46082 256.292 6.26191 256.775 5.91878 257.118C5.57068 257.461 5.08831 257.66 4.60097 257.66Z" fill="white"/>
<path d="M642.246 255.8C642.246 253.433 644.156 251.514 646.533 251.514C648.895 251.514 650.819 253.433 650.819 255.8C650.819 258.162 648.9 260.087 646.533 260.087C644.156 260.087 642.246 258.167 642.246 255.8Z" fill="white"/>
<path d="M617.652 255.8C617.652 254.04 619.084 252.607 620.845 252.607C622.605 252.607 624.037 254.04 624.037 255.8C624.037 257.56 622.605 258.993 620.845 258.993C619.084 258.993 617.652 257.565 617.652 255.8Z" fill="white"/>
<path d="M592.504 255.8C592.504 254.328 593.697 253.135 595.164 253.135C596.636 253.135 597.825 254.328 597.825 255.8C597.825 257.267 596.631 258.461 595.164 258.461C593.692 258.466 592.504 257.272 592.504 255.8Z" fill="white"/>
<path d="M567.145 255.801C567.145 254.503 568.199 253.449 569.497 253.449C570.795 253.449 571.844 254.503 571.844 255.801C571.844 257.099 570.79 258.149 569.497 258.149C568.199 258.154 567.145 257.099 567.145 255.801Z" fill="white"/>
<path d="M541.289 255.801C541.289 254.408 542.418 253.279 543.81 253.279C545.203 253.279 546.332 254.408 546.332 255.801C546.332 257.193 545.203 258.322 543.81 258.322C542.418 258.327 541.289 257.193 541.289 255.801Z" fill="white"/>
<path d="M517.43 255.8C517.43 255.407 517.748 255.084 518.141 255.084C518.534 255.084 518.857 255.402 518.857 255.8C518.857 256.193 518.539 256.511 518.141 256.511C517.748 256.516 517.43 256.193 517.43 255.8Z" fill="white"/>
<path d="M490.508 255.801C490.508 254.722 491.383 253.842 492.462 253.842C493.541 253.842 494.421 254.722 494.421 255.801C494.421 256.88 493.546 257.755 492.462 257.755C491.383 257.76 490.508 256.885 490.508 255.801Z" fill="white"/>
<path d="M462.078 255.8C462.078 253.204 464.187 251.096 466.777 251.096C469.373 251.096 471.482 253.204 471.482 255.8C471.482 258.396 469.373 260.499 466.777 260.499C464.187 260.504 462.078 258.396 462.078 255.8Z" fill="white"/>
<path d="M440.602 255.801C440.602 255.518 440.83 255.289 441.114 255.289C441.392 255.289 441.626 255.518 441.626 255.801C441.626 256.085 441.397 256.313 441.114 256.313C440.83 256.313 440.602 256.085 440.602 255.801Z" fill="white"/>
<path d="M410.566 255.801C410.566 253.116 412.745 250.938 415.43 250.938C418.115 250.938 420.293 253.116 420.293 255.801C420.293 258.486 418.115 260.664 415.43 260.664C412.749 260.664 410.566 258.486 410.566 255.801Z" fill="white"/>
<path d="M388.895 255.801C388.895 255.328 389.277 254.945 389.75 254.945C390.222 254.945 390.605 255.328 390.605 255.801C390.605 256.273 390.222 256.656 389.75 256.656C389.277 256.656 388.895 256.273 388.895 255.801Z" fill="white"/>
<path d="M362.141 255.8C362.141 254.726 363.011 253.855 364.085 253.855C365.159 253.855 366.029 254.726 366.029 255.8C366.029 256.874 365.159 257.744 364.085 257.744C363.011 257.744 362.141 256.874 362.141 255.8Z" fill="white"/>
<path d="M336.961 255.8C336.961 255.01 337.602 254.363 338.398 254.363C339.189 254.363 339.835 255.005 339.835 255.8C339.835 256.591 339.194 257.238 338.398 257.238C337.607 257.238 336.961 256.596 336.961 255.8Z" fill="white"/>
<path d="M312.121 255.801C312.121 255.468 312.39 255.199 312.723 255.199C313.056 255.199 313.325 255.468 313.325 255.801C313.325 256.134 313.056 256.403 312.723 256.403C312.39 256.403 312.121 256.134 312.121 255.801Z" fill="white"/>
<path d="M285.734 255.801C285.734 255.075 286.321 254.488 287.047 254.488C287.773 254.488 288.36 255.075 288.36 255.801C288.36 256.527 287.773 257.114 287.047 257.114C286.321 257.114 285.734 256.527 285.734 255.801Z" fill="white"/>
<path d="M259.5 255.801C259.5 254.767 260.34 253.932 261.37 253.932C262.404 253.932 263.24 254.767 263.24 255.801C263.24 256.831 262.404 257.666 261.37 257.666C260.335 257.671 259.5 256.836 259.5 255.801Z" fill="white"/>
<path d="M231.383 255.802C231.383 253.42 233.312 251.49 235.694 251.49C238.076 251.49 240.006 253.42 240.006 255.802C240.006 258.179 238.076 260.113 235.694 260.113C233.317 260.113 231.383 258.184 231.383 255.802Z" fill="white"/>
<path d="M206.598 255.801C206.598 253.916 208.129 252.385 210.014 252.385C211.899 252.385 213.43 253.916 213.43 255.801C213.43 257.686 211.899 259.217 210.014 259.217C208.129 259.217 206.598 257.686 206.598 255.801Z" fill="white"/>
<path d="M181.324 255.802C181.324 254.141 182.672 252.793 184.333 252.793C185.999 252.793 187.341 254.141 187.341 255.802C187.341 257.462 185.999 258.81 184.333 258.81C182.672 258.81 181.324 257.462 181.324 255.802Z" fill="white"/>
<path d="M154.766 255.8C154.766 253.647 156.511 251.906 158.659 251.906C160.808 251.906 162.553 253.652 162.553 255.8C162.553 257.948 160.808 259.694 158.659 259.694C156.511 259.699 154.766 257.948 154.766 255.8Z" fill="white"/>
<path d="M131.594 255.802C131.594 255.036 132.215 254.414 132.981 254.414C133.747 254.414 134.369 255.036 134.369 255.802C134.369 256.567 133.747 257.189 132.981 257.189C132.215 257.194 131.594 256.567 131.594 255.802Z" fill="white"/>
<path d="M102.523 255.801C102.523 253.161 104.657 251.018 107.302 251.018C109.953 251.018 112.096 253.161 112.096 255.801C112.096 258.442 109.953 260.585 107.302 260.585C104.657 260.59 102.523 258.442 102.523 255.801Z" fill="white"/>
<path d="M77.3164 255.801C77.3164 253.419 79.2508 251.484 81.6279 251.484C84.0099 251.484 85.9443 253.419 85.9443 255.801C85.9443 258.183 84.0099 260.117 81.6279 260.117C79.2459 260.117 77.3164 258.183 77.3164 255.801Z" fill="white"/>
<path d="M51.5391 255.802C51.5391 253.365 53.5133 251.391 55.95 251.391C58.3917 251.391 60.3609 253.365 60.3609 255.802C60.3609 258.233 58.3917 260.207 55.95 260.207C53.5183 260.212 51.5391 258.238 51.5391 255.802Z" fill="white"/>
<path d="M26.082 255.801C26.082 253.483 27.9618 251.604 30.2791 251.604C32.5965 251.604 34.4762 253.483 34.4762 255.801C34.4762 258.113 32.5965 259.993 30.2791 259.993C27.9618 259.998 26.082 258.118 26.082 255.801Z" fill="white"/>
<path d="M4.59798 225.854C4.2648 225.854 3.94156 225.72 3.70784 225.486C3.47411 225.252 3.33984 224.924 3.33984 224.596C3.33984 224.263 3.47411 223.935 3.70784 223.706C3.94156 223.472 4.2648 223.338 4.59798 223.338C4.93116 223.338 5.25439 223.472 5.48812 223.706C5.72184 223.945 5.85611 224.268 5.85611 224.596C5.85611 224.929 5.72184 225.252 5.48812 225.486C5.25439 225.715 4.93116 225.854 4.59798 225.854Z" fill="white"/>
<path d="M644.93 224.59C644.93 223.71 645.641 222.994 646.526 222.994C647.406 222.994 648.122 223.71 648.122 224.59C648.122 225.471 647.406 226.187 646.526 226.187C645.641 226.187 644.93 225.471 644.93 224.59Z" fill="white"/>
<path d="M619.75 224.592C619.75 223.99 620.237 223.498 620.844 223.498C621.446 223.498 621.933 223.985 621.933 224.592C621.933 225.194 621.446 225.686 620.844 225.686C620.242 225.686 619.75 225.194 619.75 224.592Z" fill="white"/>
<path d="M593.68 224.59C593.68 223.77 594.346 223.104 595.167 223.104C595.992 223.104 596.654 223.77 596.654 224.59C596.654 225.411 595.992 226.072 595.167 226.072C594.346 226.077 593.68 225.411 593.68 224.59Z" fill="white"/>
<path d="M567.312 224.591C567.312 223.388 568.292 222.408 569.496 222.408C570.699 222.408 571.679 223.383 571.679 224.591C571.679 225.795 570.704 226.774 569.496 226.774C568.292 226.774 567.312 225.795 567.312 224.591Z" fill="white"/>
<path d="M541.641 224.592C541.641 223.389 542.615 222.414 543.819 222.414C545.022 222.414 545.997 223.389 545.997 224.592C545.997 225.796 545.022 226.77 543.819 226.77C542.615 226.77 541.641 225.796 541.641 224.592Z" fill="white"/>
<path d="M515.27 224.591C515.27 223.01 516.553 221.727 518.139 221.727C519.72 221.727 521.003 223.01 521.003 224.591C521.003 226.172 519.72 227.455 518.139 227.455C516.558 227.455 515.27 226.172 515.27 224.591Z" fill="white"/>
<path d="M489.137 224.591C489.137 222.756 490.629 221.264 492.464 221.264C494.299 221.264 495.79 222.756 495.79 224.591C495.79 226.426 494.299 227.912 492.464 227.912C490.629 227.917 489.137 226.426 489.137 224.591Z" fill="white"/>
<path d="M464.645 224.591C464.645 223.408 465.604 222.453 466.783 222.453C467.966 222.453 468.921 223.413 468.921 224.591C468.921 225.77 467.961 226.73 466.783 226.73C465.599 226.73 464.645 225.77 464.645 224.591Z" fill="white"/>
<path d="M440.375 224.59C440.375 224.183 440.703 223.859 441.106 223.859C441.509 223.859 441.842 224.188 441.842 224.59C441.842 224.993 441.514 225.321 441.106 225.321C440.703 225.326 440.375 224.993 440.375 224.59Z" fill="white"/>
<path d="M412.438 224.591C412.438 222.935 413.78 221.598 415.431 221.598C417.082 221.598 418.425 222.94 418.425 224.591C418.425 226.242 417.082 227.585 415.431 227.585C413.775 227.585 412.438 226.242 412.438 224.591Z" fill="white"/>
<path d="M387.805 224.592C387.805 223.518 388.675 222.643 389.749 222.643C390.828 222.643 391.693 223.513 391.693 224.592C391.693 225.666 390.828 226.536 389.749 226.536C388.68 226.536 387.805 225.666 387.805 224.592Z" fill="white"/>
<path d="M363.551 224.591C363.551 224.297 363.789 224.059 364.083 224.059C364.376 224.059 364.61 224.297 364.61 224.591C364.61 224.884 364.371 225.118 364.083 225.118C363.785 225.123 363.551 224.884 363.551 224.591Z" fill="white"/>
<path d="M335.609 224.591C335.609 223.049 336.858 221.801 338.399 221.801C339.941 221.801 341.189 223.049 341.189 224.591C341.189 226.127 339.941 227.38 338.399 227.38C336.858 227.38 335.609 226.132 335.609 224.591Z" fill="white"/>
<path d="M309.352 224.59C309.352 222.731 310.858 221.219 312.728 221.219C314.588 221.219 316.1 222.726 316.1 224.59C316.1 226.45 314.588 227.957 312.728 227.957C310.858 227.957 309.352 226.45 309.352 224.59Z" fill="white"/>
<path d="M282.605 224.591C282.605 222.14 284.595 220.15 287.046 220.15C289.498 220.15 291.487 222.14 291.487 224.591C291.487 227.043 289.498 229.032 287.046 229.032C284.595 229.032 282.605 227.043 282.605 224.591Z" fill="white"/>
<path d="M257.105 224.592C257.105 222.24 259.015 220.33 261.367 220.33C263.729 220.33 265.629 222.24 265.629 224.592C265.629 226.944 263.729 228.854 261.367 228.854C259.015 228.854 257.105 226.944 257.105 224.592Z" fill="white"/>
<path d="M230.91 224.592C230.91 221.951 233.044 219.803 235.694 219.803C238.335 219.803 240.483 221.946 240.483 224.592C240.483 227.232 238.34 229.375 235.694 229.375C233.044 229.375 230.91 227.232 230.91 224.592Z" fill="white"/>
<path d="M206.383 224.591C206.383 222.587 208.009 220.961 210.013 220.961C212.017 220.961 213.643 222.587 213.643 224.591C213.643 226.595 212.017 228.221 210.013 228.221C208.009 228.221 206.383 226.595 206.383 224.591Z" fill="white"/>
<path d="M182.535 224.591C182.535 223.597 183.341 222.791 184.335 222.791C185.335 222.791 186.14 223.597 186.14 224.591C186.14 225.586 185.335 226.391 184.335 226.391C183.346 226.391 182.535 225.586 182.535 224.591Z" fill="white"/>
<path d="M156.977 224.592C156.977 223.662 157.732 222.906 158.657 222.906C159.587 222.906 160.343 223.662 160.343 224.592C160.343 225.522 159.587 226.278 158.657 226.278C157.732 226.278 156.977 225.522 156.977 224.592Z" fill="white"/>
<path d="M132.188 224.591C132.188 224.153 132.546 223.795 132.983 223.795C133.421 223.795 133.779 224.148 133.779 224.591C133.779 225.028 133.421 225.386 132.983 225.386C132.541 225.386 132.188 225.028 132.188 224.591Z" fill="white"/>
<path d="M102.438 224.591C102.438 221.901 104.611 219.713 107.311 219.713C110.001 219.713 112.184 221.896 112.184 224.591C112.184 227.282 110.001 229.465 107.311 229.465C104.611 229.465 102.438 227.282 102.438 224.591Z" fill="white"/>
<path d="M77.0703 224.591C77.0703 222.075 79.1142 220.031 81.6304 220.031C84.1467 220.031 86.1905 222.075 86.1905 224.591C86.1905 227.108 84.1467 229.151 81.6304 229.151C79.1142 229.151 77.0703 227.108 77.0703 224.591Z" fill="white"/>
<path d="M51.4258 224.592C51.4258 222.095 53.4547 220.066 55.9511 220.066C58.4574 220.066 60.4714 222.095 60.4714 224.592C60.4714 227.088 58.4524 229.112 55.9511 229.112C53.4547 229.112 51.4258 227.088 51.4258 224.592Z" fill="white"/>
<path d="M29.0547 224.591C29.0547 223.914 29.6017 223.367 30.278 223.367C30.9493 223.367 31.4964 223.914 31.4964 224.591C31.4964 225.262 30.9493 225.814 30.278 225.814C29.6017 225.814 29.0547 225.262 29.0547 224.591Z" fill="white"/>
<path d="M4.601 195.351C4.07885 195.351 3.57659 195.142 3.21357 194.774C2.84558 194.406 2.63672 193.899 2.63672 193.381C2.63672 192.864 2.85055 192.357 3.21357 191.989C3.58156 191.621 4.08879 191.412 4.601 191.412C5.11818 191.412 5.62541 191.621 5.9934 191.989C6.36139 192.357 6.57025 192.864 6.57025 193.381C6.57025 193.899 6.36139 194.406 5.9934 194.774C5.62541 195.137 5.11818 195.351 4.601 195.351Z" fill="white"/>
<path d="M642.047 193.382C642.047 190.91 644.061 188.906 646.532 188.906C649.004 188.906 651.008 190.91 651.008 193.382C651.008 195.848 649.004 197.857 646.532 197.857C644.056 197.857 642.047 195.848 642.047 193.382Z" fill="white"/>
<path d="M618.453 193.382C618.453 192.059 619.522 190.99 620.845 190.99C622.163 190.99 623.237 192.059 623.237 193.382C623.237 194.705 622.163 195.774 620.845 195.774C619.522 195.774 618.453 194.7 618.453 193.382Z" fill="white"/>
<path d="M593.641 193.381C593.641 192.541 594.322 191.859 595.162 191.859C596.003 191.859 596.684 192.541 596.684 193.381C596.684 194.221 596.003 194.903 595.162 194.903C594.327 194.903 593.641 194.221 593.641 193.381Z" fill="white"/>
<path d="M567.145 193.382C567.145 192.084 568.199 191.03 569.497 191.03C570.795 191.03 571.849 192.084 571.849 193.382C571.849 194.68 570.795 195.734 569.497 195.734C568.199 195.734 567.145 194.68 567.145 193.382Z" fill="white"/>
<path d="M542.457 193.382C542.457 192.631 543.069 192.02 543.82 192.02C544.57 192.02 545.182 192.631 545.182 193.382C545.182 194.133 544.57 194.745 543.82 194.745C543.064 194.74 542.457 194.133 542.457 193.382Z" fill="white"/>
<path d="M514.961 193.381C514.961 191.625 516.383 190.203 518.139 190.203C519.899 190.203 521.321 191.625 521.321 193.381C521.321 195.131 519.899 196.558 518.139 196.558C516.383 196.558 514.961 195.131 514.961 193.381Z" fill="white"/>
<path d="M488.414 193.382C488.414 191.149 490.229 189.334 492.462 189.334C494.695 189.334 496.51 191.149 496.51 193.382C496.51 195.615 494.7 197.43 492.462 197.43C490.229 197.43 488.414 195.615 488.414 193.382Z" fill="white"/>
<path d="M462.129 193.381C462.129 190.81 464.217 188.727 466.783 188.727C469.354 188.727 471.438 190.815 471.438 193.381C471.438 195.952 469.354 198.036 466.783 198.036C464.213 198.036 462.129 195.952 462.129 193.381Z" fill="white"/>
<path d="M438.82 193.382C438.82 192.119 439.845 191.09 441.113 191.09C442.376 191.09 443.405 192.119 443.405 193.382C443.405 194.645 442.381 195.675 441.113 195.675C439.845 195.675 438.82 194.645 438.82 193.382Z" fill="white"/>
<path d="M412.645 193.38C412.645 191.844 413.893 190.596 415.429 190.596C416.966 190.596 418.214 191.844 418.214 193.38C418.214 194.917 416.966 196.165 415.429 196.165C413.893 196.165 412.645 194.917 412.645 193.38Z" fill="white"/>
<path d="M387.789 193.381C387.789 192.297 388.669 191.422 389.748 191.422C390.832 191.422 391.708 192.302 391.708 193.381C391.708 194.46 390.832 195.34 389.748 195.34C388.669 195.34 387.789 194.46 387.789 193.381Z" fill="white"/>
<path d="M362.527 193.382C362.527 192.526 363.224 191.83 364.079 191.83C364.934 191.83 365.63 192.526 365.63 193.382C365.63 194.237 364.934 194.933 364.079 194.933C363.224 194.933 362.527 194.237 362.527 193.382Z" fill="white"/>
<path d="M335.539 193.381C335.539 191.804 336.817 190.521 338.398 190.521C339.975 190.521 341.258 191.804 341.258 193.381C341.258 194.957 339.98 196.24 338.398 196.24C336.822 196.235 335.539 194.957 335.539 193.381Z" fill="white"/>
<path d="M308.477 193.381C308.477 191.034 310.371 189.129 312.728 189.129C315.076 189.129 316.97 191.034 316.97 193.381C316.97 195.728 315.076 197.632 312.728 197.632C310.371 197.632 308.477 195.723 308.477 193.381Z" fill="white"/>
<path d="M284.242 193.382C284.242 191.835 285.495 190.582 287.042 190.582C288.588 190.582 289.842 191.835 289.842 193.382C289.842 194.928 288.588 196.181 287.042 196.181C285.5 196.181 284.242 194.928 284.242 193.382Z" fill="white"/>
<path d="M260.488 193.382C260.488 192.9 260.881 192.502 261.364 192.502C261.851 192.502 262.239 192.895 262.239 193.382C262.239 193.865 261.846 194.257 261.364 194.257C260.881 194.257 260.488 193.865 260.488 193.382Z" fill="white"/>
<path d="M234.801 193.381C234.801 192.884 235.199 192.486 235.696 192.486C236.193 192.486 236.591 192.884 236.591 193.381C236.591 193.874 236.193 194.277 235.696 194.277C235.204 194.277 234.801 193.874 234.801 193.381Z" fill="white"/>
<path d="M208.914 193.382C208.914 192.775 209.406 192.283 210.013 192.283C210.62 192.283 211.112 192.775 211.112 193.382C211.112 193.989 210.62 194.481 210.013 194.481C209.406 194.481 208.914 193.989 208.914 193.382Z" fill="white"/>
<path d="M181.535 193.382C181.535 191.83 182.788 190.572 184.335 190.572C185.891 190.572 187.14 191.83 187.14 193.382C187.14 194.928 185.886 196.187 184.335 196.187C182.788 196.187 181.535 194.928 181.535 193.382Z" fill="white"/>
<path d="M156.059 193.381C156.059 191.944 157.222 190.775 158.659 190.775C160.097 190.775 161.265 191.939 161.265 193.381C161.265 194.818 160.097 195.987 158.659 195.987C157.227 195.982 156.059 194.818 156.059 193.381Z" fill="white"/>
<path d="M129.047 193.382C129.047 191.209 130.812 189.443 132.985 189.443C135.159 189.443 136.924 191.209 136.924 193.382C136.924 195.555 135.159 197.315 132.985 197.315C130.807 197.315 129.047 195.555 129.047 193.382Z" fill="white"/>
<path d="M103.934 193.382C103.934 191.517 105.44 190 107.31 190C109.175 190 110.687 191.517 110.687 193.382C110.687 195.246 109.175 196.758 107.31 196.758C105.44 196.758 103.934 195.246 103.934 193.382Z" fill="white"/>
<path d="M80.3672 193.382C80.3672 192.681 80.9341 192.119 81.6303 192.119C82.3265 192.119 82.8934 192.686 82.8934 193.382C82.8934 194.078 82.3265 194.645 81.6303 194.645C80.9341 194.645 80.3672 194.078 80.3672 193.382Z" fill="white"/>
<path d="M52.3867 193.381C52.3867 191.417 53.983 189.82 55.9473 189.82C57.9116 189.82 59.5079 191.417 59.5079 193.381C59.5079 195.345 57.9116 196.941 55.9473 196.941C53.983 196.941 52.3867 195.345 52.3867 193.381Z" fill="white"/>
<path d="M27.3828 193.382C27.3828 191.78 28.6807 190.482 30.282 190.482C31.8832 190.482 33.1812 191.78 33.1812 193.382C33.1812 194.983 31.8832 196.281 30.282 196.281C28.6807 196.281 27.3828 194.983 27.3828 193.382Z" fill="white"/>
<path d="M4.60037 163.071C4.36168 163.071 4.12795 162.976 3.95887 162.807C3.7898 162.638 3.69531 162.405 3.69531 162.166C3.69531 161.927 3.79477 161.693 3.95887 161.524C4.12795 161.355 4.36168 161.256 4.60037 161.256C4.83907 161.256 5.07279 161.355 5.24187 161.524C5.41095 161.693 5.50543 161.922 5.50543 162.166C5.50543 162.405 5.41095 162.638 5.24187 162.807C5.07279 162.976 4.83907 163.071 4.60037 163.071Z" fill="white"/>
<path d="M645.258 162.172C645.258 161.471 645.825 160.904 646.526 160.904C647.227 160.904 647.794 161.471 647.794 162.172C647.794 162.874 647.227 163.44 646.526 163.44C645.825 163.44 645.258 162.869 645.258 162.172Z" fill="white"/>
<path d="M616.406 162.171C616.406 159.72 618.395 157.73 620.847 157.73C623.299 157.73 625.288 159.72 625.288 162.171C625.288 164.623 623.299 166.612 620.847 166.612C618.395 166.612 616.406 164.623 616.406 162.171Z" fill="white"/>
<path d="M592.875 162.171C592.875 160.903 593.904 159.879 595.168 159.879C596.436 159.879 597.46 160.908 597.46 162.171C597.46 163.439 596.431 164.464 595.168 164.464C593.899 164.464 592.875 163.435 592.875 162.171Z" fill="white"/>
<path d="M565.832 162.172C565.832 160.153 567.473 158.512 569.492 158.512C571.511 158.512 573.152 160.153 573.152 162.172C573.152 164.191 571.511 165.832 569.492 165.832C567.473 165.832 565.832 164.191 565.832 162.172Z" fill="white"/>
<path d="M540.043 162.173C540.043 160.089 541.734 158.398 543.817 158.398C545.901 158.398 547.592 160.089 547.592 162.173C547.592 164.256 545.901 165.947 543.817 165.947C541.734 165.942 540.043 164.251 540.043 162.173Z" fill="white"/>
<path d="M515.938 162.172C515.938 160.953 516.922 159.969 518.136 159.969C519.359 159.969 520.343 160.958 520.343 162.172C520.343 163.39 519.354 164.375 518.136 164.375C516.922 164.375 515.938 163.385 515.938 162.172Z" fill="white"/>
<path d="M489.055 162.172C489.055 160.292 490.581 158.766 492.461 158.766C494.341 158.766 495.863 160.292 495.863 162.172C495.863 164.052 494.341 165.578 492.461 165.578C490.581 165.573 489.055 164.047 489.055 162.172Z" fill="white"/>
<path d="M464.461 162.172C464.461 160.889 465.5 159.85 466.783 159.85C468.066 159.85 469.106 160.889 469.106 162.172C469.106 163.455 468.066 164.494 466.783 164.494C465.5 164.489 464.461 163.45 464.461 162.172Z" fill="white"/>
<path d="M437.852 162.171C437.852 160.371 439.304 158.914 441.109 158.914C442.909 158.914 444.366 160.376 444.366 162.171C444.366 163.971 442.909 165.429 441.109 165.429C439.309 165.429 437.852 163.966 437.852 162.171Z" fill="white"/>
<path d="M412.227 162.172C412.227 160.402 413.664 158.965 415.434 158.965C417.204 158.965 418.642 160.402 418.642 162.172C418.642 163.943 417.204 165.38 415.434 165.38C413.664 165.375 412.227 163.938 412.227 162.172Z" fill="white"/>
<path d="M385.316 162.171C385.316 159.724 387.301 157.74 389.747 157.74C392.204 157.74 394.178 159.724 394.178 162.171C394.178 164.618 392.199 166.602 389.747 166.602C387.301 166.602 385.316 164.613 385.316 162.171Z" fill="white"/>
<path d="M361.5 162.173C361.5 160.75 362.654 159.592 364.081 159.592C365.503 159.592 366.657 160.746 366.657 162.173C366.657 163.595 365.503 164.754 364.081 164.754C362.654 164.749 361.5 163.595 361.5 162.173Z" fill="white"/>
<path d="M337.055 162.173C337.055 161.432 337.656 160.83 338.397 160.83C339.138 160.83 339.74 161.432 339.74 162.173C339.74 162.914 339.138 163.515 338.397 163.515C337.656 163.515 337.055 162.914 337.055 162.173Z" fill="white"/>
<path d="M310.074 162.171C310.074 160.704 311.258 159.516 312.73 159.516C314.197 159.516 315.375 160.704 315.375 162.171C315.375 163.638 314.192 164.827 312.73 164.827C311.258 164.822 310.074 163.633 310.074 162.171Z" fill="white"/>
<path d="M285.422 162.171C285.422 161.276 286.148 160.545 287.048 160.545C287.943 160.545 288.674 161.271 288.674 162.171C288.674 163.066 287.948 163.797 287.048 163.797C286.148 163.792 285.422 163.066 285.422 162.171Z" fill="white"/>
<path d="M258.488 162.172C258.488 160.586 259.776 159.293 261.368 159.293C262.964 159.293 264.247 160.581 264.247 162.172C264.247 163.759 262.964 165.052 261.368 165.052C259.776 165.047 258.488 163.759 258.488 162.172Z" fill="white"/>
<path d="M232.266 162.172C232.266 160.278 233.802 158.746 235.697 158.746C237.592 158.746 239.123 160.283 239.123 162.172C239.123 164.067 237.587 165.604 235.697 165.604C233.802 165.599 232.266 164.062 232.266 162.172Z" fill="white"/>
<path d="M207.426 162.172C207.426 160.745 208.584 159.586 210.012 159.586C211.439 159.586 212.598 160.745 212.598 162.172C212.598 163.599 211.439 164.758 210.012 164.758C208.584 164.758 207.426 163.599 207.426 162.172Z" fill="white"/>
<path d="M182.922 162.172C182.922 161.391 183.554 160.76 184.339 160.76C185.12 160.76 185.747 161.391 185.747 162.172C185.747 162.953 185.12 163.584 184.339 163.584C183.554 163.579 182.922 162.948 182.922 162.172Z" fill="white"/>
<path d="M156.512 162.172C156.512 160.983 157.476 160.023 158.665 160.023C159.853 160.023 160.813 160.988 160.813 162.172C160.813 163.36 159.849 164.32 158.665 164.32C157.476 164.32 156.512 163.355 156.512 162.172Z" fill="white"/>
<path d="M129.137 162.172C129.137 160.049 130.857 158.328 132.981 158.328C135.104 158.328 136.825 160.049 136.825 162.172C136.825 164.296 135.104 166.016 132.981 166.016C130.862 166.016 129.137 164.291 129.137 162.172Z" fill="white"/>
<path d="M104.266 162.172C104.266 160.491 105.623 159.129 107.309 159.129C108.99 159.129 110.352 160.491 110.352 162.172C110.352 163.853 108.99 165.216 107.309 165.216C105.623 165.211 104.266 163.848 104.266 162.172Z" fill="white"/>
<path d="M79.543 162.173C79.543 161.019 80.4779 160.084 81.6316 160.084C82.7853 160.084 83.7202 161.019 83.7202 162.173C83.7202 163.326 82.7853 164.261 81.6316 164.261C80.4779 164.256 79.543 163.321 79.543 162.173Z" fill="white"/>
<path d="M52.793 162.171C52.793 160.431 54.2053 159.014 55.9507 159.014C57.6912 159.014 59.1035 160.426 59.1035 162.171C59.1035 163.912 57.6912 165.329 55.9507 165.329C54.2102 165.324 52.793 163.912 52.793 162.171Z" fill="white"/>
<path d="M29.4297 162.173C29.4297 161.705 29.8126 161.322 30.28 161.322C30.7475 161.322 31.1304 161.7 31.1304 162.173C31.1304 162.64 30.7525 163.023 30.28 163.023C29.8126 163.018 29.4297 162.64 29.4297 162.173Z" fill="white"/>
<path d="M4.5986 133.279C3.99191 133.279 3.39517 133.036 2.95756 132.603C2.52492 132.17 2.28125 131.574 2.28125 130.962C2.28125 130.355 2.52492 129.758 2.95756 129.326C3.3902 128.893 3.98694 128.645 4.5986 128.645C5.21026 128.645 5.80701 128.893 6.23965 129.326C6.67228 129.758 6.91595 130.355 6.91595 130.962C6.91595 131.574 6.67228 132.17 6.23965 132.603C5.80203 133.031 5.21026 133.279 4.5986 133.279Z" fill="white"/>
<path d="M644.441 130.957C644.441 129.803 645.371 128.873 646.53 128.873C647.684 128.873 648.614 129.808 648.614 130.957C648.614 132.11 647.679 133.04 646.53 133.04C645.371 133.045 644.441 132.11 644.441 130.957Z" fill="white"/>
<path d="M616.594 130.957C616.594 128.61 618.498 126.705 620.846 126.705C623.193 126.705 625.097 128.61 625.097 130.957C625.097 133.304 623.193 135.209 620.846 135.209C618.498 135.209 616.594 133.304 616.594 130.957Z" fill="white"/>
<path d="M593.848 130.957C593.848 130.231 594.439 129.645 595.165 129.645C595.896 129.645 596.483 130.231 596.483 130.957C596.483 131.683 595.896 132.275 595.165 132.275C594.439 132.275 593.848 131.683 593.848 130.957Z" fill="white"/>
<path d="M566.883 130.958C566.883 129.515 568.051 128.342 569.498 128.342C570.941 128.342 572.114 129.515 572.114 130.958C572.114 132.4 570.941 133.573 569.498 133.573C568.051 133.573 566.883 132.4 566.883 130.958Z" fill="white"/>
<path d="M540.52 130.958C540.52 129.143 541.991 127.666 543.812 127.666C545.627 127.666 547.104 129.143 547.104 130.958C547.104 132.773 545.632 134.25 543.812 134.25C541.996 134.25 540.52 132.778 540.52 130.958Z" fill="white"/>
<path d="M517.398 130.957C517.398 130.544 517.732 130.211 518.144 130.211C518.557 130.211 518.89 130.544 518.89 130.957C518.89 131.37 518.557 131.703 518.144 131.703C517.732 131.703 517.398 131.37 517.398 130.957Z" fill="white"/>
<path d="M490.363 130.958C490.363 129.799 491.303 128.859 492.462 128.859C493.621 128.859 494.56 129.799 494.56 130.958C494.56 132.117 493.621 133.056 492.462 133.056C491.303 133.056 490.363 132.117 490.363 130.958Z" fill="white"/>
<path d="M464.703 130.958C464.703 129.814 465.633 128.879 466.777 128.879C467.926 128.879 468.855 129.809 468.855 130.958C468.855 132.101 467.926 133.036 466.777 133.036C465.633 133.036 464.703 132.106 464.703 130.958Z" fill="white"/>
<path d="M439.074 130.958C439.074 129.834 439.984 128.924 441.108 128.924C442.232 128.924 443.142 129.834 443.142 130.958C443.142 132.082 442.232 132.992 441.108 132.992C439.984 132.997 439.074 132.082 439.074 130.958Z" fill="white"/>
<path d="M414.488 130.957C414.488 130.44 414.911 130.018 415.428 130.018C415.945 130.018 416.368 130.44 416.368 130.957C416.368 131.475 415.945 131.897 415.428 131.897C414.911 131.902 414.488 131.48 414.488 130.957Z" fill="white"/>
<path d="M389.176 130.957C389.176 130.634 389.434 130.375 389.758 130.375C390.081 130.375 390.339 130.634 390.339 130.957C390.339 131.28 390.081 131.539 389.758 131.539C389.434 131.539 389.176 131.28 389.176 130.957Z" fill="white"/>
<path d="M361.43 130.958C361.43 129.496 362.613 128.312 364.075 128.312C365.537 128.312 366.721 129.496 366.721 130.958C366.721 132.42 365.537 133.604 364.075 133.604C362.613 133.609 361.43 132.42 361.43 130.958Z" fill="white"/>
<path d="M334.699 130.958C334.699 128.914 336.355 127.258 338.399 127.258C340.443 127.258 342.099 128.914 342.099 130.958C342.099 133.001 340.443 134.657 338.399 134.657C336.355 134.657 334.699 133.001 334.699 130.958Z" fill="white"/>
<path d="M309.582 130.956C309.582 129.221 310.984 127.809 312.73 127.809C314.465 127.809 315.878 129.221 315.878 130.956C315.878 132.692 314.465 134.104 312.73 134.104C310.984 134.104 309.582 132.697 309.582 130.956Z" fill="white"/>
<path d="M282.199 130.957C282.199 128.281 284.372 126.113 287.043 126.113C289.718 126.113 291.886 128.281 291.886 130.957C291.886 133.632 289.718 135.8 287.043 135.8C284.372 135.8 282.199 133.632 282.199 130.957Z" fill="white"/>
<path d="M258.695 130.958C258.695 129.481 259.894 128.287 261.366 128.287C262.848 128.287 264.036 129.486 264.036 130.958C264.036 132.434 262.843 133.628 261.366 133.628C259.894 133.633 258.695 132.434 258.695 130.958Z" fill="white"/>
<path d="M233.547 130.957C233.547 129.768 234.507 128.809 235.695 128.809C236.884 128.809 237.843 129.773 237.843 130.957C237.843 132.145 236.879 133.105 235.695 133.105C234.512 133.11 233.547 132.145 233.547 130.957Z" fill="white"/>
<path d="M206.902 130.958C206.902 129.237 208.3 127.84 210.015 127.84C211.736 127.84 213.133 129.237 213.133 130.958C213.133 132.678 211.736 134.076 210.015 134.076C208.295 134.076 206.902 132.678 206.902 130.958Z" fill="white"/>
<path d="M180.848 130.957C180.848 129.032 182.409 127.471 184.334 127.471C186.263 127.471 187.82 129.032 187.82 130.957C187.82 132.881 186.263 134.443 184.334 134.443C182.409 134.443 180.848 132.881 180.848 130.957Z" fill="white"/>
<path d="M154.273 130.957C154.273 128.536 156.243 126.566 158.664 126.566C161.086 126.566 163.056 128.536 163.056 130.957C163.056 133.379 161.086 135.348 158.664 135.348C156.238 135.348 154.273 133.384 154.273 130.957Z" fill="white"/>
<path d="M131.828 130.956C131.828 130.32 132.345 129.803 132.982 129.803C133.618 129.803 134.136 130.32 134.136 130.956C134.136 131.593 133.618 132.11 132.982 132.11C132.345 132.11 131.828 131.593 131.828 130.956Z" fill="white"/>
<path d="M103.156 130.957C103.156 128.665 105.016 126.805 107.314 126.805C109.606 126.805 111.471 128.665 111.471 130.957C111.471 133.25 109.611 135.114 107.314 135.114C105.016 135.114 103.156 133.25 103.156 130.957Z" fill="white"/>
<path d="M76.8359 130.957C76.8359 128.311 78.9842 126.158 81.6298 126.158C84.2753 126.158 86.4286 128.306 86.4286 130.957C86.4286 133.603 84.2803 135.756 81.6298 135.756C78.9842 135.756 76.8359 133.608 76.8359 130.957Z" fill="white"/>
<path d="M51.3906 130.957C51.3906 128.441 53.4345 126.402 55.9507 126.402C58.467 126.402 60.5059 128.446 60.5059 130.957C60.5059 133.474 58.467 135.518 55.9507 135.518C53.4345 135.518 51.3906 133.474 51.3906 130.957Z" fill="white"/>
<path d="M27.5039 130.956C27.5039 129.425 28.7471 128.182 30.2788 128.182C31.8104 128.182 33.0486 129.425 33.0486 130.956C33.0486 132.488 31.8054 133.731 30.2788 133.731C28.7471 133.731 27.5039 132.488 27.5039 130.956Z" fill="white"/>
<path d="M4.59743 103.024C3.73215 103.024 2.89174 102.676 2.28505 102.069C1.67836 101.462 1.32031 100.617 1.32031 99.7517C1.32031 98.8914 1.66841 98.046 2.28505 97.4393C2.89671 96.8227 3.73215 96.4746 4.59743 96.4746C5.4627 96.4746 6.30809 96.8227 6.91975 97.4393C7.52644 98.051 7.87454 98.8964 7.87454 99.7517C7.87454 100.617 7.52644 101.462 6.91975 102.069C6.30809 102.676 5.4627 103.024 4.59743 103.024Z" fill="white"/>
<path d="M642.875 99.7477C642.875 97.7337 644.501 96.0977 646.525 96.0977C648.539 96.0977 650.175 97.7337 650.175 99.7477C650.175 101.762 648.539 103.398 646.525 103.398C644.506 103.398 642.875 101.762 642.875 99.7477Z" fill="white"/>
<path d="M617.121 99.7481C617.121 97.6894 618.792 96.0234 620.846 96.0234C622.9 96.0234 624.57 97.6943 624.57 99.7481C624.57 101.807 622.9 103.473 620.846 103.473C618.792 103.473 617.121 101.807 617.121 99.7481Z" fill="white"/>
<path d="M594.223 99.7476C594.223 99.2254 594.645 98.8027 595.168 98.8027C595.69 98.8027 596.112 99.2254 596.112 99.7476C596.112 100.27 595.69 100.692 595.168 100.692C594.645 100.692 594.223 100.27 594.223 99.7476Z" fill="white"/>
<path d="M567.316 99.7484C567.316 98.545 568.291 97.5703 569.494 97.5703C570.698 97.5703 571.673 98.545 571.673 99.7484C571.673 100.952 570.698 101.927 569.494 101.927C568.291 101.927 567.316 100.952 567.316 99.7484Z" fill="white"/>
<path d="M540.551 99.7476C540.551 97.9475 542.013 96.4805 543.818 96.4805C545.618 96.4805 547.085 97.9425 547.085 99.7476C547.085 101.548 545.623 103.015 543.818 103.015C542.013 103.015 540.551 101.548 540.551 99.7476Z" fill="white"/>
<path d="M513.961 99.7484C513.961 97.446 515.831 95.5762 518.143 95.5762C520.446 95.5762 522.305 97.446 522.305 99.7484C522.305 102.051 520.446 103.921 518.143 103.921C515.831 103.921 513.961 102.051 513.961 99.7484Z" fill="white"/>
<path d="M489.664 99.7479C489.664 98.2063 490.917 96.9531 492.464 96.9531C494.01 96.9531 495.263 98.2063 495.263 99.7479C495.263 101.294 494.01 102.548 492.464 102.548C490.917 102.548 489.664 101.294 489.664 99.7479Z" fill="white"/>
<path d="M462.57 99.7472C462.57 97.4248 464.455 95.5352 466.782 95.5352C469.11 95.5352 470.994 97.4199 470.994 99.7472C470.994 102.069 469.11 103.959 466.782 103.959C464.455 103.959 462.57 102.069 462.57 99.7472Z" fill="white"/>
<path d="M439.25 99.7476C439.25 98.7183 440.085 97.8828 441.115 97.8828C442.144 97.8828 442.98 98.7183 442.98 99.7476C442.98 100.777 442.144 101.612 441.115 101.612C440.085 101.612 439.25 100.777 439.25 99.7476Z" fill="white"/>
<path d="M413.035 99.7477C413.035 98.4249 414.109 97.3557 415.427 97.3557C416.75 97.3557 417.819 98.4298 417.819 99.7477C417.819 101.07 416.745 102.145 415.427 102.145C414.109 102.145 413.035 101.07 413.035 99.7477Z" fill="white"/>
<path d="M386.938 99.7472C386.938 98.1956 388.196 96.9375 389.747 96.9375C391.304 96.9375 392.557 98.1956 392.557 99.7472C392.557 101.299 391.304 102.557 389.747 102.557C388.201 102.557 386.938 101.299 386.938 99.7472Z" fill="white"/>
<path d="M362.281 99.7483C362.281 98.7538 363.087 97.9531 364.081 97.9531C365.071 97.9531 365.877 98.7587 365.877 99.7483C365.877 100.743 365.071 101.544 364.081 101.544C363.087 101.544 362.281 100.743 362.281 99.7483Z" fill="white"/>
<path d="M335.398 99.7467C335.398 98.0907 336.741 96.748 338.402 96.748C340.058 96.748 341.401 98.0907 341.401 99.7467C341.401 101.403 340.058 102.745 338.402 102.745C336.741 102.745 335.398 101.403 335.398 99.7467Z" fill="white"/>
<path d="M307.844 99.7484C307.844 97.0581 310.027 94.875 312.727 94.875C315.417 94.875 317.6 97.0581 317.6 99.7484C317.6 102.439 315.417 104.622 312.727 104.622C310.027 104.622 307.844 102.439 307.844 99.7484Z" fill="white"/>
<path d="M284.11 99.7476C284.11 98.1264 285.427 96.8086 287.049 96.8086C288.67 96.8086 289.987 98.1264 289.987 99.7476C289.987 101.369 288.67 102.687 287.049 102.687C285.427 102.687 284.11 101.369 284.11 99.7476Z" fill="white"/>
<path d="M258.875 99.7481C258.875 98.3756 259.989 97.2617 261.361 97.2617C262.734 97.2617 263.848 98.3756 263.848 99.7481C263.848 101.121 262.734 102.235 261.361 102.235C259.989 102.235 258.875 101.121 258.875 99.7481Z" fill="white"/>
<path d="M234.133 99.747C234.133 98.8867 234.829 98.1855 235.694 98.1855C236.56 98.1855 237.256 98.8867 237.256 99.747C237.256 100.607 236.555 101.309 235.694 101.309C234.829 101.309 234.133 100.607 234.133 99.747Z" fill="white"/>
<path d="M208.168 99.7473C208.168 98.7278 208.993 97.9023 210.013 97.9023C211.032 97.9023 211.863 98.7278 211.863 99.7473C211.863 100.767 211.037 101.592 210.013 101.592C208.993 101.592 208.168 100.767 208.168 99.7473Z" fill="white"/>
<path d="M181.699 99.7478C181.699 98.2958 182.878 97.1172 184.33 97.1172C185.782 97.1172 186.965 98.2958 186.965 99.7478C186.965 101.2 185.787 102.378 184.33 102.378C182.883 102.378 181.699 101.2 181.699 99.7478Z" fill="white"/>
<path d="M154.605 99.7473C154.605 97.5095 156.421 95.6895 158.663 95.6895C160.901 95.6895 162.721 97.5045 162.721 99.7473C162.721 101.985 160.906 103.805 158.663 103.805C156.421 103.805 154.605 101.985 154.605 99.7473Z" fill="white"/>
<path d="M128.758 99.7484C128.758 97.4161 130.652 95.5215 132.985 95.5215C135.317 95.5215 137.212 97.4161 137.212 99.7484C137.212 102.081 135.317 103.975 132.985 103.975C130.652 103.975 128.758 102.081 128.758 99.7484Z" fill="white"/>
<path d="M102.504 99.7482C102.504 97.0927 104.647 94.9395 107.313 94.9395C109.968 94.9395 112.121 97.0927 112.121 99.7482C112.121 102.404 109.968 104.557 107.313 104.557C104.647 104.557 102.504 102.404 102.504 99.7482Z" fill="white"/>
<path d="M79.0781 99.7483C79.0781 98.341 80.2219 97.1973 81.6292 97.1973C83.0365 97.1973 84.1853 98.341 84.1853 99.7483C84.1853 101.156 83.0415 102.304 81.6292 102.304C80.2219 102.304 79.0781 101.161 79.0781 99.7483Z" fill="white"/>
<path d="M53.6289 99.7481C53.6289 98.4651 54.6682 97.4258 55.9512 97.4258C57.2342 97.4258 58.2736 98.4651 58.2736 99.7481C58.2736 101.031 57.2342 102.07 55.9512 102.07C54.6682 102.07 53.6289 101.031 53.6289 99.7481Z" fill="white"/>
<path d="M28.0508 99.7483C28.0508 98.52 29.0454 97.5254 30.2736 97.5254C31.5019 97.5254 32.4965 98.5249 32.4965 99.7483C32.4965 100.977 31.497 101.971 30.2736 101.971C29.0503 101.971 28.0508 100.977 28.0508 99.7483Z" fill="white"/>
<path d="M4.59831 69.7064C4.28999 69.7064 3.99162 69.5821 3.77281 69.3633C3.55401 69.1445 3.42969 68.8461 3.42969 68.5378C3.42969 68.2294 3.55401 67.9261 3.77281 67.7123C3.99162 67.4935 4.28999 67.3691 4.59831 67.3691C4.90663 67.3691 5.20997 67.4935 5.4238 67.7123C5.64261 67.9261 5.76693 68.2294 5.76693 68.5378C5.76693 68.8461 5.64261 69.1494 5.4238 69.3633C5.205 69.5821 4.90663 69.7064 4.59831 69.7064Z" fill="white"/>
<path d="M642.156 68.5372C642.156 66.1253 644.106 64.166 646.527 64.166C648.939 64.166 650.899 66.1253 650.899 68.5372C650.899 70.949 648.939 72.9083 646.527 72.9083C644.106 72.9033 642.156 70.949 642.156 68.5372Z" fill="white"/>
<path d="M617.926 68.5382C617.926 66.927 619.234 65.6191 620.845 65.6191C622.456 65.6191 623.764 66.927 623.764 68.5382C623.764 70.1494 622.456 71.4573 620.845 71.4573C619.234 71.4573 617.926 70.1494 617.926 68.5382Z" fill="white"/>
<path d="M592.219 68.5387C592.219 66.9126 593.542 65.5898 595.168 65.5898C596.804 65.5898 598.117 66.9126 598.117 68.5387C598.117 70.1649 596.799 71.4876 595.168 71.4876C593.542 71.4876 592.219 70.1649 592.219 68.5387Z" fill="white"/>
<path d="M565.59 68.5376C565.59 66.3794 567.34 64.6289 569.499 64.6289C571.657 64.6289 573.407 66.3794 573.407 68.5376C573.407 70.6958 571.657 72.4462 569.499 72.4462C567.34 72.4413 565.59 70.6908 565.59 68.5376Z" fill="white"/>
<path d="M539.992 68.539C539.992 66.4305 541.703 64.7148 543.816 64.7148C545.925 64.7148 547.64 66.4255 547.64 68.539C547.64 70.6475 545.93 72.3631 543.816 72.3631C541.703 72.3581 539.992 70.6475 539.992 68.539Z" fill="white"/>
<path d="M515.133 68.5389C515.133 66.878 516.476 65.5254 518.136 65.5254C519.807 65.5254 521.155 66.873 521.155 68.5389C521.155 70.1999 519.807 71.5525 518.136 71.5525C516.476 71.5525 515.133 70.1999 515.133 68.5389Z" fill="white"/>
<path d="M491.211 68.5383C491.211 67.8471 491.773 67.2852 492.464 67.2852C493.155 67.2852 493.717 67.8471 493.717 68.5383C493.717 69.2295 493.155 69.7915 492.464 69.7915C491.773 69.7915 491.211 69.2295 491.211 68.5383Z" fill="white"/>
<path d="M463.711 68.5381C463.711 66.8423 465.088 65.4648 466.784 65.4648C468.48 65.4648 469.857 66.8423 469.857 68.5381C469.857 70.2338 468.48 71.6113 466.784 71.6113C465.088 71.6113 463.711 70.2338 463.711 68.5381Z" fill="white"/>
<path d="M440.09 68.5381C440.09 67.9712 440.547 67.5137 441.114 67.5137C441.681 67.5137 442.139 67.9712 442.139 68.5381C442.139 69.105 441.681 69.5625 441.114 69.5625C440.547 69.5625 440.09 69.1 440.09 68.5381Z" fill="white"/>
<path d="M414.168 68.5385C414.168 67.8423 414.735 67.2754 415.431 67.2754C416.127 67.2754 416.694 67.8423 416.694 68.5385C416.694 69.2347 416.127 69.8016 415.431 69.8016C414.735 69.8016 414.168 69.2347 414.168 68.5385Z" fill="white"/>
<path d="M386.504 68.5372C386.504 66.747 387.956 65.2949 389.746 65.2949C391.536 65.2949 392.989 66.747 392.989 68.5372C392.989 70.3274 391.536 71.7795 389.746 71.7795C387.956 71.7795 386.504 70.3274 386.504 68.5372Z" fill="white"/>
<path d="M361.945 68.5377C361.945 67.3591 362.9 66.4043 364.079 66.4043C365.257 66.4043 366.212 67.3591 366.212 68.5377C366.212 69.7162 365.257 70.671 364.079 70.671C362.905 70.671 361.945 69.7162 361.945 68.5377Z" fill="white"/>
<path d="M337.789 68.5383C337.789 68.2051 338.058 67.9316 338.396 67.9316C338.729 67.9316 339.002 68.2051 339.002 68.5383C339.002 68.8715 338.729 69.145 338.396 69.145C338.063 69.145 337.789 68.8715 337.789 68.5383Z" fill="white"/>
<path d="M310.066 68.5374C310.066 67.0704 311.25 65.877 312.727 65.877C314.194 65.877 315.387 67.0704 315.387 68.5374C315.387 70.0044 314.194 71.1979 312.727 71.1979C311.25 71.1979 310.066 70.0044 310.066 68.5374Z" fill="white"/>
<path d="M283.875 68.5379C283.875 66.7875 285.297 65.3652 287.048 65.3652C288.798 65.3652 290.22 66.7875 290.22 68.5379C290.22 70.2884 288.798 71.7106 287.048 71.7106C285.297 71.7106 283.875 70.2884 283.875 68.5379Z" fill="white"/>
<path d="M258.535 68.5385C258.535 66.9771 259.803 65.709 261.365 65.709C262.926 65.709 264.194 66.9771 264.194 68.5385C264.194 70.1 262.926 71.3681 261.365 71.3681C259.803 71.3681 258.535 70.1 258.535 68.5385Z" fill="white"/>
<path d="M232.238 68.5382C232.238 66.6286 233.785 65.082 235.694 65.082C237.604 65.082 239.151 66.6286 239.151 68.5382C239.151 70.4478 237.604 71.9943 235.694 71.9943C233.79 71.9943 232.238 70.4428 232.238 68.5382Z" fill="white"/>
<path d="M208.602 68.5373C208.602 67.7566 209.238 67.125 210.014 67.125C210.795 67.125 211.426 67.7566 211.426 68.5373C211.426 69.318 210.795 69.9496 210.014 69.9496C209.233 69.9496 208.602 69.318 208.602 68.5373Z" fill="white"/>
<path d="M183.531 68.5378C183.531 68.0953 183.889 67.7422 184.332 67.7422C184.774 67.7422 185.128 68.1002 185.128 68.5378C185.128 68.9804 184.774 69.3385 184.332 69.3385C183.889 69.3335 183.531 68.9755 183.531 68.5378Z" fill="white"/>
<path d="M154.855 68.5386C154.855 66.4351 156.561 64.7344 158.66 64.7344C160.763 64.7344 162.469 66.4401 162.469 68.5386C162.469 70.6421 160.763 72.3428 158.66 72.3428C156.561 72.3428 154.855 70.6372 154.855 68.5386Z" fill="white"/>
<path d="M131.523 68.5382C131.523 67.7326 132.18 67.0762 132.985 67.0762C133.791 67.0762 134.447 67.7326 134.447 68.5382C134.447 69.3438 133.791 70.0002 132.985 70.0002C132.175 70.0002 131.523 69.3438 131.523 68.5382Z" fill="white"/>
<path d="M106.082 68.5388C106.082 67.8625 106.629 67.3105 107.31 67.3105C107.992 67.3105 108.539 67.8625 108.539 68.5388C108.539 69.2152 107.987 69.7671 107.31 69.7671C106.629 69.7671 106.082 69.2152 106.082 68.5388Z" fill="white"/>
<path d="M78.2188 68.5383C78.2188 66.6536 79.7454 65.127 81.6301 65.127C83.5148 65.127 85.0415 66.6536 85.0415 68.5383C85.0415 70.4231 83.5148 71.9497 81.6301 71.9497C79.7454 71.9497 78.2188 70.4181 78.2188 68.5383Z" fill="white"/>
<path d="M52.3203 68.5384C52.3203 66.5343 53.9464 64.9082 55.9505 64.9082C57.9595 64.9082 59.5807 66.5343 59.5807 68.5384C59.5807 70.5424 57.9595 72.1686 55.9505 72.1686C53.9464 72.1686 52.3203 70.5424 52.3203 68.5384Z" fill="white"/>
<path d="M27.3516 68.5384C27.3516 66.9222 28.6644 65.6094 30.2806 65.6094C31.8968 65.6094 33.2096 66.9222 33.2096 68.5384C33.2096 70.1546 31.8968 71.4674 30.2806 71.4674C28.6644 71.4674 27.3516 70.1546 27.3516 68.5384Z" fill="white"/>
<path d="M4.60187 41.3366C3.5526 41.3366 2.51825 40.9089 1.77232 40.1679C1.02639 39.422 0.59375 38.3877 0.59375 37.3284C0.59375 36.2692 1.02639 35.2448 1.77232 34.4989C2.5083 33.753 3.54265 33.3203 4.60187 33.3203C5.66109 33.3203 6.69545 33.753 7.44138 34.4989C8.18731 35.2448 8.61 36.2792 8.61 37.3284C8.61 38.3877 8.18731 39.422 7.44138 40.1679C6.69047 40.9089 5.65612 41.3366 4.60187 41.3366Z" fill="white"/>
<path d="M644.859 37.328C644.859 36.408 645.605 35.6621 646.525 35.6621C647.445 35.6621 648.191 36.408 648.191 37.328C648.191 38.248 647.445 38.9939 646.525 38.9939C645.605 38.989 644.859 38.243 644.859 37.328Z" fill="white"/>
<path d="M618.102 37.329C618.102 35.8123 619.33 34.584 620.847 34.584C622.358 34.584 623.592 35.8123 623.592 37.329C623.592 38.8407 622.363 40.074 620.847 40.074C619.335 40.069 618.102 38.8407 618.102 37.329Z" fill="white"/>
<path d="M591.781 37.3279C591.781 35.4581 593.298 33.9414 595.163 33.9414C597.038 33.9414 598.549 35.4581 598.549 37.3279C598.549 39.1977 597.038 40.7144 595.163 40.7144C593.298 40.7095 591.781 39.1927 591.781 37.3279Z" fill="white"/>
<path d="M567.766 37.3282C567.766 36.3734 568.541 35.5977 569.496 35.5977C570.451 35.5977 571.227 36.3734 571.227 37.3282C571.227 38.283 570.451 39.0588 569.496 39.0588C568.541 39.0538 567.766 38.278 567.766 37.3282Z" fill="white"/>
<path d="M540.605 37.3286C540.605 35.5582 542.043 34.1211 543.813 34.1211C545.583 34.1211 547.02 35.5582 547.02 37.3286C547.02 39.0989 545.583 40.5361 543.813 40.5361C542.043 40.5361 540.605 39.0989 540.605 37.3286Z" fill="white"/>
<path d="M515.426 37.3285C515.426 35.8316 516.634 34.6133 518.131 34.6133C519.633 34.6133 520.846 35.8267 520.846 37.3285C520.846 38.8253 519.638 40.0387 518.131 40.0387C516.639 40.0387 515.426 38.8253 515.426 37.3285Z" fill="white"/>
<path d="M488.555 37.3286C488.555 35.1704 490.305 33.4199 492.463 33.4199C494.622 33.4199 496.372 35.1704 496.372 37.3286C496.372 39.4868 494.622 41.2372 492.463 41.2372C490.305 41.2323 488.555 39.4818 488.555 37.3286Z" fill="white"/>
<path d="M464.57 37.3282C464.57 36.1048 465.56 35.1152 466.783 35.1152C468.007 35.1152 468.996 36.1048 468.996 37.3282C468.996 38.5515 468.007 39.5411 466.783 39.5411C465.56 39.5411 464.57 38.5465 464.57 37.3282Z" fill="white"/>
<path d="M438.82 37.3285C438.82 36.0654 439.845 35.041 441.108 35.041C442.371 35.041 443.395 36.0654 443.395 37.3285C443.395 38.5916 442.371 39.616 441.108 39.616C439.85 39.616 438.82 38.5916 438.82 37.3285Z" fill="white"/>
<path d="M414.746 37.3278C414.746 36.9498 415.054 36.6465 415.427 36.6465C415.805 36.6465 416.109 36.9498 416.109 37.3278C416.109 37.7057 415.8 38.0091 415.427 38.0091C415.054 38.0091 414.746 37.7007 414.746 37.3278Z" fill="white"/>
<path d="M386.145 37.3282C386.145 35.334 387.756 33.7129 389.75 33.7129C391.754 33.7129 393.365 35.3291 393.365 37.3282C393.365 39.3223 391.754 40.9385 389.75 40.9385C387.756 40.9385 386.145 39.3223 386.145 37.3282Z" fill="white"/>
<path d="M360.051 37.3288C360.051 35.1059 361.856 33.3008 364.079 33.3008C366.302 33.3008 368.107 35.1059 368.107 37.3288C368.107 39.5517 366.302 41.3568 364.079 41.3568C361.856 41.3568 360.051 39.5517 360.051 37.3288Z" fill="white"/>
<path d="M337.707 37.3279C337.707 36.95 338.015 36.6367 338.398 36.6367C338.776 36.6367 339.089 36.945 339.089 37.3279C339.089 37.7059 338.781 38.0192 338.398 38.0192C338.02 38.0142 337.707 37.7059 337.707 37.3279Z" fill="white"/>
<path d="M310.074 37.3283C310.074 35.8662 311.258 34.6777 312.725 34.6777C314.187 34.6777 315.37 35.8662 315.37 37.3283C315.37 38.7903 314.187 39.9788 312.725 39.9788C311.258 39.9788 310.074 38.7903 310.074 37.3283Z" fill="white"/>
<path d="M283.82 37.3289C283.82 35.5487 285.267 34.1016 287.048 34.1016C288.828 34.1016 290.275 35.5487 290.275 37.3289C290.275 39.1092 288.828 40.5563 287.048 40.5563C285.267 40.5514 283.82 39.1092 283.82 37.3289Z" fill="white"/>
<path d="M258.465 37.328C258.465 35.7267 259.763 34.4238 261.369 34.4238C262.97 34.4238 264.273 35.7217 264.273 37.328C264.273 38.9292 262.975 40.2321 261.369 40.2321C259.763 40.2272 258.465 38.9292 258.465 37.328Z" fill="white"/>
<path d="M230.914 37.3277C230.914 34.6921 233.052 32.5488 235.693 32.5488C238.329 32.5488 240.472 34.6872 240.472 37.3277C240.472 39.9634 238.334 42.1067 235.693 42.1067C233.057 42.1017 230.914 39.9634 230.914 37.3277Z" fill="white"/>
<path d="M205.875 37.3288C205.875 35.0463 207.73 33.1914 210.012 33.1914C212.295 33.1914 214.15 35.0463 214.15 37.3288C214.15 39.6114 212.295 41.4662 210.012 41.4662C207.73 41.4662 205.875 39.6114 205.875 37.3288Z" fill="white"/>
<path d="M183.293 37.3275C183.293 36.7506 183.755 36.2832 184.337 36.2832C184.914 36.2832 185.377 36.7506 185.377 37.3275C185.377 37.9044 184.914 38.3718 184.337 38.3718C183.76 38.3668 183.293 37.8994 183.293 37.3275Z" fill="white"/>
<path d="M154.234 37.3282C154.234 34.8865 156.219 32.9023 158.66 32.9023C161.102 32.9023 163.086 34.8865 163.086 37.3282C163.086 39.7699 161.102 41.754 158.66 41.754C156.219 41.754 154.234 39.7699 154.234 37.3282Z" fill="white"/>
<path d="M129.547 37.3288C129.547 35.4342 131.083 33.8926 132.978 33.8926C134.873 33.8926 136.409 35.4292 136.409 37.3288C136.409 39.2235 134.873 40.7601 132.978 40.7601C131.083 40.7601 129.547 39.2235 129.547 37.3288Z" fill="white"/>
<path d="M105.961 37.3292C105.961 36.5832 106.563 35.9766 107.314 35.9766C108.059 35.9766 108.666 36.5832 108.666 37.3292C108.666 38.0751 108.059 38.6818 107.314 38.6818C106.563 38.6768 105.961 38.0751 105.961 37.3292Z" fill="white"/>
<path d="M80.3281 37.3283C80.3281 36.6072 80.91 36.0254 81.631 36.0254C82.3521 36.0254 82.9339 36.6072 82.9339 37.3283C82.9339 38.0493 82.3521 38.6312 81.631 38.6312C80.9149 38.6262 80.3281 38.0444 80.3281 37.3283Z" fill="white"/>
<path d="M54.5977 37.3292C54.5977 36.5832 55.2043 35.9766 55.9503 35.9766C56.6962 35.9766 57.3029 36.5832 57.3029 37.3292C57.3029 38.0751 56.6962 38.6818 55.9503 38.6818C55.2043 38.6768 54.5977 38.0751 54.5977 37.3292Z" fill="white"/>
<path d="M28.0664 37.329C28.0664 36.1107 29.056 35.1211 30.2744 35.1211C31.4927 35.1211 32.4823 36.1107 32.4823 37.329C32.4823 38.5474 31.4927 39.537 30.2744 39.537C29.061 39.537 28.0664 38.5474 28.0664 37.329Z" fill="white"/>
<path d="M4.59977 10.2269C3.52563 10.2269 2.46144 9.78927 1.70059 9.02842C0.924826 8.25266 0.492188 7.20338 0.492188 6.1193C0.492188 5.04516 0.924826 3.98097 1.70059 3.22012C2.46641 2.4543 3.52563 2.01172 4.59977 2.01172C5.68385 2.01172 6.74307 2.4543 7.50889 3.22012C8.27471 3.98594 8.70735 5.03521 8.70735 6.1193C8.70735 7.20338 8.26974 8.26758 7.50889 9.02842C6.74307 9.78927 5.68385 10.2269 4.59977 10.2269Z" fill="white"/>
<path d="M642.758 6.11318C642.758 4.03452 644.439 2.34375 646.527 2.34375C648.606 2.34375 650.297 4.02955 650.297 6.11318C650.297 8.19183 648.611 9.88261 646.527 9.88261C644.439 9.88261 642.758 8.19681 642.758 6.11318Z" fill="white"/>
<path d="M619.641 6.11466C619.641 5.4483 620.183 4.90625 620.849 4.90625C621.515 4.90625 622.057 5.4483 622.057 6.11466C622.057 6.78102 621.515 7.32306 620.849 7.32306C620.183 7.32306 619.641 6.78102 619.641 6.11466Z" fill="white"/>
<path d="M593.684 6.11278C593.684 5.29226 594.35 4.63086 595.166 4.63086C595.986 4.63086 596.647 5.29226 596.647 6.11278C596.647 6.9333 595.981 7.59469 595.166 7.59469C594.345 7.59966 593.684 6.9333 593.684 6.11278Z" fill="white"/>
<path d="M566.812 6.11396C566.812 4.63205 568.016 3.43359 569.493 3.43359C570.975 3.43359 572.173 4.63205 572.173 6.11396C572.173 7.59588 570.97 8.79433 569.493 8.79433C568.016 8.79433 566.812 7.59588 566.812 6.11396Z" fill="white"/>
<path d="M541.649 6.1136C541.649 4.92012 542.618 3.94543 543.817 3.94543C545.015 3.94543 545.985 4.91514 545.985 6.1136C545.985 7.30709 545.015 8.28177 543.817 8.28177C542.618 8.28177 541.649 7.31206 541.649 6.1136Z" fill="white"/>
<path d="M515.02 6.11426C515.02 4.38868 516.412 2.98633 518.147 2.98633C519.873 2.98633 521.275 4.38868 521.275 6.11426C521.275 7.83984 519.873 9.24219 518.147 9.24219C516.412 9.24219 515.02 7.83984 515.02 6.11426Z" fill="white"/>
<path d="M490 6.11391C490 4.75632 491.104 3.65234 492.462 3.65234C493.819 3.65234 494.923 4.75632 494.923 6.11391C494.923 7.4715 493.819 8.57547 492.462 8.57547C491.104 8.57547 490 7.4715 490 6.11391Z" fill="white"/>
<path d="M464.832 6.11342C464.832 5.03928 465.702 4.16406 466.781 4.16406C467.861 4.16406 468.731 5.03431 468.731 6.11342C468.731 7.18756 467.861 8.05781 466.781 8.05781C465.707 8.06278 464.832 7.18756 464.832 6.11342Z" fill="white"/>
<path d="M436.688 6.11335C436.688 3.67168 438.672 1.6875 441.113 1.6875C443.555 1.6875 445.539 3.67168 445.539 6.11335C445.539 8.55502 443.555 10.5392 441.113 10.5392C438.672 10.5392 436.688 8.55502 436.688 6.11335Z" fill="white"/>
<path d="M414.141 6.11326C414.141 5.40214 414.717 4.82031 415.434 4.82031C416.145 4.82031 416.726 5.39717 416.726 6.11326C416.726 6.82438 416.15 7.4062 415.434 7.4062C414.717 7.4062 414.141 6.82935 414.141 6.11326Z" fill="white"/>
<path d="M388.848 6.11405C388.848 5.61676 389.25 5.20898 389.753 5.20898C390.255 5.20898 390.658 5.61179 390.658 6.11405C390.658 6.61133 390.255 7.0191 389.753 7.0191C389.25 7.0191 388.848 6.61133 388.848 6.11405Z" fill="white"/>
<path d="M362.043 6.11309C362.043 4.98923 362.953 4.07422 364.082 4.07422C365.206 4.07422 366.121 4.98425 366.121 6.11309C366.121 7.23696 365.206 8.15196 364.082 8.15196C362.953 8.15196 362.043 7.23696 362.043 6.11309Z" fill="white"/>
<path d="M333.82 6.11321C333.82 3.587 335.869 1.5332 338.4 1.5332C340.927 1.5332 342.98 3.587 342.98 6.11321C342.98 8.63942 340.931 10.6932 338.4 10.6932C335.874 10.6932 333.82 8.63942 333.82 6.11321Z" fill="white"/>
<path d="M310.121 6.11341C310.121 4.68123 311.285 3.51758 312.717 3.51758C314.154 3.51758 315.318 4.68123 315.318 6.11341C315.318 7.54559 314.154 8.70924 312.717 8.70924C311.285 8.70924 310.121 7.55057 310.121 6.11341Z" fill="white"/>
<path d="M283.602 6.11416C283.602 4.21453 285.143 2.66797 287.048 2.66797C288.947 2.66797 290.494 4.21453 290.494 6.11416C290.494 8.01877 288.952 9.56035 287.048 9.56035C285.143 9.56035 283.602 8.01877 283.602 6.11416Z" fill="white"/>
<path d="M260.43 6.1137C260.43 5.59652 260.847 5.17383 261.365 5.17383C261.882 5.17383 262.304 5.59155 262.304 6.1137C262.304 6.63088 261.887 7.05357 261.365 7.05357C260.847 7.05357 260.43 6.63585 260.43 6.1137Z" fill="white"/>
<path d="M233.024 6.11355C233.024 4.63661 234.222 3.44312 235.694 3.44312C237.171 3.44312 238.364 4.64158 238.364 6.11355C238.364 7.59048 237.166 8.78397 235.694 8.78397C234.222 8.78894 233.024 7.59048 233.024 6.11355Z" fill="white"/>
<path d="M208.043 6.11379C208.043 5.02473 208.923 4.14453 210.012 4.14453C211.101 4.14453 211.981 5.02473 211.981 6.11379C211.981 7.20284 211.101 8.08303 210.012 8.08303C208.923 8.08303 208.043 7.20284 208.043 6.11379Z" fill="white"/>
<path d="M181.902 6.11379C181.902 4.76615 182.991 3.67212 184.344 3.67212C185.692 3.67212 186.786 4.76615 186.786 6.11379C186.786 7.46144 185.692 8.55547 184.344 8.55547C182.991 8.55547 181.902 7.46144 181.902 6.11379Z" fill="white"/>
<path d="M157.668 6.11371C157.668 5.5667 158.116 5.11914 158.663 5.11914C159.21 5.11914 159.657 5.5667 159.657 6.11371C159.657 6.66073 159.21 7.10828 158.663 7.10828C158.111 7.10828 157.668 6.6657 157.668 6.11371Z" fill="white"/>
<path d="M129.691 6.1143C129.691 4.29921 131.168 2.82227 132.983 2.82227C134.799 2.82227 136.275 4.29921 136.275 6.1143C136.275 7.9294 134.804 9.40633 132.983 9.40633C131.163 9.40633 129.691 7.93437 129.691 6.1143Z" fill="white"/>
<path d="M104.352 6.11315C104.352 4.47708 105.674 3.1543 107.31 3.1543C108.946 3.1543 110.269 4.48205 110.269 6.11315C110.269 7.74922 108.942 9.07697 107.31 9.07697C105.669 9.07697 104.352 7.74922 104.352 6.11315Z" fill="white"/>
<path d="M77.543 6.11308C77.543 3.8554 79.378 2.02539 81.6307 2.02539C83.8883 2.02539 85.7183 3.8554 85.7183 6.11308C85.7183 8.37076 83.8883 10.2008 81.6307 10.2008C79.373 10.2057 77.543 8.37076 77.543 6.11308Z" fill="white"/>
<path d="M55.125 6.11456C55.125 5.65706 55.493 5.28906 55.9505 5.28906C56.408 5.28906 56.776 5.66203 56.776 6.11456C56.776 6.57206 56.403 6.94006 55.9505 6.94006C55.493 6.94503 55.125 6.57206 55.125 6.11456Z" fill="white"/>
<path d="M28.1016 6.11366C28.1016 4.91023 29.0762 3.93555 30.2797 3.93555C31.4831 3.93555 32.4578 4.91023 32.4578 6.11366C32.4578 7.31709 31.4831 8.29177 30.2797 8.29177C29.0762 8.29177 28.1016 7.31709 28.1016 6.11366Z" fill="white"/>
</g>
</svg>
