<svg width="681" height="404" fill="none" xmlns="http://www.w3.org/2000/svg"><path d="M654.5 399.166c0-.558.452-1.016 1.014-1.016a1.016 1.016 0 010 2.032 1.018 1.018 0 01-1.014-1.016zm-24.191-.001a3.584 3.584 0 013.576-3.585 3.585 3.585 0 013.577 3.585c0 1.977-1.6 3.585-3.577 3.585a3.584 3.584 0 01-3.576-3.585zm-20.774.001a2.724 2.724 0 012.718-2.725c1.5 0 2.718 1.222 2.718 2.725a2.723 2.723 0 01-2.718 2.724 2.726 2.726 0 01-2.718-2.724zm-22.555-.001a3.662 3.662 0 013.657-3.665 3.661 3.661 0 013.656 3.665 3.661 3.661 0 01-3.656 3.664 3.664 3.664 0 01-3.657-3.664zm-20.55.001a2.584 2.584 0 012.58-2.586 2.584 2.584 0 012.58 2.586 2.584 2.584 0 01-2.58 2.586 2.59 2.59 0 01-2.58-2.586zm-20.973-.001c0-1.066.859-1.927 1.922-1.927 1.064 0 1.927.865 1.927 1.927a1.929 1.929 0 01-1.927 1.927 1.93 1.93 0 01-1.922-1.927zm-23.773.001a4.077 4.077 0 014.07-4.08c2.25 0 4.071 1.83 4.071 4.08a4.077 4.077 0 01-4.071 4.08 4.08 4.08 0 01-4.07-4.08zm-18.243-.001a.692.692 0 111.384 0 .692.692 0 01-1.384 0zm-24.468.001a3.54 3.54 0 013.534-3.543 3.536 3.536 0 013.531 3.543 3.541 3.541 0 01-3.531 3.543 3.545 3.545 0 01-3.534-3.543zm-19.344 0c0-.693.561-1.26 1.252-1.26s1.252.563 1.252 1.26c0 .692-.561 1.255-1.252 1.255a1.255 1.255 0 01-1.252-1.255zm-23.621-.001a3.252 3.252 0 013.246-3.253 3.25 3.25 0 013.245 3.253 3.25 3.25 0 01-3.245 3.254 3.255 3.255 0 01-3.246-3.254zm-21.039.001a2.667 2.667 0 012.663-2.67 2.668 2.668 0 012.664 2.67 2.669 2.669 0 01-2.664 2.67 2.673 2.673 0 01-2.663-2.67zm-19.821-.001a.857.857 0 111.713 0 .86.86 0 01-.854.861.867.867 0 01-.859-.861zm-21.226.002a.456.456 0 11.913 0 .458.458 0 01-.457.457.46.46 0 01-.456-.457zm-25.039-.001a3.878 3.878 0 013.874-3.883 3.878 3.878 0 013.874 3.883 3.878 3.878 0 01-3.874 3.883 3.883 3.883 0 01-3.874-3.883zm-21.383-.001a3.633 3.633 0 013.627-3.636 3.633 3.633 0 013.627 3.636 3.633 3.633 0 01-3.627 3.635 3.635 3.635 0 01-3.627-3.635zm-21.156.001a3.173 3.173 0 013.166-3.174 3.173 3.173 0 013.166 3.174c0 1.75-1.42 3.173-3.166 3.173a3.17 3.17 0 01-3.166-3.173zm-19.66-.001c0-.659.536-1.196 1.197-1.196a1.197 1.197 0 010 2.393 1.198 1.198 0 01-1.197-1.197zm-23.286 0a2.856 2.856 0 012.853-2.858 2.856 2.856 0 012.852 2.858 2.86 2.86 0 01-2.852 2.863 2.862 2.862 0 01-2.853-2.863zm-20.933.001a2.168 2.168 0 114.339 0 2.176 2.176 0 01-2.17 2.175 2.175 2.175 0 01-2.169-2.175zm-22.75 0a3.295 3.295 0 013.288-3.295 3.294 3.294 0 013.287 3.295 3.292 3.292 0 01-3.287 3.296 3.297 3.297 0 01-3.288-3.296zm-19.426-.001a1.087 1.087 0 111.089 1.088 1.096 1.096 0 01-1.089-1.088zm-24.469.001a3.94 3.94 0 013.933-3.941 3.94 3.94 0 013.933 3.941 3.938 3.938 0 01-3.933 3.942 3.946 3.946 0 01-3.933-3.942zm-18.515 0a.816.816 0 111.633 0 .816.816 0 11-1.633 0zm-22.121 0a1.32 1.32 0 112.638 0 1.32 1.32 0 01-1.319 1.322 1.325 1.325 0 01-1.319-1.322zm-22.532.001c0-1.23.997-2.229 2.224-2.229 1.227 0 2.224.999 2.224 2.229s-.997 2.229-2.224 2.229a2.234 2.234 0 01-2.224-2.229zm-19.836 0a.436.436 0 11.873-.001.436.436 0 01-.873.001zm-24.422-.001a3.234 3.234 0 013.23-3.236 3.234 3.234 0 013.229 3.236 3.234 3.234 0 01-3.23 3.237 3.238 3.238 0 01-3.229-3.237zm-22.425-.001a4.04 4.04 0 014.033-4.042 4.037 4.037 0 014.033 4.042 4.04 4.04 0 01-4.033 4.043 4.04 4.04 0 01-4.033-4.043zm-18.192 0a.6.6 0 111.2-.002.6.6 0 01-1.2.002zm-23.925.002a2.902 2.902 0 012.898-2.905 2.902 2.902 0 010 5.805 2.901 2.901 0 01-2.898-2.9zm673.284.566a.569.569 0 01-.402-.163.592.592 0 01-.168-.403.574.574 0 01.57-.571.574.574 0 01.57.571.569.569 0 01-.57.566zm-24.792-26.917c0-1.747 1.42-3.17 3.166-3.17a3.162 3.162 0 013.154 3.17 3.158 3.158 0 01-3.154 3.165 3.166 3.166 0 01-3.166-3.165zm-20.969 0a2.518 2.518 0 012.513-2.519 2.518 2.518 0 010 5.037 2.515 2.515 0 01-2.513-2.518zm-22.402.001a3.288 3.288 0 013.283-3.292 3.288 3.288 0 013.284 3.292 3.288 3.288 0 01-3.284 3.291 3.287 3.287 0 01-3.283-3.291zm-19.95-.002c0-.894.725-1.616 1.613-1.616.892 0 1.612.726 1.612 1.616 0 .895-.724 1.617-1.612 1.617a1.616 1.616 0 01-1.613-1.617zm-22.425.001a2.411 2.411 0 012.408-2.414 2.411 2.411 0 012.408 2.414 2.411 2.411 0 01-2.408 2.414 2.414 2.414 0 01-2.408-2.414zm-20.09.001a.872.872 0 111.742 0 .871.871 0 11-1.742 0zm-23.762 0a3.016 3.016 0 013.011-3.018 3.016 3.016 0 013.012 3.018 3.015 3.015 0 01-3.012 3.018 3.015 3.015 0 01-3.011-3.018zm-22.41 0a3.793 3.793 0 013.79-3.799 3.797 3.797 0 013.791 3.799 3.794 3.794 0 01-3.791 3.799c-2.09 0-3.79-1.7-3.79-3.799zm-20.344-.001a2.517 2.517 0 115.034 0 2.517 2.517 0 11-5.034 0zm-21.996 0a2.892 2.892 0 012.886-2.892 2.891 2.891 0 012.885 2.892 2.891 2.891 0 01-2.885 2.892 2.886 2.886 0 01-2.886-2.892zm-21.316 0a2.575 2.575 0 012.571-2.578 2.576 2.576 0 012.572 2.578 2.575 2.575 0 01-2.572 2.577 2.577 2.577 0 01-2.571-2.577zm-22.059.001a3.012 3.012 0 013.011-3.018 3.016 3.016 0 013.012 3.018 3.015 3.015 0 01-3.012 3.018 3.01 3.01 0 01-3.011-3.018zm-21.949-.001a3.338 3.338 0 013.334-3.341 3.34 3.34 0 013.333 3.341 3.338 3.338 0 01-3.333 3.342 3.339 3.339 0 01-3.334-3.342zm-21.727.001a3.441 3.441 0 013.439-3.442 3.43 3.43 0 013.426 3.442 3.435 3.435 0 01-3.426 3.442 3.438 3.438 0 01-3.439-3.442zm-20.437-.002a2.254 2.254 0 012.249-2.254 2.254 2.254 0 010 4.508 2.255 2.255 0 01-2.249-2.254zm-19.817 0a.436.436 0 11.871 0 .436.436 0 01-.871 0zm-22.273.001c0-.6.486-1.091 1.089-1.091a1.09 1.09 0 011.089 1.091c0 .6-.486 1.087-1.089 1.087a1.082 1.082 0 01-1.089-1.087zm-23.223 0a2.683 2.683 0 012.681-2.687 2.686 2.686 0 010 5.373 2.686 2.686 0 01-2.681-2.686zm-19.843 0a.899.899 0 111.798.002.899.899 0 01-1.798-.002zm-21.95 0a1.228 1.228 0 112.455 0 1.228 1.228 0 11-2.455 0zm-23.535 0a3.144 3.144 0 013.137-3.144c1.73 0 3.137 1.41 3.137 3.144a3.141 3.141 0 01-3.137 3.144 3.144 3.144 0 01-3.137-3.144zm-18.914.001a.431.431 0 11.863 0 .432.432 0 11-.863 0zm-23.84 0a2.642 2.642 0 012.639-2.645 2.641 2.641 0 012.638 2.645 2.641 2.641 0 01-2.638 2.644 2.645 2.645 0 01-2.639-2.644zm-19.816-.001a.83.83 0 111.658 0 .83.83 0 11-1.658 0zm-22.848.001c0-1.134.917-2.057 2.052-2.057a2.058 2.058 0 010 4.114 2.053 2.053 0 01-2.052-2.057zm-21.906-.001a2.337 2.337 0 012.333-2.338 2.34 2.34 0 010 4.677 2.34 2.34 0 01-2.333-2.339zm-21.641 0a2.348 2.348 0 012.341-2.351 2.344 2.344 0 012.346 2.351 2.343 2.343 0 11-4.687 0zm-20.496-.001a1.22 1.22 0 011.219-1.221 1.221 1.221 0 010 2.443c-.67 0-1.219-.546-1.219-1.222zm-23.769.001A3.37 3.37 0 0150 369.445a3.37 3.37 0 013.363 3.371A3.37 3.37 0 0150 376.187a3.364 3.364 0 01-3.363-3.371zm-19.43 0c0-.647.52-1.171 1.164-1.171a1.17 1.17 0 110 2.342 1.17 1.17 0 01-1.164-1.171zm-22.082 0c0-.898.729-1.628 1.625-1.628a1.628 1.628 0 010 3.257c-.896 0-1.625-.73-1.625-1.629zm672.007 1.436c-.377 0-.746-.151-1.014-.42a1.446 1.446 0 01-.419-1.016c0-.378.155-.747.419-1.016a1.441 1.441 0 011.014-.419c.377 0 .749.155 1.013.419a1.439 1.439 0 01-1.013 2.452zm-24.82-27.781a3.2 3.2 0 116.4 0 3.203 3.203 0 01-3.2 3.207 3.201 3.201 0 01-3.2-3.207zm-20.062 0c0-.907.733-1.637 1.633-1.637a1.638 1.638 0 010 3.274c-.9 0-1.633-.734-1.633-1.637zm-23.266-.001a3.277 3.277 0 013.271-3.279 3.271 3.271 0 013.271 3.279 3.27 3.27 0 11-6.542 0zm-20.246 0c0-1.053.85-1.906 1.898-1.906 1.047 0 1.897.853 1.897 1.906a1.9 1.9 0 01-1.897 1.902 1.9 1.9 0 01-1.898-1.902zm-22.82-.001a3.095 3.095 0 013.091-3.098 3.098 3.098 0 010 6.196 3.097 3.097 0 01-3.091-3.098zm-20.145.002a1.607 1.607 0 113.213 0 1.608 1.608 0 11-3.213 0zm-23.988-.001a3.98 3.98 0 013.975-3.984c2.19 0 3.97 1.784 3.97 3.984 0 2.196-1.78 3.98-3.97 3.98a3.976 3.976 0 01-3.975-3.98zm-18.156 0c0-.277.222-.499.498-.499.277 0 .499.222.499.499a.498.498 0 11-.997 0zm-23.129 0a2.01 2.01 0 114.021 0 2.01 2.01 0 11-4.021 0zm-21.238 0c0-.894.724-1.624 1.621-1.624a1.624 1.624 0 010 3.249 1.627 1.627 0 01-1.621-1.625zm-23.403.001a3.402 3.402 0 013.393-3.405 3.4 3.4 0 013.392 3.405c0 1.876-1.52 3.4-3.392 3.4a3.396 3.396 0 01-3.393-3.4zm-18.855-.001a.633.633 0 111.265-.003.633.633 0 01-1.265.003zm-21.754.001a.759.759 0 111.516 0 .759.759 0 11-1.516 0zm-23.188-.001a2.316 2.316 0 114.633 0 2.314 2.314 0 01-2.312 2.317 2.319 2.319 0 01-2.321-2.317zm-22.808 0a3.509 3.509 0 013.501-3.509 3.503 3.503 0 013.497 3.509 3.502 3.502 0 01-3.497 3.505 3.502 3.502 0 01-3.501-3.505zm-19.879 0c0-.97.787-1.759 1.755-1.759a1.76 1.76 0 010 3.518 1.759 1.759 0 01-1.755-1.759zm-21.215.001a1.35 1.35 0 011.349-1.352c.741 0 1.344.605 1.344 1.352a1.347 1.347 0 11-2.693 0zm-20.762 0a.478.478 0 11.956-.002.478.478 0 01-.956.002zm-24.449-.001a3.302 3.302 0 116.605 0 3.299 3.299 0 01-3.296 3.308 3.308 3.308 0 01-3.309-3.308zm-19.371 0c0-.584.473-1.054 1.051-1.054a1.053 1.053 0 010 2.107c-.578 0-1.051-.47-1.051-1.053zm-24.172.001a3.597 3.597 0 013.594-3.602 3.6 3.6 0 013.593 3.602 3.6 3.6 0 01-3.593 3.602 3.597 3.597 0 01-3.594-3.602zm-21.195 0a3.167 3.167 0 013.162-3.178 3.171 3.171 0 013.17 3.178 3.171 3.171 0 01-3.17 3.177 3.167 3.167 0 01-3.162-3.177zm-19.277 0c0-.453.368-.823.82-.823.453 0 .821.37.821.823a.82.82 0 01-.821.819.819.819 0 01-.82-.819zm-24.157 0c0-1.851 1.5-3.354 3.347-3.354a3.351 3.351 0 013.346 3.354 3.351 3.351 0 01-3.346 3.354 3.355 3.355 0 01-3.347-3.354zm-19.586-.001a1.32 1.32 0 011.316-1.318 1.32 1.32 0 010 2.637 1.32 1.32 0 01-1.316-1.319zm-23.753 0a3.445 3.445 0 013.438-3.447 3.442 3.442 0 013.438 3.447 3.445 3.445 0 01-3.438 3.446 3.445 3.445 0 01-3.438-3.446zm-19.196 0a1.006 1.006 0 112.01 0 1.004 1.004 0 11-2.01 0zm-24.074.001a3.464 3.464 0 013.46-3.467 3.464 3.464 0 013.459 3.467c0 1.91-1.55 3.464-3.46 3.464a3.458 3.458 0 01-3.459-3.464zm-22.258-.001a4.096 4.096 0 014.088-4.097 4.095 4.095 0 014.088 4.097 4.092 4.092 0 01-4.088 4.097 4.095 4.095 0 01-4.088-4.097zm-19.074.001c0-.853.691-1.545 1.541-1.545a1.544 1.544 0 010 3.089c-.85 0-1.541-.692-1.541-1.544zm-24.07-.001a3.99 3.99 0 013.983-3.992 3.99 3.99 0 013.983 3.992 3.99 3.99 0 01-3.983 3.993 3.99 3.99 0 01-3.983-3.993zm674.368 2.981c-.779 0-1.55-.314-2.102-.868a3.036 3.036 0 01-.876-2.112c0-.781.323-1.553.876-2.107a2.963 2.963 0 014.209 0c.552.554.867 1.326.867 2.107 0 .785-.315 1.549-.867 2.112a2.998 2.998 0 01-2.107.868zm-23.806-29.327c0-1.205.976-2.183 2.178-2.183a2.182 2.182 0 010 4.366 2.181 2.181 0 01-2.178-2.183zm-21.406.001c0-1.087.879-1.969 1.964-1.969s1.964.882 1.964 1.969a1.967 1.967 0 01-1.964 1.969 1.97 1.97 0 01-1.964-1.969zm-20.688-.001c0-.567.461-1.028 1.027-1.028a1.025 1.025 0 110 2.052c-.57 0-1.027-.457-1.027-1.024zm-22.914 0a2.323 2.323 0 012.321-2.325 2.325 2.325 0 010 4.651 2.328 2.328 0 01-2.321-2.326zm-22.734.001a3.427 3.427 0 013.422-3.43 3.427 3.427 0 013.421 3.43 3.427 3.427 0 01-3.421 3.43 3.427 3.427 0 01-3.422-3.43zm-19.199-.001a.994.994 0 111.989 0c0 .55-.444.995-.992.995a1 1 0 01-.997-.995zm-24.715 0a4.093 4.093 0 014.088-4.097 4.095 4.095 0 014.087 4.097 4.093 4.093 0 01-4.087 4.098 4.099 4.099 0 01-4.088-4.098zm-19.535.001c0-1.104.892-1.998 1.993-1.998a1.998 1.998 0 010 3.996 2 2 0 01-1.993-1.998zm-20.582 0a.955.955 0 111.909 0 .955.955 0 11-1.909 0zm-24.543 0a3.876 3.876 0 013.87-3.879 3.875 3.875 0 013.869 3.879 3.875 3.875 0 01-3.869 3.879 3.876 3.876 0 01-3.87-3.879zm-19.547-.001c0-.986.8-1.788 1.784-1.788.988 0 1.784.802 1.784 1.788 0 .987-.796 1.788-1.784 1.788a1.79 1.79 0 01-1.784-1.788zm-20.32 0c0-.273.217-.491.49-.491a.491.491 0 11-.49.491zm-22.723 0c0-.877.708-1.587 1.583-1.587a1.587 1.587 0 010 3.174 1.587 1.587 0 01-1.583-1.587zm-20.641 0a.6.6 0 111.202 0 .604.604 0 01-.603.605.607.607 0 01-.599-.605zm-23.617.002a2.595 2.595 0 012.593-2.599 2.595 2.595 0 012.592 2.599 2.595 2.595 0 01-2.592 2.598 2.597 2.597 0 01-2.593-2.598zm-19.738-.001a.704.704 0 111.407 0 .704.704 0 11-1.407 0zm-24.699 0a3.784 3.784 0 013.782-3.791 3.79 3.79 0 013.781 3.791c0 2.09-1.692 3.79-3.781 3.79a3.787 3.787 0 01-3.782-3.79zm-20.469-.001a2.623 2.623 0 012.622-2.628 2.625 2.625 0 012.621 2.628 2.626 2.626 0 01-2.621 2.628 2.627 2.627 0 01-2.622-2.628zm-20.676.002c0-.924.75-1.671 1.667-1.671.921 0 1.667.747 1.667 1.671 0 .923-.746 1.671-1.667 1.671a1.674 1.674 0 01-1.667-1.671zm-23.047-.002a3.1 3.1 0 013.095-3.103 3.1 3.1 0 013.095 3.103 3.1 3.1 0 01-3.095 3.102 3.1 3.1 0 01-3.095-3.102zm-19.699 0c0-.646.519-1.167 1.164-1.167a1.167 1.167 0 010 2.334 1.166 1.166 0 01-1.164-1.167zm-23.465.002a3.013 3.013 0 013.011-3.019 3.016 3.016 0 013.012 3.019 3.016 3.016 0 01-3.012 3.018 3.01 3.01 0 01-3.011-3.018zm-20.773-.002c0-1.192.963-2.157 2.152-2.157 1.19 0 2.153.969 2.153 2.157a2.154 2.154 0 01-2.153 2.158 2.157 2.157 0 01-2.152-2.158zm-23.453.001a3.988 3.988 0 013.982-3.992 3.983 3.983 0 013.983 3.992 3.983 3.983 0 01-3.983 3.992 3.988 3.988 0 01-3.982-3.992zm-19.102 0a1.462 1.462 0 112.923 0c0 .81-.653 1.465-1.461 1.465a1.468 1.468 0 01-1.462-1.465zm-24.105-.001a3.942 3.942 0 013.936-3.946 3.942 3.942 0 013.937 3.946 3.943 3.943 0 01-3.937 3.946 3.948 3.948 0 01-3.936-3.946zm-20.79 0a3.11 3.11 0 013.108-3.114 3.112 3.112 0 013.108 3.114 3.113 3.113 0 01-3.108 3.115 3.113 3.113 0 01-3.108-3.115zm-20.738.001a2.22 2.22 0 012.216-2.221c1.223 0 2.215.995 2.215 2.221s-.992 2.22-2.215 2.22a2.218 2.218 0 01-2.216-2.22zm-19.836 0a.422.422 0 11.846 0 .422.422 0 11-.846 0zm-24.297-.001a3.102 3.102 0 116.207 0 3.109 3.109 0 01-3.103 3.111 3.106 3.106 0 01-3.104-3.111zm-20.737.001a2.212 2.212 0 114.422 0 2.217 2.217 0 01-2.212 2.216 2.217 2.217 0 01-2.21-2.216zm672.594 1.812c-.474 0-.943-.193-1.278-.528a1.838 1.838 0 01-.532-1.285c0-.474.197-.944.532-1.28.335-.34.804-.533 1.278-.533a1.81 1.81 0 011.809 1.813c0 .479-.193.949-.528 1.285a1.834 1.834 0 01-1.281.528zm-22.072-28.157c0-.248.202-.454.449-.454a.454.454 0 010 .907.456.456 0 01-.449-.453zm-23.121 0c0-1.075.872-1.948 1.944-1.948s1.943.873 1.943 1.948a1.947 1.947 0 01-1.943 1.948 1.948 1.948 0 01-1.944-1.948zm-22.976 0a3.295 3.295 0 013.288-3.296 3.295 3.295 0 013.287 3.296 3.294 3.294 0 01-3.287 3.295 3.295 3.295 0 01-3.288-3.295zm-20.75 0a2.422 2.422 0 114.841 0 2.422 2.422 0 11-4.841 0zm-20.383-.001c0-.65.528-1.179 1.177-1.179a1.18 1.18 0 010 2.359 1.185 1.185 0 01-1.177-1.18zm-21.562-.001c0-.613.494-1.108 1.109-1.108.612 0 1.106.495 1.106 1.108 0 .613-.494 1.108-1.106 1.108a1.109 1.109 0 01-1.109-1.108zm-23.278.001a2.772 2.772 0 012.769-2.775 2.772 2.772 0 012.768 2.775 2.771 2.771 0 01-2.768 2.774 2.774 2.774 0 01-2.769-2.774zm-20.781-.001c0-1.062.863-1.926 1.922-1.926a1.927 1.927 0 010 3.853 1.927 1.927 0 01-1.922-1.927zm-23.719.002a4.025 4.025 0 014.017-4.026 4.025 4.025 0 014.016 4.026 4.022 4.022 0 01-4.016 4.025 4.027 4.027 0 01-4.017-4.025zm-20.058 0a2.453 2.453 0 012.45-2.456c1.352 0 2.45 1.1 2.45 2.456a2.454 2.454 0 01-2.45 2.456 2.46 2.46 0 01-2.45-2.456zm-19.711-.001a.529.529 0 111.059 0 .528.528 0 01-.527.529.532.532 0 01-.532-.529zm-25.098 0a4.016 4.016 0 014.008-4.017 4.016 4.016 0 014.008 4.017 4.015 4.015 0 01-4.008 4.017 4.015 4.015 0 01-4.008-4.017zm-19.254.001a1.634 1.634 0 113.267 0c0 .902-.733 1.637-1.634 1.637-.9 0-1.633-.735-1.633-1.637zm-22.492 0a2.506 2.506 0 115.013 0 2.51 2.51 0 01-2.513 2.51 2.505 2.505 0 01-2.5-2.51zm-20.02-.001c0-.495.402-.898.897-.898a.898.898 0 010 1.797.899.899 0 01-.897-.899zm-22.132 0a1.404 1.404 0 112.806 0c0 .777-.629 1.406-1.403 1.406a1.41 1.41 0 01-1.403-1.406zm-24.18 0a3.96 3.96 0 117.92 0 3.965 3.965 0 01-3.962 3.967 3.961 3.961 0 01-3.958-3.967zm-18.879 0c0-.667.54-1.209 1.206-1.209.666 0 1.206.542 1.206 1.209 0 .668-.54 1.209-1.206 1.209a1.21 1.21 0 01-1.206-1.209zm-24.336 0a3.915 3.915 0 117.832 0 3.915 3.915 0 11-7.832 0zm-20.32-.001a2.621 2.621 0 012.617-2.624 2.622 2.622 0 012.618 2.624 2.622 2.622 0 01-2.618 2.624 2.627 2.627 0 01-2.617-2.624zm-20.676.002a1.668 1.668 0 113.334 0c0 .924-.746 1.671-1.667 1.671a1.67 1.67 0 01-1.667-1.671zm-23.406-.001a3.44 3.44 0 116.881 0 3.439 3.439 0 01-3.434 3.446 3.446 3.446 0 01-3.447-3.446zm-19.809.001c0-.903.733-1.637 1.629-1.637.901 0 1.63.734 1.63 1.637 0 .902-.733 1.633-1.63 1.633a1.636 1.636 0 01-1.629-1.633zm-21.875-.001c0-1.036.842-1.884 1.876-1.884 1.035 0 1.877.843 1.877 1.884a1.881 1.881 0 01-1.877 1.881 1.881 1.881 0 01-1.876-1.881zm-22.703.001a2.967 2.967 0 012.961-2.968 2.967 2.967 0 012.961 2.968 2.967 2.967 0 01-2.961 2.968 2.967 2.967 0 01-2.961-2.968zm-21.844 0a3.18 3.18 0 013.175-3.182 3.178 3.178 0 013.174 3.182 3.181 3.181 0 01-3.174 3.182 3.182 3.182 0 01-3.175-3.182zm-20.449 0c0-1.108.892-2.01 2.002-2.01 1.106 0 2.01.902 2.01 2.01 0 1.109-.9 2.011-2.01 2.011a2.013 2.013 0 01-2.002-2.011zm-23.332 0a3.716 3.716 0 013.71-3.719 3.716 3.716 0 013.711 3.719 3.716 3.716 0 01-3.71 3.719 3.722 3.722 0 01-3.711-3.719zm-20.785 0a2.87 2.87 0 012.864-2.872 2.872 2.872 0 010 5.743 2.872 2.872 0 01-2.864-2.871zm-21.141-.001a2.388 2.388 0 012.383-2.392 2.388 2.388 0 012.383 2.392 2.387 2.387 0 01-2.383 2.389 2.384 2.384 0 01-2.383-2.389zm-22.726 0a3.489 3.489 0 013.488-3.492 3.489 3.489 0 013.485 3.492 3.491 3.491 0 01-3.485 3.493 3.492 3.492 0 01-3.488-3.493zm673.869 2.994a2.998 2.998 0 01-2.111-.873 3.016 3.016 0 01-.879-2.12 3.007 3.007 0 012.99-2.997 3.01 3.01 0 012.115.882c.557.558.871 1.33.871 2.115 0 .79-.318 1.562-.871 2.12a3.022 3.022 0 01-2.115.873zm-22.655-29.344a1.031 1.031 0 112.061 0 1.031 1.031 0 11-2.061 0zm-21.312 0a.72.72 0 111.441 0 .721.721 0 11-1.441 0zm-24.84.001a3.928 3.928 0 117.857 0 3.93 3.93 0 01-3.928 3.937 3.936 3.936 0 01-3.929-3.937zm-19.789-.001c0-1.163.942-2.103 2.098-2.103a2.103 2.103 0 010 4.206c-1.16 0-2.098-.94-2.098-2.103zm-23.633.001a4.106 4.106 0 014.1-4.11 4.11 4.11 0 014.101 4.11 4.11 4.11 0 01-4.101 4.11 4.109 4.109 0 01-4.1-4.11zm-18.097-.001c0-.319.255-.579.573-.579.319 0 .574.26.574.579a.572.572 0 11-1.147 0zm-22.481.001a1.432 1.432 0 112.859 0 1.432 1.432 0 01-2.859 0zm-23.43 0a3.24 3.24 0 013.23-3.241 3.236 3.236 0 013.229 3.241 3.236 3.236 0 01-3.229 3.237 3.236 3.236 0 01-3.23-3.237zm-21.996-.001a3.61 3.61 0 117.221 0 3.618 3.618 0 01-3.61 3.619 3.61 3.61 0 01-3.611-3.619zm-20.711 0a2.696 2.696 0 012.689-2.695 2.695 2.695 0 010 5.39 2.692 2.692 0 01-2.689-2.695zm-21.179.001a2.246 2.246 0 012.24-2.25 2.244 2.244 0 012.241 2.25 2.246 2.246 0 01-2.241 2.246 2.238 2.238 0 01-2.24-2.246zm-21.36-.001c0-1.096.888-1.986 1.981-1.986s1.977.89 1.977 1.986a1.98 1.98 0 11-3.958 0zm-21.773 0c0-1.175.951-2.128 2.123-2.128 1.173 0 2.124.953 2.124 2.128a2.123 2.123 0 11-4.247 0zm-20.094 0c0-.332.268-.605.599-.605.331 0 .603.269.603.605a.6.6 0 01-1.202 0zm-22.676 0c0-.911.738-1.654 1.646-1.654.909 0 1.65.743 1.65 1.654a1.65 1.65 0 11-3.296 0zm-23.941-.001a3.968 3.968 0 013.958-3.971 3.97 3.97 0 010 7.938c-2.182.004-3.958-1.776-3.958-3.967zm-18.09.002a.431.431 0 11.863-.001.431.431 0 01-.863.001zm-25.297 0a4.102 4.102 0 014.096-4.106 4.102 4.102 0 014.096 4.106 4.1 4.1 0 01-4.096 4.105 4.104 4.104 0 01-4.096-4.105zm-18.254-.001a.721.721 0 111.443-.001.721.721 0 01-1.443.001zm-22.531.001a1.64 1.64 0 011.638-1.641 1.64 1.64 0 011.637 1.641 1.64 1.64 0 01-1.637 1.642 1.64 1.64 0 01-1.638-1.642zm-21.203 0c0-.667.54-1.213 1.21-1.213a1.212 1.212 0 010 2.426c-.666 0-1.21-.541-1.21-1.213zm-20.922 0a.506.506 0 111.014 0 .507.507 0 11-1.014 0zm-22.223-.001a1.107 1.107 0 112.212 0 1.106 1.106 0 11-2.212 0zm-22.097.001a1.574 1.574 0 113.149 0c0 .869-.703 1.574-1.574 1.574a1.568 1.568 0 01-1.575-1.574zm-23.68-.001a3.635 3.635 0 013.631-3.64 3.635 3.635 0 013.631 3.64 3.637 3.637 0 01-3.631 3.639 3.637 3.637 0 01-3.631-3.639zm-20.871 0a2.883 2.883 0 012.877-2.884 2.883 2.883 0 012.878 2.884 2.883 2.883 0 01-2.878 2.884 2.883 2.883 0 01-2.877-2.884zm-21.29.001a2.534 2.534 0 115.068 0c0 1.402-1.13 2.54-2.533 2.54a2.538 2.538 0 01-2.534-2.54zm-22.366-.001a3.282 3.282 0 013.28-3.286 3.285 3.285 0 013.278 3.286 3.285 3.285 0 01-3.279 3.287c-1.81.005-3.28-1.473-3.28-3.287zm-19.516 0a1.17 1.17 0 011.169-1.171 1.17 1.17 0 010 2.342 1.168 1.168 0 01-1.169-1.171zm-24.48 0a4.029 4.029 0 014.024-4.038 4.037 4.037 0 014.038 4.038 4.037 4.037 0 01-4.037 4.038c-2.229.004-4.025-1.809-4.025-4.038zm-21.231 0a3.64 3.64 0 013.631-3.644 3.642 3.642 0 013.636 3.644 3.642 3.642 0 01-3.636 3.644 3.638 3.638 0 01-3.63-3.644zm674.018.853a.855.855 0 01-.85-.848.85.85 0 01.251-.6.846.846 0 01.599-.252c.222 0 .444.092.599.252a.846.846 0 01.247.6.844.844 0 01-.846.848zm-22.346-27.199a.719.719 0 111.437 0 .718.718 0 11-1.437 0zm-22.676.001c0-.982.796-1.776 1.772-1.776.98 0 1.771.798 1.771 1.776 0 .982-.795 1.776-1.771 1.776a1.775 1.775 0 01-1.772-1.776zm-23.812 0a3.963 3.963 0 013.953-3.967 3.962 3.962 0 013.954 3.967 3.96 3.96 0 01-3.954 3.963 3.96 3.96 0 01-3.953-3.963zm-20.473 0a2.81 2.81 0 012.806-2.813 2.81 2.81 0 012.806 2.813 2.81 2.81 0 01-2.806 2.813 2.81 2.81 0 01-2.806-2.813zm-20.277 0a1.46 1.46 0 011.457-1.461 1.46 1.46 0 010 2.922 1.46 1.46 0 01-1.457-1.461zm-22.781-.001a2.606 2.606 0 115.21 0 2.608 2.608 0 01-2.601 2.611 2.611 2.611 0 01-2.609-2.611zm-21.868 0a2.856 2.856 0 012.852-2.858 2.856 2.856 0 012.853 2.858 2.856 2.856 0 01-2.853 2.859 2.859 2.859 0 01-2.852-2.859zm-22.519.001a3.756 3.756 0 013.752-3.762 3.76 3.76 0 013.753 3.762 3.759 3.759 0 01-3.753 3.761 3.759 3.759 0 01-3.752-3.761zm-19.219 0a1.345 1.345 0 112.689 0 1.344 1.344 0 11-2.689 0zm-21.203-.001a.92.92 0 111.839 0 .922.922 0 01-.918.924.926.926 0 01-.921-.924zm-21.961 0a1.252 1.252 0 112.505 0c0 .693-.557 1.251-1.253 1.251a1.248 1.248 0 01-1.252-1.251zm-22.203 0c0-1.016.825-1.843 1.838-1.843a1.84 1.84 0 011.839 1.843 1.84 1.84 0 01-1.839 1.843 1.843 1.843 0 01-1.838-1.843zm-21.625 0c0-1.016.821-1.839 1.834-1.839 1.014 0 1.835.823 1.835 1.839a1.836 1.836 0 11-3.669 0zm-22.211.001a2.416 2.416 0 012.417-2.418 2.416 2.416 0 012.412 2.418 2.416 2.416 0 01-2.412 2.418 2.42 2.42 0 01-2.417-2.418zm-22.008 0a2.809 2.809 0 012.802-2.809 2.809 2.809 0 012.802 2.809 2.802 2.802 0 11-5.604 0zm-20.625 0c0-.999.808-1.805 1.801-1.805a1.805 1.805 0 010 3.61c-.997 0-1.801-.81-1.801-1.805zm-20.441 0c0-.344.276-.617.615-.617.34 0 .62.277.62.617a.618.618 0 01-1.235 0zm-23.528 0a2.524 2.524 0 012.522-2.527 2.527 2.527 0 010 5.054 2.525 2.525 0 01-2.522-2.527zm-20.75.001a1.638 1.638 0 113.276 0c0 .907-.729 1.641-1.638 1.641a1.641 1.641 0 01-1.638-1.641zm-20.425-.001a.445.445 0 11.892 0 .445.445 0 01-.444.445.44.44 0 01-.448-.445zm-23.532-.001a2.35 2.35 0 114.699 0 2.353 2.353 0 01-2.349 2.355 2.352 2.352 0 01-2.35-2.355zm-22.113.001a2.842 2.842 0 115.683 0 2.841 2.841 0 11-5.683 0zm-22.523.001a3.745 3.745 0 013.74-3.749 3.746 3.746 0 013.74 3.749 3.746 3.746 0 01-3.74 3.748 3.745 3.745 0 01-3.74-3.748zm-21.477-.001a3.595 3.595 0 013.589-3.598 3.59 3.59 0 013.59 3.598 3.59 3.59 0 01-3.59 3.597 3.595 3.595 0 01-3.589-3.597zm-22.066 0a4.033 4.033 0 014.029-4.043 4.04 4.04 0 014.033 4.043 4.036 4.036 0 01-4.033 4.038 4.03 4.03 0 01-4.029-4.038zm-20.657 0a3.062 3.062 0 013.058-3.064 3.06 3.06 0 013.057 3.064 3.06 3.06 0 01-3.057 3.064 3.062 3.062 0 01-3.058-3.064zm-20.086 0a1.518 1.518 0 113.037 0 1.518 1.518 0 11-3.036 0zm-21.523-.001c0-.785.637-1.423 1.416-1.423a1.423 1.423 0 010 2.846 1.422 1.422 0 01-1.416-1.423zm-20.875.001a.67.67 0 111.34 0 .67.67 0 11-1.34 0zm-25.059.001a4.109 4.109 0 014.105-4.118 4.111 4.111 0 014.104 4.118 4.11 4.11 0 01-4.104 4.114 4.105 4.105 0 01-4.105-4.114zm-21.367-.001a3.847 3.847 0 013.84-3.85 3.847 3.847 0 013.841 3.85 3.847 3.847 0 01-3.84 3.849 3.847 3.847 0 01-3.84-3.849zm674.23 3.253a3.251 3.251 0 01-2.291-.949 3.304 3.304 0 01-.954-2.305c0-.852.351-1.691.954-2.296a3.266 3.266 0 012.291-.957c.855 0 1.692.353 2.3.957.603.605.946 1.444.946 2.296 0 .861-.343 1.692-.946 2.305a3.285 3.285 0 01-2.3.949zm-23.417-29.599a1.796 1.796 0 113.593 0 1.798 1.798 0 01-3.593 0zm-23.668-.001a3.839 3.839 0 013.832-3.841 3.839 3.839 0 013.832 3.841 3.84 3.84 0 01-3.832 3.842 3.84 3.84 0 01-3.832-3.842zm-18.852.001c0-.584.473-1.058 1.056-1.058a1.057 1.057 0 010 2.115 1.057 1.057 0 01-1.056-1.057zm-22.656 0c0-1.159.938-2.099 2.094-2.099s2.094.94 2.094 2.099a2.098 2.098 0 01-2.094 2.099 2.098 2.098 0 01-2.094-2.099zm-22.535 0a3.005 3.005 0 012.999-3.006 3.005 3.005 0 012.998 3.006 3.004 3.004 0 01-2.998 3.005 3.001 3.001 0 01-2.999-3.005zm-19.977 0a1.35 1.35 0 112.702 0c0 .747-.608 1.352-1.349 1.352a1.354 1.354 0 01-1.353-1.352zm-21.179-.001a.909.909 0 111.817 0 .909.909 0 11-1.817 0zm-21.407.002a.683.683 0 111.367-.001.683.683 0 01-1.367.001zm-24.711-.002a3.782 3.782 0 013.778-3.778 3.774 3.774 0 013.769 3.778 3.776 3.776 0 01-3.769 3.778 3.781 3.781 0 01-3.778-3.778zm-19.867.001a2.015 2.015 0 114.029 0 2.017 2.017 0 01-2.014 2.019 2.018 2.018 0 01-2.015-2.019zm-20.898 0c0-.71.574-1.285 1.281-1.285.708 0 1.282.575 1.282 1.285 0 .709-.574 1.284-1.282 1.284a1.285 1.285 0 01-1.281-1.284zm-22.317 0c0-1.096.888-1.986 1.981-1.986a1.985 1.985 0 010 3.971 1.985 1.985 0 01-1.981-1.985zm-20.793 0c0-.634.516-1.15 1.148-1.15a1.15 1.15 0 010 2.3 1.15 1.15 0 01-1.148-1.15zm-23.156-.001a2.678 2.678 0 115.357 0 2.683 2.683 0 01-2.681 2.683 2.682 2.682 0 01-2.676-2.683zm-22.355 0a3.416 3.416 0 013.409-3.417 3.417 3.417 0 013.409 3.417 3.413 3.413 0 01-3.409 3.417 3.416 3.416 0 01-3.409-3.417zm-22.141.001a3.926 3.926 0 013.92-3.929 3.927 3.927 0 013.92 3.929 3.924 3.924 0 01-3.92 3.929 3.924 3.924 0 01-3.92-3.929zm-19.629 0c0-1.066.863-1.935 1.931-1.935 1.064 0 1.931.869 1.931 1.935a1.934 1.934 0 01-1.931 1.935 1.934 1.934 0 01-1.931-1.935zm-22.047-.001a2.349 2.349 0 012.346-2.35 2.349 2.349 0 012.345 2.35 2.349 2.349 0 01-2.345 2.351 2.35 2.35 0 01-2.346-2.351zm-20.933.001c0-.915.741-1.654 1.65-1.654.913 0 1.65.743 1.65 1.654 0 .911-.737 1.654-1.65 1.654-.909 0-1.65-.743-1.65-1.654zm-21.274-.001a1.31 1.31 0 011.307-1.309 1.31 1.31 0 010 2.619 1.31 1.31 0 01-1.307-1.31zm-22.73.001a2.411 2.411 0 012.408-2.414 2.414 2.414 0 012.408 2.414 2.411 2.411 0 01-2.408 2.414 2.416 2.416 0 01-2.408-2.414zm-22.793 0a3.58 3.58 0 013.581-3.59 3.58 3.58 0 013.572 3.59 3.58 3.58 0 01-3.572 3.589 3.583 3.583 0 01-3.581-3.589zm-20.41 0a2.36 2.36 0 012.358-2.363 2.36 2.36 0 012.358 2.363 2.36 2.36 0 01-2.358 2.364 2.363 2.363 0 01-2.358-2.364zm-20.004.001c0-.407.331-.743.737-.743.41 0 .737.332.737.743a.74.74 0 01-.737.739.74.74 0 01-.737-.739zm-21.637-.001c0-.42.335-.756.754-.756s.754.336.754.756a.754.754 0 11-1.508 0zm-21.801 0a.927.927 0 111.853 0 .927.927 0 01-1.853 0zm-23.059.001a2.365 2.365 0 012.359-2.372 2.363 2.363 0 012.362 2.372 2.365 2.365 0 01-2.362 2.368 2.365 2.365 0 01-2.358-2.368zm-21.456 0c0-1.213.98-2.2 2.19-2.2s2.195.982 2.195 2.2a2.199 2.199 0 01-2.195 2.199 2.2 2.2 0 01-2.19-2.199zm-22.75 0A3.323 3.323 0 0150 211.414a3.323 3.323 0 010 6.645 3.317 3.317 0 01-3.317-3.32zm-21.149 0a2.848 2.848 0 012.844-2.854 2.85 2.85 0 012.844 2.854 2.848 2.848 0 01-2.844 2.851 2.845 2.845 0 01-2.844-2.851zm-19.851-.001a1.064 1.064 0 112.127 0c0 .588-.477 1.066-1.064 1.066a1.066 1.066 0 01-1.063-1.066zm671.452 3.425c-.904 0-1.78-.365-2.412-.999a3.47 3.47 0 01-1.005-2.426c0-.899.368-1.78 1.005-2.418a3.4 3.4 0 014.833 0c.637.638.997 1.519.997 2.418 0 .902-.365 1.788-.997 2.426a3.458 3.458 0 01-2.421.999zm-23.417-29.771c0-.99.8-1.796 1.792-1.796a1.797 1.797 0 010 3.593 1.794 1.794 0 01-1.792-1.797zm-22.524 0a2.693 2.693 0 012.689-2.695 2.692 2.692 0 012.689 2.695 2.692 2.692 0 01-2.689 2.695 2.696 2.696 0 01-2.689-2.695zm-22.539.001a3.604 3.604 0 013.598-3.606 3.6 3.6 0 013.598 3.606 3.6 3.6 0 01-3.598 3.606 3.607 3.607 0 01-3.598-3.606zm-18.453-.002c0-.239.193-.432.436-.432a.431.431 0 010 .865.433.433 0 01-.436-.433zm-24.508.002a3.32 3.32 0 013.317-3.321 3.318 3.318 0 013.313 3.321 3.315 3.315 0 11-6.63 0zm-20.531 0a2.215 2.215 0 114.431 0 2.215 2.215 0 11-4.431 0zm-20.93 0c0-.844.683-1.524 1.521-1.524a1.525 1.525 0 010 3.048 1.525 1.525 0 01-1.521-1.524zm-21.828-.002c0-.953.771-1.725 1.722-1.725.95 0 1.721.772 1.721 1.725 0 .953-.771 1.726-1.721 1.726a1.727 1.727 0 01-1.722-1.726zm-20.965.002a1.07 1.07 0 112.136 0 1.068 1.068 0 11-2.136 0zm-24.3-.002a3.745 3.745 0 013.74-3.748 3.746 3.746 0 013.74 3.748 3.746 3.746 0 01-3.74 3.749 3.745 3.745 0 01-3.74-3.749zm-19.817.001c0-1.07.867-1.935 1.931-1.935 1.068 0 1.931.869 1.931 1.935a1.933 1.933 0 01-1.931 1.935 1.934 1.934 0 01-1.931-1.935zm-22.777 0a3.088 3.088 0 013.082-3.089 3.088 3.088 0 013.083 3.089 3.089 3.089 0 01-3.083 3.09 3.088 3.088 0 01-3.082-3.09zm-21.719.001a3.183 3.183 0 013.179-3.186 3.183 3.183 0 013.179 3.186 3.183 3.183 0 01-3.179 3.186 3.188 3.188 0 01-3.179-3.186zm-20.301 0a1.855 1.855 0 113.711 0 1.859 1.859 0 01-1.859 1.859 1.858 1.858 0 01-1.852-1.859zm-22.64 0a2.873 2.873 0 012.869-2.875 2.87 2.87 0 012.864 2.875 2.87 2.87 0 01-2.864 2.876 2.88 2.88 0 01-2.869-2.876zm-20.715-.001a1.957 1.957 0 113.912 0 1.959 1.959 0 01-1.956 1.961 1.964 1.964 0 01-1.956-1.961zm-22.41 0a2.742 2.742 0 115.486 0c0 1.52-1.227 2.75-2.743 2.75a2.748 2.748 0 01-2.743-2.75zm-21.582.001a2.705 2.705 0 012.701-2.707 2.705 2.705 0 012.701 2.707 2.705 2.705 0 01-2.701 2.708 2.711 2.711 0 01-2.701-2.708zm-22.664 0a3.732 3.732 0 117.463 0 3.734 3.734 0 01-3.732 3.74 3.739 3.739 0 01-3.731-3.74zm-20.055-.001c0-1.201.972-2.179 2.174-2.179 1.197 0 2.169.974 2.169 2.179 0 1.2-.972 2.178-2.169 2.178a2.18 2.18 0 01-2.174-2.178zm-20.59.001c0-.625.507-1.133 1.131-1.133a1.133 1.133 0 010 2.267 1.133 1.133 0 01-1.131-1.134zm-22.726-.001a2.232 2.232 0 114.464 0 2.235 2.235 0 01-2.228 2.242 2.242 2.242 0 01-2.236-2.242zm-20.762 0c0-.755.611-1.372 1.369-1.372a1.372 1.372 0 010 2.745 1.374 1.374 0 01-1.369-1.373zm-22.68.001a2.424 2.424 0 114.85 0 2.427 2.427 0 01-2.425 2.431 2.432 2.432 0 01-2.425-2.431zm-22.086-.001a2.89 2.89 0 115.776 0c0 1.6-1.294 2.897-2.886 2.897a2.9 2.9 0 01-2.89-2.897zm-20.922 0c0-1.205.976-2.183 2.178-2.183s2.178.978 2.178 2.183a2.181 2.181 0 01-2.178 2.183 2.181 2.181 0 01-2.178-2.183zm-20.636.001a1.19 1.19 0 011.193-1.192c.658 0 1.186.533 1.186 1.192 0 .659-.528 1.193-1.186 1.193a1.197 1.197 0 01-1.193-1.193zm-22.243-.001a1.812 1.812 0 113.623 0 1.812 1.812 0 11-3.623 0zm-23.058.001a3.241 3.241 0 013.237-3.245 3.241 3.241 0 013.238 3.245 3.24 3.24 0 01-3.238 3.245 3.246 3.246 0 01-3.237-3.245zm-20.945-.002a2.563 2.563 0 115.126 0 2.566 2.566 0 01-2.563 2.569 2.568 2.568 0 01-2.564-2.569zm-20.825.001a1.76 1.76 0 011.76-1.763 1.76 1.76 0 011.758 1.763 1.76 1.76 0 01-1.759 1.763 1.766 1.766 0 01-1.759-1.763zm672.145 3.551a3.577 3.577 0 01-2.504-1.037 3.61 3.61 0 01-1.043-2.518 3.567 3.567 0 013.547-3.556c.934 0 1.852.382 2.513 1.045a3.594 3.594 0 011.035 2.511c0 .94-.377 1.847-1.035 2.518a3.587 3.587 0 01-2.513 1.037zm-24.363-29.901a2.74 2.74 0 012.739-2.745 2.743 2.743 0 012.739 2.745 2.743 2.743 0 01-2.739 2.746 2.738 2.738 0 01-2.739-2.746zm-20.305 0c0-.785.636-1.423 1.42-1.423.783 0 1.419.638 1.419 1.423s-.636 1.423-1.419 1.423c-.784 0-1.42-.638-1.42-1.423zm-23.832.001a3.628 3.628 0 013.623-3.631 3.628 3.628 0 013.622 3.631 3.63 3.63 0 01-3.622 3.631c-1.998.005-3.623-1.624-3.623-3.631zm-21.625.001a3.627 3.627 0 013.627-3.636 3.633 3.633 0 013.627 3.636 3.633 3.633 0 01-3.627 3.635 3.624 3.624 0 01-3.627-3.635zm-19.438-.001a1.44 1.44 0 011.437-1.439 1.44 1.44 0 010 2.879 1.44 1.44 0 01-1.437-1.44zm-21.156.001a.964.964 0 111.927 0 .965.965 0 11-1.927 0zm-21.359-.001a.71.71 0 01.707-.709.71.71 0 010 1.419.708.708 0 01-.707-.71zm-24.649-.001a3.728 3.728 0 013.724-3.732 3.728 3.728 0 013.723 3.732 3.728 3.728 0 01-3.723 3.732 3.73 3.73 0 01-3.724-3.732zm-19.652 0a1.756 1.756 0 113.514 0c0 .974-.788 1.759-1.755 1.759a1.752 1.752 0 01-1.759-1.759zm-23.453 0a3.586 3.586 0 013.581-3.589 3.587 3.587 0 013.581 3.589 3.586 3.586 0 01-3.581 3.589 3.586 3.586 0 01-3.581-3.589zm-19.156.002a1.109 1.109 0 012.219 0 1.11 1.11 0 11-2.219 0zm-22.715-.002c0-1.217.984-2.208 2.203-2.208a2.209 2.209 0 010 4.416 2.206 2.206 0 01-2.203-2.208zm-22.2.001a2.777 2.777 0 012.773-2.779 2.78 2.78 0 010 5.558 2.777 2.777 0 01-2.773-2.779zm-19.476.001a.628.628 0 111.256 0 .627.627 0 11-1.256 0zm-22.766-.001a1.77 1.77 0 011.768-1.772 1.77 1.77 0 011.767 1.772c0 .978-.791 1.771-1.767 1.771a1.77 1.77 0 01-1.768-1.771zm-21.609-.001c0-.966.783-1.755 1.746-1.755a1.755 1.755 0 010 3.51 1.75 1.75 0 01-1.746-1.755zm-21.59.001a1.714 1.714 0 113.426 0 1.714 1.714 0 11-3.426 0zm-20.707-.002c0-.436.356-.793.792-.793a.794.794 0 010 1.587.79.79 0 01-.792-.794zm-21.316.001c0-.273.217-.491.49-.491.272 0 .49.218.49.491a.488.488 0 01-.49.491.488.488 0 01-.49-.491zm-23.364 0a2.23 2.23 0 114.457 0 2.23 2.23 0 01-2.229 2.233 2.227 2.227 0 01-2.228-2.233zm-22.515.001a3.119 3.119 0 013.116-3.123 3.12 3.12 0 013.116 3.123 3.12 3.12 0 01-3.116 3.123 3.119 3.119 0 01-3.116-3.123zm-21.157-.001a2.653 2.653 0 012.652-2.657 2.658 2.658 0 010 5.314 2.65 2.65 0 01-2.652-2.657zm-23.058.002a4.086 4.086 0 014.079-4.089 4.083 4.083 0 014.079 4.089 4.083 4.083 0 01-4.079 4.088 4.086 4.086 0 01-4.079-4.088zm-19.797-.001a2.25 2.25 0 114.498 0 2.25 2.25 0 11-4.498 0zm-21.184-.001a1.81 1.81 0 113.619 0 1.809 1.809 0 11-3.619 0zm-22.437 0a2.63 2.63 0 012.622-2.632 2.63 2.63 0 012.626 2.632 2.63 2.63 0 01-2.626 2.632 2.627 2.627 0 01-2.622-2.632zm-21.941 0a2.94 2.94 0 012.935-2.942 2.937 2.937 0 012.936 2.942 2.937 2.937 0 01-2.936 2.943 2.94 2.94 0 01-2.936-2.943zm-22.383.001a3.706 3.706 0 013.698-3.707 3.706 3.706 0 013.698 3.707 3.706 3.706 0 01-3.698 3.706 3.7 3.7 0 01-3.698-3.706zm-18.903-.001c0-.537.436-.974.972-.974a.974.974 0 010 1.948.973.973 0 01-.972-.974zm-24.148 0a3.503 3.503 0 013.501-3.505 3.506 3.506 0 013.502 3.505 3.506 3.506 0 01-3.502 3.51 3.507 3.507 0 01-3.501-3.51zm-22.169.001a4.049 4.049 0 014.038-4.051 4.049 4.049 0 014.042 4.051 4.049 4.049 0 01-4.042 4.051 4.045 4.045 0 01-4.037-4.051zm674.424 2.751c-.721 0-1.424-.29-1.935-.802a2.767 2.767 0 01-.804-1.944c0-.718.297-1.427.804-1.939a2.735 2.735 0 011.935-.806c.724 0 1.432.298 1.939.806a2.756 2.756 0 010 3.883 2.76 2.76 0 01-1.939.802zm-25.208-29.097c0-1.986 1.6-3.593 3.581-3.593a3.592 3.592 0 013.593 3.593 3.589 3.589 0 01-3.593 3.593 3.584 3.584 0 01-3.581-3.593zm-19.055.001c0-.563.457-1.02 1.014-1.02a1.02 1.02 0 010 2.04 1.02 1.02 0 01-1.014-1.02zm-24.523 0a3.918 3.918 0 013.911-3.921 3.918 3.918 0 013.912 3.921 3.918 3.918 0 01-3.912 3.921 3.918 3.918 0 01-3.911-3.921zm-21.594-.002a3.888 3.888 0 013.887-3.895 3.893 3.893 0 013.886 3.895 3.886 3.886 0 11-7.773 0zm-19.258.001c0-.836.679-1.511 1.512-1.511s1.508.675 1.508 1.511c0 .835-.679 1.515-1.508 1.515-.833 0-1.512-.68-1.512-1.515zm-22.031.001a1.92 1.92 0 113.84 0 1.924 1.924 0 01-1.922 1.927 1.92 1.92 0 01-1.918-1.927zm-22.008-.001a2.304 2.304 0 114.607 0 2.307 2.307 0 01-2.303 2.309 2.308 2.308 0 01-2.304-2.309zm-20.746-.001a1.415 1.415 0 112.831 0 1.415 1.415 0 11-2.831 0zm-23.277 0a3.074 3.074 0 116.148 0 3.08 3.08 0 01-3.074 3.082 3.077 3.077 0 01-3.074-3.082zm-21.688.001a3.141 3.141 0 013.137-3.144c1.73 0 3.137 1.41 3.137 3.144a3.141 3.141 0 01-3.137 3.144 3.141 3.141 0 01-3.137-3.144zm-19.289.001a.797.797 0 111.592 0 .797.797 0 11-1.592 0zm-22.656 0c0-1.016.821-1.839 1.834-1.839 1.014 0 1.835.823 1.835 1.839a1.836 1.836 0 01-1.835 1.839 1.836 1.836 0 01-1.834-1.839zm-22.547-.001a2.757 2.757 0 012.752-2.758 2.757 2.757 0 012.751 2.758 2.756 2.756 0 01-2.751 2.758 2.756 2.756 0 01-2.752-2.758zm-22.395.001a3.522 3.522 0 013.523-3.522 3.512 3.512 0 013.505 3.522 3.513 3.513 0 11-7.028 0zm-20.461-.001a2.36 2.36 0 014.716 0 2.36 2.36 0 01-2.358 2.363 2.36 2.36 0 01-2.358-2.363zm-22.816.001a3.552 3.552 0 013.547-3.555 3.55 3.55 0 013.548 3.555 3.554 3.554 0 01-3.548 3.556 3.553 3.553 0 01-3.547-3.556zm-19.644-.001c0-.869.703-1.574 1.57-1.574a1.573 1.573 0 010 3.148c-.867 0-1.57-.705-1.57-1.574zm-22.075 0c0-1.117.905-2.019 2.015-2.019 1.114 0 2.014.906 2.014 2.019a2.02 2.02 0 01-2.014 2.023 2.022 2.022 0 01-2.015-2.023zm-21.98.001a2.366 2.366 0 114.732 0 2.366 2.366 0 01-2.366 2.372 2.372 2.372 0 01-2.366-2.372zm-20.766-.001a1.514 1.514 0 113.028 0 1.514 1.514 0 11-3.028 0zm-22.64 0a2.528 2.528 0 115.055 0 2.53 2.53 0 01-2.526 2.532 2.53 2.53 0 01-2.529-2.532zm-23.207.001a4.112 4.112 0 014.112-4.114 4.11 4.11 0 014.105 4.114 4.11 4.11 0 01-4.105 4.114 4.112 4.112 0 01-4.112-4.114zm-19.993-.001a2.48 2.48 0 012.476-2.48 2.48 2.48 0 010 4.961 2.48 2.48 0 01-2.476-2.481zm-21.25 0c0-1.159.938-2.099 2.094-2.099a2.098 2.098 0 010 4.197 2.097 2.097 0 01-2.094-2.098zm-20.836 0a1.317 1.317 0 112.631 0 1.32 1.32 0 01-1.315 1.318 1.317 1.317 0 01-1.316-1.318zm-21.871.001a1.555 1.555 0 113.112 0 1.555 1.555 0 11-3.112 0zm-22.293-.001a2.218 2.218 0 114.436 0 2.22 2.22 0 01-2.22 2.221 2.222 2.222 0 01-2.216-2.221zm-22.817 0a3.423 3.423 0 013.419-3.426 3.423 3.423 0 013.417 3.426 3.422 3.422 0 01-3.418 3.425 3.422 3.422 0 01-3.417-3.425zm-21.769 0a3.566 3.566 0 013.56-3.568 3.566 3.566 0 013.56 3.568 3.566 3.566 0 01-3.56 3.568 3.566 3.566 0 01-3.56-3.568zm-22.109.001a4.05 4.05 0 118.1 0 4.05 4.05 0 11-8.1 0zm-19.73-.002c0-1.188.963-2.153 2.148-2.153a2.156 2.156 0 010 4.311 2.153 2.153 0 01-2.148-2.158zm672.53 1.793a1.784 1.784 0 01-1.784-1.792c0-.47.192-.932.523-1.264a1.77 1.77 0 012.526 0 1.792 1.792 0 010 2.532 1.786 1.786 0 01-1.265.524zm-24.347-28.137a2.727 2.727 0 012.727-2.729 2.726 2.726 0 012.722 2.729 2.725 2.725 0 11-5.449 0zm-22.847-.001a3.951 3.951 0 013.945-3.955 3.951 3.951 0 013.945 3.955 3.95 3.95 0 01-3.945 3.954 3.95 3.95 0 01-3.945-3.954zm-21.36.001a3.681 3.681 0 013.677-3.686 3.679 3.679 0 013.678 3.686 3.678 3.678 0 01-3.678 3.685 3.683 3.683 0 01-3.677-3.685zm-18.785 0a.843.843 0 111.686-.002.843.843 0 01-1.686.002zm-24.734-.001a3.955 3.955 0 013.949-3.958 3.951 3.951 0 013.945 3.958 3.955 3.955 0 01-3.945 3.959 3.961 3.961 0 01-3.949-3.959zm-19.36.001a1.684 1.684 0 113.368 0c0 .932-.754 1.687-1.684 1.687a1.691 1.691 0 01-1.684-1.687zm-21.383.001c0-.798.645-1.449 1.445-1.449.796 0 1.445.647 1.445 1.449 0 .797-.645 1.448-1.445 1.448a1.45 1.45 0 01-1.445-1.448zm-21.082-.002c0-.495.402-.898.897-.898a.898.898 0 010 1.797.899.899 0 01-.897-.899zm-24.406-.001a3.683 3.683 0 013.681-3.69 3.688 3.688 0 013.682 3.69c0 2.036-1.65 3.69-3.682 3.69a3.685 3.685 0 01-3.681-3.69zm-20.406.001a2.462 2.462 0 012.458-2.464 2.463 2.463 0 012.459 2.464 2.463 2.463 0 01-2.459 2.464 2.462 2.462 0 01-2.458-2.464zm-21.652 0a2.49 2.49 0 012.483-2.49 2.484 2.484 0 012.484 2.49 2.487 2.487 0 01-2.484 2.489 2.49 2.49 0 01-2.483-2.489zm-22.426-.001a3.296 3.296 0 013.292-3.299 3.296 3.296 0 013.292 3.299c0 1.822-1.475 3.3-3.292 3.3a3.302 3.302 0 01-3.292-3.3zm-21.559.001a3.226 3.226 0 013.221-3.228 3.226 3.226 0 013.221 3.228 3.226 3.226 0 01-3.221 3.228 3.228 3.228 0 01-3.221-3.228zm-20.937 0a2.536 2.536 0 115.072 0 2.542 2.542 0 01-2.543 2.543 2.536 2.536 0 01-2.529-2.543zm-20.149 0c0-.584.473-1.058 1.056-1.058a1.057 1.057 0 010 2.116 1.058 1.058 0 01-1.056-1.058zm-23.16.001a2.593 2.593 0 012.588-2.594 2.593 2.593 0 012.589 2.594 2.592 2.592 0 01-2.589 2.594 2.592 2.592 0 01-2.588-2.594zm-19.894-.001a.863.863 0 111.725 0 .862.862 0 11-1.725 0zm-21.829 0c0-.587.478-1.066 1.064-1.066a1.067 1.067 0 010 2.133 1.067 1.067 0 01-1.064-1.067zm-23.296.001a2.734 2.734 0 012.73-2.737 2.735 2.735 0 012.731 2.737 2.735 2.735 0 01-2.731 2.737 2.734 2.734 0 01-2.73-2.737zm-20.688 0c0-.995.804-1.801 1.797-1.801.992 0 1.796.806 1.796 1.801 0 .995-.804 1.801-1.796 1.801a1.801 1.801 0 01-1.797-1.801zm-20.344 0a.51.51 0 111.022-.002.51.51 0 01-1.022.002zm-23.347-.001a2.24 2.24 0 114.481 0 2.24 2.24 0 11-4.481 0zm-22.059.001a2.677 2.677 0 012.672-2.678c1.474 0 2.672 1.2 2.672 2.678a2.677 2.677 0 01-2.672 2.678 2.677 2.677 0 01-2.672-2.678zm-21.34-.001a2.387 2.387 0 012.383-2.388 2.387 2.387 0 012.383 2.388 2.387 2.387 0 01-2.383 2.389 2.387 2.387 0 01-2.383-2.389zm-22.152 0a2.913 2.913 0 012.911-2.917 2.912 2.912 0 012.91 2.917 2.913 2.913 0 01-2.91 2.918 2.92 2.92 0 01-2.911-2.918zm-19.902-.001a1.19 1.19 0 112.378 0 1.19 1.19 0 11-2.378 0zm-21.114.001a.67.67 0 01.675-.671.67.67 0 01.67.671.67.67 0 01-.67.676.68.68 0 01-.675-.676zm-24.152.001a3.207 3.207 0 013.204-3.211 3.21 3.21 0 010 6.422 3.21 3.21 0 01-3.204-3.211zm-19.652-.001c0-.68.552-1.234 1.23-1.234a1.235 1.235 0 010 2.469 1.233 1.233 0 01-1.23-1.235zm-21.426 0a1.035 1.035 0 112.069 0 1.035 1.035 0 11-2.069 0zm-23.469-.001a2.875 2.875 0 012.873-2.879 2.875 2.875 0 012.873 2.879 2.876 2.876 0 01-2.873 2.88 2.878 2.878 0 01-2.873-2.88zm673.259.539a.54.54 0 01-.536-.537c0-.143.058-.277.159-.378.1-.101.239-.16.377-.16a.54.54 0 01.381.92.56.56 0 01-.381.155zm-22.2-26.882a.58.58 0 01.578-.58.58.58 0 010 1.16.582.582 0 01-.578-.58zm-22.508-.001a1.462 1.462 0 112.923 0c0 .806-.653 1.465-1.462 1.465a1.467 1.467 0 01-1.461-1.465zm-20.91-.001a.74.74 0 111.482 0 .744.744 0 01-.741.743.746.746 0 01-.741-.743zm-23.438.001a2.562 2.562 0 012.559-2.565 2.561 2.561 0 012.559 2.565 2.564 2.564 0 01-2.559 2.565 2.565 2.565 0 01-2.559-2.565zm-20.805-.001a1.734 1.734 0 113.468 0c0 .958-.775 1.738-1.734 1.738a1.74 1.74 0 01-1.734-1.737zm-23.304.002a3.409 3.409 0 013.405-3.413 3.406 3.406 0 013.405 3.413 3.407 3.407 0 01-3.405 3.412 3.414 3.414 0 01-3.405-3.412zm-19.664-.001a1.46 1.46 0 011.457-1.461 1.46 1.46 0 010 2.922 1.465 1.465 0 01-1.457-1.461zm-21.18-.001a1.002 1.002 0 112.002 0 1.002 1.002 0 11-2.002 0zm-22.02.001c0-.777.629-1.406 1.403-1.406a1.405 1.405 0 010 2.812 1.41 1.41 0 01-1.403-1.406zm-22.535.001a2.314 2.314 0 012.312-2.318 2.317 2.317 0 010 4.635 2.322 2.322 0 01-2.312-2.317zm-22.168-.002a2.855 2.855 0 012.848-2.858 2.853 2.853 0 012.852 2.858 2.853 2.853 0 01-2.852 2.859 2.86 2.86 0 01-2.848-2.859zm-20.222.001a1.46 1.46 0 011.457-1.461 1.46 1.46 0 010 2.922 1.465 1.465 0 01-1.457-1.461zm-22.879 0a2.705 2.705 0 012.701-2.707 2.706 2.706 0 012.702 2.707 2.706 2.706 0 01-2.702 2.708 2.705 2.705 0 01-2.701-2.708zm-21.203.001a2.285 2.285 0 012.278-2.292 2.287 2.287 0 012.287 2.292 2.284 2.284 0 11-4.565 0zm-22.633-.002c0-1.822 1.474-3.3 3.292-3.3a3.297 3.297 0 013.292 3.3c0 1.821-1.475 3.3-3.292 3.3a3.302 3.302 0 01-3.292-3.3zm-20.199.002a1.864 1.864 0 113.727 0 1.864 1.864 0 11-3.727 0zm-21.688 0a1.93 1.93 0 011.927-1.93 1.93 1.93 0 011.926 1.93 1.93 1.93 0 01-1.926 1.931 1.932 1.932 0 01-1.927-1.93zm-20.277 0c0-.32.259-.575.574-.575a.575.575 0 010 1.15.578.578 0 01-.574-.575zm-24.086 0a3.044 3.044 0 013.036-3.052 3.043 3.043 0 013.045 3.052 3.04 3.04 0 11-6.081 0zm-21.977-.001c0-1.877 1.521-3.4 3.393-3.4a3.398 3.398 0 013.392 3.4c0 1.876-1.52 3.4-3.392 3.4a3.399 3.399 0 01-3.393-3.4zm-18.82-.001c0-.319.26-.583.582-.583a.584.584 0 010 1.167.59.59 0 01-.582-.584zm-23.273.002c0-1.234.996-2.238 2.232-2.238a2.233 2.233 0 012.228 2.238 2.233 2.233 0 01-2.228 2.237 2.234 2.234 0 01-2.232-2.237zm-22.11-.001a2.724 2.724 0 012.718-2.725c1.5 0 2.718 1.222 2.718 2.725a2.723 2.723 0 01-2.718 2.724 2.726 2.726 0 01-2.718-2.724zm-21.355 0a2.449 2.449 0 012.446-2.452 2.449 2.449 0 012.445 2.452 2.449 2.449 0 01-2.445 2.451 2.452 2.452 0 01-2.446-2.451zm-23.203.001a4.03 4.03 0 014.024-4.034 4.03 4.03 0 014.025 4.034 4.03 4.03 0 01-4.025 4.034 4.036 4.036 0 01-4.024-4.034zm-21.086-.001a3.491 3.491 0 013.484-3.492 3.491 3.491 0 013.485 3.492 3.491 3.491 0 01-3.485 3.493 3.491 3.491 0 01-3.484-3.493zm-19.02.001a.878.878 0 111.755 0c0 .486-.39.881-.875.881a.886.886 0 01-.88-.882zm-24.477-.002a3.735 3.735 0 013.728-3.736 3.735 3.735 0 013.728 3.736 3.735 3.735 0 01-3.728 3.736 3.735 3.735 0 01-3.728-3.736zm-20.789.001c0-1.6 1.295-2.9 2.89-2.9a2.895 2.895 0 012.89 2.9c0 1.6-1.294 2.897-2.89 2.897a2.894 2.894 0 01-2.89-2.897zm-19.863-.001a1.139 1.139 0 112.279 0c0 .63-.511 1.142-1.14 1.142a1.142 1.142 0 01-1.139-1.142zm-21.59.001a1.097 1.097 0 112.195 0c0 .609-.49 1.1-1.097 1.1a1.105 1.105 0 01-1.098-1.1zm671.483 3.874a3.898 3.898 0 01-2.73-1.13 3.91 3.91 0 01-1.135-2.745c0-1.015.418-2.014 1.135-2.736a3.872 3.872 0 012.73-1.138 3.91 3.91 0 012.739 1.138 3.882 3.882 0 011.127 2.736 3.923 3.923 0 01-1.127 2.746 3.91 3.91 0 01-2.739 1.13zm-22.69-30.224a1.069 1.069 0 112.136 0 1.068 1.068 0 11-2.136 0zm-21.261 0c0-.39.314-.701.699-.701a.7.7 0 110 1.402.696.696 0 01-.699-.701zm-23.481 0a2.557 2.557 0 012.555-2.56 2.558 2.558 0 012.555 2.56 2.558 2.558 0 01-2.555 2.561 2.557 2.557 0 01-2.555-2.56zm-21.195 0c0-1.175.955-2.133 2.127-2.133a2.133 2.133 0 010 4.265 2.13 2.13 0 01-2.127-2.132zm-22.422.001a2.927 2.927 0 012.923-2.93 2.93 2.93 0 010 5.86 2.921 2.921 0 01-2.923-2.93zm-20.277-.002a1.579 1.579 0 113.157 0 1.579 1.579 0 11-3.157 0zm-23.786.002a3.744 3.744 0 013.736-3.745 3.743 3.743 0 013.736 3.745 3.74 3.74 0 01-3.736 3.744 3.739 3.739 0 01-3.736-3.744zm-19.367 0c0-.814.662-1.477 1.474-1.477a1.478 1.478 0 010 2.955c-.812 0-1.474-.66-1.474-1.478zm-23.32-.002a3.177 3.177 0 013.175-3.182 3.179 3.179 0 013.174 3.182 3.174 3.174 0 11-6.349 0zm-19.473.002c0-.563.457-1.02 1.018-1.02a1.02 1.02 0 010 2.04 1.02 1.02 0 01-1.018-1.02zm-21.859-.002a1.247 1.247 0 112.496 0 1.25 1.25 0 01-1.248 1.251 1.245 1.245 0 01-1.248-1.25zm-22.629.002a2.258 2.258 0 114.515 0 2.261 2.261 0 01-2.258 2.263 2.261 2.261 0 01-2.257-2.263zm-21.195-.001a1.83 1.83 0 011.826-1.83 1.83 1.83 0 010 3.66 1.827 1.827 0 01-1.826-1.83zm-22.426 0a2.634 2.634 0 115.269 0 2.634 2.634 0 11-5.269 0zm-21.07 0c0-1.146.929-2.078 2.073-2.078a2.078 2.078 0 010 4.156 2.077 2.077 0 01-2.073-2.078zm-21.196-.001a1.641 1.641 0 113.284 0 1.64 1.64 0 01-1.642 1.642 1.64 1.64 0 01-1.642-1.642zm-23.707.001a3.735 3.735 0 013.728-3.736 3.735 3.735 0 013.727 3.736 3.735 3.735 0 01-3.727 3.736 3.735 3.735 0 01-3.728-3.736zm-18.988 0c0-.6.486-1.092 1.089-1.092a1.09 1.09 0 010 2.183 1.088 1.088 0 01-1.089-1.091zm-21.301.001a.763.763 0 111.526-.002.763.763 0 01-1.526.002zm-22.578 0c0-.949.766-1.721 1.717-1.721a1.721 1.721 0 010 3.442 1.718 1.718 0 01-1.717-1.721zm-23.769-.002a3.862 3.862 0 013.857-3.866 3.865 3.865 0 013.857 3.866 3.862 3.862 0 01-3.857 3.867 3.865 3.865 0 01-3.857-3.867zm-19.957.001a2.19 2.19 0 012.186-2.191 2.191 2.191 0 010 4.382 2.188 2.188 0 01-2.186-2.19zm-22.336-.001a2.907 2.907 0 012.902-2.909 2.91 2.91 0 012.902 2.91 2.904 2.904 0 01-2.902 2.908 2.904 2.904 0 01-2.902-2.909zm-19.516.002c0-.437.352-.794.787-.794.436 0 .792.353.792.794a.788.788 0 11-1.579 0zm-23.082 0a2.252 2.252 0 012.249-2.255 2.252 2.252 0 012.249 2.255 2.25 2.25 0 11-4.498 0zm-21.035 0a1.659 1.659 0 113.317 0 1.66 1.66 0 11-3.317 0zm-22.019 0a2.057 2.057 0 114.112 0 2.057 2.057 0 11-4.113 0zm-20.41-.001a.84.84 0 01.837-.84.841.841 0 010 1.68.836.836 0 01-.838-.84zm-23.563 0a2.779 2.779 0 012.772-2.78 2.78 2.78 0 010 5.559 2.774 2.774 0 01-2.772-2.78zm-21.344 0a2.493 2.493 0 114.984 0 2.499 2.499 0 01-2.492 2.502 2.494 2.494 0 01-2.492-2.502zm-22.578 0a3.45 3.45 0 013.442-3.45 3.447 3.447 0 013.443 3.45 3.447 3.447 0 01-3.443 3.45 3.444 3.444 0 01-3.442-3.45zm673.829 2.989c-.779 0-1.55-.314-2.102-.873a3.02 3.02 0 01-.876-2.115c0-.781.323-1.554.876-2.108a3 3 0 012.102-.877c.787 0 1.554.323 2.111.877.553.559.871 1.318.871 2.108 0 .789-.314 1.557-.871 2.115a3.012 3.012 0 01-2.111.873zM654.875 30.31a.642.642 0 111.283-.001.642.642 0 01-1.283.001zm-24.961.002c0-2.196 1.78-3.98 3.97-3.98a3.978 3.978 0 013.971 3.98c0 2.195-1.78 3.98-3.971 3.98a3.978 3.978 0 01-3.97-3.98zm-21.277-.002a3.624 3.624 0 013.618-3.627 3.624 3.624 0 013.619 3.627 3.624 3.624 0 01-3.619 3.627 3.624 3.624 0 01-3.618-3.627zm-20.668 0a2.667 2.667 0 115.335 0 2.667 2.667 0 11-5.335 0zm-19.633 0a.67.67 0 01.67-.672.672.672 0 010 1.343.672.672 0 01-.67-.67zm-23.184 0c0-1.234.997-2.238 2.233-2.238a2.237 2.237 0 010 4.475 2.234 2.234 0 01-2.233-2.237zm-20.015 0a.619.619 0 111.239 0 .619.619 0 11-1.239 0zm-23.75 0a2.743 2.743 0 012.739-2.745 2.743 2.743 0 012.739 2.745 2.743 2.743 0 01-2.739 2.745 2.74 2.74 0 01-2.739-2.745zm-22.91 0c0-2.233 1.8-4.047 4.029-4.047a4.046 4.046 0 014.045 4.047 4.046 4.046 0 01-4.045 4.047 4.034 4.034 0 01-4.029-4.047zm-19.684 0c0-1.155.934-2.095 2.09-2.095a2.09 2.09 0 012.086 2.095 2.092 2.092 0 01-2.086 2.094c-1.152 0-2.09-.94-2.09-2.094zm-21.852 0a2.313 2.313 0 012.312-2.314 2.307 2.307 0 012.308 2.313 2.31 2.31 0 11-4.62 0zm-22.285 0a2.985 2.985 0 012.978-2.984 2.982 2.982 0 012.978 2.985 2.982 2.982 0 01-2.978 2.984 2.98 2.98 0 01-2.978-2.984zm-19.961 0a1.312 1.312 0 112.622 0 1.311 1.311 0 11-2.622 0zm-22.543 0a2.234 2.234 0 114.469 0 2.234 2.234 0 11-4.469 0zm-21.429 0c0-1.126.909-2.037 2.031-2.037s2.031.911 2.031 2.036a2.033 2.033 0 01-2.031 2.036 2.035 2.035 0 01-2.031-2.036zm-20.258 0c0-.365.297-.663.662-.663a.663.663 0 010 1.326.664.664 0 01-.662-.663zm-24.32 0c0-1.86 1.499-3.37 3.363-3.37a3.37 3.37 0 013.363 3.37 3.37 3.37 0 01-3.363 3.371 3.364 3.364 0 01-3.363-3.37zm-20.254 0c0-1.1.888-1.99 1.985-1.99s1.985.89 1.985 1.99-.888 1.99-1.985 1.99a1.989 1.989 0 01-1.985-1.99zm-22.278 0a2.64 2.64 0 012.635-2.64 2.637 2.637 0 012.634 2.64 2.637 2.637 0 01-2.634 2.64 2.64 2.64 0 01-2.635-2.64zm-21.953 0a2.976 2.976 0 012.97-2.976 2.976 2.976 0 010 5.952 2.976 2.976 0 01-2.97-2.976zm-20.683 0a2.023 2.023 0 114.045 0 2.023 2.023 0 11-4.045 0zm-23.274 0a3.675 3.675 0 013.669-3.677 3.677 3.677 0 110 7.355 3.677 3.677 0 01-3.669-3.678zm-18.984 0c0-.57.465-1.037 1.034-1.037a1.038 1.038 0 010 2.074 1.035 1.035 0 01-1.034-1.037zm-22.449 0c0-1.024.829-1.855 1.851-1.855s1.851.831 1.851 1.856a1.854 1.854 0 01-1.851 1.855 1.854 1.854 0 01-1.851-1.855zm-20.813 0a1.046 1.046 0 112.094 0c0 .579-.469 1.049-1.047 1.049s-1.047-.47-1.047-1.05zm-22.086 0a1.51 1.51 0 011.504-1.511 1.51 1.51 0 010 3.022c-.83 0-1.504-.676-1.504-1.511zm-23.812 0a3.7 3.7 0 013.698-3.706 3.706 3.706 0 013.698 3.706 3.706 3.706 0 01-3.698 3.707 3.698 3.698 0 01-3.698-3.707zm-20.856 0a2.925 2.925 0 012.92-2.925 2.925 2.925 0 012.918 2.926 2.925 2.925 0 01-2.919 2.926 2.925 2.925 0 01-2.919-2.926zm-21.832.002A3.132 3.132 0 0150 27.176a3.135 3.135 0 013.128 3.136A3.135 3.135 0 0150 33.447a3.132 3.132 0 01-3.129-3.135zm-21.226-.002a2.73 2.73 0 012.726-2.738 2.727 2.727 0 012.722 2.737 2.73 2.73 0 01-2.722 2.737 2.73 2.73 0 01-2.726-2.737zm-21.821.001a2.93 2.93 0 012.924-2.93 2.93 2.93 0 012.923 2.93 2.93 2.93 0 01-2.923 2.93 2.93 2.93 0 01-2.924-2.93zm673.311 3.228a3.235 3.235 0 01-2.274-.945 3.282 3.282 0 01-.947-2.288c0-.852.348-1.687.947-2.288a3.246 3.246 0 012.274-.944c.85 0 1.683.348 2.282.944.599.6.943 1.436.943 2.288 0 .852-.344 1.68-.943 2.288a3.229 3.229 0 01-2.282.945zM654.242 3.966a1.274 1.274 0 112.547 0c0 .705-.57 1.276-1.274 1.276a1.28 1.28 0 01-1.273-1.276zm-21.344-.001a.987.987 0 111.974.001.987.987 0 01-1.974-.001zm-24.16.001a3.522 3.522 0 013.518-3.527 3.521 3.521 0 013.518 3.527 3.521 3.521 0 01-3.518 3.526 3.524 3.524 0 01-3.518-3.526zm-18.968-.001a.867.867 0 111.733 0 .866.866 0 11-1.733 0zm-22.332 0c0-.87.703-1.574 1.57-1.574a1.573 1.573 0 010 3.148 1.575 1.575 0 01-1.57-1.574zm-22.188 0a2.135 2.135 0 114.268 0c0 1.18-.955 2.14-2.132 2.14a2.142 2.142 0 01-2.136-2.14zm-23.039-.001a3.553 3.553 0 013.547-3.556 3.556 3.556 0 010 7.111 3.555 3.555 0 01-3.547-3.555zm-19.867.002c0-.986.8-1.788 1.784-1.788a1.788 1.788 0 010 3.576 1.788 1.788 0 01-1.784-1.788zm-22.692-.002a2.856 2.856 0 115.713 0 2.857 2.857 0 11-5.713 0zm-21.047.001a2.284 2.284 0 012.283-2.283 2.283 2.283 0 010 4.567 2.284 2.284 0 01-2.283-2.284zm-23.05 0a3.706 3.706 0 013.698-3.707 3.7 3.7 0 013.698 3.707 3.7 3.7 0 01-3.698 3.706 3.703 3.703 0 01-3.698-3.707zm-21.297 0a3.38 3.38 0 013.375-3.383 3.38 3.38 0 013.376 3.383 3.38 3.38 0 01-3.376 3.384 3.386 3.386 0 01-3.375-3.384zm-20.938.001a2.686 2.686 0 012.681-2.687 2.683 2.683 0 012.68 2.687 2.686 2.686 0 01-2.68 2.687 2.686 2.686 0 01-2.681-2.687zm-20.406-.003c0-.81.658-1.469 1.466-1.469a1.47 1.47 0 010 2.943 1.473 1.473 0 01-1.466-1.474zm-22.641.001a2.49 2.49 0 012.484-2.493 2.491 2.491 0 012.488 2.493 2.491 2.491 0 01-2.488 2.494 2.493 2.493 0 01-2.484-2.494zm-20.972.001a1.827 1.827 0 113.652 0 1.827 1.827 0 11-3.652 0zm-20.426-.001a.633.633 0 111.265-.002.633.633 0 01-1.265.002zm-23.043.001c0-1.13.917-2.049 2.044-2.049a2.05 2.05 0 010 4.097 2.049 2.049 0 01-2.044-2.048zm-21.605 0a2.03 2.03 0 012.027-2.031 2.031 2.031 0 010 4.063 2.028 2.028 0 01-2.027-2.032zm-23.071-.001a3.475 3.475 0 013.472-3.48 3.475 3.475 0 013.472 3.48 3.475 3.475 0 01-3.472 3.48 3.48 3.48 0 01-3.472-3.48zm-22.109.001A3.96 3.96 0 01223 .002a3.96 3.96 0 013.954 3.963A3.96 3.96 0 01223 7.927a3.96 3.96 0 01-3.953-3.962zm-18.731-.001c0-.587.478-1.066 1.064-1.066a1.066 1.066 0 010 2.133 1.067 1.067 0 01-1.064-1.067zm-22.429.002c0-1.033.837-1.868 1.863-1.868 1.031 0 1.864.84 1.864 1.868a1.864 1.864 0 11-3.727 0zm-20.91-.002a1.146 1.146 0 112.29 0 1.15 1.15 0 01-1.147 1.15 1.152 1.152 0 01-1.143-1.15zm-22.172 0c0-.94.762-1.708 1.704-1.708a1.709 1.709 0 010 3.417 1.71 1.71 0 01-1.704-1.709zm-23.407.001A3.482 3.482 0 01114.875.48a3.482 3.482 0 013.476 3.485 3.482 3.482 0 01-3.476 3.484 3.483 3.483 0 01-3.477-3.484zm-21.644.001A3.5 3.5 0 0193.255.465a3.5 3.5 0 013.493 3.5 3.5 3.5 0 01-3.493 3.502 3.5 3.5 0 01-3.501-3.501zm-20.156 0c0-1.125.909-2.036 2.03-2.036 1.123 0 2.032.91 2.032 2.036a2.033 2.033 0 01-2.031 2.036 2.036 2.036 0 01-2.031-2.036zm-22.391-.002c0-1.545 1.252-2.8 2.794-2.8a2.799 2.799 0 012.793 2.8c0 1.545-1.252 2.8-2.793 2.8a2.799 2.799 0 01-2.794-2.8zm-21.465.001a2.634 2.634 0 115.269 0 2.64 2.64 0 01-2.634 2.64 2.637 2.637 0 01-2.635-2.64zm-19.84 0a.85.85 0 01.846-.848.847.847 0 010 1.696.85.85 0 01-.846-.848zm671.233 3.867a3.881 3.881 0 01-2.723-1.13 3.911 3.911 0 01-1.135-2.736 3.89 3.89 0 011.135-2.729A3.854 3.854 0 01677.135.1c1.017 0 2.014.411 2.73 1.137a3.894 3.894 0 011.127 2.729 3.9 3.9 0 01-1.127 2.737 3.884 3.884 0 01-2.73 1.129z" opacity=".08" fill="#fff"/></svg>