<svg width="659" height="417" fill="none" xmlns="http://www.w3.org/2000/svg"><path d="M4.6 412.619a.752.752 0 01-.536-.223.755.755 0 010-1.075.764.764 0 011.303.538c0 .198-.08.397-.224.537a.795.795 0 01-.542.223zm637.728-.76a4.193 4.193 0 118.389 0 4.2 4.2 0 01-4.192 4.197 4.204 4.204 0 01-4.197-4.197zm-22.969 0c0-.82.667-1.492 1.487-1.492a1.489 1.489 0 010 2.979c-.82 0-1.487-.666-1.487-1.487zm-28.047.001a3.853 3.853 0 117.71-.001 3.853 3.853 0 01-7.71.001zm-24.976 0a3.165 3.165 0 013.163-3.163 3.164 3.164 0 010 6.326 3.17 3.17 0 01-3.163-3.163zm-23.539-.001a1.017 1.017 0 112.034 0 1.02 1.02 0 01-1.015 1.02 1.027 1.027 0 01-1.019-1.02zm-25.203-.001a.543.543 0 011.084 0 .543.543 0 01-1.084 0zm-29.731.002a4.6 4.6 0 119.2 0 4.6 4.6 0 11-9.2 0zm-25.387-.001a4.307 4.307 0 114.307 4.307 4.312 4.312 0 01-4.307-4.307zm-25.124 0a3.762 3.762 0 013.759-3.759 3.762 3.762 0 013.76 3.759 3.76 3.76 0 11-7.519 0zm-23.34 0a1.42 1.42 0 012.839 0 1.42 1.42 0 01-2.839 0zm-27.649 0a3.387 3.387 0 016.773 0 3.391 3.391 0 01-3.386 3.392 3.395 3.395 0 01-3.387-3.392zm-24.855.001a2.576 2.576 0 015.152 0 2.58 2.58 0 01-2.576 2.576 2.58 2.58 0 01-2.576-2.576zm-27.012-.001a3.908 3.908 0 013.904-3.904 3.903 3.903 0 11-3.904 3.904zm-23.066-.001a1.29 1.29 0 011.293-1.288 1.288 1.288 0 010 2.576 1.3 1.3 0 01-1.293-1.288zm-29.051.001a4.673 4.673 0 014.669-4.67 4.67 4.67 0 010 9.339 4.679 4.679 0 01-4.669-4.669zm-21.984-.001a.97.97 0 111.94.002.97.97 0 01-1.94-.002zm-26.27.001a1.566 1.566 0 113.132 0 1.566 1.566 0 01-3.132 0zm-26.75 0a2.641 2.641 0 112.641 2.641 2.65 2.65 0 01-2.641-2.641zm-23.555 0a.517.517 0 11.517.517.524.524 0 01-.517-.517zm-28.996 0a3.837 3.837 0 013.834-3.834 3.836 3.836 0 013.834 3.834 3.836 3.836 0 01-3.834 3.835 3.84 3.84 0 01-3.834-3.835zm-26.629 0a4.788 4.788 0 114.789 4.789 4.791 4.791 0 01-4.789-4.789zm-21.597.001a.711.711 0 111.423-.001.711.711 0 01-1.423.001zm-28.41-.001a3.443 3.443 0 013.44-3.441 3.438 3.438 0 110 6.877 3.44 3.44 0 01-3.44-3.436zm-26.723 0a4.487 4.487 0 014.485-4.486 4.476 4.476 0 014.48 4.486 4.474 4.474 0 01-4.48 4.48 4.485 4.485 0 01-4.485-4.48zm-22.281 0a1.088 1.088 0 112.177-.001 1.088 1.088 0 01-2.177.001zM4.601 383.593c-.77 0-1.531-.313-2.083-.86a2.95 2.95 0 010-4.172 2.974 2.974 0 012.083-.866c.781 0 1.542.319 2.089.866a2.957 2.957 0 010 4.172 2.997 2.997 0 01-2.089.86zm638.934-2.948a2.989 2.989 0 115.979 0 2.989 2.989 0 01-5.979 0zm-26.113 0a3.429 3.429 0 013.426-3.426 3.429 3.429 0 013.426 3.426 3.429 3.429 0 01-3.426 3.426 3.422 3.422 0 01-3.426-3.426zm-25.313 0a3.054 3.054 0 113.054 3.053 3.057 3.057 0 01-3.054-3.053zm-26.187-.001a3.577 3.577 0 117.149.001 3.577 3.577 0 01-7.149-.001zm-26.063 0a3.96 3.96 0 017.917 0 3.959 3.959 0 01-7.917 0zm-25.8 0a4.081 4.081 0 014.082-4.078 4.068 4.068 0 014.068 4.078 4.075 4.075 0 11-8.15 0zm-24.266.001a2.673 2.673 0 012.67-2.67 2.674 2.674 0 012.671 2.67 2.674 2.674 0 01-2.671 2.67 2.673 2.673 0 01-2.67-2.67zm-23.527-.001a.516.516 0 111.033-.001.516.516 0 01-1.033.001zm-26.446 0a1.293 1.293 0 012.586 0c0 .712-.577 1.288-1.293 1.288a1.283 1.283 0 01-1.293-1.288zm-27.574 0a3.182 3.182 0 116.365-.001 3.182 3.182 0 01-6.365.001zm-23.562 0a1.066 1.066 0 012.133 0 1.066 1.066 0 01-2.133 0zm-26.063.001a1.456 1.456 0 112.914 0 1.456 1.456 0 11-2.914 0zm-27.945 0a3.729 3.729 0 013.724-3.725 3.73 3.73 0 013.725 3.725 3.726 3.726 0 01-3.725 3.724 3.729 3.729 0 01-3.724-3.724zm-22.461 0a.512.512 0 111.023 0 .512.512 0 01-1.023 0zm-28.305 0a3.132 3.132 0 116.266 0 3.133 3.133 0 11-6.266 0zm-23.527 0a.984.984 0 111.969 0 .984.984 0 11-1.969 0zm-27.125-.001a2.438 2.438 0 012.437-2.437 2.44 2.44 0 012.436 2.437 2.434 2.434 0 01-2.436 2.436 2.434 2.434 0 01-2.437-2.436zm-26.012.001a2.77 2.77 0 015.54 0 2.774 2.774 0 01-2.77 2.77 2.774 2.774 0 01-2.77-2.77zm-25.695-.001a2.786 2.786 0 012.78-2.785 2.78 2.78 0 012.784 2.785 2.779 2.779 0 01-2.784 2.78 2.778 2.778 0 01-2.78-2.78zm-24.34 0c0-.8.651-1.447 1.447-1.447a1.448 1.448 0 11-1.447 1.447zm-28.219 0a3.997 3.997 0 013.993-3.994 3.998 3.998 0 013.994 3.994 3.997 3.997 0 01-3.994 3.993 3.99 3.99 0 01-3.993-3.993zm-23.07.001c0-.766.617-1.387 1.382-1.387.771 0 1.393.621 1.393 1.387a1.387 1.387 0 11-2.775 0zm-26.222-.001a1.93 1.93 0 111.929 1.93 1.931 1.931 0 01-1.93-1.93zm-28.083 0a4.332 4.332 0 018.663 0 4.324 4.324 0 01-4.331 4.326 4.324 4.324 0 01-4.332-4.326zm-24.414.001a3.078 3.078 0 116.156-.002 3.078 3.078 0 01-6.156.002zM4.6 354.035a4.614 4.614 0 01-3.247-1.343A4.645 4.645 0 010 349.435a4.64 4.64 0 011.353-3.252A4.578 4.578 0 014.6 344.83c1.213 0 2.392.487 3.257 1.353a4.615 4.615 0 010 6.509 4.638 4.638 0 01-3.257 1.343zm639.541-4.599a2.388 2.388 0 114.772.002 2.388 2.388 0 01-4.772-.002zm-25.219-.002a1.925 1.925 0 013.849 0c0 1.059-.86 1.925-1.925 1.925a1.93 1.93 0 01-1.924-1.925zm-27.785.001a4.034 4.034 0 014.028-4.033 4.031 4.031 0 010 8.061 4.027 4.027 0 01-4.028-4.028zm-22.391 0a.75.75 0 111.502 0 .749.749 0 01-.751.745.742.742 0 01-.751-.745zm-25.828 0a.9.9 0 111.8 0 .9.9 0 01-1.8 0zm-27.531-.001a2.747 2.747 0 012.755-2.745 2.745 2.745 0 010 5.49 2.75 2.75 0 01-2.755-2.745zm-27.082.001a4.162 4.162 0 014.157-4.158 4.154 4.154 0 014.152 4.158 4.154 4.154 0 01-8.309 0zm-23.606 0c0-1.149.935-2.083 2.084-2.083s2.083.934 2.083 2.083a2.086 2.086 0 01-2.083 2.084 2.087 2.087 0 01-2.084-2.084zm-25.187 0a1.599 1.599 0 113.196-.004 1.599 1.599 0 01-3.196.004zm-24.653-.001a.567.567 0 111.134 0 .567.567 0 01-1.134 0zm-29.031 0a3.922 3.922 0 013.929-3.918 3.915 3.915 0 013.913 3.918 3.912 3.912 0 01-3.913 3.919 3.923 3.923 0 01-3.929-3.919zm-23 .002a1.248 1.248 0 112.497 0 1.248 1.248 0 01-2.497 0zm-28.699-.001a4.266 4.266 0 118.532-.002 4.266 4.266 0 01-8.532.002zm-25.164-.001a3.756 3.756 0 013.754-3.764 3.762 3.762 0 013.765 3.764 3.762 3.762 0 01-3.765 3.765 3.757 3.757 0 01-3.754-3.765zm-22.891.002c0-.537.438-.975.975-.975a.972.972 0 110 1.944.972.972 0 01-.975-.969zm-28.683-.002a3.975 3.975 0 013.973-3.973 3.975 3.975 0 010 7.947 3.979 3.979 0 01-3.973-3.974zm-23.258.001c0-.861.701-1.562 1.561-1.562.861 0 1.562.701 1.562 1.562 0 .86-.701 1.561-1.562 1.561-.86 0-1.561-.701-1.561-1.561zm-28.203-.001a4.082 4.082 0 118.166 0 4.082 4.082 0 01-8.166 0zm-22.789.002a1.195 1.195 0 112.385.001 1.195 1.195 0 01-2.385-.001zm-28.582 0a4.109 4.109 0 014.107-4.108 4.109 4.109 0 014.108 4.108 4.108 4.108 0 01-4.108 4.102 4.101 4.101 0 01-4.107-4.102zm-26.434 0a4.857 4.857 0 014.854-4.854 4.853 4.853 0 11-4.854 4.854zm-22.645-.001c0-1.009.821-1.83 1.83-1.83a1.83 1.83 0 11-1.83 1.83zm-28.582-.001a4.731 4.731 0 014.73-4.729 4.73 4.73 0 014.729 4.729 4.73 4.73 0 01-9.459 0zm-23.038 0a2.088 2.088 0 114.176 0 2.088 2.088 0 01-4.177 0zm-25.18 0a1.601 1.601 0 113.203 0 1.6 1.6 0 11-3.203 0zM4.602 320.607a2.415 2.415 0 01-1.686-.696 2.39 2.39 0 01-.701-1.686 2.396 2.396 0 012.387-2.387 2.4 2.4 0 011.69.701c.443.443.697 1.059.697 1.686 0 .626-.254 1.243-.696 1.686a2.426 2.426 0 01-1.691.696zm640.793-2.381a1.133 1.133 0 112.266-.002 1.133 1.133 0 01-2.266.002zm-29.141 0a4.597 4.597 0 014.595-4.595 4.597 4.597 0 014.595 4.595 4.597 4.597 0 01-4.595 4.595 4.597 4.597 0 01-4.595-4.595zm-23.211 0a2.117 2.117 0 114.24-.003 2.117 2.117 0 01-4.24.003zm-24.129-.002a.58.58 0 01.582-.581.583.583 0 11-.582.581zm-26.976.001c0-1.039.84-1.879 1.879-1.879 1.035 0 1.88.84 1.88 1.879 0 1.035-.84 1.88-1.88 1.88a1.88 1.88 0 01-1.879-1.88zm-24.512.001a.713.713 0 111.427 0 .716.716 0 01-.716.716.718.718 0 01-.711-.716zm-28.043-.001a3.077 3.077 0 116.156 0 3.077 3.077 0 11-6.156 0zm-23.434 0a.835.835 0 111.671 0 .834.834 0 01-.835.836.838.838 0 01-.836-.836zm-29.328 0a4.489 4.489 0 014.491-4.491 4.495 4.495 0 014.49 4.491 4.492 4.492 0 01-8.981 0zm-24.301-.001a3.112 3.112 0 116.226 0 3.114 3.114 0 01-6.226 0zm-24.55.001a1.98 1.98 0 011.979-1.979c1.094 0 1.979.885 1.979 1.979a1.978 1.978 0 01-1.979 1.979 1.984 1.984 0 01-1.979-1.979zm-27.368.001a3.676 3.676 0 117.352.002 3.676 3.676 0 01-7.352-.002zm-23.386-.002a1.383 1.383 0 112.765.001 1.383 1.383 0 01-2.765-.001zm-27.864.002a3.576 3.576 0 117.15 0 3.576 3.576 0 01-7.15 0zm-24.664 0a2.556 2.556 0 115.111 0 2.556 2.556 0 01-5.111 0zm-27.847-.001a4.73 4.73 0 014.729-4.729 4.724 4.724 0 014.729 4.729 4.73 4.73 0 01-9.458 0zm-22.684.001a1.734 1.734 0 113.471 0c0 .96-.776 1.735-1.735 1.735a1.74 1.74 0 01-1.736-1.735zm-28.617-.001a4.674 4.674 0 114.674 4.675 4.682 4.682 0 01-4.674-4.675zm-24.688 0a3.689 3.689 0 013.69-3.69 3.692 3.692 0 013.69 3.69 3.692 3.692 0 01-3.69 3.69 3.692 3.692 0 01-3.69-3.69zm-24.617-.001a2.632 2.632 0 015.261 0 2.632 2.632 0 01-5.261 0zm-23.558.001a.5.5 0 01.502-.502.501.501 0 11-.502.502zm-28.848.001a3.68 3.68 0 013.685-3.685 3.686 3.686 0 013.685 3.685 3.686 3.686 0 01-3.685 3.685 3.683 3.683 0 01-3.685-3.685zm-24.625-.001a2.626 2.626 0 115.251.002 2.626 2.626 0 01-5.251-.002zm-27.75.001a4.697 4.697 0 014.694-4.695 4.697 4.697 0 014.695 4.695 4.697 4.697 0 01-4.695 4.694 4.697 4.697 0 01-4.694-4.694zm-22.207-.001a1.233 1.233 0 012.466 0 1.232 1.232 0 01-2.466 0zM4.598 290.656a3.687 3.687 0 01-2.576-1.064 3.675 3.675 0 01-1.069-2.581 3.69 3.69 0 011.064-2.571 3.713 3.713 0 012.581-1.069c.96 0 1.905.393 2.581 1.069a3.658 3.658 0 011.064 2.571c0 .96-.388 1.9-1.064 2.581a3.669 3.669 0 01-2.58 1.064zm637.16-3.641a4.773 4.773 0 014.769-4.769 4.773 4.773 0 014.769 4.769 4.77 4.77 0 01-4.769 4.769 4.776 4.776 0 01-4.769-4.769zm-23.82 0a2.91 2.91 0 115.819-.001 2.91 2.91 0 01-5.819.001zm-23.403.001c0-.348.284-.631.632-.631.348 0 .626.283.626.631a.627.627 0 01-.626.627.632.632 0 01-.632-.627zm-29.797-.001a4.763 4.763 0 014.759-4.759 4.762 4.762 0 014.759 4.759 4.762 4.762 0 01-4.759 4.759 4.763 4.763 0 01-4.759-4.759zm-22.867.001a1.939 1.939 0 113.877-.003 1.939 1.939 0 01-3.877.003zm-26.703 0a2.973 2.973 0 012.969-2.979 2.977 2.977 0 11-2.969 2.979zm-23.77-.001c0-.586.478-1.064 1.065-1.064.586 0 1.064.478 1.064 1.064 0 .587-.478 1.065-1.064 1.065a1.067 1.067 0 01-1.065-1.065zm-26.281.001a1.666 1.666 0 111.666 1.665 1.672 1.672 0 01-1.666-1.665zm-28.711 0c0-2.596 2.099-4.7 4.7-4.7a4.704 4.704 0 014.704 4.7 4.703 4.703 0 01-9.404 0zm-22.41 0a1.432 1.432 0 112.865.001 1.432 1.432 0 01-2.865-.001zm-28.898-.001a4.654 4.654 0 014.659-4.65 4.644 4.644 0 014.64 4.65 4.643 4.643 0 01-4.64 4.649 4.653 4.653 0 01-4.659-4.649zm-24.129.001a3.11 3.11 0 013.108-3.108 3.11 3.11 0 013.108 3.108 3.11 3.11 0 01-3.108 3.108 3.115 3.115 0 01-3.108-3.108zm-24.551 0c0-1.094.885-1.979 1.979-1.979s1.979.885 1.979 1.979a1.979 1.979 0 11-3.958 0zm-27.789-.001a4.089 4.089 0 014.093-4.087 4.079 4.079 0 014.077 4.087 4.078 4.078 0 01-4.077 4.083 4.088 4.088 0 01-4.093-4.083zm-23.52.001c0-1.07.871-1.94 1.935-1.94a1.937 1.937 0 010 3.874 1.94 1.94 0 01-1.935-1.934zm-25.972 0c0-1.228.999-2.233 2.228-2.233a2.231 2.231 0 010 4.461 2.23 2.23 0 01-2.228-2.228zm-26.957 0a3.518 3.518 0 013.516-3.516 3.518 3.518 0 013.515 3.516 3.519 3.519 0 01-3.515 3.516 3.519 3.519 0 01-3.516-3.516zm-25.934 0a3.77 3.77 0 017.539 0 3.774 3.774 0 01-3.769 3.769 3.774 3.774 0 01-3.77-3.769zm-24.285-.001a2.378 2.378 0 012.377-2.382 2.39 2.39 0 012.387 2.382 2.386 2.386 0 01-2.387 2.382 2.387 2.387 0 01-2.377-2.382zm-27.703 0a4.408 4.408 0 014.406-4.406 4.408 4.408 0 014.406 4.406 4.408 4.408 0 01-4.406 4.406 4.414 4.414 0 01-4.406-4.406zm-24.68 0a3.404 3.404 0 013.402-3.402 3.404 3.404 0 013.401 3.402 3.407 3.407 0 01-3.401 3.401 3.407 3.407 0 01-3.402-3.401zm-25.098.001a2.833 2.833 0 012.83-2.834 2.832 2.832 0 010 5.664 2.829 2.829 0 01-2.83-2.83zm-26.988 0a4.138 4.138 0 014.143-4.137 4.137 4.137 0 010 8.275 4.142 4.142 0 01-4.143-4.138zm-24.609 0a3.067 3.067 0 013.068-3.069 3.06 3.06 0 013.063 3.069 3.062 3.062 0 01-3.063 3.063 3.07 3.07 0 01-3.068-3.063zm-24.469-.001a1.866 1.866 0 111.865 1.865 1.872 1.872 0 01-1.865-1.865zM4.601 257.66c-.487 0-.965-.199-1.313-.542a1.877 1.877 0 01-.542-1.313c0-.492.199-.965.542-1.313a1.89 1.89 0 011.313-.547c.492 0 .97.199 1.318.547.343.348.542.821.542 1.313 0 .487-.2.97-.542 1.313-.348.343-.83.542-1.318.542zm637.645-1.86a4.28 4.28 0 014.287-4.286 4.29 4.29 0 014.286 4.286 4.29 4.29 0 01-4.286 4.287 4.281 4.281 0 01-4.287-4.287zm-24.594 0a3.197 3.197 0 013.193-3.193 3.197 3.197 0 013.192 3.193 3.197 3.197 0 01-3.192 3.193 3.194 3.194 0 01-3.193-3.193zm-25.148 0a2.661 2.661 0 115.321 0 2.664 2.664 0 01-2.661 2.661 2.654 2.654 0 01-2.66-2.661zm-25.359.001a2.349 2.349 0 114.699 0 2.349 2.349 0 01-4.699 0zm-25.856 0a2.522 2.522 0 115.043 0 2.522 2.522 0 01-5.043 0zm-23.859-.001c0-.393.318-.716.711-.716.393 0 .716.318.716.716a.712.712 0 01-.716.711.707.707 0 01-.711-.711zm-26.922.001c0-1.079.875-1.959 1.954-1.959s1.959.88 1.959 1.959a1.955 1.955 0 01-1.959 1.954 1.948 1.948 0 01-1.954-1.954zm-28.43-.001a4.706 4.706 0 014.699-4.704 4.707 4.707 0 014.705 4.704 4.703 4.703 0 01-4.705 4.699 4.699 4.699 0 01-4.699-4.699zm-21.476.001a.511.511 0 111.024 0 .511.511 0 11-1.024 0zm-30.036 0a4.864 4.864 0 114.864 4.863 4.867 4.867 0 01-4.864-4.863zm-21.671 0a.855.855 0 111.71-.002.855.855 0 01-1.71.002zm-26.754-.001a1.944 1.944 0 113.889-.001 1.944 1.944 0 01-3.889.001zm-25.18 0a1.438 1.438 0 112.876.002 1.438 1.438 0 01-2.876-.002zm-24.84.001a.601.601 0 111.203-.001.601.601 0 01-1.203.001zm-26.387 0a1.312 1.312 0 112.626 0 1.312 1.312 0 11-2.626 0zm-26.234 0a1.87 1.87 0 013.74 0c0 1.03-.836 1.865-1.87 1.865a1.86 1.86 0 01-1.87-1.865zm-28.117.001a4.311 4.311 0 118.623-.001 4.311 4.311 0 01-8.623.001zm-24.785-.001a3.418 3.418 0 013.416-3.416 3.418 3.418 0 013.416 3.416 3.418 3.418 0 01-3.416 3.416 3.418 3.418 0 01-3.416-3.416zm-25.274.001a3.01 3.01 0 013.009-3.009 3.006 3.006 0 013.008 3.009 3.006 3.006 0 01-3.008 3.008 3.01 3.01 0 01-3.009-3.008zm-26.558-.002a3.893 3.893 0 113.893 3.894 3.893 3.893 0 01-3.893-3.894zm-23.172.002a1.388 1.388 0 112.776 0 1.388 1.388 0 01-2.776 0zm-29.071-.001a4.778 4.778 0 014.779-4.783 4.787 4.787 0 014.794 4.783 4.788 4.788 0 01-4.794 4.784 4.775 4.775 0 01-4.779-4.784zm-25.207 0a4.318 4.318 0 014.312-4.317 4.32 4.32 0 014.316 4.317 4.314 4.314 0 11-8.628 0zm-25.776.001a4.41 4.41 0 014.41-4.411 4.407 4.407 0 014.41 4.411 4.406 4.406 0 01-4.41 4.405 4.406 4.406 0 01-4.41-4.405zm-25.458-.001a4.197 4.197 0 018.394 0 4.197 4.197 0 01-4.197 4.192 4.19 4.19 0 01-4.197-4.192zM4.598 225.854c-.333 0-.656-.134-.89-.368a1.257 1.257 0 112.148-.89c0 .333-.134.656-.368.89a1.286 1.286 0 01-.89.368zm640.332-1.264c0-.88.711-1.596 1.596-1.596.88 0 1.596.716 1.596 1.596a1.595 1.595 0 11-3.192 0zm-25.18.002c0-.602.487-1.094 1.094-1.094a1.09 1.09 0 011.089 1.094c0 .602-.487 1.094-1.089 1.094a1.097 1.097 0 01-1.094-1.094zm-26.07-.002a1.487 1.487 0 012.974 0 1.48 1.48 0 01-1.487 1.482 1.48 1.48 0 01-1.487-1.482zm-26.368.001a2.183 2.183 0 114.368 0 2.183 2.183 0 01-4.368 0zm-25.671.001a2.177 2.177 0 114.356 0 2.177 2.177 0 11-4.356 0zm-26.371-.001a2.866 2.866 0 015.733 0 2.865 2.865 0 01-2.864 2.864 2.87 2.87 0 01-2.869-2.864zm-26.133 0a3.33 3.33 0 013.327-3.327 3.324 3.324 0 110 6.648 3.322 3.322 0 01-3.327-3.321zm-24.492 0a2.138 2.138 0 114.275 0 2.138 2.138 0 01-4.275 0zm-24.27-.001a.73.73 0 01.731-.731c.403 0 .736.329.736.731a.733.733 0 01-.736.731.729.729 0 01-.731-.731zm-27.937.001a2.992 2.992 0 115.987 0 2.993 2.993 0 11-5.987 0zm-24.633.001c0-1.074.87-1.949 1.944-1.949 1.079 0 1.944.87 1.944 1.949a1.94 1.94 0 01-1.944 1.944 1.947 1.947 0 01-1.944-1.944zm-24.254-.001c0-.294.238-.532.532-.532.293 0 .527.238.527.532a.528.528 0 01-.527.527.523.523 0 01-.532-.527zm-27.942 0a2.79 2.79 0 115.578-.002 2.79 2.79 0 01-5.578.002zm-26.257-.001a3.372 3.372 0 013.376-3.371 3.372 3.372 0 013.372 3.371 3.37 3.37 0 01-3.372 3.367 3.368 3.368 0 01-3.376-3.367zm-26.747.001a4.443 4.443 0 014.441-4.441 4.442 4.442 0 11-4.441 4.441zm-25.5.001a4.264 4.264 0 014.262-4.262 4.258 4.258 0 014.262 4.262c0 2.352-1.9 4.262-4.262 4.262a4.264 4.264 0 01-4.262-4.262zm-26.195 0a4.784 4.784 0 014.784-4.789 4.786 4.786 0 110 9.572 4.78 4.78 0 01-4.784-4.783zm-24.527-.001a3.631 3.631 0 017.26 0 3.631 3.631 0 01-7.26 0zm-23.848 0a1.8 1.8 0 011.8-1.8 1.8 1.8 0 110 3.6c-.989 0-1.8-.805-1.8-1.8zm-25.558.001c0-.93.755-1.686 1.68-1.686.93 0 1.686.756 1.686 1.686 0 .93-.756 1.686-1.686 1.686-.925 0-1.68-.756-1.68-1.686zm-24.789-.001a.795.795 0 111.592-.002.795.795 0 01-1.592.002zm-29.75 0a4.873 4.873 0 119.746 0 4.875 4.875 0 01-4.873 4.874 4.868 4.868 0 01-4.873-4.874zm-25.368 0a4.563 4.563 0 014.56-4.56 4.563 4.563 0 014.56 4.56 4.562 4.562 0 01-4.56 4.56 4.562 4.562 0 01-4.56-4.56zm-25.644.001a4.53 4.53 0 014.525-4.526 4.519 4.519 0 014.52 4.526 4.517 4.517 0 01-4.52 4.52 4.525 4.525 0 01-4.525-4.52zm-22.371-.001a1.222 1.222 0 112.442 0c0 .671-.548 1.223-1.219 1.223a1.226 1.226 0 01-1.223-1.223zm-24.454-29.24a1.953 1.953 0 01-1.387-.577 1.981 1.981 0 01-.577-1.393c0-.517.214-1.024.577-1.392a1.979 1.979 0 011.387-.577 1.98 1.98 0 011.392.577c.368.368.577.875.577 1.392 0 .518-.209 1.025-.577 1.393a2.003 2.003 0 01-1.392.577zm637.446-1.969a4.484 4.484 0 014.485-4.476 4.476 4.476 0 010 8.951 4.484 4.484 0 01-4.485-4.475zm-23.594 0a2.393 2.393 0 114.783.001 2.393 2.393 0 01-4.783-.001zm-24.812-.001a1.522 1.522 0 113.044 0 1.522 1.522 0 01-3.044 0zm-26.496.001a2.353 2.353 0 014.704 0 2.353 2.353 0 01-4.704 0zm-24.688 0c0-.751.612-1.362 1.363-1.362.75 0 1.362.611 1.362 1.362 0 .751-.612 1.363-1.362 1.363a1.365 1.365 0 01-1.363-1.363zm-27.496-.001a3.177 3.177 0 013.178-3.178 3.178 3.178 0 110 6.355 3.18 3.18 0 01-3.178-3.177zm-26.547.001a4.051 4.051 0 014.048-4.048 4.048 4.048 0 11-4.048 4.048zm-26.285-.001a4.656 4.656 0 014.654-4.654 4.655 4.655 0 11-4.654 4.654zm-23.309.001a2.293 2.293 0 114.587.003 2.293 2.293 0 01-4.587-.003zm-26.175-.002a2.786 2.786 0 012.784-2.784 2.786 2.786 0 012.785 2.784 2.786 2.786 0 01-2.785 2.785 2.786 2.786 0 01-2.784-2.785zm-24.856.001a1.96 1.96 0 113.92.001 1.96 1.96 0 01-3.92-.001zm-25.262.001c0-.856.697-1.552 1.552-1.552.855 0 1.551.696 1.551 1.552 0 .855-.696 1.551-1.551 1.551a1.554 1.554 0 01-1.552-1.551zm-26.988-.001a2.86 2.86 0 112.859 2.859 2.866 2.866 0 01-2.859-2.859zm-27.062 0a4.246 4.246 0 118.493 0 4.244 4.244 0 01-4.242 4.251 4.249 4.249 0 01-4.251-4.251zm-24.235.001a2.8 2.8 0 115.598-.002 2.8 2.8 0 01-5.598.002zm-23.754 0a.874.874 0 111.751 0 .876.876 0 01-1.751 0zm-25.687-.001c0-.497.398-.895.895-.895s.895.398.895.895a.895.895 0 11-1.79 0zm-25.887.001a1.099 1.099 0 112.198 0 1.099 1.099 0 01-2.198 0zm-27.379 0a2.803 2.803 0 115.605 0 2.806 2.806 0 01-2.805 2.805 2.804 2.804 0 01-2.8-2.805zm-25.476-.001a2.604 2.604 0 115.206 0 2.608 2.608 0 01-2.606 2.606 2.61 2.61 0 01-2.6-2.606zm-27.012.001a3.941 3.941 0 013.938-3.939 3.941 3.941 0 013.939 3.939 3.936 3.936 0 01-3.939 3.933 3.933 3.933 0 01-3.938-3.933zm-25.113 0A3.377 3.377 0 01107.31 190a3.381 3.381 0 013.377 3.382 3.377 3.377 0 01-6.753 0zm-23.567 0a1.262 1.262 0 112.526 0c0 .696-.567 1.263-1.263 1.263a1.265 1.265 0 01-1.263-1.263zm-27.98-.001a3.564 3.564 0 013.56-3.561 3.564 3.564 0 013.56 3.561 3.563 3.563 0 01-3.56 3.56 3.563 3.563 0 01-3.56-3.56zm-25.004.001a2.9 2.9 0 115.798-.001 2.9 2.9 0 01-5.798.001zM4.6 163.071a.912.912 0 01-.641-.264.91.91 0 01.641-1.551c.24 0 .473.099.642.268a.91.91 0 010 1.283.912.912 0 01-.642.264zm640.658-.899a1.267 1.267 0 112.536 0c0 .702-.567 1.268-1.268 1.268a1.27 1.27 0 01-1.268-1.268zm-28.852-.001a4.443 4.443 0 014.441-4.441 4.442 4.442 0 11-4.441 4.441zm-23.531 0a2.293 2.293 0 114.585.001 2.293 2.293 0 01-4.585-.001zm-27.043.001a3.663 3.663 0 013.66-3.66 3.663 3.663 0 013.66 3.66 3.663 3.663 0 01-3.66 3.66 3.663 3.663 0 01-3.66-3.66zm-25.789.001a3.776 3.776 0 013.774-3.775 3.776 3.776 0 013.775 3.775 3.776 3.776 0 01-3.775 3.774 3.782 3.782 0 01-3.774-3.774zm-24.105-.001c0-1.219.984-2.203 2.198-2.203a2.204 2.204 0 110 4.406 2.203 2.203 0 01-2.198-2.203zm-26.883 0a3.404 3.404 0 116.808 0 3.404 3.404 0 01-3.402 3.406 3.414 3.414 0 01-3.406-3.406zm-24.594 0a2.322 2.322 0 114.646 0 2.322 2.322 0 01-4.646 0zm-26.609-.001c0-1.8 1.452-3.257 3.257-3.257a3.259 3.259 0 010 6.515 3.26 3.26 0 01-3.257-3.258zm-25.625.001a3.209 3.209 0 016.415 0 3.21 3.21 0 01-3.208 3.208 3.215 3.215 0 01-3.207-3.208zm-26.911-.001a4.432 4.432 0 114.431 4.431 4.435 4.435 0 01-4.431-4.431zm-23.816.002a2.578 2.578 0 115.157 0 2.581 2.581 0 01-2.576 2.581 2.585 2.585 0 01-2.581-2.581zm-24.445 0a1.343 1.343 0 112.686 0 1.343 1.343 0 01-2.686 0zm-26.981-.002a2.652 2.652 0 012.656-2.655 2.646 2.646 0 012.645 2.655 2.65 2.65 0 01-2.645 2.656 2.659 2.659 0 01-2.656-2.656zm-24.652 0a1.627 1.627 0 111.626 1.626 1.63 1.63 0 01-1.626-1.626zm-26.934.001a2.881 2.881 0 012.88-2.879 2.875 2.875 0 012.879 2.879 2.878 2.878 0 01-2.879 2.88 2.885 2.885 0 01-2.88-2.88zm-26.222 0a3.427 3.427 0 013.431-3.426 3.426 3.426 0 013.426 3.426 3.43 3.43 0 01-3.426 3.432 3.438 3.438 0 01-3.431-3.432zm-24.84 0a2.587 2.587 0 015.172 0 2.587 2.587 0 01-5.172 0zm-24.504 0c0-.781.632-1.412 1.417-1.412.781 0 1.408.631 1.408 1.412 0 .781-.627 1.412-1.408 1.412a1.419 1.419 0 01-1.417-1.412zm-26.41 0a2.15 2.15 0 112.153 2.148 2.153 2.153 0 01-2.153-2.148zm-27.375 0a3.843 3.843 0 117.688 0 3.843 3.843 0 11-7.688 0zm-24.871 0a3.042 3.042 0 116.087-.001 3.042 3.042 0 01-6.087.001zm-24.723.001a2.088 2.088 0 112.089 2.088 2.095 2.095 0 01-2.089-2.088zm-26.75-.002a3.154 3.154 0 116.31 0 3.158 3.158 0 01-3.152 3.158 3.165 3.165 0 01-3.158-3.158zm-23.363.002a.85.85 0 111.701-.002.85.85 0 01-1.701.002zM4.599 133.279a2.346 2.346 0 01-1.641-.676 2.326 2.326 0 010-3.277 2.334 2.334 0 011.64-.681c.612 0 1.209.248 1.642.681a2.326 2.326 0 010 3.277 2.36 2.36 0 01-1.641.676zm639.842-2.322c0-1.154.93-2.084 2.089-2.084a2.083 2.083 0 110 4.167 2.078 2.078 0 01-2.089-2.083zm-27.847 0a4.253 4.253 0 014.252-4.252 4.253 4.253 0 010 8.504 4.253 4.253 0 01-4.252-4.252zm-22.746 0c0-.726.591-1.312 1.317-1.312.731 0 1.318.586 1.318 1.312a1.317 1.317 0 11-2.635 0zm-26.965.001a2.615 2.615 0 115.23-.002 2.615 2.615 0 01-5.23.002zm-26.363 0a3.292 3.292 0 116.584 0 3.292 3.292 0 01-6.584 0zm-23.122-.001a.745.745 0 111.49-.001.745.745 0 01-1.49.001zm-27.035.001a2.1 2.1 0 114.199 0 2.1 2.1 0 01-4.199 0zm-25.66 0a2.08 2.08 0 012.074-2.079c1.149 0 2.078.93 2.078 2.079a2.077 2.077 0 11-4.152 0zm-25.629 0a2.033 2.033 0 114.068 0c0 1.124-.91 2.034-2.034 2.034a2.03 2.03 0 01-2.034-2.034zm-24.586-.001c0-.517.423-.939.94-.939.517 0 .94.422.94.939 0 .518-.423.94-.94.94a.936.936 0 01-.94-.94zm-25.312 0a.58.58 0 01.582-.582.58.58 0 01.581.582.58.58 0 01-.581.582.58.58 0 01-.582-.582zm-27.746.001a2.645 2.645 0 112.645 2.646 2.641 2.641 0 01-2.645-2.646zm-26.731 0a3.7 3.7 0 117.4 0 3.7 3.7 0 01-3.7 3.699 3.7 3.7 0 01-3.7-3.699zm-25.117-.002a3.145 3.145 0 013.148-3.147 3.152 3.152 0 013.148 3.147 3.152 3.152 0 01-3.148 3.148 3.142 3.142 0 01-3.148-3.148zm-27.383.001a4.843 4.843 0 119.688-.002 4.843 4.843 0 01-9.688.002zm-23.504.001a2.672 2.672 0 012.671-2.671 2.668 2.668 0 012.67 2.671 2.668 2.668 0 01-2.67 2.67 2.668 2.668 0 01-2.671-2.67zm-25.148-.001a2.148 2.148 0 112.148 2.148 2.146 2.146 0 01-2.148-2.148zm-26.645.001a3.119 3.119 0 013.113-3.118 3.12 3.12 0 013.118 3.118 3.12 3.12 0 01-3.118 3.118 3.116 3.116 0 01-3.113-3.118zm-26.054-.001a3.486 3.486 0 116.973 0 3.486 3.486 0 01-6.973 0zm-26.575 0a4.396 4.396 0 014.391-4.391 4.396 4.396 0 014.392 4.391 4.396 4.396 0 01-4.392 4.391 4.39 4.39 0 01-4.391-4.391zm-22.445-.001a1.154 1.154 0 112.308.002 1.154 1.154 0 01-2.308-.002zm-28.672.001a4.158 4.158 0 018.315 0 4.158 4.158 0 01-8.315 0zm-26.32 0a4.8 4.8 0 014.794-4.799 4.802 4.802 0 014.799 4.799 4.802 4.802 0 01-4.8 4.799 4.797 4.797 0 01-4.793-4.799zm-25.446 0a4.559 4.559 0 019.116 0 4.559 4.559 0 01-4.555 4.561 4.563 4.563 0 01-4.56-4.561zm-23.886-.001a2.771 2.771 0 115.545 0 2.775 2.775 0 01-2.77 2.775 2.776 2.776 0 01-2.775-2.775zM4.597 103.024a3.286 3.286 0 01-2.312-.955 3.309 3.309 0 01-.965-2.317c0-.86.348-1.706.965-2.313a3.264 3.264 0 014.635 0c.606.612.955 1.457.955 2.313a3.3 3.3 0 01-.955 2.317 3.318 3.318 0 01-2.323.955zm638.278-3.276a3.646 3.646 0 013.65-3.65 3.652 3.652 0 013.65 3.65 3.65 3.65 0 11-7.3 0zm-25.754 0a3.726 3.726 0 013.725-3.725 3.725 3.725 0 11-3.725 3.725zm-22.898 0a.944.944 0 111.888-.002.944.944 0 01-1.888.002zm-26.907 0a2.178 2.178 0 114.355 0 2.178 2.178 0 01-4.355 0zm-26.765 0a3.27 3.27 0 013.267-3.267 3.27 3.27 0 013.267 3.267 3.27 3.27 0 01-3.267 3.267 3.27 3.27 0 01-3.267-3.267zm-26.59 0a4.177 4.177 0 014.182-4.172 4.165 4.165 0 014.162 4.172 4.166 4.166 0 01-4.162 4.173 4.177 4.177 0 01-4.182-4.173zm-24.297 0a2.798 2.798 0 012.8-2.795 2.798 2.798 0 110 5.595 2.8 2.8 0 01-2.8-2.8zm-27.094-.001a4.214 4.214 0 014.212-4.212 4.21 4.21 0 014.212 4.212 4.214 4.214 0 01-4.212 4.212 4.214 4.214 0 01-4.212-4.212zm-23.32.001a1.865 1.865 0 113.73 0 1.865 1.865 0 01-3.73 0zm-26.215 0a2.393 2.393 0 014.784 0 2.398 2.398 0 01-2.392 2.397 2.398 2.398 0 01-2.392-2.397zm-26.097-.001a2.81 2.81 0 115.62 0 2.81 2.81 0 01-5.62 0zm-24.657.001a1.798 1.798 0 013.596 0c0 .995-.806 1.796-1.796 1.796-.994 0-1.8-.801-1.8-1.796zm-26.883-.001a3 3 0 013.004-2.999 3 3 0 010 5.997 3 3 0 01-3.004-2.998zm-27.554.001a4.877 4.877 0 014.883-4.873 4.875 4.875 0 014.873 4.873 4.875 4.875 0 01-4.873 4.874 4.877 4.877 0 01-4.883-4.874zm-23.734 0a2.941 2.941 0 012.939-2.94 2.94 2.94 0 012.938 2.94 2.941 2.941 0 01-2.938 2.939 2.941 2.941 0 01-2.939-2.94zm-25.235 0a2.487 2.487 0 114.975.002 2.487 2.487 0 01-4.975-.002zm-24.742-.001a1.56 1.56 0 113.121-.002 1.56 1.56 0 01-3.121.002zm-25.965 0c0-1.02.825-1.845 1.845-1.845a1.845 1.845 0 110 3.69 1.844 1.844 0 01-1.845-1.845zm-26.469.001a2.632 2.632 0 015.266 0 2.632 2.632 0 01-2.635 2.63 2.635 2.635 0 01-2.631-2.63zm-27.094-.001a4.059 4.059 0 114.058 4.058 4.06 4.06 0 01-4.058-4.058zm-25.847.001a4.23 4.23 0 014.227-4.227 4.23 4.23 0 014.227 4.227 4.23 4.23 0 01-4.227 4.227 4.229 4.229 0 01-4.227-4.227zm-26.254 0a4.803 4.803 0 014.809-4.809 4.809 4.809 0 010 9.618 4.802 4.802 0 01-4.809-4.809zm-23.426 0a2.553 2.553 0 115.106.005 2.553 2.553 0 01-5.106-.005zm-25.449 0a2.322 2.322 0 114.643-.001 2.322 2.322 0 01-4.643.001zm-25.579 0a2.222 2.222 0 114.445-.001 2.222 2.222 0 01-4.444.001zM4.598 69.706a1.171 1.171 0 01-1.168-1.168 1.171 1.171 0 011.169-1.169c.308 0 .611.124.825.343a1.162 1.162 0 010 1.651 1.171 1.171 0 01-.826.343zm637.558-1.169a4.368 4.368 0 014.371-4.371 4.375 4.375 0 014.372 4.371 4.371 4.371 0 01-8.743 0zm-24.23.001a2.92 2.92 0 012.919-2.919 2.92 2.92 0 012.919 2.92 2.92 2.92 0 01-2.919 2.918 2.92 2.92 0 01-2.919-2.919zm-25.707.001a2.952 2.952 0 012.949-2.95 2.949 2.949 0 11-2.949 2.949zm-26.629-.001a3.91 3.91 0 113.909 3.908 3.915 3.915 0 01-3.909-3.908zm-25.598.001a3.825 3.825 0 113.824 3.824 3.829 3.829 0 01-3.824-3.824zm-24.859 0a3.01 3.01 0 013.003-3.014 3.013 3.013 0 110 6.027 3.01 3.01 0 01-3.003-3.013zm-23.922-.001c0-.69.562-1.253 1.253-1.253a1.254 1.254 0 010 2.507 1.254 1.254 0 01-1.253-1.254zm-27.5 0a3.075 3.075 0 013.073-3.073 3.075 3.075 0 013.073 3.073 3.075 3.075 0 01-3.073 3.073 3.075 3.075 0 01-3.073-3.073zm-23.621 0c0-.567.457-1.024 1.024-1.024a1.023 1.023 0 110 2.049 1.026 1.026 0 01-1.024-1.025zm-25.922 0c0-.696.567-1.263 1.263-1.263s1.263.567 1.263 1.263c0 .697-.567 1.264-1.263 1.264a1.265 1.265 0 01-1.263-1.264zm-27.664-.001a3.243 3.243 0 116.486.001 3.243 3.243 0 01-6.486 0zm-24.559.001a2.133 2.133 0 114.266 0 2.133 2.133 0 01-4.266 0zm-24.156 0a.606.606 0 111.213 0 .606.606 0 01-1.213 0zm-27.723-.001a2.657 2.657 0 012.661-2.66 2.663 2.663 0 012.66 2.66 2.663 2.663 0 01-2.66 2.66 2.658 2.658 0 01-2.661-2.66zm-26.191.001a3.175 3.175 0 013.173-3.173 3.175 3.175 0 013.172 3.173 3.175 3.175 0 01-3.172 3.173 3.175 3.175 0 01-3.173-3.173zm-25.34 0a2.831 2.831 0 012.83-2.829 2.831 2.831 0 012.829 2.83 2.831 2.831 0 01-2.829 2.83 2.831 2.831 0 01-2.83-2.83zm-26.297 0a3.455 3.455 0 013.456-3.456 3.456 3.456 0 11-3.456 3.456zm-23.636-.001a1.41 1.41 0 112.824 0 1.41 1.41 0 11-2.824 0zm-25.071.001c0-.443.358-.796.801-.796.442 0 .796.358.796.796 0 .442-.354.8-.796.8a.807.807 0 01-.801-.8zm-28.676.001a3.805 3.805 0 013.805-3.805 3.809 3.809 0 013.809 3.805 3.808 3.808 0 01-7.614 0zm-23.332-.001c0-.805.657-1.462 1.462-1.462.806 0 1.462.657 1.462 1.462a1.462 1.462 0 11-2.924 0zm-25.441.001a1.228 1.228 0 112.455-.001 1.228 1.228 0 01-2.455 0zm-27.863-.001a3.41 3.41 0 116.824-.002 3.41 3.41 0 01-6.824.002zm-25.899 0a3.631 3.631 0 117.263.002 3.631 3.631 0 01-7.263-.002zm-24.968 0a2.93 2.93 0 012.929-2.929 2.93 2.93 0 012.929 2.93 2.93 2.93 0 01-2.93 2.928 2.93 2.93 0 01-2.928-2.929zM4.602 41.337a4.052 4.052 0 01-2.83-1.17 4.046 4.046 0 01-1.178-2.839 4.023 4.023 0 014.008-4.008c1.06 0 2.093.433 2.84 1.179a4.03 4.03 0 011.168 2.83 4.036 4.036 0 01-1.169 2.839 4.075 4.075 0 01-2.84 1.169zm640.257-4.009a1.666 1.666 0 111.666 1.666 1.672 1.672 0 01-1.666-1.666zm-26.757.001a2.744 2.744 0 115.49 0 2.748 2.748 0 01-2.745 2.745 2.754 2.754 0 01-2.745-2.745zm-26.321-.001a3.383 3.383 0 116.768 0 3.383 3.383 0 01-3.386 3.386 3.393 3.393 0 01-3.382-3.386zm-24.015 0a1.731 1.731 0 111.73 1.73 1.738 1.738 0 01-1.73-1.73zm-27.161.001a3.209 3.209 0 113.208 3.207 3.21 3.21 0 01-3.208-3.207zm-25.179-.001a2.71 2.71 0 115.42 0 2.708 2.708 0 01-2.715 2.71 2.709 2.709 0 01-2.705-2.71zm-26.871.001a3.909 3.909 0 113.908 3.908 3.915 3.915 0 01-3.908-3.908zm-23.985-.001a2.212 2.212 0 114.426 0 2.211 2.211 0 01-2.213 2.213 2.215 2.215 0 01-2.213-2.213zm-25.75 0a2.288 2.288 0 114.577.002 2.288 2.288 0 01-4.577-.002zm-24.074 0a.682.682 0 111.364.001.682.682 0 01-1.364-.001zm-28.601 0a3.61 3.61 0 117.22 0 3.608 3.608 0 01-3.615 3.61 3.606 3.606 0 01-3.605-3.61zm-26.094.001a4.03 4.03 0 014.028-4.028 4.03 4.03 0 014.028 4.028 4.03 4.03 0 01-4.028 4.028 4.03 4.03 0 01-4.028-4.028zm-22.344-.001a.692.692 0 011.382-.001.693.693 0 01-.691.692.7.7 0 01-.691-.691zm-27.633 0a2.648 2.648 0 115.296 0 2.648 2.648 0 11-5.296 0zm-26.254.001a3.23 3.23 0 013.228-3.227 3.23 3.23 0 013.227 3.227 3.23 3.23 0 01-3.227 3.227 3.233 3.233 0 01-3.228-3.227zm-25.355-.001a2.904 2.904 0 115.809 0 2.904 2.904 0 01-5.809 0zm-27.551 0a4.78 4.78 0 014.779-4.78 4.78 4.78 0 014.779 4.78 4.78 4.78 0 01-4.779 4.779 4.787 4.787 0 01-4.779-4.78zm-25.039.001a4.14 4.14 0 014.137-4.138 4.14 4.14 0 014.138 4.138 4.14 4.14 0 01-4.138 4.137 4.14 4.14 0 01-4.137-4.137zm-22.582-.001a1.04 1.04 0 011.044-1.045c.577 0 1.04.468 1.04 1.044a1.04 1.04 0 01-1.04 1.045 1.05 1.05 0 01-1.044-1.044zm-29.059 0a4.43 4.43 0 014.426-4.426 4.43 4.43 0 014.426 4.426 4.43 4.43 0 01-4.426 4.426 4.43 4.43 0 01-4.426-4.426zm-24.687.001a3.436 3.436 0 013.431-3.436 3.432 3.432 0 013.431 3.436 3.431 3.431 0 01-6.862 0zm-23.586.001a1.354 1.354 0 111.353 1.352 1.354 1.354 0 01-1.353-1.353zm-25.633-.002c0-.72.582-1.303 1.303-1.303a1.3 1.3 0 011.303 1.303c0 .721-.582 1.303-1.303 1.303a1.31 1.31 0 01-1.303-1.303zm-25.73.002a1.353 1.353 0 111.352 1.352 1.357 1.357 0 01-1.352-1.353zm-26.532-.001a2.21 2.21 0 012.208-2.208 2.21 2.21 0 012.208 2.208 2.21 2.21 0 01-2.208 2.208 2.213 2.213 0 01-2.208-2.208zM4.6 10.227a4.141 4.141 0 01-2.9-1.199A4.12 4.12 0 01.493 6.12c0-1.074.433-2.138 1.209-2.899A4.138 4.138 0 014.6 2.012c1.084 0 2.143.442 2.909 1.208a4.111 4.111 0 011.198 2.9A4.147 4.147 0 017.51 9.027a4.156 4.156 0 01-2.91 1.199zm638.158-4.114a3.77 3.77 0 117.537.002 3.77 3.77 0 01-7.537-.002zm-23.117.002a1.21 1.21 0 011.208-1.209 1.21 1.21 0 010 2.417 1.21 1.21 0 01-1.208-1.208zm-25.957-.002a1.482 1.482 0 111.482 1.482 1.476 1.476 0 01-1.482-1.482zm-26.872.001a2.682 2.682 0 012.681-2.68 2.681 2.681 0 11-2.681 2.68zm-25.163 0a2.167 2.167 0 112.168 2.168 2.166 2.166 0 01-2.168-2.168zm-26.629 0a3.124 3.124 0 013.127-3.128 3.13 3.13 0 013.128 3.128 3.13 3.13 0 01-3.128 3.128 3.124 3.124 0 01-3.127-3.128zm-25.02 0a2.464 2.464 0 012.462-2.462 2.464 2.464 0 012.461 2.462 2.464 2.464 0 01-2.461 2.461A2.464 2.464 0 01490 6.114zm-25.168-.001a1.95 1.95 0 113.899 0c0 1.075-.87 1.945-1.95 1.945a1.945 1.945 0 01-1.949-1.945zm-28.144 0a4.429 4.429 0 014.425-4.426 4.43 4.43 0 014.426 4.426 4.43 4.43 0 01-4.426 4.426 4.429 4.429 0 01-4.425-4.426zm-22.547 0a1.293 1.293 0 112.586 0 1.293 1.293 0 01-2.586 0zm-25.293.001a.905.905 0 111.81 0 .905.905 0 01-1.81 0zm-26.805-.001a2.038 2.038 0 114.077 0 2.038 2.038 0 01-4.077 0zm-28.223 0a4.581 4.581 0 014.58-4.58 4.584 4.584 0 014.58 4.58 4.581 4.581 0 01-4.58 4.58 4.584 4.584 0 01-4.58-4.58zm-23.699 0a2.598 2.598 0 015.197 0 2.599 2.599 0 01-5.197 0zm-26.519.001c0-1.9 1.541-3.446 3.446-3.446a3.451 3.451 0 013.446 3.446 3.445 3.445 0 01-3.446 3.446 3.444 3.444 0 01-3.446-3.446zm-23.172 0a.938.938 0 111.874 0c0 .517-.417.94-.939.94a.934.934 0 01-.935-.94zm-27.406 0a2.67 2.67 0 115.341 0 2.67 2.67 0 01-5.341 0zm-24.981 0c0-1.09.88-1.97 1.969-1.97s1.969.88 1.969 1.97c0 1.089-.88 1.969-1.969 1.969a1.967 1.967 0 01-1.969-1.97zm-26.141 0a2.443 2.443 0 114.882.002 2.443 2.443 0 01-4.882-.002zm-24.234 0c0-.547.448-.995.995-.995.547 0 .994.448.994.995a.997.997 0 01-.994.994.991.991 0 01-.995-.994zm-27.977 0a3.296 3.296 0 013.292-3.292 3.292 3.292 0 11-3.292 3.292zm-25.339-.001a2.96 2.96 0 015.917 0 2.963 2.963 0 01-2.959 2.964 2.957 2.957 0 01-2.958-2.964zm-26.809 0a4.088 4.088 0 114.088 4.088 4.084 4.084 0 01-4.088-4.088zm-22.418.002c0-.458.368-.826.825-.826a.827.827 0 11-.825.826zm-27.023-.001a2.177 2.177 0 114.354-.002 2.177 2.177 0 01-4.354.002z" opacity=".08" fill="#fff"/></svg>