<svg width="1440" height="494" fill="none" xmlns="http://www.w3.org/2000/svg"><g opacity=".8" stroke="#fff" stroke-miterlimit="10"><path d="M1165.06 572.357c-91.51-20.446-159.82-176.157-251.082-182.64-36.154 6.109-58.719 40.144-88.64 58.47-40.891 31.666-81.035-13.09-115.942-32.663-13.963-9.475-30.668-10.971-46.127-16.831-19.823-7.978-37.526-20.445-55.603-31.665-88.639-52.86-43.509 3.366-136.138-91.632-15.583-16.83-35.904-19.199-56.225-26.43-23.314-9.475-44.632-23.562-67.696-33.536-38.148-14.586-79.788-16.955-119.432-25.806-28.549-4.488-57.348-10.348-80.412-29.173C83.06 115.571 29.702 21.196-46.72 1c-13.464 8.602-18.202 26.18-25.058 40.019-11.345 25.93-20.446 53.233-35.032 77.544-5.236 9.973-13.34 15.708-22.815 20.944-10.223 9.849-16.331 23.313-23.313 35.406-7.106 12.592-13.838 26.056-24.186 36.154-8.103 6.109-13.962 7.48-17.952 18.326-10.597 18.95-13.09 46.252-30.294 60.34-29.547 10.098-59.218 20.196-88.765 30.419-79.538 27.178-159.202 54.48-238.865 81.783C188.904 541.19 930.683 680.445 1672.71 819.7c-51.49-36.902-102.85-73.804-154.21-110.706-58.1-44.008-68.57-48.247-140.51-56.226-26.55-3.49-45-22.689-59.34-43.758-20.57-24.56-50.61-38.897-75.42-58.719-29.42-20.072-49.99 35.032-78.17 22.066z" stroke-width=".157" stroke-linecap="round" stroke-linejoin="round"/><path d="M1633.69 791.649c-301.82-56.599-603.52-113.324-905.22-169.923-192.239-36.403-385.101-69.939-576.094-112.701-65.202-13.09-131.152-21.567-196.852-32.289-156.459-29.422-313.043-58.844-469.503-88.265M1597.29 765.594c-285.87-53.608-571.73-107.34-857.724-160.948-138.507-26.429-277.264-51.239-415.646-78.541-52.61-12.342-103.35-31.666-156.21-43.135-66.324-15.335-134.642-14.711-201.839-24.061-148.106-26.555-295.714-55.478-443.571-82.781m2040.95 365.031c-275.52-51.738-551.03-103.475-826.551-155.088-132.897-25.682-266.293-48.372-398.816-75.799-53.732-14.586-103.724-40.642-157.581-54.979-65.326-18.077-133.77-4.987-200.343-12.217-141.623-23.937-282.374-52.86-423.749-78.542" stroke-width=".157" stroke-linecap="round" stroke-linejoin="round"/><path d="M1531.46 718.344c-266.79-50.117-533.58-100.109-800.496-150.226-128.907-25.681-259.186-45.628-387.346-74.427-52.859-17.204-100.109-48.371-153.093-65.077-62.958-20.072-128.534 4.737-192.613.374-137.011-21.443-273.025-50.99-409.662-75.3" stroke-width=".157" stroke-linecap="round" stroke-linejoin="round"/><path d="M1501.67 696.901c-260.56-48.87-521.12-97.74-781.677-146.735-79.165-14.836-158.33-29.671-237.37-44.507-44.382-9.599-90.26-14.087-133.645-27.427-51.862-18.95-96.369-54.106-148.605-72.059-61.212-21.443-123.671 12.343-185.756 9.849-132.773-20.071-264.298-49.369-396.572-72.682" stroke-width=".157" stroke-linecap="round" stroke-linejoin="round"/><path d="M1473.62 677.203c-250.34-46.75-500.425-94.499-750.885-141.125-121.552-23.936-244.6-43.01-365.279-70.562-50.491-18.327-92.754-53.982-142.995-72.807-61.213-24.684-123.173 14.088-185.259 11.594-128.159-20.196-255.321-47.748-383.107-70.437" stroke-width=".157" stroke-linecap="round" stroke-linejoin="round"/><path d="M1447.06 664.612c-129.65-24.31-259.31-49.369-388.97-73.679-76.542-17.454-152.341-39.52-230.633-48.122-56.724-5.61-112.202-18.202-168.303-27.552-72.183-12.218-144.615-23.937-215.178-44.008-29.671-8.852-61.088-10.597-89.886-22.067-41.141-16.456-78.043-42.013-119.059-58.843-61.96-29.422-128.035 6.233-192.24 2.618-123.795-19.823-246.719-46.128-370.266-68.319" stroke-width=".157" stroke-linecap="round" stroke-linejoin="round"/><path d="M1422.13 658.628c-124.8-24.186-249.84-47.374-374.38-72.807-54.234-13.963-105.722-37.525-160.95-47.997-41.266-8.852-83.653-5.984-125.417-9.849-71.685-11.594-143.743-21.942-215.303-34.409-56.849-10.721-108.462-39.894-165.685-49.368-64.329-15.709-119.433-62.21-186.878-66.324-40.892-2.494-81.285 6.981-122.051 5.859-46.876-2.992-92.754-16.082-139.13-23.437l-234.877-44.133" stroke-width=".157" stroke-linecap="round" stroke-linejoin="round"/><path d="M1398.56 655.76c-120.43-24.185-241.73-45.628-361.53-72.681-51.119-16.083-97.62-44.507-149.607-58.221-43.011-12.093-87.518-.997-131.276-1.87-24.435-.249-48.247-6.857-72.433-9.599-38.523-5.236-77.294-8.976-115.692-15.085-51.863-5.361-95.746-35.406-143.245-54.231-25.432-10.348-53.109-12.467-78.791-22.191-40.642-13.589-80.037-32.04-122.549-39.396-46.626-8.726-94.25-2.867-141.125-7.48-120.804-19.697-240.86-45.005-361.415-66.697" stroke-width=".157" stroke-linecap="round" stroke-linejoin="round"/><path d="M1376.25 652.395c-73.93-13.963-147.48-29.547-221.16-44.507-42.14-9.724-85.53-14.586-127.04-27.053-67.571-22.191-126.165-83.528-201.465-73.929-26.43 2.867-52.486 10.223-79.165 11.096-22.565.872-44.382-5.735-66.822-7.481-47.624-6.108-96.245-6.482-142.995-18.077-41.64-13.838-75.674-43.384-115.693-60.838-32.539-12.965-68.194-15.209-101.356-26.679-64.578-20.196-131.65-29.297-198.971-35.032-126.664-19.698-252.205-47-378.495-69.44" stroke-width=".157" stroke-linecap="round" stroke-linejoin="round"/><path d="M1355.06 645.288c-71.44-13.464-142.38-28.923-213.56-43.634-41.89-10.098-85.52-14.337-126.54-27.552-60.964-22.191-109.834-81.034-177.654-81.284-34.533 1.746-66.822 18.077-101.48 18.825-22.316-.498-44.133-6.607-66.449-7.729-38.398-3.491-77.045-4.613-115.069-11.096-50.74-9.1-85.897-52.111-131.65-72.681-22.69-10.473-48.372-10.971-72.433-16.955-194.732-39.022-390.712-71.934-585.694-109.958" stroke-width=".157" stroke-linecap="round" stroke-linejoin="round"/><path d="M1334.98 629.705c-71.06-13.464-141.74-28.549-212.68-43.136-39.77-9.474-81.04-13.339-119.81-26.055-59.714-20.82-110.579-75.924-176.778-73.555-28.549 1.87-55.976 11.719-84.526 13.714-42.512.249-84.525-11.47-126.788-15.958-48.496-6.981-83.652-8.477-125.292-38.273-23.188-14.337-45.753-30.669-71.435-40.019-12.592-4.862-26.181-4.737-38.897-8.976-19.323-5.486-37.899-13.714-56.475-21.318-34.658-15.21-71.933-24.311-109.708-26.43-33.785-1.247-67.82 3.615-101.356-1.746-109.708-18.949-216.674-50.864-326.383-70.188" stroke-width=".157" stroke-linecap="round" stroke-linejoin="round"/><path d="M1315.79 605.519c-108.59-20.446-216.93-41.64-325.515-62.21-44.008-9.849-86.396-26.056-130.528-35.281-61.213-14.836-126.414-6.608-185.632-30.17-40.268-14.711-78.167-36.029-119.932-46.377-52.111-9.724-101.729-29.796-153.467-40.891-41.39-22.565-65.202-66.823-97.74-99.611-33.287-36.652-57.722-43.384-98.364-11.344-66.698 51.986-69.44 72.931-156.708 40.766-82.033-27.427-158.828-70.562-243.977-88.39" stroke-width=".157" stroke-linecap="round" stroke-linejoin="round"/><path d="M1297.58 589.312c-188.37-36.528-377.494-68.568-565.619-106.218-71.186-5.111-118.56-61.088-185.756-74.552-183.014-35.406-133.396 1.995-240.611-152.719-33.037-46.003-62.334-42.886-97.74-.997-23.563 24.559-41.764 58.469-74.552 71.684-12.343 4.239-25.059-.872-37.152-3.491-95.745-25.681-176.157-91.88-274.146-110.955" stroke-width=".157" stroke-linecap="round" stroke-linejoin="round"/><path d="M1280.25 576.845c-69.93-13.09-140-26.305-209.94-39.395-47.25-8.478-94.247-19.448-142.12-23.438-58.345-4.363-116.316-12.342-171.669-31.915-27.178-10.098-56.974-11.096-83.154-23.936-37.9-18.327-69.441-48.621-109.21-63.457-32.913-10.347-67.945-9.973-101.979-12.965-20.072-2.868-42.762-.998-60.465-12.343-36.902-31.666-55.602-79.414-82.904-118.809-27.053-42.761-55.852-74.303-97.865-24.31-26.056 25.307-50.616 80.536-90.261 82.156-104.846-18.575-187.127-99.236-291.475-119.682" stroke-width=".157" stroke-linecap="round" stroke-linejoin="round"/><path d="M1263.67 565.001c-102.6-17.952-204.45-41.14-307.555-55.976-72.931-3.615-127.162 8.353-195.48-28.05-66.075-30.17-74.552-14.462-137.759-67.571-31.043-25.308-65.825-50.74-107.963-46.626-33.91-1.122-75.55 11.47-106.717-3.989-30.294-25.183-46.127-63.831-65.95-97.242-21.941-33.785-56.724-126.913-105.345-76.048-30.544 26.804-50.989 85.149-92.005 94.873-105.595-15.21-184.76-104.348-289.232-124.918" stroke-width=".157" stroke-linecap="round" stroke-linejoin="round"/><path d="M1247.96 553.657c-98.23-17.329-195.85-39.146-294.463-53.857-76.297-2.119-124.793 22.939-195.73-23.438-14.337-7.854-28.674-15.833-44.008-21.318-19.448-5.361-38.897-10.597-54.979-23.687-38.398-25.931-68.318-69.69-115.443-79.663-35.406-4.863-69.565 10.222-104.722 9.724-39.645 3.366-58.096-49.12-75.674-77.544-14.586-27.427-28.424-55.603-44.133-82.282-14.087-24.061-39.52-64.827-69.565-37.276-34.907 28.425-47.623 81.035-89.263 101.107C75.33 267.542-35.625 153.47-128.129 138.51" stroke-width=".157" stroke-linecap="round" stroke-linejoin="round"/><path d="M1232.76 546.177c-98.62-14.088-193.37-49.12-292.602-59.343-40.891-.997-81.034 14.836-121.801 8.229-37.027-5.486-66.324-31.168-99.86-45.629-12.093-6.109-25.806-6.857-38.149-12.342-31.665-15.085-55.477-41.889-82.655-63.457-43.759-40.268-78.791-29.671-132.274-23.936-35.779 3.241-50.49 3.116-71.31-29.297-23.562-34.658-41.265-73.555-62.085-109.834-15.21-22.315-37.027-75.674-70.313-53.358-36.528 24.934-50.491 73.804-88.764 96.618-66.823 20.945-203.086-117.687-285.991-126.164" stroke-width=".157" stroke-linecap="round" stroke-linejoin="round"/><path d="M1218.04 549.169c-97.86-14.213-184.38-74.178-283.742-80.91-49.743 1.62-99.735 35.281-148.73 11.345-24.809-10.722-46.501-27.428-71.185-38.523-15.833-7.48-33.91-8.104-48.621-17.952-33.162-19.823-59.093-49.868-92.255-69.566-17.329-11.469-38.024-11.968-57.971-13.838-29.547-2.867-59.343-4.114-88.764-8.477-49.868-20.571-92.629-166.308-141.749-170.921-42.013 7.48-60.215 55.228-94.997 75.674-64.828 38.772-206.327-124.918-288.733-132.025" stroke-width=".157" stroke-linecap="round" stroke-linejoin="round"/><path d="M1203.96 558.02c-76.05-15.209-137.39-67.196-208.075-96.119-29.921-12.467-63.581-23.064-94.998-9.725-56.101 22.192-88.639 45.754-145.239 6.608-15.833-9.475-31.292-20.072-48.371-27.427-18.077-6.732-37.401-9.226-53.359-21.069-39.52-25.557-72.682-64.703-121.801-70.438-36.528-10.846-72.183-24.435-109.085-33.411-46.876-30.046-65.576-89.762-109.335-123.547-38.647-25.807-74.302 21.692-107.714 36.528C123.951 257.818 5.391 84.653-84.869 72.81" stroke-width=".157" stroke-linecap="round" stroke-linejoin="round"/><path d="M1190.37 568.118c-86.9-15.085-202.09-166.931-280.631-141.748-38.274 12.217-69.191 49.369-111.579 46.377-34.159-6.483-59.841-33.038-90.759-47.25-13.215-7.106-28.424-7.355-41.888-13.963-28.3-13.215-51.613-34.907-78.292-51.114-17.08-12.342-37.9-14.462-56.725-22.565-23.313-10.722-43.883-26.555-66.448-38.897-36.902-19.199-46.377-8.851-79.664-44.881-68.193-73.18-74.302-74.676-169.549-46.002-33.661 7.106-66.573-9.974-93.626-28.799C55.757 135.517 6.763 62.212-71.779 40.644" stroke-width=".157" stroke-linecap="round" stroke-linejoin="round"/><path d="M1177.4 574.477c-89.38-20.695-174.03-171.545-259.932-171.171-38.896 8.602-64.079 44.632-100.358 58.969-40.143 15.833-72.931-24.186-106.093-40.518-15.833-10.223-35.032-10.472-51.738-18.7-27.178-12.841-50.366-32.788-76.92-46.875-12.592-7.73-27.053-9.849-40.767-14.836-34.783-16.456-57.971-50.117-91.632-68.319-15.085-7.729-32.663-7.23-46.75-17.703-30.046-17.453-55.104-46.875-91.133-51.238-57.223-12.841-116.94 6.732-168.303-31.666C73.959 127.539 21.972 37.653-58.938 14.464" stroke-width=".157" stroke-linecap="round" stroke-linejoin="round"/><path d="M15.614 35.16C4.518 43.386.154 57.973-5.705 70.19c-10.098 23.687-18.575 48.496-30.793 71.186-5.111 10.348-12.467 17.952-22.066 23.812-6.857 7.106-11.345 16.331-15.958 25.058-8.228 15.21-14.96 31.916-26.554 44.881-7.605 5.735-14.088 10.846-17.579 20.446-8.477 15.833-12.217 37.276-26.055 49.244-27.428 10.971-54.73 22.066-82.157 33.162a150104.572 150104.572 0 00-211.937 85.398" stroke-width=".157" stroke-linecap="round" stroke-linejoin="round"/><path d="M46.657 63.833c-10.97 8.228-15.334 22.814-21.194 34.907-9.849 22.69-17.952 46.626-30.668 67.82-4.862 10.472-15.46 13.714-21.942 22.565-10.223 14.96-16.83 32.414-25.931 48.122-4.987 9.725-11.594 17.08-20.321 23.064-4.488 5.236-7.48 12.093-10.597 18.576-6.981 12.716-10.846 31.167-26.056 36.154-26.429 11.594-52.735 23.188-79.164 34.658-64.205 28.175-128.285 56.225-192.489 84.4" stroke-width=".157" stroke-linecap="round" stroke-linejoin="round"/><path d="M77.7 95.499c-10.972 8.103-15.335 22.814-21.32 34.783-8.726 19.822-16.206 40.642-27.8 58.968-4.364 8.727-12.966 11.719-18.95 18.7-10.721 14.836-16.955 32.913-26.056 48.746-4.737 10.098-12.093 16.705-20.57 23.188-5.61 7.106-9.724 16.082-14.337 23.937-6.233 15.334-21.069 20.071-34.658 26.554l-59.467 28.424c-59.841 28.674-119.557 57.223-179.523 85.897" stroke-width=".157" stroke-linecap="round" stroke-linejoin="round"/><path d="M108.867 126.915c-23.064 22.316-27.303 59.093-46.252 84.9-4.613 8.727-14.088 10.846-19.075 19.199-13.589 19.697-18.45 46.751-36.902 62.708-11.594 6.109-15.957 20.82-25.058 29.671-22.814 15.21-48.746 25.807-72.682 39.396-58.844 30.918-117.687 61.711-176.656 92.753" stroke-width=".157" stroke-linecap="round" stroke-linejoin="round"/><path d="M139.909 154.467c-22.44 21.319-26.056 56.974-45.878 80.661-26.305 17.329-27.053 54.356-49.244 75.051-10.348 4.737-15.709 16.207-24.81 22.814-22.814 13.09-45.628 26.305-68.443 39.52-54.106 31.292-108.087 62.459-162.194 93.751" stroke-width=".157" stroke-linecap="round" stroke-linejoin="round"/><path d="M171.076 174.788c-18.949 18.701-23.562 48.372-38.772 70.064-3.74 7.231-10.347 10.223-15.334 16.207-11.719 17.703-16.83 40.143-29.048 57.722-26.928 24.31-59.966 41.265-90.135 61.586-50.367 32.165-100.733 64.329-151.224 96.618" stroke-width=".157" stroke-linecap="round" stroke-linejoin="round"/><path d="M202.119 184.637c-16.831 20.196-22.69 47.873-37.401 69.565-20.695 19.698-24.809 49.12-39.271 72.807-28.05 26.055-61.96 45.504-92.878 68.193-43.26 30.42-85.647 61.961-129.032 92.38" stroke-width=".157" stroke-linecap="round" stroke-linejoin="round"/><path d="M233.286 190.621c-11.719 13.589-23.064 27.552-34.908 41.016-8.477 8.727-16.082 17.205-19.199 29.547-6.856 19.323-10.596 40.517-25.183 55.477-5.859 12.093-7.355 29.048-15.209 40.019-24.186 19.822-55.229 28.674-78.542 49.992-35.032 28.425-63.331 64.579-99.61 91.756" stroke-width=".157" stroke-linecap="round" stroke-linejoin="round"/><path d="M264.328 196.231c-20.446 9.6-44.257-17.703-52.111 19.573-5.985 18.202-6.608 40.019-18.202 55.603-4.987 11.843-5.361 28.798-7.48 42.636-2.12 15.584-3.366 34.16-7.73 48.372-2.742 5.984-7.979 7.231-13.09 9.973-19.822 6.857-42.512 7.356-58.345 22.815-33.785 34.408-53.607 80.91-89.637 113.698" stroke-width=".157" stroke-linecap="round" stroke-linejoin="round"/><path d="M295.495 202.091c-13.963 3.366-37.774-62.709-48.371-33.536-5.984 20.072-5.984 42.886-13.464 62.459-2.868 5.485-3.74 4.987-4.738 14.212-2.742 24.061-3.864 54.106-5.61 79.414-2.119 12.716.25 48.372-10.098 51.488-18.7 7.855-42.138-6.233-58.719 9.725-33.536 39.52-44.257 95.122-79.663 133.894" stroke-width=".157" stroke-linecap="round" stroke-linejoin="round"/><path d="M326.538 208.075c-12.467 4.239-33.286-73.929-44.382-48.995-6.483 21.942-3.615 47.748-12.467 68.942-.748 1.247-1.496 2.618-2.244 7.979-2.742 26.554-3.366 60.963-4.737 89.013-1.87 13.589.873 55.602-8.976 58.719-17.953 7.48-40.393-12.716-55.104 7.73-28.175 42.761-35.156 97.74-66.822 138.756" stroke-width=".157" stroke-linecap="round" stroke-linejoin="round"/><path d="M357.581 220.043c-11.844 4.862-31.167-36.902-38.024-11.095-4.613 20.695-4.488 41.764-12.467 61.711-2.743 20.819-3.241 47.997-4.613 70.313-1.994 13.589.873 44.382-8.228 50.865-16.706 9.973-37.775 1.496-48.87 23.437-21.817 40.268-31.292 87.269-56.6 125.916m199.969-304.94c-9.724 19.074-27.302 34.035-31.416 55.727-2.618 12.966-5.237 24.684-10.597 36.777-2.992 17.828-3.616 41.515-6.358 59.592-4.239 22.191-29.173 28.05-39.52 46.626-22.441 36.653-32.414 80.037-54.855 116.939m173.913-301.199c-7.48 29.048-10.098 60.339-18.202 89.263-5.859 11.469-8.352 24.559-15.084 35.53-2.993 6.982-3.741 16.955-6.234 24.186-10.597 23.313-24.435 44.881-34.783 68.443-15.084 31.043-27.053 63.581-42.636 94.499m147.982-302.197c-6.483 31.915-6.608 66.448-13.839 98.239-23.936 72.183-51.737 142.745-77.045 214.679M482 285.37c-7.729 49.992-15.334 100.358-22.939 150.35-18.451 48.122-29.173 98.364-42.013 148.356m96.119-267.29c-6.358 21.443-10.472 42.762-9.225 65.327-.624 23.687-2.992 48.745-3.74 72.806-.25 11.719-2.12 17.703-7.854 26.679-8.852 37.027-11.345 75.55-18.202 113.2m70.063-256.07c-.374 9.225-4.737-3.242-5.111 10.222.623 31.417 2.493 60.34 1.247 92.505-.374 15.957.124 34.782-1.122 49.119-.125.748-.125 1.372-.25 1.746-.374 2.119-1.122-1.995-1.62.374-3.616 37.276-3.366 75.175-6.109 112.825m44.133-256.693c-.124 1.247.624 4.862-.498 4.737-1.247 10.348.997 22.067 1.496 33.162 2.742 28.051 2.992 55.727 3.241 84.401.249 10.348.125 18.451.748 26.555.249 1.122.125 3.49 1.122 2.368 2.743-.124 1.621 16.831 2.244 20.571 1.371 31.79 3.491 63.331 4.613 95.371m18.077-249.712c8.602 42.887 10.846 88.141 14.087 131.775 1.372 12.343 7.106 3.616 8.976 17.329 5.486 37.027 10.846 74.178 15.958 111.579m-7.854-241.234c11.719 38.273 16.955 78.292 24.185 117.438 7.605 16.207 11.595 2.618 17.454 33.785 7.729 33.536 15.708 66.823 23.313 100.608m-33.91-236.871c8.353 25.682 16.581 51.364 24.435 77.295 5.61 15.334 6.358 34.533 22.191 43.135 10.472 12.093 12.218 29.921 17.953 44.756 8.726 27.427 17.453 54.73 26.305 82.406m-59.717-237.868c12.218 29.796 23.812 59.966 38.149 88.764 4.862 16.581 16.082 22.815 26.43 35.032 20.819 39.77 34.284 83.404 52.236 124.918m-85.772-229.764c8.228 15.958 16.207 32.289 24.934 47.873 5.984 5.735 12.342 11.469 15.958 19.074 2.493 1.746 4.488-2.368 7.106-1.496 4.239 4.114 6.358 11.968 10.347 16.581 16.706 20.945 30.295 43.634 41.016 68.319 14.587 29.92 29.298 59.716 43.634 89.886m-111.953-220.29c9.351 14.836 18.576 30.544 28.799 44.631 4.987 2.993 11.719-1.122 15.708 4.489 6.358 11.843 7.854-11.221 13.714-11.969 38.522 63.207 74.053 129.033 110.706 193.86" stroke-width=".157" stroke-linecap="round" stroke-linejoin="round"/><path d="M793.049 459.656c10.347 14.836 21.443 29.297 31.79 44.008 5.237 4.488 11.47-2.742 17.08.25 2.244.498 3.989 4.737 5.86 5.361 6.233-3.367 5.984-18.077 12.466-21.07 42.138 67.322 84.152 135.889 127.661 202.961" stroke-width=".157" stroke-linecap="round" stroke-linejoin="round"/><path d="M824.091 448.935c12.966 13.714 25.931 55.228 43.011 59.093 15.708-.623 13.963 8.602 20.445 8.228 5.112-2.743 10.473-17.952 16.083-7.355 49.369 62.708 95.247 127.66 141.25 192.987" stroke-width=".157" stroke-linecap="round" stroke-linejoin="round"/><path d="M855.259 424.749c17.204 24.809 21.318 58.844 43.135 80.536 7.73 5.486 17.08 8.228 22.939 16.083 3.491 6.358 10.098 4.488 15.833 5.984 10.846 8.851 19.573 21.193 31.791 28.798 25.058 16.955 42.883 41.266 61.083 64.953 23.94 30.419 48 60.713 71.81 91.382M886.301 400.563c19.947 32.165 21.817 75.176 48.122 103.6 20.945 16.83 35.655 39.645 54.73 58.22 11.097 8.852 25.057 11.844 37.647 17.953 23.19 10.347 37.15 32.788 53.74 51.114 26.18 30.544 52.23 61.088 78.41 91.881" stroke-width=".157" stroke-linecap="round" stroke-linejoin="round"/><path d="M917.469 389.593c26.803 46.75 22.939 94.623 68.193 132.896 23.688 18.825 28.548 58.47 61.588 64.08 42.26 3.366 56.35 24.934 82.78 53.982 28.67 31.167 57.35 62.21 86.02 93.377" stroke-width=".157" stroke-linecap="round" stroke-linejoin="round"/><path d="M948.511 398.943c20.445 31.79 26.305 71.809 47.748 103.101 10.351 11.843 21.941 22.316 32.911 33.66 22.19 18.576 28.18 56.351 61.46 59.467 46.38 2.619 61.96 27.428 92.13 57.597 30.17 30.544 60.34 61.088 90.51 91.757" stroke-width=".157" stroke-linecap="round" stroke-linejoin="round"/><path d="M979.429 419.139c18.825 25.807 29.051 57.223 47.251 83.404 12.34 16.83 29.54 29.172 44.13 44.132 33.66 35.78 23.31 54.855 82.78 59.966 34.91 4.737 55.98 35.78 80.79 57.472 31.91 30.419 63.7 60.714 95.74 91.258" stroke-width=".157" stroke-linecap="round" stroke-linejoin="round"/><path d="M1010.35 446.691c17.95 19.947 32.54 42.637 50.24 62.708 15.33 16.831 33.53 30.793 50.11 46.377 27.18 27.801 27.18 54.73 74.56 57.722 40.39 1.122 65.57 29.546 93.37 54.854 36.16 32.538 72.31 65.077 108.59 97.74" stroke-width=".157" stroke-linecap="round" stroke-linejoin="round"/><path d="M1041.26 477.983c15.71 13.464 33.66 23.687 49.87 36.403 20.32 16.207 39.65 33.661 59.59 50.491 17.96 16.705 26.06 45.255 51.99 52.361 59.09 12.093 64.83 5.111 112.7 49.618 42.89 36.653 85.9 73.305 128.91 110.082" stroke-width=".157" stroke-linecap="round" stroke-linejoin="round"/><path d="M15.74 35.035c1.121.997-.5.374-.749-.125-.249-.498.624 0 .748.125zM4.768 48.25c.374.249.499.623.374.748-.748.623-1.995-1.746-.374-.748zm42.014 15.459c1.247 1.37-.873.124-.748-.5.25 0 .623.25.748.5zm-32.29 61.586c.748.499.499 1.496-.374.873-.748-.374-.498-1.496.374-.873zM2.774 151.974c.374.249.499.623.374.873-.748.748-2.12-1.746-.374-.873zm22.939-53.732c.623.498.499 1.496-.374.872-.748-.498-.499-1.62.374-.873zm10.721-22.316c.748.623.499 1.371-.374.623-.623-.623-.374-1.371.374-.623zm41.515 19.573c1.122 1.247-.374.374-.624-.25-.374-.623.374 0 .624.25zm-9.724 10.971c.748.623.498 1.371-.374.499-.748-.624-.5-1.247.374-.499zm-31.667 69.066c.374.25.5.624.374.748-.748.873-2.119-1.62-.374-.748zm-11.594 18.825c.873.499.374.998-.374.499s-.374-.997.374-.499zm-11.967 9.974c.872.499.374.873-.374.374-.873-.499-.374-.873.374-.374zm45.13-77.544c.374.249.498.748.374.873-.748.748-1.995-1.995-.374-.873zm-10.597 24.56c.748.498.498 1.496-.374.872-.749-.498-.5-1.496.373-.872zM.405 223.409c.872.499.498 1.372-.374.873-.873-.499-.374-1.371.374-.873zm108.587-96.618c.249.249.748.873.125.499-.25-.125-1.372-1.247-.624-.873.25.125.374.249.499.374zm-60.714 98.364c.872.498.374.872-.374.374-.873-.499-.374-.873.374-.374zm21.942-26.181c.747.499.498 1.247-.374.623-.749-.498-.375-1.246.373-.623zm10.347-21.817c.748.499.499 1.371-.374.748-.623-.499-.499-1.371.374-.748zm9.849-22.191c.374.249.498.623.374.873-.624.623-1.995-1.995-.374-.873zm9.474-18.202c.749.624.499 1.247-.249.499-.748-.623-.498-1.247.25-.499zm-40.392 79.165c.873.499.374.873-.374.374-.873-.374-.374-.748.374-.374zm-48.372 73.929c1.62.997-1.122.623-.873-.125.125-.125.499-.125.873.125zm12.966-20.82c.872.374.498 1.247-.374.873-.873-.499-.499-1.372.374-.873zm12.342-25.557c.873.499.499 1.247-.374.748-.873-.374-.499-1.247.374-.748zm103.6-89.138c1.122.997-.374.249-.623-.249-.25-.374.498.124.623.249zM9.506 338.977c1.745.374-1.122.499-.998 0h.998zM94.03 235.128c1.497.997-.996.499-.747-.125 0 0 .374 0 .748.125zm9.975-15.459c.748.374.499.998-.374.624-.748-.499-.374-1.122.374-.624zm27.676-56.225c.748.498.499.997-.249.498-.873-.623-.623-1.122.249-.498zM23.344 330.251c1.122.249.25.623-.499.374-1.122-.25-.25-.499.499-.374zm90.261-130.28c.748.499.498 1.122-.25.624-.748-.374-.623-1.122.25-.624zM48.901 306.563c.997.374.374.748-.374.499-.997-.499-.374-.873.374-.499zm34.658-62.708c.872.499.374.748-.374.374-.873-.499-.374-.748.374-.374zM36.31 316.288c1.744.748-1.123.623-.874 0 .125-.125.5-.125.873 0zM122.83 179.9c.748.498.498 1.122-.25.623-.748-.499-.623-1.122.25-.623zm-50.366 81.783c.873.374.498 1.122-.374.748-.748-.374-.374-1.122.374-.748zm-11.47 24.684c.873.374.499 1.122-.374.748-.873-.374-.499-1.122.374-.748zm110.207-111.703c1.247.623-.623.249-.748-.25.249 0 .499.25.748.25zM36.684 355.309c1.122.249.25.498-.499.249-1.122-.249-.25-.374.499-.249zm-14.337 9.101c1.246.249.25.499-.499.249-1.122-.124-.125-.374.499-.249zm-15.086 9.724c1.87.498-1.246.498-1.122 0 .25-.125.624-.125 1.122 0zm101.357-98.115c.872.25.498.998-.374.748-.873-.249-.374-.997.374-.748zm-58.345 70.688c1.122.249.249.499-.5.249-1.121-.249-.248-.498.5-.249zm87.517-111.33c1.496.748-.873.873-.748 0 .124-.124.374-.124.748 0zm-18.95 23.189c.998.374.374.623-.374.374-.872-.374-.374-.624.374-.374zm9.724-8.602c.873.374.374.623-.374.374-.873-.374-.374-.748.374-.374zm26.555-51.239c1.496.873-.873.873-.748 0 .125-.125.499-.125.748 0zm8.228-15.21c.748.374.499.748-.249.374s-.499-.748.249-.374zm-16.706 33.661c1.496.873-.873.997-.748.124.125-.249.499-.249.748-.124zM75.206 328.754c1.746.624-.997.499-.872 0 0-.124.498-.124.872 0zm-12.217 9.849c1.122.25.249.499-.374.25-1.123-.25-.25-.499.373-.25zM86.8 320.028c.998.374.375.748-.373.498-.998-.374-.374-.872.374-.498zm11.22-19.948c1.621.748-.997 1.247-.872.125 0-.125.499-.249.873-.125zm104.223-115.443c1.247.25-.498.374-.623 0 .125-.124.499-.124.623 0zM21.1 403.431c1.994.374-1.247.623-1.122.125.124-.125.623-.125 1.122-.125zM4.519 415.15c1.994.374-1.372.748-1.123.125.125-.125.624-.125 1.123-.125zm32.164-22.814c1.87.249-1.246.623-1.121.124.124-.124.623-.124 1.121-.124zm28.674-19.823c1.87.374-1.122.499-.997 0 .125-.125.623-.125.997 0zm-13.963 9.6c1.87.374-1.122.498-.997.124.125-.249.623-.249.997-.124zm27.178-18.825c1.87.499-1.122.499-.997 0h.997zm116.566-169.051c1.371.499-.748.623-.748.125.124-.25.374-.25.748-.125zm-23.687 48.371c1.496 0-.749.997-.749.374.125-.125.375-.249.749-.374zm16.082-33.909c.872.124.374.623-.25.498-.872 0-.374-.623.25-.498zM91.04 354.436c1.121.25.248.499-.375.25-1.122-.25-.374-.374.374-.25zm88.638-128.658c1.496.125-.748.997-.748.249.125-.124.374-.249.748-.249zm-25.681 40.642c1.496-.125-.748.748-.748.249.125-.124.374-.249.748-.249zm8.851-9.6c1.496-.124-.748.748-.748.25.125 0 .499-.125.748-.25zm-18.077 27.178c.998 0 .25.748-.374.748-.997 0-.249-.748.374-.748zm-30.668 52.611c1.122 0 .249.249-.374.249-.998 0-.25-.249.374-.249zm-11.221 9.724c1.746.498-.997.498-.872 0 0-.125.498-.125.872 0zm22.067-18.451c1.621 0-.873.872-.873.249.125-.125.499-.249.873-.249zm10.098-19.947c1.621.125-.872 1.371-.872.374.124-.125.498-.374.872-.374zm98.364-117.438c1.122.249-.25.374-.624.124-.374-.249.374-.249.624-.124zM66.48 401.561c1.87-.249-1.123.748-1.123.374.25-.125.748-.249 1.122-.374zm-15.085 12.218c1.994-.125-1.247.872-1.123.374.25-.125.748-.25 1.123-.374zm29.421-22.441c1.87-.125-1.122.623-.997.249.124-.124.623-.249.997-.249zm26.928-14.96c1.745.125-.997.374-.997.125.249-.125.623-.125.997-.125zm-13.09 6.857c1.87 0-1.121.498-.997.124.125 0 .623-.124.997-.124zm25.557-13.589c1.122.124.25.374-.374.249-1.246-.249-.374-.374.374-.249zm-84.525 58.843c1.995 0-1.247.998-1.122.374.125-.249.623-.374 1.122-.374zM1.028 462.773c1.496.25.25.748-.623.624-1.371-.25-.25-.748.623-.624zM18.98 445.07c2.12.25-1.37.998-1.246.25.125-.125.748-.25 1.247-.25zm167.68-200.592c1.371-1.621-.623.873-.748.873.125-.125.374-.499.748-.873zm-54.854 117.563c1.122.249.373.374-.375.249-1.122-.249-.373-.374.375-.249zm79.413-145.488c1.372-.748-.623.748-.748.498.125-.124.499-.374.748-.498zm-16.456 19.074c1.372-1.496-.748.748-.748.748.125-.125.499-.374.748-.748zm24.435-28.549c1.372-.25-.623.623-.748.249.125 0 .499-.125.748-.249zm7.481-8.852c.872.125.374.374-.25.249-.872 0-.374-.249.25-.249zm-23.563 27.926c1.371-1.122-.623.748-.748.623.125 0 .374-.249.748-.623zM152.127 320.9c1.122-.623.249.624-.374.873-.998.623-.125-.623.374-.873zm9.724-13.713c1.496-1.496-.748.997-.873.872.125-.124.499-.623.873-.872zm-19.324 42.886c1.746.249-.997 1.371-.872.374 0-.249.498-.374.872-.374zm28.051-63.208c1.496-1.371-.623 1.621-.748.998.125-.125.374-.624.748-.998zm8.103-24.434c1.371-1.496-.623 1.62-.748.997.125-.125.374-.623.748-.997zm85.772-66.2c1.122.25-.249.25-.623 0-.25-.124.498 0 .623 0zM137.291 379.744c1.87-.125-.997.249-.997.125.124 0 .623 0 .997-.125zm-12.965 4.613c1.87-.25-.998.374-.998.249s.499-.249.998-.249zm-13.34 7.978c1.87-.374-1.122.748-.997.374 0-.124.499-.249.997-.374zm50.616-18.45c1.745.249-.998.249-.998 0h.998zm-11.844 3.116c1.745 0-.998.125-.998 0 .125 0 .624-.124.998 0zm22.69-8.103c1.122.249.374.374-.374.249-1.122-.249-.374-.374.374-.249zM53.514 467.012c1.496.125.374.873-.499.748-1.496-.125-.499-.873.499-.748zm-16.955 21.942c1.496.249.374.873-.624.748-1.496-.374-.374-.997.624-.748zm47.001-65.202c1.37-.125.249.623-.5.623-1.246.125-.249-.623.5-.623zm-14.462 20.944c2.119.125-1.247 1.247-1.122.374 0-.124.623-.249 1.122-.374zm28.299-39.021c1.995-.249-1.122.997-1.122.374.25-.125.748-.249 1.122-.374zm136.014-210.316c1.371-1.496-.748.249-.748.623.124 0 .374-.249.748-.623zm8.478 1.247c1.371-.998-.748.124-.748.374.124 0 .498-.125.748-.374zm8.352 1.62c1.371-.498-.748 0-.748.125.125.125.374 0 .748-.125zm-25.183-1.745c1.372-1.87-.748.499-.623.748 0 0 .374-.374.623-.748zm32.787 2.244h-.748.748zm-68.318 92.13c1.122-.748.25 1.496-.249 1.746-1.122.623-.249-1.496.249-1.746zm27.926-88.889c1.372-1.87-.623.997-.623.997 0-.124.249-.498.623-.997zm-19.698 64.454c1.496-1.746-.748 1.122-.748.997 0-.124.374-.623.748-.997zm6.982-20.82c1.496-1.745-.499 1.746-.748 1.247.124-.374.498-.873.748-1.247zm-22.814 103.351c.997 0 .499 1.621-.249 1.621-1.122 0-.624-1.621.249-1.621zm29.047-128.534c1.372-1.87-.498 1.621-.748 1.247.125-.249.374-.748.748-1.247zm84.526-18.451c1.122.249-.25.125-.499 0-.374-.125.374 0 .499 0zm-92.504 176.781c1.745.249-.873 0-.997-.125.249 0 .623 0 .997.125zm-11.096-.374c1.87.124-.997-.125-.997-.125.124 0 .623 0 .997.125zm-24.061.374c1.87-.125-.997.249-.997.124.124 0 .623-.124.997-.124zm12.217-1.247h-.997.997zm-24.434 7.355c1.994-.124-.998.624-.998.25 0-.125.499-.25.998-.25zm-49.619 87.144c1.372.249.623.997-.499.873-1.371-.25-.623-1.122.499-.873zm25.682-51.613c1.371 0 .499.872-.374.748-1.371 0-.499-.873.374-.748zm11.968-21.194c1.372 0 .374.624-.374.624-1.371 0-.374-.624.374-.624zm-24.31 46.252c2.244.374-1.247 1.496-1.122.374 0-.249.499-.374 1.122-.374zm114.446-215.053c1.621-.998-.623 1.122-.748.748 0-.125.374-.499.748-.748zM213.09 376.004c1.745.374-.873.249-.873 0h.873zm50.865-207.948c.748-.498.374-.748-.25-.249-.748.374-.374.748.25.249zm25.183 32.04c1.372.125-.623-.374-.748-.125.125 0 .499 0 .748.125zm-33.412-38.523c.873-.623.374-.623-.249-.124-.873.748-.374.623.249.124zm25.683 29.547c.872-.124.249-.498-.25-.374-.997.125-.374.499.25.374zm-8.603-11.968c.748-.374.374-.623-.249-.374-.873.374-.499.748.249.374zm-45.753 85.149c1.122-.25.374 2.493-.25 2.493-1.122.249-.374-2.493.25-2.493zm21.692-99.86c1.372-1.122-.623.873-.623.748-.125-.125.249-.499.623-.748zm-27.427 184.634c.997 0 .748 2.369-.249 2.244-.873 0-.624-2.368.249-2.244zm22.316-165.685c1.496-.997-.499 1.621-.748.873.124-.249.498-.623.748-.873zm-4.363 25.682c1.122-.623.374.499-.125.873-1.122.623-.374-.499.125-.873zm87.392-.997c1.246.374-.374.249-.624-.125.125 0 .374 0 .624.125zM212.716 382.487c1.994.623-.998 0-.998-.25.125.125.499.125.998.25zm-21.443 20.57c2.244.873-1.122.997-1.122.125.124-.25.623-.25 1.122-.125zm10.472-14.711c2.119.748-1.122.499-.997-.125 0 0 .498 0 .997.125zm32.912-3.865c1.87.374-.872-.249-.997-.249.125 0 .499.124.997.249zm-10.845-2.244c1.995.499-.998-.125-.998-.249.125 0 .499.124.998.249zm20.944 3.74c1.87.374-.873-.124-.873-.124.125 0 .499.124.873.124zm-85.772 94.624c2.368.748-1.247 1.496-1.123.249 0-.249.499-.374 1.123-.249zm21.941-55.228c1.247.374.748 1.122-.374.873-1.247-.374-.748-1.122.374-.873zm-10.596 26.928c1.246.374.747 1.247-.375.873-1.246-.374-.747-1.247.375-.873zm118.684-297.709c1.621.997-.748-.374-.748-.499 0 .125.374.374.748.499zm7.73 8.727c1.496.748-.748-.873-.748-.499 0 .125.374.374.748.499zm-14.088-5.61c.374.249.623.499.623.623-.499.374-2.369-1.496-.623-.623zm22.44 20.446c1.496.498-.748-1.122-.748-.499.125.125.374.374.748.499zm8.353 15.833c1.372.249-.748-.998-.748-.374 0 .124.374.374.748.374zm7.355 11.718c1.372.25-.623-.499-.748-.249.125.124.499.125.748.249zm-42.013-28.798c.748.374.873 1.246-.125.748-.748-.374-.872-1.247.125-.748zm-24.809 206.825c1.87.374-.872.25-.872 0h.872zm17.454-159.701c.873.374.748.873-.125.499-.997-.249-.748-.873.125-.499zm4.238-21.442c.748.374.873 1.246-.124.872-.749-.374-.873-1.371.124-.872zm-10.097 57.472c.748.124.997 3.116-.125 2.867-.748-.125-.997-3.117.125-2.867zm-4.489 95.122c.873.125.873 2.743-.124 2.494-.998 0-.873-2.618.124-2.494zm96.619-135.265c1.122.623-.125.124-.499-.125s.374 0 .499.125zm-98.115 181.517c1.247.624.624.624-.374.125-1.246-.623-.623-.623.374-.125zm9.475-3.241c1.995.997-.997-.125-.997-.374.125.125.499.249.997.374zm17.828-2.618c1.87.499-.873 0-.873-.125 0-.124.374 0 .873.125zm-8.602 1.496c1.994.748-.873-.125-.998-.249.125 0 .499.124.998.249zm-28.176 11.719c2.244 1.371-1.122.249-.997-.25 0-.124.499 0 .997.25zm44.632-17.329c1.87.498-.873.249-.873 0h.873zm-62.709 52.61c1.247.499.998 1.247-.249.748-1.371-.499-.997-1.247.249-.748zm-19.448 49.743c1.371.374.873 1.247-.374.873-1.371-.374-.873-1.247.374-.873zm28.424-70.313c1.247.623.873 1.246-.249.623-1.247-.623-.998-1.247.249-.623zm-18.45 44.756c2.369 1.122-1.122 1.246-1.122.124.124-.249.623-.249 1.122-.124zM346.61 215.555c1.496 1.371-.624-.623-.748-.623 0 0 .374.374.748.623zm-6.857-6.482c1.621 1.994-.748-.749-.748-.873 0 .124.374.498.748.873zm12.966 10.97c1.496.998-.623-.374-.623-.374s.374.125.623.374zm-51.738 146.611c.748.249.998 2.369-.124 1.995-.873-.125-.998-2.245.124-1.995zm31.791-163.316c1.745 2.618-.748-.873-.748-1.122 0 0 .374.498.748 1.122zm-6.483-2.619c1.87 3.242-.873-.872-.748-1.122 0-.124.374.499.748 1.122zm-11.968 42.388c.374.623.748 1.246.623 1.371-.498.374-2.493-3.865-.623-1.371zm-3.99 18.576c.374.498.624 1.122.624 1.246-.499 0-2.494-3.615-.624-1.246zm-5.111 30.543c.623.374 1.122 3.242-.125 2.244-.623-.374-1.122-3.241.125-2.244zm12.093-70.562c.748 1.122.997 2.369-.125.623-.748-1.122-.997-2.369.125-.623z" fill="#fff" stroke-width="1.255"/><path d="M320.803 204.958c.374.624.748 1.372.624 1.496-.374-.124-2.494-4.488-.624-1.496zm67.945 31.168c.125.124.249.124.374.249.499.499-.748-.125-.873-.249-.374-.374.374-.125.499 0zm-73.804 183.013c1.122.499.748.623-.249.249-1.247-.623-.748-.748.249-.249zm-15.459 17.828c1.247.623.873 1.122-.249.374-1.122-.748-.873-1.122.249-.374zm29.796-29.796c1.995.623-.873.249-.873-.125 0 0 .374.125.873.125zm6.233-7.231c1.122.25.624.499-.249.25-.997-.25-.499-.374.249-.25zm-43.758 50.99c1.246.623.997 1.246-.25.498-1.246-.623-.997-1.246.25-.498zm30.543-37.775c1.122.374.624.499-.249.249-1.122-.498-.623-.623.249-.249zm-38.522 55.353c1.247.623.997 1.247-.249.623-1.247-.623-.998-1.246.249-.623zm-8.353 20.072c1.247.498.997 1.122-.249.748-1.247-.499-.998-1.247.249-.748zm31.915-61.961c2.245 1.372-.997.25-.997-.374 0-.124.499.125.997.374zm53.608-146.61c.374.748.748 1.496.623 1.496-.498-.125-2.618-5.112-.623-1.496zm4.363-8.104c.873 1.621.873 2.12-.124.25-.873-1.621-.873-1.995.124-.25zm10.099-15.084c.374.498.623.997.623.997-.498 0-2.493-3.242-.623-.997zm-5.237 7.355c.873 1.372.748 1.746-.124.25-.873-1.372-.748-1.746.124-.25zm10.223-14.462c.748.748.623 1.122-.125.25-.748-.748-.748-.998.125-.25zM341 383.359c.873.25.873 1.621-.124 1.247-.873-.374-.998-1.621.124-1.247zm44.008-140.501c.748.498.624.748-.124.249s-.624-.748.124-.249zm-27.801 49.244c.374.748.748 1.371.623 1.496-.374 0-2.493-4.738-.623-1.496zm-7.355 28.798c.374.624.748 1.122.623 1.247-.374 0-2.493-3.989-.623-1.247zm3.988-13.588c.374.623.748 1.246.624 1.496-.374 0-2.494-4.364-.624-1.496zm-8.601 32.164c.623.623 1.122 2.493-.125 1.246-.748-.623-1.122-2.493.125-1.246zm74.676-88.889c.249 0 .873.374.374.374-.623 0-1.496-.748-.374-.374zm-65.202 198.597c1.122.499.873.873-.249.374-1.122-.498-.873-.872.249-.374zm5.86-11.22c2.119.873-.873.374-.873-.124 0 0 .374 0 .873.124zm15.832-29.92c1.871.498-.748.498-.872 0h.872zm-10.222 19.698c1.122.249.748.623-.124.374-1.122-.25-.873-.624.124-.374zm-17.703 34.159c1.122.498.873.872-.249.498-.998-.623-.873-.997.249-.498zm-6.358 13.589c1.246.498.872.872-.25.498-1.246-.498-.997-.997.25-.498zm-6.857 14.96c1.247.374.997.997-.25.498-1.246-.374-.872-.872.25-.498zm36.154-72.433c.997.249.748.499-.125.374-1.122-.249-.748-.623.125-.374zm39.146-120.43c.624.499.873 1.371-.124.623-.624-.498-.873-1.371.124-.623zm-6.982 35.157c.374.498.624.872.624.997-.499.249-2.369-2.992-.624-.997zm3.492-16.332c.748.623.873 1.621-.125.623-.623-.748-.873-1.62.125-.623zm10.097-54.231c.748.25.748.873-.124.499-.748-.249-.748-.873.124-.499zm-36.278 135.64c.998.249.748.748-.124.499-.873-.25-.749-.748.124-.499zm33.037-119.059c.623.374.748 1.122-.125.624-.623-.499-.748-1.247.125-.624zm-13.838 64.703c.374.499.623.873.623.873-.374.125-2.493-2.992-.623-.873zm-10.846 27.677c.872.748.872 1.122-.125.249-.997-.748-.873-1.122.125-.249zm-4.239 9.225c.374.25.748.624.623.748-.498.499-2.493-1.994-.623-.748zm8.103-18.7c.873.748.873 1.247-.124.374-.873-.873-.873-1.371.124-.374zm3.491-9.724c.374.374.624.873.624.873-.374.124-2.494-2.868-.624-.873zm54.356-91.632c.124.125.872.499.374.374-.499 0-1.496-.872-.374-.374zm-60.09 227.895c1.246.249.873.748-.125.499-1.247-.25-.997-.749.125-.499zm9.724-27.178c1.122.249.872.623-.125.374-1.122-.249-.873-.623.125-.374zm12.716-33.162c.997.374.873.748-.125.374-.997-.374-.872-.748.125-.374zm-3.99 10.472c.998.374.873.624-.124.374-.998-.374-.873-.748.124-.374zm-4.238 10.846c1.122.25.872.624-.125.374-1.122-.249-.873-.623.125-.374zm-9.226 24.934c1.122.249.873.624-.124.499-1.122-.249-.873-.748.124-.499zm52.984-201.963c.374.125.624.374.499.499-.374.498-2.119-1.122-.499-.499zm-4.737 39.52c.748.124.748.872-.125.748-.748-.25-.748-.998.125-.748zm-7.854 49.493c.873 0 .623.25-.125.25-.872 0-.623-.25.125-.25zm2.618-10.721c.873 0 .623.499-.125.499s-.623-.499.125-.499zm-5.361 18.825c1.745.249-.623.498-.748.124 0-.124.374-.124.748-.124zm12.966-78.915c.623.249.748.997-.125.623-.623-.249-.748-.997.125-.623zm-4.987 42.387c1.621.374-.499 1.122-.623.249 0-.125.374-.249.623-.249zm-17.205 63.332c.998.249.748.623-.124.374-.998-.25-.748-.624.124-.374zm-7.105 21.443c.997.374.872.748-.125.374s-.873-.748.125-.374zm3.615-10.099c.873.374.873.748-.125.374-.997-.374-.872-.748.125-.374zm9.849-29.172c.872.125.748.374-.125.249-.873-.124-.748-.374.125-.249zm-2.992 8.976c.997.125.748.499-.125.249-.997-.124-.748-.374.125-.249zm54.48-101.979c.125.124.873.873.374.623-.623-.374-1.621-1.745-.374-.623zm-36.03 186.38c1.122.249.998.623-.124.374-.998-.25-.873-.624.124-.374zm-3.365 11.469c1.122.25.997.624-.125.499-1.122-.249-.997-.748.125-.499zm12.467-34.408c.997.499.872.873-.125.249-.997-.498-.997-.748.125-.249zm-2.868 7.106c.997.499.873.748-.125.249-.997-.499-.872-.748.125-.249zm-2.992 7.231c.997.374.873.623-.125.249-.997-.374-.872-.623.125-.249zm18.077-81.035c.873 0 .748.498 0 .374-.997 0-.872-.499 0-.374zm9.226-60.464c.748.249.748.748-.125.498-.623-.249-.748-.748.125-.498zm-1.995 14.461c.748.125.748.499-.125.499-.748-.125-.748-.623.125-.499zm-2.12 12.841c1.621 0-.498.748-.623.25 0-.125.249-.25.623-.25zm7.855-54.356c.623.499.748 1.122 0 .374-.624-.498-.873-.997 0-.374zm-1.746 12.717c.624.374.748.997-.125.499-.623-.374-.748-.998.125-.499zm-9.724 61.96c.873 0 .748.374 0 .374-.872 0-.748-.374 0-.374zm-5.734 37.401c.872.249.872.997-.125.623-.873-.249-.873-.997.125-.623zm-2.618 21.567c.748.499.997 1.247-.125.624-.748-.374-.997-1.247.125-.624zm-2.743 12.343c.374.249.747.623.747.623-.374.249-2.742-1.87-.747-.623zm12.716-82.033c.873-.124.623.125 0 .25-.873.124-.623-.125 0-.25zm-4.987 35.531c.873.125.873.499-.125.374-.872-.124-.748-.498.125-.374zm47.624-77.294c.125.124.499.498.499.623-.375-.125-1.746-1.745-.499-.623zM491.6 483.468c1.122.25.997.499-.125.25-.997-.25-.873-.499.125-.25zm-1.995 8.852c1.122.249.998.623-.124.374-1.122-.249-.998-.623.124-.374zm3.989-13.34c.998.374.873.499 0 0-1.122-.249-1.122-.374 0 0zm1.745-2.618c.998.499.873.624 0 0-1.122-.374-.997-.374 0 0zm1.621-2.743c.998.499.998.748 0 0-.997-.374-.997-.498 0 0zm3.367-20.695c.748.374 1.122 1.621 0 .998-.873-.374-1.122-1.621 0-.998zm8.727-120.055c.748.249.748.498 0 .249-.873-.249-.873-.499 0-.249zm-3.117 12.217c.872-.125.748.125 0 .249-.998.125-.748-.124 0-.249zm1.496-6.233c.748.124.748.249 0 .249-.873-.125-.748-.374 0-.249zm3.116-11.719c.374.249.624.374.499.498-.125.125-2.119-1.371-.499-.498zm-11.968 141.249c.873.624.998.873 0 .25-.873-.499-.997-.873 0-.25zm13.34-146.61c.374.249.623.499.498.499-.124.124-1.994-1.746-.498-.499zm-7.854 45.005c.872 0 .748.499 0 .499-.873.125-.748-.499 0-.499zm-.249 17.703c.872 0 .872.624 0 .624-.873-.125-.873-.748 0-.624zm-.499 15.833c.873.125.873.624 0 .374-.997-.124-.997-.498 0-.374zm-1.496 18.077c.872.125.997 1.372 0 .998-.748-.125-.998-1.247 0-.998zm2.742-65.95c.873-.124.748.25 0 .374-.873.125-.748-.249 0-.374zm39.645-13.713c.125 0 .25.125.374.125.499.374-.748-.125-.872-.25-.374-.124.374 0 .498.125zm-6.482 153.093c1.122.25 1.122.25 0 0-.998-.249-.998-.249 0 0zm1.62-2.618c.374.125.748.249.748.374-.25.125-2.743-.873-.748-.374zm-.499 3.491c.998.374.873.374 0 0-.997-.249-.997-.249 0 0z" fill="#fff" stroke-width="1.255"/><path d="M538.35 492.569c.998.25.873.25 0 0-1.122-.249-.997-.249 0 0zm-1.121 1.122c1.122.25.997.374 0 .125-1.122-.249-1.122-.374 0-.125zm4.363-151.472c1.496.374-.374-.125-.623-.125 0 0 .374 0 .623.125zm-.997 0c.374 0 .623.124.623.124l-1.246-.124c0-.125.249-.125.623 0zm2.119.498c1.496.499-.374-.124-.623-.249 0 0 .249.125.623.249zm-2.742 129.032c.748.125 1.122 1.496 0 1.247-.873-.125-1.122-1.496 0-1.247zm3.614-129.655c.748.249.748.374 0 0-.748-.25-.748-.374 0 0zm-3.989 2.244c.873 0 .748.249 0 .125-.872 0-.748-.125 0-.125zm.873 83.778c.873.124.997 1.496 0 1.371-.873-.125-.998-1.496 0-1.371zm-.124-39.396c.748.125.997.873 0 .748-.748-.249-.873-.872 0-.748zm.622 18.451c.873.125.998.624 0 .499-.872-.249-.997-.748 0-.499zm-1.496-39.645c.374 0 .624.25.624.374-.125.873-2.244-.374-.624-.374zm-.373-16.58c.748.124.873.498 0 .374-.873 0-.873-.374 0-.374zm36.278-2.245c.125 0 .873.499.374.374-.498 0-1.62-.748-.374-.374zm-.872 5.361c.748.499.872.499 0 0-.748-.374-.873-.499 0 0zm.249-.499c.873.499.873.499 0 0-.748-.374-.748-.374 0 0zm.374.125c.748.374.748.374 0 0s-.748-.374 0 0zm-.748 2.992c.374.25.623.374.623.499-.125 0-2.369-1.496-.623-.499zm.997-4.114c.748.374.748.499 0 0-.748-.249-.748-.374 0 0zm3.117 65.077c.748.25.997.873 0 .499-.748-.249-.998-.873 0-.499zm1.122 61.337c.374 0 .748.374.748.748-.249 1.372-2.618-.748-.748-.748zm-2.369-79.164c.748.249 1.122 1.122 0 .623-.623-.125-.997-.997 0-.623zm1.871 38.398c.374.124.748.498.748.872-.374 1.496-2.618-1.122-.748-.872zm-4.489-74.428c.374.25.623.499.623.624-.249.249-2.368-1.496-.623-.624zm1.123 15.958c.623.374 1.122 1.122 0 .623-.624-.249-1.122-1.122 0-.623zm30.668-13.589c.249.125.499.374.623.499-.374 0-1.87-1.247-.623-.499zm7.979 55.478c.623.374 1.122 1.246.124.498-.748-.374-1.246-1.122-.124-.498zm-4.613-37.9c.374.25.623.624.623.624-.249 0-2.368-1.995-.623-.624zm-.873-4.488c.873.624.997.873 0 0-.748-.498-.748-.623 0 0zm-.623-2.742c.374.249.623.498.623.498-.125-.124-2.244-1.745-.623-.498zm2.493 14.835c.748.623.998 1.247 0 .374-.623-.623-.997-1.247 0-.374zm8.602 93.626c.374 0 .748.25.748.499-.249 1.247-2.618-.499-.748-.499zm-11.594-110.83c.374.249.624.499.624.499-.25-.125-2.12-1.621-.624-.499zm9.849 79.663c.748.25 1.122 1.372 0 .998-.624-.25-.998-1.372 0-.998zm-1.496-16.955c.748.374 1.122.998 0 .374-.623-.374-.997-.997 0-.374zm-3.74-31.915c.374.25.748.624.748.748-.374.374-2.493-1.87-.748-.748zm-5.236-33.91c.748.499.873.748 0 0-.623-.249-.748-.499 0 0zm30.294 14.587c.125.124.873.498.499.374-.374-.125-1.621-.998-.499-.374zm2.992 11.594c.374.249.623.374.623.498-.124 0-2.119-1.496-.623-.498zm3.117 10.472c.374.249.623.499.623.623-.249 0-2.244-1.87-.623-.623zm1.746 6.483c.374.249.623.623.623.623-.249.125-2.369-1.87-.623-.623zm1.745 8.228c.374.249.623.623.748.623-.249.125-2.369-1.995-.748-.623zm-5.112-20.197c.374.25.624.499.624.499-.125 0-2.244-1.621-.624-.499zm-2.867-10.347c.624.374.873.748 0 .249-.623-.499-.872-.748 0-.249zm14.96 66.324l.748.498c-.249.25-2.493-1.371-.748-.498zm-4.737-24.934c.623.499 1.122 1.122.125.374-.748-.499-1.247-1.122-.125-.374zm7.106 37.401c.374.124.748.374.748.623-.249.623-2.493-1.247-.748-.623zm2.618 20.32c.872.125 1.122.748.124.624-.872-.125-1.122-.748-.124-.624zm-7.356-45.005c.748.374 1.122.997.125.374-.748-.249-1.247-.997-.125-.374zm16.955-45.38c.25.125.499.125.624.25-.374.249-1.87-.624-.624-.25zm6.857 21.07c.624.249.998.623.125.249-.748-.249-1.122-.623-.125-.249zm2.369 7.48c.374.124.623.374.623.374-.125.124-2.119-.998-.623-.374zm2.618 7.979c.374.124.623.374.623.374-.124.249-2.244-.998-.623-.374zm2.743 8.477c.374.125.623.374.748.374-.374.249-2.493-.997-.748-.374zm-10.098-31.043c.374.125.623.25.623.374-.249.125-2.119-.872-.623-.374zm15.832 50.118c.374.124.748.249.748.374-.249.249-2.493-.873-.748-.374zm6.358 20.071c.749.249 1.122.623.125.374-.748-.249-1.122-.748-.125-.374zm-3.241-10.098c.374.125.748.249.748.374-.249.374-2.493-.748-.748-.374zm-21.193-67.072c.374.125.623.25.623.25-.249.249-2.119-.624-.623-.25zm15.084 47.125c.374.125.748.374.748.374-.249.374-2.368-.997-.748-.374zm13.714-44.382c.125 0 .873.499.499.374s-1.621-.873-.499-.374zm12.093 29.422c.374.124.623.374.623.374-.124.249-2.244-.873-.623-.374zm3.366 8.228c.374.124.623.374.748.374-.25.249-2.369-.998-.748-.374zm-6.607-15.958c.623.249.997.623.124.249-.623-.249-.997-.623-.124-.249zm-3.117-7.48c.623.249.997.623.124.249-.623-.249-.997-.623-.124-.249zm13.09 32.289c.374.125.623.374.748.374-.125.25-2.369-.997-.748-.374zm-15.957-39.52c.623.25.997.624.125.25-.624-.25-.998-.624-.125-.25zm19.697 47.998c.374.124.748.249.748.374-.125.124-2.369-.873-.748-.374zm12.093 27.551c.748.125 1.122.374.125.25-.748-.125-1.122-.374-.125-.25zm-4.114-10.222c.748.124 1.122.498.124.374-.748-.25-1.122-.624-.124-.374zm-4.114-9.226l.748.25c-.125.374-2.369-.624-.748-.25zm4.737-44.132c.125.124.873.623.499.498-.499-.249-1.621-1.246-.499-.498zm10.722 20.944c.374.249.623.374.623.499-.125.124-2.119-1.372-.623-.499zm-3.74-7.106c.374.249.623.374.623.498-.125.125-2.12-1.371-.623-.498zm7.729 14.586c.374.249.624.374.624.499-.125.124-2.12-1.372-.624-.499zm32.913 37.026c.374-.124.748-.124.873-.124-.125.124-2.743.498-.873.124zm-44.258-58.594c.374.25.624.499.624.499-.125.125-2.12-1.371-.624-.499zm15.335 29.547c.374.249.623.374.748.498-.125.125-2.244-1.371-.748-.498zm13.588 18.451l.748.249c0 .125-2.368-.748-.748-.249zm-4.737-4.239c.374.125.748.374.748.374-.125.125-2.369-.997-.748-.374zm9.724 10.347l.748.25c0 .374-2.369-.499-.748-.25zm-14.337-16.082c.374.25.623.374.748.499-.125.125-2.244-1.247-.748-.499zm8.104-24.933c.124.124.872.498.498.374-.374 0-1.62-.873-.498-.374zm56.225 38.522c.374 0 .748-.124.873-.249-.125-.249-2.618.374-.873.249zm-34.034-3.366c.374.125.623.374.748.374-.125.249-2.244-.997-.748-.374zm-4.738-7.729c.374.124.624.374.748.374-.249.124-2.244-1.122-.748-.374zm-13.464-20.571c.374.125.623.374.623.374-.124.125-1.994-1.122-.623-.374zm23.189 36.403c.374.125.623.374.748.374-.125.125-2.369-.997-.748-.374zm-14.462-23.063c.374.124.623.374.623.374 0 .249-1.995-.998-.623-.374zm-4.488-6.732c.374.124.623.374.623.374 0 .249-1.995-.998-.623-.374zm54.605 31.167c.873-.125 1.247.249.249.374-.872.124-1.371-.25-.249-.374zm-31.791-34.284h.374c.748.249-.748.249-.872.125.124-.125.374-.125.498-.125zm20.197 27.676c.623.125 1.122.374.124.25-.623 0-1.122-.374-.124-.25zm-10.597-14.212c.623 0 .997.25.124.25-.623 0-.997-.25-.124-.25zm5.236 6.982c.623 0 1.122.249.125.249-.624-.125-1.122-.374-.125-.249zm50.117 9.973c.872.249 1.246 0 .249-.374-.873-.249-1.247 0-.249.374zm-60.215-23.687c.374 0 .623 0 .623.125-.125.249-2.119 0-.623-.125zm26.429-17.454c.125-.124.873-.498.499-.124-.374.498-1.621.872-.499.124zm22.69 37.401c.748-.125 1.122.125.249.374-.623 0-1.122-.249-.249-.374zm-5.983-10.472c.748-.25.997.124.249.374-.873.125-1.122-.125-.249-.374zm-11.471-19.448c.748-.374.998-.125.125.249-.623.499-.873.249-.125-.249zm5.611 9.225c.748-.374.997 0 .249.374-.873.249-1.122 0-.249-.374zm20.196-40.891c1.371-1.122.124.623-.499.623 0-.125.374-.374.499-.623zm32.414 67.072c.748-.125 1.122.249.249.374-.623.124-1.122-.25-.249-.374zm-13.713-28.799c.748-.374.997.125.249.499-.873.249-1.122-.25-.249-.499zm6.731 15.085c.748-.249 1.122.25.249.499-.748.249-1.122-.249-.249-.499zm-19.448-43.509c.748-.624.873-.125.249.374-.872.623-.997.124-.249-.374zm6.109 13.339c1.621-.748 0 1.122-.499.624 0-.25.25-.499.499-.624zm18.95-47.374c.623-.499.872-.125.249.249-.623.499-.873.125-.249-.249zm13.464 29.547c.748-.375.997.374.249.623-.748.374-.997-.374-.249-.623zm7.231 19.947c.374-.125.623 0 .748.124 0 .998-2.244.499-.748-.124zm15.209 37.276c.624-.125 1.247.374.25.498-.624.125-1.122-.374-.25-.498zm-7.729-17.329c.748-.125 1.122.498.249.623-.748.125-1.122-.499-.249-.623zm-21.568-57.224c.748-.498.997.125.249.499s-.997-.125-.249-.499zm24.56-23.188h.499c.748.249-.374.249-.624.249-.623-.124-.249-.374.125-.249zm30.668 79.165c.623 0 1.247.748.249.748-.498 0-1.122-.748-.249-.748zm-8.104-23.064c.624 0 1.122.748.25.748-.624 0-1.247-.748-.25-.748zm-7.853-23.313c.623 0 1.122.748.249.748-.623 0-1.122-.748-.249-.748zm24.559 65.825c.623 0 1.247.623.249.499-.623 0-1.246-.499-.249-.499zm-32.04-85.647c.624 0 1.122.498.25.623-.624 0-1.122-.623-.25-.623zm23.812-3.74c.125.124.873.498.624.498-.374 0-1.621-.872-.624-.498zm24.56 54.48c.499.125 1.247.997.249.748-.498-.125-1.246-.997-.249-.748zm18.077 40.766c.498 0 1.246.624.374.499-.624 0-1.372-.623-.374-.499zm-26.679-62.708c.499.125 1.247.997.249.748-.374-.125-1.122-.997-.249-.748zm-8.104-19.074c.499.125 1.247.997.25.499-.499-.125-1.247-.873-.25-.499zm25.558 62.833c.498.125 1.246.873.249.748-.499-.125-1.247-.873-.249-.748zm-2.494-55.976c.125.124.873.748.623.623-.249-.249-1.62-1.371-.623-.623zm17.329 28.923c.374.249.624.498.748.623 0 .499-2.119-1.371-.748-.623zm9.227 18.077c.37.124.62.374.75.623 0 .499-2.12-1.122-.75-.623zm9.72 18.202c.5.124 1.37.872.38.623-.63-.125-1.37-.873-.38-.623zm-27.798-52.611c.374.25.623.499.748.624 0 .498-2.12-1.497-.748-.624zm22.438 14.961c.13.124.87.872.62.623-.24-.249-1.62-1.621-.62-.623zm28.68 35.779c.37.125.62.374.74.499 0 .374-2.12-1.247-.74-.499zm-9.98-13.09c.38.25.63.499.75.624 0 .249-2.12-1.496-.75-.624zm-9.6-12.093c.38.249.63.623.75.748 0 0-1.99-1.87-.75-.748zm21.82 20.695c.12.125.87.873.62.623-.25-.374-1.62-1.62-.62-.623zm19.95 15.21c.37.249.62.499.74.623.13 0-1.99-1.62-.74-.623zm-10.23-7.356c.38.25.63.624.75.624.13 0-2.12-1.87-.75-.624z" fill="#fff" stroke-width="1.255"/></g></svg>