<svg width="1396" height="513" fill="none" xmlns="http://www.w3.org/2000/svg"><circle opacity=".2" cx="2" cy="31" r="2" fill="#fff"/><circle opacity=".2" cx="2" cy="79" r="2" fill="#fff"/><circle opacity=".2" cx="2" cy="127" r="2" fill="#fff"/><circle opacity=".2" cx="2" cy="175" r="2" fill="#fff"/><circle opacity=".2" cx="2" cy="223" r="2" fill="#fff"/><circle opacity=".2" cx="2" cy="271" r="2" fill="#fff"/><circle opacity=".2" cx="2" cy="319" r="2" fill="#fff"/><circle opacity=".2" cx="2" cy="367" r="2" fill="#fff"/><circle opacity=".2" cx="2" cy="415" r="2" fill="#fff"/><circle opacity=".2" cx="2" cy="463" r="2" fill="#fff"/><circle opacity=".2" cx="2" cy="511" r="2" fill="#fff"/><circle opacity=".2" cx="50" cy="31" r="2" fill="#fff"/><circle opacity=".2" cx="50" cy="79" r="2" fill="#fff"/><circle opacity=".2" cx="50" cy="127" r="2" fill="#fff"/><circle opacity=".2" cx="50" cy="175" r="2" fill="#fff"/><circle opacity=".2" cx="50" cy="223" r="2" fill="#fff"/><circle opacity=".2" cx="50" cy="271" r="2" fill="#fff"/><circle opacity=".2" cx="50" cy="319" r="2" fill="#fff"/><circle cx="50" cy="367" r="2" fill="#fff"/><circle opacity=".6" cx="50" cy="415" r="2" fill="#fff"/><circle opacity=".2" cx="50" cy="463" r="2" fill="#fff"/><circle opacity=".2" cx="50" cy="511" r="2" fill="#fff"/><circle opacity=".2" cx="98" cy="31" r="2" fill="#fff"/><circle opacity=".2" cx="98" cy="79" r="2" fill="#fff"/><circle opacity=".2" cx="98" cy="127" r="2" fill="#fff"/><circle opacity=".2" cx="98" cy="175" r="2" fill="#fff"/><circle opacity=".2" cx="98" cy="223" r="2" fill="#fff"/><circle opacity=".2" cx="98" cy="271" r="2" fill="#fff"/><circle opacity=".2" cx="98" cy="319" r="2" fill="#fff"/><circle opacity=".2" cx="98" cy="367" r="2" fill="#fff"/><circle opacity=".2" cx="98" cy="415" r="2" fill="#fff"/><circle opacity=".2" cx="98" cy="463" r="2" fill="#fff"/><circle opacity=".2" cx="98" cy="511" r="2" fill="#fff"/><circle opacity=".2" cx="146" cy="31" r="2" fill="#fff"/><circle opacity=".2" cx="146" cy="79" r="2" fill="#fff"/><circle opacity=".2" cx="146" cy="127" r="2" fill="#fff"/><circle opacity=".2" cx="146" cy="175" r="2" fill="#fff"/><circle opacity=".2" cx="146" cy="223" r="2" fill="#fff"/><circle opacity=".4" cx="146" cy="271" r="2" fill="#fff"/><circle opacity=".2" cx="146" cy="319" r="2" fill="#fff"/><circle opacity=".2" cx="146" cy="367" r="2" fill="#fff"/><circle opacity=".2" cx="146" cy="415" r="2" fill="#fff"/><circle opacity=".2" cx="146" cy="463" r="2" fill="#fff"/><circle opacity=".2" cx="146" cy="511" r="2" fill="#fff"/><circle opacity=".2" cx="194" cy="31" r="2" fill="#fff"/><circle opacity=".2" cx="194" cy="79" r="2" fill="#fff"/><circle opacity=".2" cx="194" cy="127" r="2" fill="#fff"/><circle opacity=".2" cx="194" cy="175" r="2" fill="#fff"/><circle opacity=".2" cx="194" cy="223" r="2" fill="#fff"/><circle opacity=".7" cx="194" cy="271" r="2" fill="#fff"/><circle opacity=".4" cx="194" cy="319" r="2" fill="#fff"/><circle opacity=".2" cx="194" cy="367" r="2" fill="#fff"/><circle opacity=".2" cx="194" cy="415" r="2" fill="#fff"/><circle opacity=".2" cx="194" cy="463" r="2" fill="#fff"/><circle opacity=".2" cx="194" cy="511" r="2" fill="#fff"/><circle opacity=".2" cx="242" cy="31" r="2" fill="#fff"/><circle opacity=".2" cx="242" cy="79" r="2" fill="#fff"/><circle opacity=".2" cx="242" cy="127" r="2" fill="#fff"/><circle opacity=".2" cx="242" cy="175" r="2" fill="#fff"/><circle opacity=".2" cx="242" cy="223" r="2" fill="#fff"/><circle cx="242" cy="271" r="2" fill="#fff"/><circle opacity=".7" cx="242" cy="319" r="2" fill="#fff"/><circle opacity=".4" cx="242" cy="367" r="2" fill="#fff"/><circle opacity=".2" cx="242" cy="415" r="2" fill="#fff"/><circle opacity=".2" cx="242" cy="463" r="2" fill="#fff"/><circle opacity=".2" cx="242" cy="511" r="2" fill="#fff"/><circle opacity=".2" cx="290" cy="31" r="2" fill="#fff"/><circle opacity=".2" cx="290" cy="79" r="2" fill="#fff"/><circle opacity=".2" cx="290" cy="127" r="2" fill="#fff"/><circle opacity=".2" cx="290" cy="175" r="2" fill="#fff"/><circle opacity=".2" cx="290" cy="223" r="2" fill="#fff"/><circle opacity=".2" cx="290" cy="271" r="2" fill="#fff"/><circle opacity=".2" cx="290" cy="319" r="2" fill="#fff"/><circle opacity=".2" cx="290" cy="367" r="2" fill="#fff"/><circle opacity=".2" cx="290" cy="415" r="2" fill="#fff"/><circle opacity=".2" cx="290" cy="463" r="2" fill="#fff"/><circle opacity=".2" cx="290" cy="511" r="2" fill="#fff"/><circle opacity=".2" cx="338" cy="31" r="2" fill="#fff"/><circle opacity=".2" cx="338" cy="79" r="2" fill="#fff"/><circle opacity=".2" cx="338" cy="127" r="2" fill="#fff"/><circle opacity=".2" cx="338" cy="175" r="2" fill="#fff"/><circle opacity=".2" cx="338" cy="223" r="2" fill="#fff"/><circle opacity=".2" cx="338" cy="271" r="2" fill="#fff"/><circle opacity=".2" cx="338" cy="319" r="2" fill="#fff"/><circle opacity=".2" cx="338" cy="367" r="2" fill="#fff"/><circle opacity=".2" cx="338" cy="415" r="2" fill="#fff"/><circle opacity=".2" cx="338" cy="463" r="2" fill="#fff"/><circle opacity=".2" cx="338" cy="511" r="2" fill="#fff"/><circle opacity=".2" cx="386" cy="31" r="2" fill="#fff"/><circle opacity=".2" cx="386" cy="79" r="2" fill="#fff"/><circle opacity=".2" cx="386" cy="127" r="2" fill="#fff"/><circle opacity=".2" cx="386" cy="175" r="2" fill="#fff"/><circle opacity=".2" cx="386" cy="223" r="2" fill="#fff"/><circle opacity=".2" cx="386" cy="271" r="2" fill="#fff"/><circle opacity=".2" cx="386" cy="319" r="2" fill="#fff"/><circle opacity=".2" cx="386" cy="367" r="2" fill="#fff"/><circle opacity=".2" cx="386" cy="415" r="2" fill="#fff"/><circle opacity=".2" cx="386" cy="463" r="2" fill="#fff"/><circle opacity=".2" cx="386" cy="511" r="2" fill="#fff"/><circle opacity=".2" cx="434" cy="31" r="2" fill="#fff"/><circle opacity=".2" cx="434" cy="79" r="2" fill="#fff"/><circle opacity=".2" cx="434" cy="127" r="2" fill="#fff"/><circle opacity=".2" cx="434" cy="175" r="2" fill="#fff"/><circle opacity=".2" cx="434" cy="223" r="2" fill="#fff"/><circle opacity=".2" cx="434" cy="271" r="2" fill="#fff"/><circle opacity=".2" cx="434" cy="319" r="2" fill="#fff"/><circle opacity=".2" cx="434" cy="367" r="2" fill="#fff"/><circle opacity=".2" cx="434" cy="415" r="2" fill="#fff"/><circle opacity=".2" cx="434" cy="463" r="2" fill="#fff"/><circle opacity=".2" cx="434" cy="511" r="2" fill="#fff"/><circle opacity=".2" cx="482" cy="31" r="2" fill="#fff"/><circle opacity=".2" cx="482" cy="79" r="2" fill="#fff"/><circle opacity=".2" cx="482" cy="127" r="2" fill="#fff"/><circle opacity=".2" cx="482" cy="175" r="2" fill="#fff"/><circle opacity=".2" cx="482" cy="223" r="2" fill="#fff"/><circle opacity=".2" cx="482" cy="271" r="2" fill="#fff"/><circle opacity=".2" cx="482" cy="319" r="2" fill="#fff"/><circle opacity=".2" cx="482" cy="367" r="2" fill="#fff"/><circle opacity=".6" cx="482" cy="415" r="2" fill="#fff"/><circle cx="482" cy="463" r="2" fill="#fff"/><circle opacity=".2" cx="482" cy="511" r="2" fill="#fff"/><circle opacity=".2" cx="530" cy="31" r="2" fill="#fff"/><circle opacity=".2" cx="530" cy="79" r="2" fill="#fff"/><circle opacity=".2" cx="530" cy="127" r="2" fill="#fff"/><circle opacity=".2" cx="530" cy="175" r="2" fill="#fff"/><circle opacity=".2" cx="530" cy="223" r="2" fill="#fff"/><circle opacity=".2" cx="530" cy="271" r="2" fill="#fff"/><circle opacity=".2" cx="530" cy="319" r="2" fill="#fff"/><circle opacity=".2" cx="530" cy="367" r="2" fill="#fff"/><circle opacity=".2" cx="530" cy="415" r="2" fill="#fff"/><circle opacity=".2" cx="530" cy="463" r="2" fill="#fff"/><circle opacity=".2" cx="530" cy="511" r="2" fill="#fff"/><circle opacity=".2" cx="578" cy="31" r="2" fill="#fff"/><circle opacity=".2" cx="578" cy="79" r="2" fill="#fff"/><circle opacity=".2" cx="578" cy="127" r="2" fill="#fff"/><circle opacity=".2" cx="578" cy="175" r="2" fill="#fff"/><circle opacity=".2" cx="578" cy="223" r="2" fill="#fff"/><circle opacity=".2" cx="578" cy="271" r="2" fill="#fff"/><circle opacity=".2" cx="578" cy="319" r="2" fill="#fff"/><circle opacity=".2" cx="578" cy="367" r="2" fill="#fff"/><circle opacity=".2" cx="578" cy="415" r="2" fill="#fff"/><circle opacity=".2" cx="578" cy="463" r="2" fill="#fff"/><circle opacity=".2" cx="578" cy="511" r="2" fill="#fff"/><circle opacity=".2" cx="626" cy="31" r="2" fill="#fff"/><circle opacity=".2" cx="626" cy="79" r="2" fill="#fff"/><circle opacity=".2" cx="626" cy="127" r="2" fill="#fff"/><circle opacity=".2" cx="626" cy="175" r="2" fill="#fff"/><circle opacity=".2" cx="626" cy="223" r="2" fill="#fff"/><circle opacity=".2" cx="626" cy="271" r="2" fill="#fff"/><circle opacity=".2" cx="626" cy="319" r="2" fill="#fff"/><circle opacity=".2" cx="626" cy="367" r="2" fill="#fff"/><circle opacity=".2" cx="626" cy="415" r="2" fill="#fff"/><circle opacity=".2" cx="626" cy="463" r="2" fill="#fff"/><circle opacity=".2" cx="626" cy="511" r="2" fill="#fff"/><circle opacity=".2" cx="674" cy="31" r="2" fill="#fff"/><circle opacity=".2" cx="674" cy="79" r="2" fill="#fff"/><circle opacity=".2" cx="674" cy="127" r="2" fill="#fff"/><circle opacity=".2" cx="674" cy="175" r="2" fill="#fff"/><circle opacity=".2" cx="674" cy="223" r="2" fill="#fff"/><circle opacity=".2" cx="674" cy="271" r="2" fill="#fff"/><circle opacity=".2" cx="674" cy="319" r="2" fill="#fff"/><circle opacity=".2" cx="674" cy="367" r="2" fill="#fff"/><circle opacity=".2" cx="674" cy="415" r="2" fill="#fff"/><circle opacity=".2" cx="674" cy="463" r="2" fill="#fff"/><circle opacity=".2" cx="674" cy="511" r="2" fill="#fff"/><circle opacity=".2" cx="722" cy="31" r="2" fill="#fff"/><circle opacity=".2" cx="722" cy="79" r="2" fill="#fff"/><circle opacity=".2" cx="722" cy="127" r="2" fill="#fff"/><circle opacity=".2" cx="722" cy="175" r="2" fill="#fff"/><circle opacity=".2" cx="722" cy="223" r="2" fill="#fff"/><circle opacity=".2" cx="722" cy="271" r="2" fill="#fff"/><circle opacity=".2" cx="722" cy="319" r="2" fill="#fff"/><circle opacity=".2" cx="722" cy="367" r="2" fill="#fff"/><circle opacity=".2" cx="722" cy="415" r="2" fill="#fff"/><circle opacity=".2" cx="722" cy="463" r="2" fill="#fff"/><circle opacity=".2" cx="722" cy="511" r="2" fill="#fff"/><circle opacity=".2" cx="770" cy="31" r="2" fill="#fff"/><circle opacity=".2" cx="770" cy="79" r="2" fill="#fff"/><circle opacity=".2" cx="770" cy="127" r="2" fill="#fff"/><circle opacity=".2" cx="770" cy="175" r="2" fill="#fff"/><circle opacity=".2" cx="770" cy="223" r="2" fill="#fff"/><circle opacity=".2" cx="770" cy="271" r="2" fill="#fff"/><circle opacity=".2" cx="770" cy="319" r="2" fill="#fff"/><circle opacity=".2" cx="770" cy="367" r="2" fill="#fff"/><circle opacity=".2" cx="770" cy="415" r="2" fill="#fff"/><circle opacity=".2" cx="770" cy="463" r="2" fill="#fff"/><circle opacity=".2" cx="770" cy="511" r="2" fill="#fff"/><circle opacity=".2" cx="818" cy="31" r="2" fill="#fff"/><circle opacity=".2" cx="818" cy="79" r="2" fill="#fff"/><circle opacity=".2" cx="818" cy="127" r="2" fill="#fff"/><circle opacity=".2" cx="818" cy="175" r="2" fill="#fff"/><circle opacity=".2" cx="818" cy="223" r="2" fill="#fff"/><circle opacity=".2" cx="818" cy="271" r="2" fill="#fff"/><circle opacity=".2" cx="818" cy="319" r="2" fill="#fff"/><circle opacity=".2" cx="818" cy="367" r="2" fill="#fff"/><circle cx="818" cy="415" r="2" fill="#fff"/><circle opacity=".2" cx="818" cy="463" r="2" fill="#fff"/><circle opacity=".2" cx="818" cy="511" r="2" fill="#fff"/><circle opacity=".2" cx="866" cy="31" r="2" fill="#fff"/><circle opacity=".2" cx="866" cy="79" r="2" fill="#fff"/><circle opacity=".2" cx="866" cy="127" r="2" fill="#fff"/><circle opacity=".2" cx="866" cy="175" r="2" fill="#fff"/><circle opacity=".2" cx="866" cy="223" r="2" fill="#fff"/><circle opacity=".2" cx="866" cy="271" r="2" fill="#fff"/><circle opacity=".2" cx="866" cy="319" r="2" fill="#fff"/><circle opacity=".2" cx="866" cy="367" r="2" fill="#fff"/><circle opacity=".2" cx="866" cy="415" r="2" fill="#fff"/><circle opacity=".2" cx="866" cy="463" r="2" fill="#fff"/><circle opacity=".2" cx="866" cy="511" r="2" fill="#fff"/><circle opacity=".2" cx="914" cy="31" r="2" fill="#fff"/><circle opacity=".2" cx="914" cy="79" r="2" fill="#fff"/><circle opacity=".2" cx="914" cy="127" r="2" fill="#fff"/><circle opacity=".2" cx="914" cy="175" r="2" fill="#fff"/><circle opacity=".2" cx="914" cy="223" r="2" fill="#fff"/><circle opacity=".6" cx="914" cy="271" r="2" fill="#fff"/><circle opacity=".2" cx="914" cy="319" r="2" fill="#fff"/><circle opacity=".2" cx="914" cy="367" r="2" fill="#fff"/><circle opacity=".2" cx="914" cy="415" r="2" fill="#fff"/><circle opacity=".2" cx="914" cy="463" r="2" fill="#fff"/><circle opacity=".2" cx="914" cy="511" r="2" fill="#fff"/><circle opacity=".2" cx="962" cy="31" r="2" fill="#fff"/><circle opacity=".2" cx="962" cy="79" r="2" fill="#fff"/><circle opacity=".2" cx="962" cy="127" r="2" fill="#fff"/><circle opacity=".2" cx="962" cy="175" r="2" fill="#fff"/><circle opacity=".2" cx="962" cy="223" r="2" fill="#fff"/><circle cx="962" cy="271" r="2" fill="#fff"/><circle opacity=".2" cx="962" cy="319" r="2" fill="#fff"/><circle opacity=".2" cx="962" cy="367" r="2" fill="#fff"/><circle opacity=".2" cx="962" cy="415" r="2" fill="#fff"/><circle opacity=".2" cx="962" cy="463" r="2" fill="#fff"/><circle opacity=".2" cx="962" cy="511" r="2" fill="#fff"/><circle opacity=".2" cx="1010" cy="31" r="2" fill="#fff"/><circle opacity=".2" cx="1010" cy="79" r="2" fill="#fff"/><circle opacity=".2" cx="1010" cy="127" r="2" fill="#fff"/><circle opacity=".2" cx="1010" cy="175" r="2" fill="#fff"/><circle opacity=".2" cx="1010" cy="223" r="2" fill="#fff"/><circle opacity=".2" cx="1010" cy="271" r="2" fill="#fff"/><circle opacity=".2" cx="1010" cy="319" r="2" fill="#fff"/><circle opacity=".2" cx="1010" cy="367" r="2" fill="#fff"/><circle opacity=".2" cx="1010" cy="415" r="2" fill="#fff"/><circle opacity=".2" cx="1010" cy="463" r="2" fill="#fff"/><circle opacity=".2" cx="1010" cy="511" r="2" fill="#fff"/><circle opacity=".2" cx="1058" cy="31" r="2" fill="#fff"/><circle opacity=".2" cx="1058" cy="79" r="2" fill="#fff"/><circle opacity=".2" cx="1058" cy="127" r="2" fill="#fff"/><circle opacity=".2" cx="1058" cy="175" r="2" fill="#fff"/><circle opacity=".2" cx="1058" cy="223" r="2" fill="#fff"/><circle opacity=".2" cx="1058" cy="271" r="2" fill="#fff"/><circle opacity=".2" cx="1058" cy="319" r="2" fill="#fff"/><circle cx="1058" cy="367" r="2" fill="#fff"/><circle opacity=".7" cx="1058" cy="415" r="2" fill="#fff"/><circle opacity=".4" cx="1058" cy="463" r="2" fill="#fff"/><circle opacity=".2" cx="1058" cy="511" r="2" fill="#fff"/><circle opacity=".2" cx="1106" cy="31" r="2" fill="#fff"/><circle opacity=".2" cx="1106" cy="79" r="2" fill="#fff"/><circle opacity=".2" cx="1106" cy="127" r="2" fill="#fff"/><circle opacity=".2" cx="1106" cy="175" r="2" fill="#fff"/><circle opacity=".2" cx="1106" cy="223" r="2" fill="#fff"/><circle opacity=".2" cx="1106" cy="271" r="2" fill="#fff"/><circle opacity=".2" cx="1106" cy="319" r="2" fill="#fff"/><circle opacity=".7" cx="1106" cy="367" r="2" fill="#fff"/><circle opacity=".4" cx="1106" cy="415" r="2" fill="#fff"/><circle opacity=".2" cx="1106" cy="463" r="2" fill="#fff"/><circle opacity=".2" cx="1106" cy="511" r="2" fill="#fff"/><circle opacity=".2" cx="1154" cy="31" r="2" fill="#fff"/><circle opacity=".2" cx="1154" cy="79" r="2" fill="#fff"/><circle opacity=".2" cx="1154" cy="127" r="2" fill="#fff"/><circle opacity=".2" cx="1154" cy="175" r="2" fill="#fff"/><circle opacity=".2" cx="1154" cy="223" r="2" fill="#fff"/><circle opacity=".2" cx="1154" cy="271" r="2" fill="#fff"/><circle opacity=".2" cx="1154" cy="319" r="2" fill="#fff"/><circle opacity=".4" cx="1154" cy="367" r="2" fill="#fff"/><circle opacity=".2" cx="1154" cy="415" r="2" fill="#fff"/><circle opacity=".2" cx="1154" cy="463" r="2" fill="#fff"/><circle opacity=".2" cx="1154" cy="511" r="2" fill="#fff"/><circle opacity=".2" cx="1202" cy="31" r="2" fill="#fff"/><circle opacity=".2" cx="1202" cy="79" r="2" fill="#fff"/><circle opacity=".2" cx="1202" cy="127" r="2" fill="#fff"/><circle opacity=".2" cx="1202" cy="175" r="2" fill="#fff"/><circle opacity=".2" cx="1202" cy="223" r="2" fill="#fff"/><circle opacity=".2" cx="1202" cy="271" r="2" fill="#fff"/><circle opacity=".2" cx="1202" cy="319" r="2" fill="#fff"/><circle opacity=".2" cx="1202" cy="367" r="2" fill="#fff"/><circle opacity=".2" cx="1202" cy="415" r="2" fill="#fff"/><circle opacity=".2" cx="1202" cy="463" r="2" fill="#fff"/><circle opacity=".2" cx="1202" cy="511" r="2" fill="#fff"/><circle opacity=".2" cx="1250" cy="31" r="2" fill="#fff"/><circle opacity=".2" cx="1250" cy="79" r="2" fill="#fff"/><circle opacity=".2" cx="1250" cy="127" r="2" fill="#fff"/><circle opacity=".6" cx="1250" cy="175" r="2" fill="#fff"/><circle cx="1250" cy="223" r="2" fill="#fff"/><circle opacity=".2" cx="1250" cy="271" r="2" fill="#fff"/><circle opacity=".2" cx="1250" cy="319" r="2" fill="#fff"/><circle opacity=".2" cx="1250" cy="367" r="2" fill="#fff"/><circle opacity=".2" cx="1250" cy="415" r="2" fill="#fff"/><circle opacity=".2" cx="1250" cy="463" r="2" fill="#fff"/><circle opacity=".2" cx="1250" cy="511" r="2" fill="#fff"/><circle opacity=".2" cx="1298" cy="31" r="2" fill="#fff"/><circle opacity=".2" cx="1298" cy="79" r="2" fill="#fff"/><circle opacity=".2" cx="1298" cy="127" r="2" fill="#fff"/><circle opacity=".2" cx="1298" cy="175" r="2" fill="#fff"/><circle opacity=".6" cx="1298" cy="223" r="2" fill="#fff"/><circle opacity=".2" cx="1298" cy="271" r="2" fill="#fff"/><circle opacity=".2" cx="1298" cy="319" r="2" fill="#fff"/><circle opacity=".2" cx="1298" cy="367" r="2" fill="#fff"/><circle opacity=".2" cx="1298" cy="415" r="2" fill="#fff"/><circle opacity=".2" cx="1298" cy="463" r="2" fill="#fff"/><circle opacity=".2" cx="1298" cy="511" r="2" fill="#fff"/><circle opacity=".2" cx="1346" cy="31" r="2" fill="#fff"/><circle opacity=".2" cx="1346" cy="79" r="2" fill="#fff"/><circle opacity=".2" cx="1346" cy="127" r="2" fill="#fff"/><circle opacity=".2" cx="1346" cy="175" r="2" fill="#fff"/><circle opacity=".2" cx="1346" cy="223" r="2" fill="#fff"/><circle opacity=".2" cx="1346" cy="271" r="2" fill="#fff"/><circle opacity=".2" cx="1346" cy="319" r="2" fill="#fff"/><circle opacity=".2" cx="1346" cy="367" r="2" fill="#fff"/><circle opacity=".2" cx="1346" cy="415" r="2" fill="#fff"/><circle opacity=".2" cx="1346" cy="463" r="2" fill="#fff"/><circle opacity=".2" cx="1346" cy="511" r="2" fill="#fff"/><circle opacity=".2" cx="1394" cy="31" r="2" fill="#fff"/><circle opacity=".2" cx="1394" cy="79" r="2" fill="#fff"/><circle opacity=".2" cx="1394" cy="127" r="2" fill="#fff"/><circle opacity=".2" cx="1394" cy="175" r="2" fill="#fff"/><circle opacity=".2" cx="1394" cy="223" r="2" fill="#fff"/><circle opacity=".2" cx="1394" cy="271" r="2" fill="#fff"/><circle opacity=".2" cx="1394" cy="319" r="2" fill="#fff"/><circle opacity=".2" cx="1394" cy="367" r="2" fill="#fff"/><circle cx="1394" cy="415" r="2" fill="#fff"/><circle opacity=".2" cx="1394" cy="463" r="2" fill="#fff"/><circle opacity=".2" cx="1394" cy="511" r="2" fill="#fff"/></svg>