<svg width="2852" height="448" fill="none" xmlns="http://www.w3.org/2000/svg"><path d="M718.62 20.156c21.39 1 42.79 4.28 62.8 11.93 18.12 6.73 34.41 17.21 52 25.1 85.23 36.62 178.64 3 264.31-15.32 35.86-8.26 72.07-16.26 108.9-18.26 39.66-.13 79.34 1 118.78-4.42 62.43-6.64 125.23-19.44 188.21-13.35 28.9 4 56.44 14.41 83.18 25.76 67.73 27.64 132.52 71.49 207.34 75.5 79.25-.35 125.53-79.89 197-101.7 36.66-11.24 43.3-.1 68.89 24 24.76 24.2 47.64 50.58 74.73 72.27 9.66 8.18 20.86 13.73 31.88 19.73 12.81 7.64 24.8 16.64 36.65 25.73 48.43 36.14 92.76 80.75 149.34 104 21.75 8.11 45.22 6.3 67.94 5.16 33.5-2.12 66.68 6.55 96.42 21.8 109 53.94 214.48 114.89 324.38 167.2l-384.35-15c-78.82-2.4-157.62-8.14-236.5-6.85-151.47 3.08-302.15 27.2-453.85 21.56-215.37-11.39-424.06-74.5-638.1-97.5-74.3-8-149.29-7.73-223.81-3.33-76.33 4.83-152.45 13.51-229 14.17-87 .71-173.92-5.42-260.87-8.08C283.557 344.763 142.26 339.25 1 333.716c39.61-20.05 82.52-32.61 126.27-39.11 43.6-7.09 89-8 130.16-25.51 71.72-31.82 114.3-102.08 173-150.86 24.18-18.11 53.09-28.63 79.38-43.23 26.5-12.22 51.25-28.95 79.1-37.85 42.3-11.2 88.25-2.83 129.71-17z" stroke="#fff" stroke-width=".27" stroke-linecap="round" stroke-linejoin="round"/><path d="M58.148 310.416c136.9 6.91 274 7.67 411 11 85.57 1 171 8.8 256.63 6.63 74-1.7 147.55-11.079 221.41-15.599 73.662-4.34 147.852-3.811 221.142 5.529 202.35 24.92 399.06 91.221 603.65 97.821 139.84 4.17 278.17-22.41 417.7-26.06 75.58-1.44 151.1 4.429 226.62 6.779 122.4 5.06 244.8 10.381 367.22 15.121" stroke="#fff" stroke-width=".27" stroke-linecap="round" stroke-linejoin="round"/><path d="M109.898 297.546c132.85 6.33 265.83.23 398.74-.43 86.81-1.83 173.55 6.79 260.31 2.49 148.76-8.46 298.692-35.31 447.082-8 104.1 17.2 206.1 44.73 309.11 67.23 82.11 18 165.41 33.88 249.8 33 129.57.24 256.75-30.19 386-34.94 72.1-2 144.15 4.17 216.19 6.58 114.29 5.2 228.56 10.83 342.88 15.38" stroke="#fff" stroke-width=".27" stroke-linecap="round" stroke-linejoin="round"/><path d="M157.07 290.465c131.21 5 262-9.63 393-15 87.36-5 174.83 4 262.1-2.74 152.51-11 307.7-40.74 458.91-3.4 91.24 19.71 180.43 47.68 271 70.29 77 19.39 156 35.31 235.8 30.86 119.43-4.37 235.47-38.23 354.67-44.92 68.44-3.37 136.9 3.47 205.29 6 107.71 5.44 215.39 11.54 323.15 16" stroke="#fff" stroke-width=".27" stroke-linecap="round" stroke-linejoin="round"/><path d="M200.52 284.606c127.63 3.64 253.86-19.09 380.72-29.05 88.58-8.55 177.62 1.23 266.2-7.49 155.82-12.52 316.08-46.46 469.18 1.54 80.08 21.59 158.14 50 237.93 72.59 72.42 21 147.67 36.07 223.32 28.14 112-8.6 219.57-46.15 331.62-54.05 63-4 126.11 3 189.08 5.51 102.57 5.73 205.09 12.35 307.74 16.76" stroke="#fff" stroke-width=".27" stroke-linecap="round" stroke-linejoin="round"/><path d="M240.969 275.206c124.17 3.57 245.79-26.08 368.59-39.34 84.47-10.81 169.69-.46 254.29-9.41 104.43-8.49 208.291-26.48 313.311-25.75 51.09-.74 101.42 10 150.15 24.57 77.14 23 151.5 54.24 228.24 78.42 67.76 22.06 139.08 36.38 210.46 27.34 107.75-10.42 210-52 317.91-60.89 59.45-4.41 119 2.75 178.45 5.25 98 5.91 195.87 13 293.94 17.2" stroke="#fff" stroke-width=".27" stroke-linecap="round" stroke-linejoin="round"/><path d="M279.32 257.826c118.4 4.23 233.87-26.91 350.62-41.19 80.85-11.77 162.58-1.03 243.66-10.03 150.71-11.36 307.19-52.19 454.8-1.7 138.12 41.52 272.39 123.82 421.38 105.9 105.1-10.55 203.93-54.43 309.34-62.9 56.23-3.66 112.59 2.67 168.74 5.35 94.43 6.12 188.75 14 283.33 17.54" stroke="#fff" stroke-width=".27" stroke-linecap="round" stroke-linejoin="round"/><path d="M315.328 231.486c113.52 3.31 225-22.35 337.3-34.21 78.55-9.87 157.84-.62 236.45-9.93 172.502-17.45 304.442-46.46 473.442 17.52 122.25 40.45 246.12 101.84 378.23 84.26 101.45-11.41 197.35-53.43 299.65-59.21 145-1.94 288.64 25.52 433.48 29.24" stroke="#fff" stroke-width=".27" stroke-linecap="round" stroke-linejoin="round"/><path d="M348.891 199.937c108.1 3.95 215.2-14.35 322.7-22.26 77.61-7 155.62 1.92 233.13-7.12 245.149-27.63 308.719-25.5 543.239 55 92.62 30 190 56.9 288.09 42.47 78.81-10 154.25-37.23 232.87-48.32 60.76-9.15 122.36-2 183.06 4.18 97.09 10.89 193.57 28.47 291.36 32.14" stroke="#fff" stroke-width=".27" stroke-linecap="round" stroke-linejoin="round"/><path d="M380.148 167.146c104.91 5.23 209.63-5.75 314.41-8.9 47.31-2.15 94.57.78 141.84 1.37 45-.23 89.86-4.7 134.66-8.7 62.082-5.72 124.762-9.44 186.892-2.33 103 11.68 201.48 44.78 300.93 72.28 87.89 24.15 180 41.44 271.13 27.89 72.28-9.94 142.08-33.1 214.5-42.19 60.1-8.08 120.83-.2 180.47 8.21 97.18 14.32 193.37 37.17 291.74 42.11" stroke="#fff" stroke-width=".27" stroke-linecap="round" stroke-linejoin="round"/><path d="M409.262 137.096c138.45 8.17 277.26-1.49 415.72 7.24 82.78 3.47 165-11.79 247.698-10.15 49.3.5 98.32 8 146 20 78.94 16 155.94 40.2 234.46 58.06 87.33 20.14 178.27 33.15 267.57 19.46 70.93-10.3 139.92-32 211.44-38.45 155.89-10.68 304.49 55.48 459.07 63.71" stroke="#fff" stroke-width=".27" stroke-linecap="round" stroke-linejoin="round"/><path d="M436.359 113.736c144.01 6.79 288.16 11.53 432.16 16.87 66.45-.72 132.491-11.46 199.001-9.12 60.73.88 119.76 15.88 177.81 32.44 60.9 16.41 121.73 33.29 183.42 46.52 88.5 18.67 180.21 32 270.35 18 75.82-11 149.8-34.1 226.57-38.38 149.69-5.5 290.11 63.26 438.52 71.62" stroke="#fff" stroke-width=".27" stroke-linecap="round" stroke-linejoin="round"/><path d="M461.648 99.496c140.07 5 280 15.22 420.09 18.4 56.63-.68 112.77-9.92 169.412-10.37 66.17-1.51 131.42 12.56 193.89 33.48 55.4 17.27 110.79 34.8 167.22 48.45 82.78 20.95 169 30.75 253.69 16 83.88-12 166.29-35.4 251.3-38.54 141.22-1.42 275.45 61.22 416 69.92" stroke="#fff" stroke-width=".27" stroke-linecap="round" stroke-linejoin="round"/><path d="M485.441 87.397c89.89 3.48 179.57 10.51 269.34 15.92 55.67 2.53 111.56 8.439 167.27 4.079 44.9-3.49 89.299-11.75 134.289-14.17 114.07-9.69 219.39 40.701 325.63 73.901 79.11 25.23 148.25 37.409 231 23.399 106.16-12.57 212.17-35.759 319.55-31.169 123.41 10.55 243.42 45.92 367 55.14" stroke="#fff" stroke-width=".27" stroke-linecap="round" stroke-linejoin="round"/><path d="M507.879 75.986c129.24 4.67 257.64 26 387 26.52 50.52-1.93 99.45-15.54 149.151-23.43 41.71-6.79 84.48-8 126.25-.89 116.25 20.83 219.6 91.88 339 99 46.61 1.51 92.42-10.84 138.83-13.92a1887.933 1887.933 0 01223.58-9.37c131.7 3.34 261.93 27.5 393.43 34.27" stroke="#fff" stroke-width=".27" stroke-linecap="round" stroke-linejoin="round"/><path d="M529.059 65.227c78.83 3.9 157 15 235.42 23.55 50.94 4.43 102.48 13.2 153.57 6.83 58.32-7.29 112.811-31.89 171.001-40.1 64.1-11.05 127.81 6 186.57 31.07 76.27 29.59 152.39 69.9 235.94 70.94 28.17-.06 55.29-9.06 83.25-11.56 55.27-6.79 111.12-5.14 166.55-1.37 156.39 12.53 313.47 11.26 470.2 16.86" stroke="#fff" stroke-width=".27" stroke-linecap="round" stroke-linejoin="round"/><path d="M549.09 55.046c77.19 4.1 153.43 17.56 229.94 27.67 44.7 4.84 89.95 13.22 135 8.81 54.94-5.72 104.75-31.27 157.21-46.53 64.59-20 121.92-13.33 183.37 13 79.36 30.34 155.86 77.52 242.59 81.57 28.87 1.76 55.8-10 84-13.83 43.11-6.69 87-3.33 129.9 3.3 46 7 91.73 16.61 138.28 19.47 117.16 1.71 234-12.5 351.17-11" stroke="#fff" stroke-width=".27" stroke-linecap="round" stroke-linejoin="round"/><path d="M568.07 45.396c77.14 3.77 152.92 19.65 229.2 30.66 47.58 5.89 96.22 14.72 144 6.71 52.08-8.47 98.95-34.2 149-49.44 70.79-23.17 126.66-9.37 192.09 21.11 70.33 29.71 140.16 74.46 218.91 72.17 27.17-1 51.13-15.8 77.85-19.42 37.78-6.82 76.46-1.69 113.48 7.11 42.9 10.11 85.33 23.5 129.49 26.94 117.68 5.61 234-24.68 351.62-21.56" stroke="#fff" stroke-width=".27" stroke-linecap="round" stroke-linejoin="round"/><path d="M588.52 37.265c77.79 3 153.68 21.54 230.44 32.84 47.65 6.26 96.61 13.14 144.31 3.85 48.56-9 93.61-30.2 141-43.35 73.74-22.36 129.9-7.72 198 22.82 64.23 26.16 129.5 64 201.06 58.7 26.17-2.65 49.59-16.85 76-18.59 41.6-5.09 83 5.21 122.76 16.39 54.22 16.88 110.58 26.71 167.51 22.57 94-4.62 186.33-31.77 280.79-26.55" stroke="#fff" stroke-width=".27" stroke-linecap="round" stroke-linejoin="round"/><path d="M615.031 32.607c113.65 3.4 223 53.45 337.48 41.48 54.929-6.67 106.359-28.35 159.689-41.89 85.76-24.72 151.06-2.41 231.32 26.77 53 18 108.75 38.66 165.62 30.81 13.81-1.79 26.75-7.39 40.46-9.67a188.433 188.433 0 0152.86-1.89c71.48 7.28 136.54 45.88 208.92 47.76 106.83 6.83 207.68-46.76 314.42-40.79" stroke="#fff" stroke-width=".27" stroke-linecap="round" stroke-linejoin="round"/><path d="M644.68 30.096c75.13 1.81 145.05 32.51 218.84 42.71 106.25 19.12 197.09-30.55 299.09-45.7 97.14-13.37 189.42 30.76 285 39 18.82 1.62 37.83 1.79 56.59-.61 18.25-2.56 36.12-8 54.73-7.48 82.94.45 154.57 52.26 235.8 62.32 106.74 13.45 200.17-63.64 306-59.84" stroke="#fff" stroke-width=".27" stroke-linecap="round" stroke-linejoin="round"/><path d="M674.07 28.197c67.87.77 127.92 36.26 194 46.33 120.68 21.21 232.89-50.73 352.64-47 72.24.84 143.65 14.14 215.84 15.81 23.65.51 47.37-.28 70.82-3.48 25-4.84 50.74-3.14 75.41 2.82 77.73 18.07 146.07 68.11 226.59 75.24 33.61 1.19 66.31-9.54 96.75-22.9 55-23.6 108.3-60.37 170.33-59.32" stroke="#fff" stroke-width=".27" stroke-linecap="round" stroke-linejoin="round"/><path d="M699.84 25.386c24.51 1.24 48.85 5.59 71.87 14.08 25.53 9.32 49.49 22.65 75.85 29.7 84 23.38 169.72-5.45 251.65-24.3 31.43-7.36 63.16-14.16 95.4-16.61 24.74-1.72 49.52.14 74.28-.44 58.33-.21 116.66-1.66 174.88-5.14 55.53-3.42 90.19-11.55 144.84 9.64 73.61 25.08 140.41 73.36 219.19 81.21 39.43.76 75.52-18.5 108-38.93 42.63-26.22 85.83-60.61 138.3-60" stroke="#fff" stroke-width=".27" stroke-linecap="round" stroke-linejoin="round"/><path d="M2002.76 4.887c39.19 26.14 65.44 67.48 102.28 96.61 18.37 14.54 39.72 24.6 57.93 39.48 44.6 33.1 86.87 69.85 134.92 98 52.26 28.7 99.78-.93 162.89 30.62 109.22 54 212.39 119.52 322 173" stroke="#fff" stroke-width=".27" stroke-linecap="round" stroke-linejoin="round"/><path d="M1972.77 17.316c33.68 22.63 56 58.27 86.89 84.23 13.22 12.08 29.25 20 43.86 30.18 23.75 16.06 47 32.94 70.47 49.41 41.81 27.43 82.31 65.37 135.26 65 22.45 1 45.11 1.9 66.86 8.19 50.9 15.72 95.19 47.31 141.3 73.27 64.7 38.76 129.49 77.53 196.51 112.3" stroke="#fff" stroke-width=".27" stroke-linecap="round" stroke-linejoin="round"/><path d="M1944.25 35.406c30.36 20.13 49.09 53.27 77.49 75.8 54.23 36.86 111.93 68.9 167.8 103.31 45.19 31 103.67 19.09 152.28 41.39 46.33 20.39 88 49.87 130.87 76.66 56.4 36.42 113.15 72.43 172.18 104.61" stroke="#fff" stroke-width=".27" stroke-linecap="round" stroke-linejoin="round"/><path d="M1916.33 56.176c25.53 16.24 39.69 44.91 63.7 63 40 27.4 86.25 44.56 128.83 67.59 24.23 11.55 46.32 27.87 72.39 35.14 39.85 10.63 81.86 14.45 118.91 34 95.87 52.87 179.51 125.36 275.43 178.51" stroke="#fff" stroke-width=".27" stroke-linecap="round" stroke-linejoin="round"/><path d="M1888.1 76.606c16.45 9.44 25.29 26.909 38.31 39.999 29.23 28.77 72.1 36 108.81 51.54 16.4 6.19 32.71 12.72 48.42 20.51 14.58 7.42 28.39 16.39 44 21.53 36.13 12.5 74.38 18.7 109 35.55 45.29 21.7 84.34 54.06 124.38 84 46.89 35.93 94.48 71.12 145 101.93" stroke="#fff" stroke-width=".27" stroke-linecap="round" stroke-linejoin="round"/><path d="M1858.68 93.826c15.9 8.55 20.69 27.79 35.5 37.67 17.43 13.42 39.79 17.54 60.62 23.05 33.52 8.34 68.44 15.38 97.85 34.4 26.68 15.2 56.69 22.74 85.43 33 29.81 10.32 58.62 23.89 84.52 42.07 73 52.65 137.24 116.88 213.76 165" stroke="#fff" stroke-width=".27" stroke-linecap="round" stroke-linejoin="round"/><path d="M1827.16 104.727c11.88 5.51 12.48 19.4 22 27 34.43 29.28 94.1 18 135.44 38.72 56.61 36.33 125.74 47.45 180.3 87.65 69.87 52.71 128.07 119.68 201.52 168.13" stroke="#fff" stroke-width=".27" stroke-linecap="round" stroke-linejoin="round"/><path d="M1792.68 106.416c9.23 6 9.35 8.79 11.42 18.56 27.1 37.18 86 21.36 124.85 38.14 19.46 7.63 35.52 21.77 55.17 29.27 42.17 18.59 86.41 34.11 123.65 62 66.15 52.59 118.75 120.61 188.46 169.22" stroke="#fff" stroke-width=".27" stroke-linecap="round" stroke-linejoin="round"/><path d="M1755.64 99.176c14.57 6.78 7 15.61 14.07 25.61 28.71 30.74 91.43 24.13 129.65 48.58 49.81 29.79 107.06 46.58 152.7 83.44 61.19 52.41 110.36 117.59 174.81 166.64" stroke="#fff" stroke-width=".27" stroke-linecap="round" stroke-linejoin="round"/><path d="M1717.02 85.848c17.4 5.71 7.84 27 21.53 36.11 21.43 18 48.43 26.89 73.79 37.89 22 8.92 42.47 21 63.45 32 43 21.93 87.13 43.18 123.86 75.09 55.11 50.89 100.62 111.34 158.78 159.26" stroke="#fff" stroke-width=".27" stroke-linecap="round" stroke-linejoin="round"/><path d="M1677.43 68.695c16.87 5.13 13.17 24.43 19.89 37 52.79 60.83 130.78 89.12 196.66 132.56 77.57 50.9 127.11 132 196.45 192.5" stroke="#fff" stroke-width=".27" stroke-linecap="round" stroke-linejoin="round"/><path d="M1637.52 49.977c23.57 8 14.26 39.37 30.33 53.89 11.33 10.83 18.53 25.74 28.8 37.74a228.793 228.793 0 0052.81 49.93c27.36 16.73 57.15 29.42 82.59 49.37 74.73 53.38 124.61 132.14 190.37 195.14" stroke="#fff" stroke-width=".27" stroke-linecap="round" stroke-linejoin="round"/><path d="M1597.76 31.957c20.71 8.09 20.09 33.86 26.45 51.8 2 7.93 7.23 13.23 12.25 19.21 2.58 4.44 4.87 9 7.08 13.69 15.9 37 36.89 76 75.12 93.67 102 48.36 159.05 152.18 235.28 230.68" stroke="#fff" stroke-width=".27" stroke-linecap="round" stroke-linejoin="round"/><path d="M1558.9 16.887c23.17 11.38 22 42 29 63.5 1.9 11.37 10.74 18.56 14.48 29 10.69 31.09 16.26 66.22 41.48 89.66 10.28 10.59 23.54 17.07 36.92 22.73a190.582 190.582 0 0137.21 24.2c64.55 58 110 133.28 166.54 198.61" stroke="#fff" stroke-width=".27" stroke-linecap="round" stroke-linejoin="round"/><path d="M1521.52 7.027c26.26 17.37 22.26 55.17 30.43 82.32 1.57 10.44 8.94 17.89 11.58 27.83 4.7 18 5.52 37 11.77 54.67 7.53 25.3 28.53 43.55 53.34 51.16 41.29 17.09 67 55.33 91.83 90.52 32.07 43.44 60.88 88.81 93.23 132.15" stroke="#fff" stroke-width=".27" stroke-linecap="round" stroke-linejoin="round"/><path d="M1486.04 4.207c23 20.86 20.74 56.5 25.72 84.9 1 14.25 5.2 27.38 10.07 40.51 2.35 12.78 2.54 26 5.44 38.72 12.67 59.58 58.51 40.18 94.54 84 48.19 57.78 76.93 128.27 118.36 190.64" stroke="#fff" stroke-width=".27" stroke-linecap="round" stroke-linejoin="round"/><path d="M1451.44 5.125c21.72 26.75 17.69 64.86 21.2 97.24.5 8.555 1.73 17.051 3.66 25.4 1.69 15.06 2.64 30.56 7.51 45.09 11.85 41 43.55 36.16 70.57 60.91 28.53 25.87 46.95 61.5 63.48 95.76 11.49 35.54 19 72.41 39.48 104.47" stroke="#fff" stroke-width=".27" stroke-linecap="round" stroke-linejoin="round"/><path d="M1417.24 7.965c30.5 48.16-4.31 115.19 25.13 168 25.6 48.62 60.87 18.06 105.06 118.93 7.71 19.49 4.25 40.62 4.5 61a146.636 146.636 0 0014.5 64" stroke="#fff" stroke-width=".27" stroke-linecap="round" stroke-linejoin="round"/><path d="M1383.23 11.945c13.15 21.65 7 48.92 2 72.18-3.24 11.87-7.27 22.93-3.82 35.36 19.11 96.57 62 64.92 94.55 133.41 27.31 48.23-28 87.89-5.32 149.89" stroke="#fff" stroke-width=".27" stroke-linecap="round" stroke-linejoin="round"/><path d="M1349.23 16.307c8.88 16.54.1 35.9-9.2 50.28-6.93 9.29-11.6 13.94-8.94 26.46 4.56 26.84 15.66 52.87 29.53 76.2 19.65 31.36 46.59 27.36 57.81 72.77 3.28 45.75-57.25 83.3-45.26 142.6" stroke="#fff" stroke-width=".27" stroke-linecap="round" stroke-linejoin="round"/><path d="M1315.02 20.246c5.48 13.24-9.18 22-19 27.43-4.59 3.2-11.79 4.07-13.63 10-5.37 24.82 29.4 96.53 45 117.82 56.16 42 15 75.39-16.77 115.5-17.25 21.9-34.68 47.27-33.45 76.39" stroke="#fff" stroke-width=".27" stroke-linecap="round" stroke-linejoin="round"/><path d="M1280.42 23.006c2 16.5-42.22 1.44-45.58 16.68-2.64 28.66 19.47 61.81 30.05 88.24 5.92 11.62 10 24.17 14.94 35.85 4.6 7.72 12.46 13 12.81 22.79 9.23 33.75-37.91 64.25-58.09 87.5-21.36 22.25-45.55 47.09-48.67 79.21" stroke="#fff" stroke-width=".27" stroke-linecap="round" stroke-linejoin="round"/><path d="M1245.22 23.817c.51 12.38-32.68-7.82-51.26-.78-20.22 12.4 34 90.55 37.48 112.41 2.35 6.7 1.42 13.31 2 20 1.28 7.08 2.22 13.73 1.48 21 1.41 18-10 32.31-22.76 44.23-16.3 15.79-34.55 30.14-51.68 45.33-23.66 21.81-51.37 45.28-58.06 78.14" stroke="#fff" stroke-width=".27" stroke-linecap="round" stroke-linejoin="round"/><path d="M1208.68 23.457c-2.88 13.41-32.25-10.71-56.35-1.81-20.47 12.07 28.78 79.35 27.59 101.96-1.73 19.31-.81 38.18-3.34 57.5-3.34 29-62.7 64.14-84.67 85.08-24.4 21.17-51.86 43.56-62.22 75.13" stroke="#fff" stroke-width=".27" stroke-linecap="round" stroke-linejoin="round"/><path d="M1168.99 27.605c-2.88 6.84-10.28 4-15.5 1.9-10.34-4.2-21.72-6.21-32.84-3.89-27.69 3.24-3.05 44.37-.06 60.11 3 10.62 7.31 22.37 2.87 33-.83 10.55-1.16 20.87-1.86 31.36-2.71 42.06-5.19 47.23-37.82 74.9-41 36.09-93.191 66.09-117.671 116.86" stroke="#fff" stroke-width=".27" stroke-linecap="round" stroke-linejoin="round"/><path d="M1126.9 35.356c-3.72 8.19-11.66 2.62-17.52.48-8.78-3.47-18.35-2.39-27.28.22-20.77 5.6-8.07 32.72-6.71 47.47 2.46 11.2 2.21 22.34-3 32.59-1.63 11.93-3.49 23.61-6 35.35-8.86 44.33-8 48.57-43.74 79.11-39.912 35.32-87.772 66.18-114.002 114" stroke="#fff" stroke-width=".27" stroke-linecap="round" stroke-linejoin="round"/><path d="M1083.37 45.215c-5 11-12.79-2.36-21.43-.27-39.91 3.72-23.6 30.52-30 57.56-1 5.21-4.91 8.61-6.72 13.43-1.33 5.24-2.75 10.36-4.32 15.46-5.07 16.44-11.61 32.16-17.26 48.44-4.261 16.43-12.281 30.77-25.121 42.38-41.41 41.52-93.19 75.08-123.82 126.31" stroke="#fff" stroke-width=".27" stroke-linecap="round" stroke-linejoin="round"/><path d="M1039.4 55.605c-6.48 12.84-3.77-5.89-21.1 4.22-5.16 2.57-11.45 3.84-15.21 8.57-8.179 9.69-7.339 23.44-12.649 34.55-2.14 6.1-7.16 10.07-10.25 15.59-3.69 9.14-7.87 18-12.42 26.7-7.24 13.84-14.91 27.33-21.94 41.35-7 15.49-15.11 30.17-27.53 42.23-39.14 40.93-85.95 75.87-117 124M995.939 64.797c-1.1 1.79-1.94 3.76-3 5.16.51-7.59-9 1.35-11.78 2.78a41.691 41.691 0 00-19.47 14.59c-7.58 11.39-14 23.56-24.52 32.66-17.17 29.75-39.08 56.2-57.32 85.32-37.83 55.69-96 95.06-134.24 151.08m208.36-285.071c-.74 1-4.87 7.46-1.67 4.13 3-4.29-5.94 3.94-7 5-3.68 2.61-7.87 4.75-11.55 7.34-23.84 16.07-43.47 37.14-61.11 59.66-16.35 19.24-33.07 38.16-49.05 57.74-42.51 54.31-95.58 99.26-138.8 153.16m229.729-284.83c-1.54 1.73-3 3.23-4.28 4.86-.09.21.1.05.24-.06.83-.66 1.73-1.55 2.51-2.25a11.03 11.03 0 01-.88.93c-16.31 19.89-43.37 24.38-61.59 41.92-78.38 79.38-156.22 159.12-234.44 238.8m264.17-286.95c-9.45 10.35-4-.24-9.31 3.66-13.9 15.18-33.15 21.88-51.24 30.58-31.61 18.6-55.51 47.75-82.58 72.16-64 61-132 117.28-196.79 177.62M853.78 64.867c-7.32 8.32-11.59 2.93-20 4-7.21 2.11-12 8.76-18.33 12.5-9.93 6.63-21.09 10.94-31.93 15.86-52.14 23.78-86.48 72.56-130.1 108.13-60.36 52.4-128.7 94.23-189.35 146.43M832.651 56.848c-11 10-26.22 2.19-39 6.51-10.21 3.32-17.74 11.82-27.38 16.39-13.54 7.42-27.95 13-41.55 20.33-52.2 27.43-86.2 78.07-131.71 114.39-63.42 52.31-141.11 83-205.46 134.34" stroke="#fff" stroke-width=".27" stroke-linecap="round" stroke-linejoin="round"/><path d="M814.332 47.715c-18.24 11.57-41.28 2.59-61 9.44-11.82 3.6-21 12.49-32.08 17.77-17.73 9.47-36.27 17.41-53.64 27.68-52.73 29.84-85.83 83.42-132.83 120.6-34.11 29.26-76.14 46.05-116.77 64.1-37.27 16.51-73.43 35.51-107.25 58.57" stroke="#fff" stroke-width=".27" stroke-linecap="round" stroke-linejoin="round"/><path d="M796.289 38.486c-25 12.38-54.62 4-80.95 11.6-15.46 3.77-27.63 14.69-41.8 21.4-24.63 12.85-49.74 24.86-73.13 40-55.22 40.54-91.19 103.47-150.33 139.59-33.84 19.86-72.17 29.44-109 42.28-37.36 12.64-73.56 28.78-107.36 49.49" stroke="#fff" stroke-width=".27" stroke-linecap="round" stroke-linejoin="round"/><path d="M776.01 30.146c-32.55 13.46-69.79 4.68-103.37 14.58-17.4 4.81-31.66 16.62-47.88 24.21-27.1 14.48-54.94 27.84-80.68 44.701-56.06 44.49-93.56 110.769-156.78 146.759-35.91 18.56-76.3 24.59-115.08 34.62-40.28 10-79.47 24.47-115.81 44.83" stroke="#fff" stroke-width=".27" stroke-linecap="round" stroke-linejoin="round"/><path d="M750.96 23.707c-37.77 13.93-80.06 5.6-118.78 16.06-22.32 6.21-41.18 20.75-62.1 30.41-27.56 15.16-56.76 27.81-82.56 45.86-57 47.06-96.45 115.6-163.36 150.43-38 17.86-80.39 21.08-121.13 28.93-43.09 7.77-85.26 21-124.19 41.41" stroke="#fff" stroke-width=".27" stroke-linecap="round" stroke-linejoin="round"/><path d="M2003.05 5.045c1-.39-.64-.52-.89-.16s.67.21.89.16zm311.92 241.562c-1.46-.17.36.25.9.31 1.47.18-.35-.25-.9-.31zm106.89 10.049c-1.63 0 2 .42 1.47.17-.48-.09-.97-.146-1.47-.17v0zm-29.72-3.65c-1.95-.17 1.79.08 1.38.09l-1.38-.09zm-26.2-.07c-2-.24 1.68 0 1.34.09-.34.09-.83-.04-1.34-.09zm-24.96-.72c-2-.27 1.67.16 1.34.15l-1.34-.15zm116.43 15.892c-1.46 0 .84.61 1.29.56 1.46-.06-.84-.6-1.29-.56zm43.11 21.439c-1.47.09 1 .86 1.51.8 1.49-.1-1.08-.87-1.51-.8zm155.59 86.15c-1.65.18 1.43 1.17 1.93 1.07 1.66-.16-1.43-1.16-1.93-1.07zm60.52 32.809c-1.72.19 1.57 1.2 2.07 1.1 1.73-.19-1.57-1.21-2.07-1.1zm-168.48-93.08c-1.53.12 1.17 1 1.64.91 1.52-.13-1.17-1-1.64-.91zm51.84 28.98c-1.59.15 1.29 1.09 1.78 1 1.59-.15-1.25-1.09-1.78-1zM2086.52 84.975c-1.11.2.23.85.76.73 1.15-.19-.2-.85-.76-.73zm-22.93-23.29c-1 .25.22.94.75.79 1.03-.25-.22-.94-.75-.79zm-22.07-23.237c-1.39.52 1.53 1.25 1 .24-.14-.112-.3-.192-.47-.233a1.216 1.216 0 00-.53-.007zm68.14 66.689c-1.19.14.23.66.75.57 1.18-.1-.23-.66-.75-.57zm-88.79-86.74c-.88.32.16.77.65.58.88-.32-.16-.77-.65-.58zm136.95 118.77c-1.23.15.42.77.92.68 1.23-.15-.42-.78-.92-.68zm29.84 22.62c-1.25.12.56.88 1 .8 1.29-.12-.52-.88-1-.8zm32.37 25.03c-1.28.06.62.89 1.09.84 1.28-.05-.6-.89-1.09-.84zm33.19 24.788c-1.32 0 .63.81 1.09.78 1.32.04-.63-.78-1.09-.78zm-121.01-90c-1.22.13.24.55.76.47 1.21-.15-.24-.57-.76-.47zm153.31 112.002c-1.38-.1.56.64 1 .64 1.44.06-.5-.64-1-.64zm496.13 210.42c-1.86.22 2.39 1.55 2.79 1-.39-.69-2.04-.92-2.79-1zM1972.52 17.155c-1 .65.63.58.84.07.21-.51-.66-.19-.84-.07zm398.67 235.872c-.51 0-.69 0-.4.06.06 0 2.31.37 1.85.14-.48-.096-.96-.163-1.45-.2v0zm34.57 12.11c-1.43 0 .8.6 1.25.56 1.43-.02-.79-.6-1.25-.56zm41.1 21.409c-1.45.08 1 .86 1.43.8 1.46-.08-.96-.86-1.43-.8zm-105.28-38.489c-1.94-.22 1.8.18 1.39.15l-1.39-.15zm-26.44-1.63c-2-.31 1.69.1 1.35.16-.34.06-.84-.08-1.35-.16zm-25.11-2.101c-2-.37 1.67.24 1.35.22l-1.35-.22zm360.9 161.501c-1.75.18 1.43 1.2 2 1.1 1.72-.18-1.41-1.21-2-1.1zm-57.26-32.871c-1.67.16 1.29 1.16 1.82 1.06 1.67-.16-1.29-1.16-1.82-1.06zm-52.9-31.35c-1.59.14 1.17 1.09 1.68 1 1.6-.19-1.17-1.14-1.68-1zm-48.83-29.13c-1.52.11 1.06 1 1.55.91 1.51-.11-1.07-.99-1.55-.91zm-318.56-131.77c-1.34 0 .57.78 1.06.74 1.34 0-.57-.77-1.06-.74zm-84.55-58.579c-1.27.18.14.56.73.46 1.27-.18-.14-.57-.73-.46zm-21.23-14.041c-1.22.22.09.67.69.54 1.23-.21-.1-.66-.69-.54zm-40.77-39.24c-1.53.63 1.46 1.17 1 .18a1.17 1.17 0 00-1-.18v0zm237.63 169.09c-1.51-.27.3.22.87.32 1.51.26-.3-.22-.87-.32zm-274.94-207.83c-.82.44 0 .84.58.52.82-.44-.02-.85-.58-.52zm18.16 18.061c-.9.39 0 .93.61.65.91-.39-.02-.93-.61-.65zm39.17 41.489c-1.12.28.06.83.68.66 1.12-.27-.07-.83-.68-.66zm189.48 133.42c-2-.25 2 1.12 1.41.49a5.056 5.056 0 00-1.41-.49v0zm-30.98-20.249c-1.39-.11.57.7 1.05.71 1.39.07-.57-.71-1.05-.71zm-63.19-44.222c-1.32.1.49.78 1 .71 1.36-.08-.49-.71-1-.71zm-28.76-20.138c-1.8.24 1.86 1.1 1.27.27a2.451 2.451 0 00-1.27-.27v0zm599.46 300.859c-1.91.22 2.29 1.56 2.7 1-.33-.72-1.97-.91-2.7-1zM1944 35.258c-.74.53.06.72.5.3.74-.52-.06-.71-.5-.3zm347.12 206.627c-1.39-.17.4.09.94.15 1.39.17-.4-.08-.94-.15zm29.9 6.72c-1.43-.08.52.28 1 .31 1.5.07-.5-.31-1-.31zm-57.01-10.339c-2-.35 1.73.22 1.37.21-.36-.01-.86-.12-1.37-.21zm-51.2-11.519c-1.54-.32.26.23.85.35 1.53.32-.26-.23-.85-.35zm25.54 7.608l1.37.28-1.37-.28zm116.69 27.42c-1.42 0 .75.62 1.2.58 1.42-.01-.72-.62-1.2-.58zm176.42 108.331c-1.7.15 1.14 1.171 1.7 1.071 1.7-.15-1.14-1.171-1.7-1.071zm53.78 32.98c-2.4.22 3.65 2 2.13.61a5.252 5.252 0 00-2.13-.61v0zm-148.85-93.75c-1.53.1.94 1 1.45.92 1.52-.1-.94-.99-1.45-.92zm-42.27-26.009c-1.45.07.86.861 1.34.801 1.46-.07-.87-.861-1.34-.801zm87.88 55.278c-2.18.17 3.11 1.81 1.86.56a4.43 4.43 0 00-1.86-.56v0zm-492.02-259c-1.58.72 1.28.94.94.07a.992.992 0 00-.94-.07zm16.54 17.69c-1.12.31-.11.76.57.56 1.14-.25.12-.77-.57-.56zm179.25 114.981c-1.5-.28.4.48.94.56 1.5.27-.4-.49-.94-.56zm-211.45-150.07c-.87.44-.15.9.51.55.87-.44.14-.9-.51-.55zm-15.19-15.409c-.78.51-.1.86.5.46.78-.5.1-.86-.5-.46zm65.26 66.529c-1.24.25 0 .63.62.48 1.24-.2.04-.63-.62-.48zm19.53 12.909c-1.87.31 1.53.74 1.18.12a2.49 2.49 0 00-1.18-.12v0zm51.28 31.251c-1.87.1 2 1.07 1.35.31a3.31 3.31 0 00-1.35-.31v0zm60.89 37c-2-.24 2 1.13 1.41.47a5.057 5.057 0 00-1.41-.47v0zm-88.57-53.88c-1.86.24 1.8.93 1.28.22-.4-.18-.84-.255-1.28-.22v0zm57.79 35.24c-1.39 0 .52.63 1 .61 1.41.05-.5-.63-1-.61zm518.54 260.759c-1.95.21 2.19 1.56 2.63 1-.28-.69-1.96-.9-2.63-1zM1916.1 56.048c-.73.54 0 .71.46.27.72-.54-.04-.71-.46-.27zm425.61 223.947c-1.46.06.76.86 1.26.8 1.47-.06-.75-.86-1.26-.8zm-70.67-36.217c-1.46-.09.57.36 1 .37.43.01.68 0 .39-.1a7.943 7.943 0 00-1.39-.27v0zm33.64 14.458c-1.42 0 .71.65 1.18.61 1.42-.01-.71-.65-1.18-.61zm-64.01-23.109c-.51-.07-.71-.07-.45 0 .26.07.9.17 1.41.24.51.07.7.07.44 0-.26-.07-.89-.17-1.4-.24zm-27.96-5.801c-1.43-.25.33.08.9.17 1.42.25-.31-.07-.9-.17zm306.74 171c-2.46.21 3.45 2 2.07.6a5.048 5.048 0 00-2.07-.6v0zm-138.38-94.21c-1.55.09.8 1 1.34.92 1.55-.09-.79-1-1.34-.92zm-194.76-82.719c-2-.42 1.72.45 1.38.31l-1.38-.31zm282.94 143.81c-1.73.14 1 1.18 1.58 1.08 1.69-.14-.98-1.17-1.58-1.08zm-45.9-31.711c-1.63.12.88 1.1 1.46 1 1.63-.1-.88-1.09-1.46-1zM1929.1 65.857c-.77.52-.22.81.4.38.62-.43.22-.81-.4-.38zm36.73 40.47c-1.12.3-.28.67.45.46 1.13-.3.24-.67-.45-.46zm14.69 13.278c-1.88.41 1.27.701 1.07.091a1.998 1.998 0 00-1.07-.091zm17.69 11.482c-1.32.21 0 .49.67.37 1.31-.2-.02-.49-.67-.37zm-57.14-52.811c-1.46.91 1 .62.81-.07-.11-.13-.47-.09-.81.07zm11.92 13.88c-1 .37-.32.75.41.47.98-.37.32-.76-.41-.47zm94.53 64.19c-1.38 0 .41.5.93.46 1.36-.04-.44-.5-.93-.46zm58.63 29.08c-1.47-.21.45.44 1 .5 1.43.21-.49-.45-1-.5zm-85.35-42.388c-1.35.15.26.51.82.42 1.35-.15-.25-.51-.82-.42zm55.72 27.567c-2-.1 2 .88 1.38.34a5.147 5.147 0 00-1.38-.34zm58 29.772c-1.85-.33 1.74.91 1.39.47a6.578 6.578 0 00-1.39-.47v0zm26.09 13.99c-1.55-.33.25.26.84.38 1.55.34-.24-.25-.84-.38zm414.02 219.549c-2 .2 2.08 1.56 2.54 1-.22-.72-1.85-.92-2.54-1zM1887.9 76.525c-1 .76.48.45.72 0s-.56-.13-.72 0zm366.26 178.192c-1.44 0 .64.67 1.14.63 1.44-.02-.65-.67-1.14-.63zm-33.23-15.722c-1.46-.07.57.43 1 .43 1.51.07-.51-.43-1-.43zm68.19 37.671c-2 .08 2.38 1.46 1.56.46a3.817 3.817 0 00-1.56-.46v0zm-98.99-48.239c-1.47-.14.46.25 1 .3 1.45.14-.49-.25-1-.3zm-28.76-7.97c-1.44-.2.37.17.92.25 1.44.21-.37-.17-.92-.25zm292.06 177.149c-1.84.14 1 1.21 1.63 1.11 1.84-.2-.97-1.26-1.63-1.11zm-319.16-185.069c-1.5-.27.3.19.87.29 1.52.27-.29-.22-.87-.29zm272.56 151.778c-1.76.12.81 1.17 1.47 1.08 1.76-.13-.78-1.18-1.47-1.08zm-42.31-31.88c-1.67.1.71 1.1 1.34 1 1.66-.09-.73-1.09-1.34-1zm-39-29.539c-1.58.08.64 1 1.24.93 1.62-.09-.61-1-1.24-.93zm-373.07-167.041c-1.32.18 0 .42.63.32 1.31-.18.01-.43-.63-.32zM1925 115.206c-1.11.25-.44.54.33.35 1.11-.25.44-.54-.33-.35zm-9.17-10.729c-1.68.65.88.5.82 0-.08-.14-.45-.12-.82 0zm-8.23-10.352c-.86.39-.44.67.27.33.87-.39.45-.67-.27-.33zm-8.8-9.518c-.79.47-.33.69.31.3.79-.43.33-.65-.31-.3zm37.83 41.22c-1.23.21-.29.48.44.34 1.24-.2.29-.47-.44-.34zm171.82 76.29c-1.54-.31.24.31.84.41 1.55.32-.24-.3-.84-.41zm-52.22-25.67c-1.78-.23 1.78.7 1.38.35a7.427 7.427 0 00-1.38-.35v0zm27.16 12.161c-1.51-.3.28.33.85.43 1.52.29-.27-.34-.85-.43zm-55.62-23.182c-1.7-.08 1.78.63 1.35.27a6.66 6.66 0 00-1.35-.27v0zm-27.99-10.219c-1.81.07 1.78.59 1.32.19a5.235 5.235 0 00-1.32-.19v0zm-25.7-9.741c-1.91.16 1.66.57 1.24.12-.4-.112-.82-.153-1.24-.12v0zm531.11 285.722c-2.05.209 2 1.579 2.44 1-.11-.721-1.78-.921-2.44-1zM1858.52 93.707c-1 .59.44.41.71 0 .27-.41-.58-.1-.71 0zm311.85 140.969c-1.47 0 .54.49 1.05.47 1.47.04-.54-.48-1.05-.47zm-30.96-12.24c-1.5-.12.47.33 1 .36 1.49.11-.48-.34-1-.36zm63.51 28.96c-1.48 0 .56.7 1.1.66 1.5-.03-.57-.7-1.1-.66zm-120.32-48.511c-1.52-.22.3.26.87.33 1.52.22-.3-.26-.87-.33zm27.52 9.662c-1.51-.17.39.26.94.31 1.51.18-.39-.25-.94-.31zm-53.19-21.231c-1.51-.24.22.36.82.43s.75.08.52 0a5.77 5.77 0 00-1.34-.43v0zm178.88 82.15c-1.54 0 .48.86 1.09.8 1.54-.05-.48-.86-1.09-.8zm151.28 121.339c-1.88.13.8 1.21 1.51 1.11 1.92-.14-.8-1.21-1.51-1.11zm-81.97-65.369c-1.7.1.53 1.11 1.23 1 1.7-.07-.54-1.08-1.23-1zm-35.7-29.67c-1.62.08.48 1 1.14.93 1.62-.09-.49-1-1.14-.93zm74.57 61.691c-1.8.12.63 1.18 1.35 1.09 1.79-.12-.64-1.18-1.35-1.09zm-450.86-230.77c-1.88.26 1 .5 1 .08a2.11 2.11 0 00-1-.08zm-8.86-8.331c-1.84.35.8.41.85 0a1.613 1.613 0 00-.85 0zm-16.65-21.82c-.83.37-.41.52.24.23.83-.37.42-.53-.24-.23zm165.36 77.611c-1.48-.24.24.3.81.38 1.48.24-.27-.3-.81-.38zm-154.54-63.469c-1.74.49.7.34.77 0-.05-.07-.39-.07-.77 0zm101.28 45.99c-1.75-.11 1.74.42 1.32.2a8.845 8.845 0 00-1.32-.2zm-72.36-20.962c-1.86.2 1.35.5 1.11.08a3.075 3.075 0 00-1.11-.08v0zm99.7 28.63c-1.81-.22 1.72.53 1.34.28a12.5 12.5 0 00-1.34-.28v0zm-133.48-60.87c-.87.29-.58.49.17.23s.57-.49-.17-.23zm54.47 39.96c-1.33.08.23.28.76.23.53-.05.66-.08.45-.15-.4-.076-.8-.103-1.21-.08zm24.72 6.621c-1.66 0 1.66.39 1.29.13a8.811 8.811 0 00-1.29-.13v0zm482.75 274.41c-2.1.2 1.84 1.58 2.36 1-.09-.73-1.73-.92-2.36-1zm-608.54-323.851c-1.11.3.41.38.73.11s-.56-.11-.73-.11zm292.08 126.63c-1.5 0 .48.53 1 .5 1.52 0-.46-.53-1-.5zm-87.41-35.721c-1.49-.13.3.34.87.37 1.48.13-.31-.34-.87-.37zm118.77 52.982c-1.53 0 .45.7 1 .65 1.57-.04-.41-.7-1-.65zm-91.32-42.041c-1.79-.07 1.8.65 1.4.27a6.93 6.93 0 00-1.4-.27v0zm122.15 64.04c-2.23.09 2.12 1.46 1.51.45a3.158 3.158 0 00-1.51-.45v0zm-92.82-52.7c-1.49-.06.46.4 1 .4 1.48.05-.47-.41-1-.4zm123.8 79.03c-2.33.13 2.22 1.7 1.58.52a2.965 2.965 0 00-1.58-.52v0zm68.29 61.871c-1.82.11.47 1.17 1.24 1.08 1.76-.1-.49-1.17-1.24-1.08zm39.79 33.399c-1.91.12.63 1.21 1.4 1.11 1.91-.12-.64-1.21-1.4-1.11zm-75.42-65.491c-2.45.16 2.38 1.86 1.67.56a3.12 3.12 0 00-1.67-.56v0zm-361.44-178.119c-.45 0-.64 0-.44.1 0 0 1.89.17 1.6 0-.38-.067-.77-.1-1.16-.1v0zm123.18 34.78c-2.09-.15 1.68.82 1.3.34a4.904 4.904 0 00-1.3-.34v0zm-162.75-57.041c-1.86.15.69.34.81.07a1.998 1.998 0 00-.81-.07zm19.81 15.582c-1.79.1 1.27.5 1.06.12a3 3 0 00-1.06-.12zm-13.09-8.781c-1.85.1.9.46.92.11a2.29 2.29 0 00-.92-.11zm-11.91-17.011c-1.69.32.56.22.69 0a1.742 1.742 0 00-.69 0v0zm-3.73-5.119c-1.54.38.66.26.7 0a1.28 1.28 0 00-.7 0v0zm5.83 9.952c-1.82.23.57.25.72 0a1.681 1.681 0 00-.72 0zm118.55 41.079c-1.77-.17 1.66.4 1.28.2-.42-.091-.85-.157-1.28-.2v0zm24.69 8.319c-1.41-.14.21.31.77.35.56.04.71 0 .5-.06a6.959 6.959 0 00-1.27-.29v0zm-50.92-13.51c-1.71-.11 1.69.26 1.28.13-.24-.04-.81-.1-1.28-.13zm-25.91-3.869c-1.68 0 1.62.22 1.23.08-.23-.03-.78-.07-1.23-.08zm458.4 272.86c-2.14.19 1.73 1.58 2.27 1-.01-.74-1.66-.93-2.27-1zm-573.08-319.442c-1.19 0 .4.37.77.26.37-.11-.62-.24-.77-.26zm303.64 140.012c-2.21.13 2 1.16 1.49.33a3.559 3.559 0 00-1.49-.33zm28.76 21.84c-1.63.12.19.9.95.81 1.65-.12-.19-.89-.95-.81zm-58.2-39.04c-1.52.07.38.57 1 .51 1.5-.07-.4-.57-1-.51zm-57.84-26.062c-2 0 1.88.69 1.34.22a4.435 4.435 0 00-1.34-.22v0zm28.45 12.082c-2 0 2 .78 1.4.23-.45-.15-.92-.227-1.4-.23zm-55.07-23.582c-1.92 0 1.73.72 1.28.23-.41-.143-.84-.22-1.28-.23zm171.33 102.891c-1.69.13.15 1 1 .94 1.66-.13-.19-1.03-1-.94zm62.65 61.67c-1.84.12.31 1.181 1.14 1.081 1.84-.12-.31-1.181-1.14-1.081zm36.83 33.32c-2.67.21 2.73 2 1.88.6a3.69 3.69 0 00-1.88-.6v0zm-69.55-65.33c-1.76.13.2 1.12 1 1 1.83-.1-.13-1.09-1-1zm-383.43-211.36c-1.67-.15.62.35.74.16a2.13 2.13 0 00-.74-.16v0zm4.34 12.88c-1.77 0 .59.33.74.13a1.896 1.896 0 00-.74-.13zm-1.83-8.36c-.9-.09-.81.05 0 .14.81.09.83-.05 0-.14zm155.77 62.081c-1.35 0 .15.46.73.43 1.36-.03-.15-.47-.73-.43zm-155.34-58.201c-.89-.08-.84.06 0 .13s.86-.07 0-.13zm19.15 19.99c-1.68-.09 1.2.57 1 .21a3.753 3.753 0 00-1-.21v0zm-12.36-9.159c-1.71 0 .81.48.85.16a2.213 2.213 0 00-.85-.16v0zm31.1 15.868c-1.22-.07.22.13.69.15 1.23.08-.21-.13-.69-.15zm72.28 10.641c-1.67.07 1.57.34 1.28.1a6.754 6.754 0 00-1.28-.1v0zm23.71 7.972c-2 .06 1.58.659 1.24.179-.4-.119-.82-.18-1.24-.179v0zm-48.75-12.223c-1.75 0 1.62.19 1.25.08-.37-.11-.79-.07-1.25-.08zm-24.64-2.779c-1.68-.08 1.55.17 1.19.08l-1.19-.08zm432 271.621c-2.17.22 1.63 1.59 2.2 1 .01-.75-1.65-.94-2.2-1zM1755.46 99.066c-1.22-.31.41.28.8.32.39.04-.63-.26-.8-.32zm286.48 150.141c-1.53.28.15.8.89.63 1.54-.23-.15-.8-.89-.63zm26.73 21.949c-1.58.29 0 1 .87.8 1.58-.29-.02-.98-.87-.8zm-53.95-39.389c-2.1.39 1.92.92 1.39.16a2.711 2.711 0 00-1.39-.16v0zm-53.83-27.16c-1.37.21.29.51.86.4 1.38-.25-.29-.55-.86-.4zm26.63 12.619c-2 .34 1.87.79 1.35.13-.44-.141-.9-.185-1.35-.13zm199.25 172.041c-1.87.24.34 1.25 1.21 1.1 1.88-.23-.34-1.24-1.21-1.1zm-251.25-196.53c-1.34.19.24.49.81.39 1.33-.19-.26-.52-.81-.39zm159.62 104.218c-1.64.28 0 1.08.88.91 1.64-.26 0-1.09-.88-.91zm57.62 59.701c-1.79.24.16 1.21 1 1.05 1.84-.24-.11-1.21-1-1.05zm-30.07-30.991c-1.71.26 0 1.16.95 1 1.71-.26-.05-1.16-.95-1zm-339.57-189.889c-1.58-.24 1.08.57.95.28a4.626 4.626 0 00-.95-.28v0zm128.82 44.941c-1.33.19.13.52.74.41 1.34-.18-.16-.52-.74-.41zm-145.81-65.681c-1.78-.36.47.41.68.25a1.67 1.67 0 00-.68-.25v0zm5.78 12.231c-1.63-.24.74.51.81.25-.25-.13-.53-.214-.81-.25zm-6.22-17.262c-.93-.26-.78 0 0 .16s.83.05 0-.16zm-2.6-5.12c-1.71-.47.62.41.76.28-.24-.12-.5-.214-.76-.28v0zm4.17 15.721c-1-.19-.69 0 .08.2.95.17.69-.07-.08-.2zm98.98 39c-1.86.19 1.59.4 1.24.07a4.366 4.366 0 00-1.24-.07v0zm-23.4-6c-1.63.07 1.49.31 1.21.09a6.97 6.97 0 00-1.21-.09v0zm46.8 14.801c-1.36.18.16.46.76.35 1.36-.15-.16-.45-.76-.35zm-69.12-19.711c-1.25-.07.22.14.71.16 1.22.06-.25-.14-.71-.16zm-20.28-5.409c-1.18-.14.15.16.62.21 1.19.11-.15-.15-.62-.21zm425.93 279.6c-2.19.33 1.5 1.65 2.09.94.14-.75-1.51-.92-2.09-.94zM1716.83 85.756c-1.24-.49.44.22.83.36a6.08 6.08 0 00-.83-.36zm221.41 138.771c-1.4.36.15.67.83.47 1.45-.39-.16-.67-.83-.47zm25.21 15.358c-1.44.39.1.77.84.55 1.44-.39-.1-.77-.84-.55zm25.18 17.951c-2.21.67 1.87 1.08 1.39.12-.44-.2-.93-.242-1.39-.12zm-99.64-59.231c-1.89.44 1.7.68 1.25.06-.4-.123-.83-.143-1.25-.06zm24.32 12.402c-1.93.48 1.76.72 1.28.06a2.577 2.577 0 00-1.28-.06v0zm-47.71-24.532c-1.33.29.12.56.75.4 1.33-.27-.12-.56-.75-.4zm224.6 174.661c-1.76.3 0 1.2 1 1 1.72-.3-.05-1.2-1-1zm31.19 31.4c-1.85.29.19 1.25 1.11 1.06 1.85-.29-.19-1.25-1.11-1.06zm-83.76-88.119c-2.42.67 1.9 1.47 1.45.26a1.895 1.895 0 00-1.45-.26zm25.13 27.259c-2.51.62 2 1.62 1.53.33a2.004 2.004 0 00-1.53-.33zm-49.39-52.069c-1.53.4-.09 1 .8.78 1.54-.39.09-1.03-.8-.78zm-282.5-168.151c-1.68-.42.52.53.7.31-.2-.16-.44-.267-.7-.31v0zm-1.44-7.118c-.94-.31-.77 0 0 .23.96.3.79.04 0-.23zm-1.04-6.731c-1.77-.6.5.53.71.36a2.101 2.101 0 00-.71-.36v0zm7.01 21.349c-1.59-.36.69.53.77.3a2.42 2.42 0 00-.77-.3v0zm-10.32-27.52c-1.73-.66.65.49.79.38-.25-.153-.51-.28-.79-.38v0zm94.68 71.65c-1.9.27 1.58.57 1.21.08-.4-.107-.81-.135-1.21-.08v0zm-73.96-35.579c-1.55-.35 1 .68.9.34a3.156 3.156 0 00-.9-.34v0zm52.53 26.459c-1.84.08 1.46.52 1.15.12-.37-.099-.76-.14-1.15-.12v0zm-19.71-8.359c-1.71-.08 1.32.51 1.07.19-.35-.11-.71-.174-1.07-.19zm63.9 28.329c-1.93.41 1.67.68 1.25.07a2.68 2.68 0 00-1.25-.07v0zm-81.53-36.82c-1.14-.16 0 .24.55.3 1.14.19-.02-.24-.55-.3zm396.78 288.489c-2.2.41 1.38 1.68 2 .91.22-.75-1.44-.91-2-.91zM1677.22 68.607c-1.26-.59.48.18.87.38s-.69-.29-.87-.38zm165.3 138.718c-1.91.55 1.68.7 1.23 0-.4-.11-.83-.11-1.23 0v0zm23.38 13.212c-1.35.39.09.68.77.46 1.35-.39-.09-.68-.77-.46zm46.62 30.9c-1.43.44 0 .85.77.58 1.45-.41.06-.85-.77-.58zm-23.28-16.352c-1.38.41 0 .75.77.51 1.39-.42-.03-.76-.77-.51zm46.54 34.983c-1.47.46-.11.949.76.659 1.47-.46.1-.959-.76-.659zm92.33 98.007c-1.74.34-.13 1.17.87.95 1.74-.33.13-1.17-.87-.95zm28.41 29.861c-1.84.32 0 1.23 1 1 1.8-.33-.08-1.2-1-1zm-75.92-82.959c-1.57.41-.26 1.09.73.81 1.57-.4.26-1.09-.73-.81zm-22.08-23.491c-1.51.45-.21 1 .73.75 1.54-.44.27-1.05-.73-.75zm44.78 48.98c-2.54.69 1.88 1.49 1.48.26a1.956 1.956 0 00-.71-.281 1.935 1.935 0 00-.77.021zm-249.04-185.148c-1.84.2 1.35.75 1.11.18a2.273 2.273 0 00-1.11-.18v0zm64.96 39.66c-1.9.53 1.68.67 1.24 0a2.457 2.457 0 00-1.24 0v0zm-124.26-94.621c-1.65-.44.52.64.71.36a1.76 1.76 0 00-.71-.36v0zm-8.5-25.75c-1.72-.75.69.57.82.44-.26-.173-.53-.32-.82-.44v0zm13.26 34.538c-1.56-.37.68.58.76.32a2.386 2.386 0 00-.76-.32v0zm-8.89-26.748c-1.74-.66.52.65.74.43a2.19 2.19 0 00-.74-.43v0zm2 8.81c-1.71-.55.47.67.7.4-.01-.09-.33-.27-.7-.4zm80.69 76.979c-1.32.24 0 .58.68.44 1.32-.25-.03-.58-.68-.44zm-64-49.93c-1.52-.31 1 .81.86.37-.26-.18-.55-.305-.86-.37v0zm86 63.531c-1.34.33.11.65.77.46 1.29-.33-.17-.64-.77-.46zm-72.93-51.18c-1.6-.18 1.06.78.93.32-.28-.167-.6-.276-.93-.32v0zm14.8 12.29c-1.19 0-.06.42.53.41 1.19.01.06-.42-.53-.41zm352.44 287.278c-2.23.44 1.26 1.67 1.91.88.29-.76-1.37-.91-1.91-.88zM1637.25 49.897c-1.25-.6.52.18.89.38s-.71-.29-.89-.38zm224.36 214.509c-2.17.77 1.67 1 1.29.06a1.722 1.722 0 00-1.29-.06v0zm42.12 40.369c-1.51.44-.32 1 .66.71 1.51-.44.32-1.02-.66-.71zm-20.81-20.999c-1.46.46-.21 1 .7.68 1.46-.46.22-.99-.7-.68zm-64.52-52.438c-1.35.39 0 .72.73.49 1.39-.39-.01-.72-.73-.49zm21.79 15.65c-2.07.7 1.65.89 1.26 0a1.88 1.88 0 00-1.26 0v0zm151.33 157.239c-1.83.31-.11 1.18.92 1 1.85-.32.08-1.2-.92-1zm-195.53-186.952c-1.33.37.08.65.75.44 1.32-.37-.09-.65-.75-.44zm170.02 158.762c-2.67.62 1.9 1.53 1.53.3-.22-.15-.47-.254-.74-.305-.26-.052-.53-.05-.79.005zm-42.44-49.221c-2.48.77 1.66 1.25 1.37.16a1.72 1.72 0 00-1.37-.16v0zm20.27 23.58c-1.65.36-.35 1.07.69.82 1.65-.36.36-1.07-.69-.82zm-279.5-250.4c-1.57-.28.69.63.76.31a2.01 2.01 0 00-.76-.31zm-5.12-10.529c-1-.25-.57.21.12.38.98.25.56-.24-.12-.38zm14.43 20.54c-1.54-.2.88.92.84.37a1.675 1.675 0 00-.84-.37v0zm-17.38-32.172c-1.69-.48.5.81.71.43-.02-.11-.34-.3-.71-.43zm-3.09-11.378c-1.72-.61.55.78.75.46-.21-.21-.47-.367-.75-.46v0zm-5.57-9.76c-1.71-.74.73.64.83.46a4.054 4.054 0 00-.83-.46v0zm36.91 68.469c-1.09-.07-.25.5.37.52 1.05.07.2-.49-.37-.52zm88.18 79.44c-1.32.36.16.59.79.4 1.33-.35-.15-.59-.79-.4zm-62.43-46.881c-1.24.15-.22.66.51.55 1.24-.15.22-.67-.51-.55zm-13.92-16.518c-1.79.11 1.07 1 1 .28a1.535 1.535 0 00-1-.28zm30.9 33.149c-1.31.26-.1.72.63.55 1.31-.3.1-.71-.63-.55zm21.03 16.359c-1.34.35.09.74.78.54 1.34-.36-.09-.74-.78-.54zm273.59 244.771c-2.27.44 1.14 1.66 1.82.87.36-.75-1.29-.9-1.82-.87zm-424.35-403.62c-1.22-.53.55.2.91.37.18.1-.71-.29-.91-.37zm212.74 244.89c-1.43.39-.26.9.64.64 1.43-.39.26-.9-.64-.64zm-19.5-18.45c-1.39.36-.18.82.65.58 1.39-.37.17-.82-.65-.58zm-41.63-31.6c-1.34.33 0 .65.73.46 1.34-.32-.05-.65-.73-.46zm21.39 14.9c-1.36.35-.07.74.68.53 1.4-.37.11-.76-.68-.53zm59.09 55.239c-1.48.41-.32 1 .64.7 1.47-.41.27-.94-.64-.7zm96.52 113.291c-1.86.26-.26 1.11.82.93 1.85-.26.25-1.11-.82-.93zm-200.2-196.369c-1.91.47 1.72.67 1.26 0a2.536 2.536 0 00-1.26 0v0zm140.13 124.339c-1.58.34-.48 1 .58.69 1.58-.34.48-.94-.58-.69zm37.38 45.501c-1.76.27-.4 1 .69.82 1.75-.32.39-1.07-.69-.82zm-55-66.151c-1.52.38-.42.95.6.68 1.48-.39.42-.95-.6-.68zm35.47 42.38c-1.67.31-.48 1 .61.75 1.66-.31.47-.98-.61-.75zm-268.34-307.78c-1.69-.47.6.91.77.46-.2-.227-.47-.387-.77-.46v0zm4.09 14.361c-1-.23-.6.34.11.49 1.01.24.6-.3-.11-.49zm-10.76-26.55c-1.67-.62.78.74.85.46a3.096 3.096 0 00-.85-.46v0zm91.95 159.638c-2 .54 1.73 1 1.26.14a1.929 1.929 0 00-1.26-.14v0zm-77.53-118.548c-1-.15-.57.36.14.46.98.19.57-.36-.14-.46zm5.39 12.65c-1.6-.08.71.69.77.26a1.466 1.466 0 00-.77-.26v0zm26.3 47.609c-1.14.08-.48.72.32.65 1.13-.07.47-.72-.32-.65zm11 20.011c-1.22.16-.41.79.42.66 1.22-.17.4-.79-.42-.66zm14.72 19.77c-1.3.26-.23.82.57.64 1.3-.26.22-.81-.57-.64zm-34.68-58.97c-1.07 0-.45.631.28.611 1.06-.03.44-.621-.28-.611zm-8.6-17.32c-1 0-.35.52.29.53 1.03.04.35-.52-.29-.53zm315.99 335.769c-2.33.4 1 1.62 1.74.86.44-.73-1.23-.9-1.74-.86zm-394.79-423.69c-1.16-.38.57.24.92.34-.3-.138-.61-.251-.92-.34v0zm181.98 250.34c-1.41.26-.27.79.59.61 1.41-.26.3-.79-.59-.61zm34.75 40.04c-1.51.29-.4.91.58.7 1.56-.26.41-.91-.58-.7zm-73.59-73.261c-1.37.24 0 .62.71.48 1.36-.24.02-.62-.71-.48zm-23.02-13.099c-1.36.23.22.51.81.39 1.37-.24-.21-.52-.81-.39zm113.45 106.712c-1.56.28-.52.85.52.65 1.56-.28.52-.86-.52-.65zm-70.09-78.041c-2.06.43 1.5 1 1.21.16-.38-.178-.8-.234-1.21-.16zm137.65 164.909c-1.89.18-.41 1 .72.9 1.88-.18.41-1.04-.72-.9zm-19.85-25.21c-1.79.19-.54.92.6.77 1.78-.19.53-.92-.6-.77zm-32.31-42.159c-2.61.52 1.42 1.1 1.33.19-.4-.23-.88-.298-1.33-.19zm15.41 20.129c-1.69.21-.6.85.53.69 1.69-.23.6-.86-.53-.69zm-64.92-80.66c-1.46.28-.36.86.57.66 1.45-.28.36-.86-.57-.66zm-157.88-182.171c-1 .1-.51.63.25.54 1.04-.1.52-.63-.25-.54zm-7.95-12.078c-1.67.22.75.75.79.18-.06-.11-.41-.2-.79-.18zm-9.37-33.09c-1.69 0 .6 1.12.74.39-.03-.17-.36-.34-.74-.39zm4.06 17.84c-1 0-.63.57.14.56.96 0 .62-.57-.14-.56zm-8.81-35.592c-1.68-.21.66 1.06.77.42-.05-.15-.41-.34-.77-.42zm74.88 165.501c-1.37.28.1.75.78.58 1.36-.27-.1-.74-.78-.58zm-82.31-180.511c-1.64-.4.81.84.84.41a1.97 1.97 0 00-.84-.41zm36.01 96.162c-1 .09-.66.75.19.66 1.03-.09.66-.75-.19-.66zm14.37 43.298c-1.2.18-.59.89.33.74 1.2-.18.59-.89-.33-.74zm-8.2-22.24c-1.1.12-.69.84.22.72 1.1-.09.69-.81-.22-.72zm20.79 43.901c-1.31.24-.33.86.52.69 1.3-.24.3-.86-.52-.69zm250.37 256.54c-2.4.33.88 1.61 1.67.88.51-.7-1.22-.9-1.67-.88zM1521.26 6.907c-1.13-.16.56.33.89.29.14-.12-.69-.24-.89-.29zm183.51 284.7c-2.38.29 1.33 1.21 1.23.31a1.75 1.75 0 00-1.23-.31v0zm-15.25-20.08c-1.45.11-.36.73.52.64 1.48-.11.33-.72-.52-.64zm-58.39-47.411c-1.39.09.25.44.82.38 1.39-.1-.24-.44-.82-.38zm41.74 29.06c-1.42.1-.2.65.58.57 1.42-.14.2-.65-.58-.57zm46.93 59.43c-1.57.13-.5.81.5.71 1.57-.14.5-.82-.5-.71zm72.23 103.121c-1.93.07-.57.94.62.88 1.93-.07.56-.95-.62-.88zm-17.02-24.271c-1.83.06-.69.8.51.73 1.82-.06.68-.8-.51-.73zm-14.26-20.789c-2.82.24 1.35 1.16 1.38.3-.41-.25-.9-.356-1.38-.3v0zm-26.17-37.74c-1.62.12-.62.74.45.64 1.61-.12.62-.73-.45-.64zm13.19 18.789c-1.67.09-.72.69.42.61 1.66-.1.71-.72-.42-.61zm-93.99-114.569c-2 .15 1.53.88 1.23.23a2.82 2.82 0 00-1.23-.23v0zM1545.96 58.205c-.92.08-.71.82.13.73.84-.09.7-.81-.13-.73zm8.56 39.702c-1 .25-.69.75.19.51.88-.24.69-.74-.19-.51zm-4.69-18.181c-.89.16-.75.84.14.67.89-.17.75-.79-.14-.67zm-16.37-61.249c-1-.07-.3.49.32.52 1.04.07.3-.49-.32-.52zm71.24 193.18c-2 .27 1.72.94 1.28.21-.4-.177-.84-.249-1.28-.21v0zm-63.6-174.969c-1 0-.56.7.19.68.98-.01.55-.69-.19-.68zm20.22 74.129c-1 .26-.69.73.21.48.9-.25.69-.69-.21-.48zm13.9 60.839c-1.19.18-.75.91.25.74 1.19-.18.75-.91-.25-.74zm10.69 21.639c-1.33.2-.4.82.47.67 1.33-.2.41-.83-.47-.67zm-16.33-44.188c-2.06.57.76 1.22.88.24-.04-.2-.43-.31-.88-.24zm-3.61-21.071c-1 .19-.88.86.11.65.99-.21.88-.85-.11-.65zm247.32 317.101c-2.48.22.75 1.6 1.61.92.62-.65-1.12-.93-1.61-.92zM1485.8 4.036c-1.3.06.94.65.87.18a1.991 1.991 0 00-.87-.18zm189.55 327.099c-2.68-.14 1.2 1.2 1.29.44a2.352 2.352 0 00-1.29-.44zm-26.12-41.399c-2.53-.1 1.24 1.28 1.27.45a2.153 2.153 0 00-1.27-.45v0zm-45.63-54.048c-1.53 0-.13.48.63.48 1.53.02.14-.49-.63-.48zm17.49 15.917c-2.35 0 1.34 1.06 1.27.36-.39-.23-.82-.354-1.27-.36v0zm14.82 18.19c-2.46-.06 1.26 1.18 1.25.41-.36-.261-.8-.405-1.25-.41v0zm26.36 40.961c-2.6-.11 1.26 1.33 1.29.48a2.18 2.18 0 00-1.29-.48zm23.96 39.019c-2.84-.13 1.17 1.15 1.32.43a2.335 2.335 0 00-1.32-.43v0zM1497.34 18.607c-1 .11-.41.71.29.61.97-.16.41-.75-.29-.61zm223.99 394.449c-2.09-.08-.83.85.53.88 2.08.07.82-.85-.53-.88zm-25-44.579c-1.83-.13-.94.57.34.64 1.85.13.94-.51-.34-.64zm11.1 20.51c-1.95-.11-.94.68.41.73 1.95.1.93-.68-.41-.73zM1508.7 64.456c-.89.12-.79 1 .11.83.9-.17.79-.98-.11-.83zm11.46 59.361c-1 .22-.82.57.14.36.96-.21.82-.57-.14-.36zm-4.99-13.82c-1 .19-.81.79.13.59.94-.2.81-.8-.13-.59zm7.92 27.828c-1 .13-1 .71.07.56 1.07-.15.99-.72-.07-.56zm-18.66-97.978c-.91.12-.65.9.18.77.83-.13.66-.9-.18-.77zm7.31 49.128c-.39.07-.69.29-.66.51.44.94 2.53-.61.66-.51zm27.36 107.632c-1.26.06-.32.64.44.6 1.25-.09.31-.69-.44-.6zm43.14 26.16c-2.11-.08 1.68.711 1.31.241a4.739 4.739 0 00-1.31-.241v0zm-25.42-10.591c-1.92 0 1.61.78 1.23.26a3.657 3.657 0 00-1.23-.26v0zm-31.59-55.65c-1.08.09-.94.76.09.67 1.03-.09.94-.77-.09-.67zm4.34 20.542c-1.16.06-.71.74.21.68 1.15-.07.74-.75-.21-.68zm210.24 265.37c-2.71 0 .65 1.589 1.61 1 .75-.601-1.12-.971-1.61-1zM1451.23 4.915c-1.17.17.43.65.8.33.37-.32-.58-.35-.8-.33zm139.71 274.691c-2.62-.45 1.15 1.25 1.27.56a2.778 2.778 0 00-1.27-.56v0zm11.58 20.051c-1.72-.37-.67.48.38.69 1.68.36.62-.49-.38-.69zm-52.25-69.261c-2.29-.23 1.35.86 1.27.36-.4-.2-.83-.322-1.27-.36zm15.54 14.45c-2.42-.29 1.25 1 1.26.43a2.84 2.84 0 00-1.26-.43v0zm13.23 16.45c-1.63-.28-.57.42.41.57 1.64.28.57-.43-.41-.57zm62.97 142.859c-2.28-.28-1.21.71.39.88 2.27.27 1.2-.72-.39-.88zm-28.33-84.368c-2.84-.52 1.09 1.28 1.31.6a2.56 2.56 0 00-1.31-.6v0zm19.02 59.819c-3.61-.37 1.21 1.47 1.55.61-.07-.26-.73-.53-1.55-.61zm-11.62-40.809c-1.8-.36-1.15.37.2.63 1.8.36 1.15-.38-.2-.63zm5.49 19.449c-1.91-.34-1.31.42.18.66 1.92.34 1.31-.42-.18-.66zm-147.05-203.121c-1.22-.14-.88.52.11.62 1.25.14.89-.53-.11-.62zm-9.28-88.238c-1 0-.81.82.07.81.88-.01.82-.82-.07-.81zm1.63 23.94c-1-.05-.87.72 0 .76.87.04.92-.73 0-.76zm1.65 21.088c-1.09-.09-.87.55.07.61 1.07.08.85-.56-.07-.61zm-12.19-90.679c-1.63.3.8 1.13.79.28-.07-.18-.43-.3-.79-.28zm5.87 21.561c-1.75.27.64 1.36.76.36-.04-.22-.38-.38-.76-.36zm10.17 95.091c-1.18-.13-1 .4 0 .5 1 .1 1.04-.4 0-.5zm16.42 55.328c-1.32-.12-.34.52.41.57 1.32.11.32-.52-.41-.57zm15.8 14.67c-2-.21 1.43.74 1.2.31a4.068 4.068 0 00-1.2-.31v0zm21.85 10.181c-2.14-.21 1.49.71 1.28.3a4.871 4.871 0 00-1.28-.3zM1476 125.985c-1.14-.11-1 .181 0 .271 1 .09 1.01-.191 0-.271zm8.4 48.622c-2.09-.1.83 1.21 1 .44-.11-.19-.53-.39-1-.44zm172.63 258.86c-3.64-.27 1.58 2.06 1.91.75a3.46 3.46 0 00-1.91-.75v0zM1417.07 7.745c-1.19.23.33.68.73.33.4-.35-.51-.36-.73-.33zm114.22 255.551c-1.7-.48-.74.28.33.57 1.7.48.73-.26-.33-.57zm9.84 18.309c-2.77-.77 1.08 1.34 1.29.7a2.983 2.983 0 00-1.29-.7v0zm-20.11-34.199c-2.59-.6 1.09 1 1.24.54a3.22 3.22 0 00-1.24-.54v0zm-11.5-13.881c-2.48-.49 1.15.88 1.23.46a3.59 3.59 0 00-1.23-.46v0zm42.63 108.292c-1.9-.46-1.72.32 0 .7 1.89.46 1.7-.31 0-.7zm3.61 47.97c-2.35-.4-1.62.62.22.9 2.35.4 1.61-.62-.22-.9zm-59.61-168.491c-2.34-.39 1.24.77 1.24.38a4.667 4.667 0 00-1.24-.38v0zm56.03 143.001c-2.1-.43-1.77.44 0 .78 2.14.43 1.81-.47 0-.78zm.22-43.04c-1.8-.5-1.5.26 0 .66 1.82.49 1.51-.26 0-.66zm-2.78-19.74c-3-.78.92 1.36 1.28.7-.05-.18-.63-.49-1.28-.7zm-87.96-101.42c-2-.33 1.29.79 1.16.37a4.288 4.288 0 00-1.16-.37v0zm-31.07-136.17c-1-.12-.89.61 0 .7.89.09.93-.61 0-.7zm-1.02 39.599c-1.15-.31-1 .31 0 .56 1.13.31.95-.31 0-.56zm.7-18.698c-1.07-.22-1 .48 0 .66 1 .18.94-.49 0-.66zm-.97-42.031c-1 0-.77.68.08.68s.76-.67-.08-.68zm50.75 167.538c-2.23-.34 1.38.691 1.24.341a4.94 4.94 0 00-1.24-.341zm-54.86-186.919c-1.65.26.72 1 .76.26-.05-.16-.43-.28-.76-.26zm4.27 104.461c-1.28-.35-1 .23 0 .5 1.31.34 1.06-.24 0-.5zm2.59 17.409c-2.22-.43.69 1.27 1 .56-.09-.18-.53-.43-1-.56zm5.74 20.061c-2.12-.37.84 1.3 1 .55-.26-.295-.61-.49-1-.55v0zm9.62 19.38c-2-.33 1 1.14 1.05.49a1.983 1.983 0 00-1.05-.49zm-18.14-68.291c-1.17-.35-1.12-.07 0 .24s1.09.07 0-.24zm136.92 302.959c-3.51-.33.42 1.51 1.64 1.11 1.22-.4-1.14-1.06-1.64-1.11zM1383.1 11.757c-1.2.24.24.61.67.28.43-.33-.46-.33-.67-.28zm79.34 218.299c-2.63-.74 1 .87 1.22.54a4.12 4.12 0 00-1.22-.54v0zm-33.83-29.791c-2.21-.43 1.19.64 1.18.36a5.111 5.111 0 00-1.18-.36zm50.3 59.042c-2.82-.91 1 1.27 1.27.73a3.067 3.067 0 00-1.27-.73v0zm-37.09-49.82c-2.37-.51 1.11.65 1.19.38a5.557 5.557 0 00-1.19-.38v0zm11.1 9.639c-2.52-.62 1.06.73 1.2.45a4.121 4.121 0 00-1.2-.45v0zm28.68 80.641c-1.72-.55-1.85.19-.18.7 1.67.51 1.85-.19.18-.7zm-16.27 72.37c-2.31-.46-2 .56 0 .93 2.33.45 2.03-.56 0-.93zm2.84-26.611c-2-.48-2.2.38-.18.83 2.02.45 2.18-.38.18-.83zm6.76-23.861c-1.81-.52-2.12.25-.24.75 1.88.5 2.12-.25.24-.75zm9.2-42.589c-1.72-.59-1.37.21 0 .67 1.75.6 1.39-.21 0-.67zm-13.2-35.909c-2.73-.85 1 1 1.24.62a3.615 3.615 0 00-1.24-.62v0zm-80.75-185.951c-1-.2-1 .37-.06.54.94.17 1-.37.06-.54zm-2.57 16.22c-2.1-.48.31 1.06.73.5.03-.15-.3-.33-.73-.5zm3.35-32.738c-.94-.07-.86.48 0 .54.86.06.88-.49 0-.54zm22.65 148.908c-2-.41 1.16.9 1.12.44a3.088 3.088 0 00-1.12-.44v0zm-24.67-164.479c-.92.05-.67.54.12.49.79-.05.67-.54-.12-.49zm-4.69 62.989c-1.12-.44-1.16 0-.11.44 1.05.44 1.16-.05.11-.44zm16.37 84.361c-2-.45 1 1.27 1 .57a2.126 2.126 0 00-1-.57v0zm-17.05-42.87c-2.21-.63.72 1.38 1 .66-.05-.21-.51-.5-1-.66zm6.95 21.669c-1.36-.38-.52.52.29.73 1.32.38.48-.52-.29-.73zm-10.24-40.34c-1.33-.49-1 .17 0 .53 1.36.49 1.01-.17 0-.53zm.7-12.029c-1.16-.49-1.23-.22-.09.25s1.24.22.09-.25zm89.54 303.35c-3.69-.41.23 1.51 1.56 1.14 1.33-.37-1.08-1.08-1.56-1.14zm-121.38-386.11c-1.23.22.15.5.59.22.44-.28-.4-.27-.59-.22zm61.38 205.38c-2.76-.89.92.91 1.2.59a3.712 3.712 0 00-1.2-.59v0zm-6.59-10.35c-2.66-.8 1 .71 1.18.5a4.327 4.327 0 00-1.18-.5v0zm12.59 24.43c-2.86-.94.91 1.18 1.24.7-.35-.33-.78-.57-1.24-.7zm-28.68-39.539c-2.39-.57 1 .53 1.13.37a5.537 5.537 0 00-1.13-.37v0zm8.68 7.078c-2.54-.68 1 .58 1.16.42a5.89 5.89 0 00-1.16-.42v0zm-18.86-14.54c-2.21-.49 1 .58 1.11.36a6.252 6.252 0 00-1.11-.36zm40.55 66.64c-1.63-.58-1.62.18-.13.69 1.49.51 1.62-.18.13-.69zm-44.69 98.122c-2.18-.45-2.36.55-.19 1 2.17.45 2.3-.57.19-1zm9.44-27.761c-.86-.2-1.64-.16-1.76.08.09 1.22 5.69 1.12 1.76-.08zm27.16-48.649c-1.58-.53-2.16.17-.38.75 1.59.53 2.16-.17.38-.75zm-13.34 23.297c-1.67-.5-2.48.24-.48.8 1.67.55 2.47-.23.48-.8zm-52.26-241.129c-1-.35-1.25 0-.19.34s1.26.03.19-.34zm5-10.72c-.93-.22-1.14.13-.14.36 1 .23 1.14-.16.14-.36zm2.9-11.079c-.89-.09-1 .28 0 .37 1 .09.93-.28 0-.37zm-13.99 31.628c-1-.46-1.35-.19-.22.31 1.13.5 1.31.19.22-.31zm14.15-42.559c-.88 0-.78.39.05.36.83-.03.79-.39-.05-.36zm-9.34 107.981c-2.06-.59.92 1.57 1 .72a2.04 2.04 0 00-1-.72v0zm22.78 42.84c-2-.45 1 1 1.06.51a2.612 2.612 0 00-1.06-.51v0zm-31.07-66.61c-1.38-.5-.63.46.22.75 1.35.47.63-.5-.22-.75zm19.15 47.249c-1.35-.37-.34.55.38.73 1.35.36.34-.55-.38-.73zm-21.93-80.721c-1.14-.54-1.33-.26-.16.28 1.17.54 1.32.26.16-.28zm-1.41 13.091c-2.3-.83.57 1.24.93.69-.01-.16-.43-.47-.93-.69zm42.31 293.849c-.8-.25-2.56 0-1.09.68.56.46 4.27.87 2.38-.29a5.982 5.982 0 00-1.29-.39v0zm-58.1-363.949c-1.41.2.4.46.68.06-.13-.12-.46-.08-.68-.06zm25.89 166.991c-2.56-.68.89.45 1.1.37a7.33 7.33 0 00-1.1-.37v0zm9.76 13.619c-1.57-.51-1.08-.06.14.33 1.57.54 1.07.05-.14-.33zm3.9 12.391c-2.88-.82.82 1.11 1.18.63-.06-.15-.59-.42-1.18-.63zm-8.41-20.442c-2.68-.76.88.57 1.13.43a5.72 5.72 0 00-1.13-.43zm6.73 40.092c-1.49-.5-1.85.22-.28.72s1.85-.22.28-.72zm-18.07-50.63c-2.4-.6.88.44 1.07.34-.35-.148-.7-.262-1.07-.34v0zm-51.87 153.53c-2-.4-2.62.57-.38 1 2 .4 2.61-.57.38-1zm56.48-80.231c-1.41-.46-2.42.21-.58.78 1.41.46 2.42-.22.58-.78zm-19.86 24.62c-1.47-.43-2.75.29-.7.85 1.5.43 2.77-.31.7-.85zm-20.64 26.709c-.84-.18-1.66-.12-1.84.14-.1 1.33 5.55.96 1.84-.14zm-11.84-215.959c-2.1-.66.83 1.61 1 .76a1.965 1.965 0 00-1-.76zm5.93-41.48a2.417 2.417 0 00-1-.26c.02.37 3.02 1.21 1 .26zm8.74-4.979c-.83-.29-1.4-.23-.26.17.83.3 1.4.23.26-.17zm7.19-5.2a2 2 0 00-.84-.07c.07.3 2.68.52.84.07zm-25.07 15.71c-1.07-.5-1.38-.23-.2.29s1.38.23.2-.29zm43.92 121.029c-2.22-.52.87.55 1 .36a4.283 4.283 0 00-1-.36v0zm-8.23-12.17c-1.32-.34-.45.41.32.59 1.27.34.39-.41-.32-.59zm-5.61-130.2a1.67 1.67 0 00-.76 0c.12.3 2.56.25.76 0zm-5.39 108.72c-1.32-.36-.31.63.38.8 1.3.37.29-.63-.38-.8zm-11.71-25.639c-1.34-.41-.34.68.37.87 1.34.42.34-.67-.37-.87zm-14.97-47.71c-1.32-.53-.88.26.07.62 1.32.53.88-.26-.07-.62zm34.3-41.642c-.83 0-.91.23 0 .22.91-.01.89-.24 0-.22zm-38.98 339.64c-2.32-.43-1.89.87.05 1.07 2.31.44 1.88-.86-.05-1.07zm3.24-343.989c-1.28.12 0 .32.48.15s-.28-.18-.48-.15zm8.61 191.531c-1.32-.36-2 .31-.41.73 1.32.37 2.03-.31.41-.73zm4.61-19.721c-1.53-.38-1.26.19 0 .5 1.58.39 1.3-.19 0-.5zm-1.66-11.599c-1.47-.38-1.18 0 .07.29 1.49.38 1.18.03-.07-.29zm-2.37-6.602c-1.41-.36-1.12-.14.09.16 1.41.37 1.12.15-.09-.16zm-2.97-3.969c-2.54-.6.8.34 1 .3a7.034 7.034 0 00-1-.3v0zm-3.43-3.729c-2.43-.55.79.4 1 .31a5.462 5.462 0 00-1-.31v0zm-12.38 69.019c-1.2-.35-2.61.32-.77.81 1.2.34 2.61-.32.77-.81zm-52.6 53.601c-1.39-.32-3 .51-.84 1 1.4.27 3-.55.84-1zm-21.82 29.8c-1.69-.31-2.77.64-.56 1 1.69.37 2.76-.63.56-1zm48.72-57.631a2.49 2.49 0 00-1.78.19c-.42 1.26 4.89.67 1.78-.19zm30.55-233.47a6.677 6.677 0 00-.78 0c.09.06 2.53.16.78 0zm-15.84 1.472c-.7-.2-1.5-.31-.34 0 .7.22 1.5.33.34 0zm-11.05.929a4.704 4.704 0 00-1-.24c-.03.23 2.87.91 1 .24zm-11.76 3.288c-1-.36-1.45-.14-.27.29.96.36 1.44.14.27-.29zm31.91-4.699c-.4-.07-.78-.12-.86-.12-.08 0 2.6.45.86.12zm10.71-3.419c-.79 0-1 .12-.08.12s.97-.12.08-.12zm-27.68 72.24c-1.29-.34-.24.77.41.92 1.29.34.25-.77-.41-.92zm-17.51-49.862c-2.14-.58.59 1.3.89.63-.02-.18-.42-.46-.89-.63zm30.08 76.96c-1.26-.33-.27.7.39.84 1.23.33.23-.7-.39-.84zm10 22.872c-1.25-.33-.52.44.25.63 1.25.34.52-.44-.25-.63zm-33.84-77.029c-1.32-.39-.43.65.31.84 1.32.38.43-.65-.31-.84zm38.73 90.077c-2.21-.51.71.58.93.37-.29-.179-.6-.305-.93-.37zm-93.49 189.781c-3.4-.22-.47 1.54 1.07 1.07 1.34-.36-.47-1.06-1.07-1.07zm59.32-329.039c-.2 0-1 .06-.48.18s1.76-.12.48-.18zm-12.04 126.769c-1.13-.3-1 0 0 .3s1-.04 0-.3zm1.79 14.13c-1.3-.23-1.21-.06 0 .15s1.22.04 0-.15zm-7.29 38.391c-1.11-.2-2.13.48-.51.73 1.13.19 2.14-.48.51-.73zm5.97-45.802c-2.39-.44.65.4.89.27a3.219 3.219 0 00-.89-.27v0zm.71 3.75c-1.23-.23-1.15-.11 0 .1 1.15.21 1.14.12 0-.1zm.14 22.151c-1.39-.18-1.39.37 0 .53 1.39.16 1.37-.37 0-.53zm-91.25 98.8c-1.09-.2-3 .68-1 1 1.09.17 3.02-.7 1-1zm-26.61 30.32c-.3-.051-.61-.041-.91.029-.29.07-.57.2-.82.381-.18 1.37 5.04.14 1.73-.41zm89.16-85.471c-.95-.2-2.68.52-.91.84.96.2 2.69-.52.91-.84zm-30.49 26.482c-1-.2-3 .59-1.07.92.96.2 2.97-.54 1.07-.92zm59.82-82.211c-1.34-.21-1.29.11 0 .3s1.29-.11 0-.3zm-5.17-145.059c-.39 0-.77-.08-.85-.1-.08-.02 2.51.23.85.1zm-10.46-2.612l-.91-.13s2.57.39.91.13zm-12.82-1.508c-.59-.1-1.65-.21-.46 0 .58.09 1.64.2.46 0zm25.07 114.769c-1.88-.4.66 1.25.84.56-.04-.2-.42-.45-.84-.56zM1192.7 23.767a2.08 2.08 0 00-.94 0c-.01.37 2.83.42.94 0zm45.21 4.229h-.8c.09-.09 2.46.05.8 0zm-41.21 31.33c-1.22-.22-.33.74.36.84 1.23.21.34-.75-.36-.84zm26.03 54.28c-1.18-.25-.22.75.39.85 1.19.27.23-.73-.39-.85zm-13.32-27.24c-1.2-.22-.15.84.46.92 1.2.22.15-.83-.46-.92zm33.65-58.571a6.682 6.682 0 00-.73 0c.11.1 2.47.04.73 0zm-53.54 9.161c-1.16-.21-.78.47.1.62 1.14.22.77-.46-.1-.62zm-87 306.701c-.58-.12-2.23.21-1.16.82 1.3.77 4.16-.38 1.16-.82zm106.2-320.32c-.17.006-.33.027-.5.06-.73.22.74.2.93.12.59-.14-.18-.22-.43-.18zm-40.89 176.988c-1-.07-2.3.66-.59.73 1.02.07 2.28-.66.59-.73zm10.21-34.578c-1.37-.07-1.42.31 0 .37s1.39-.31 0-.37zm.55-14.601c-1.4-.21-1.34 0 0 .18s1.35.02 0-.18zm-.07 5.95c-1.39-.14-1.37.11 0 .22s1.38-.1 0-.22zm-1.82 22.861c-1.34 0-1.49.59-.07.6 1.42.01 1.49-.59.07-.6zm-99.92 99.23c-.83-.12-2.88.8-1.09 1 .83.1 2.88-.83 1.09-1zm-29.34 30.279c-1-.11-2.63.87-.81 1 1.02.14 2.62-.86.81-1zm131.17-164.4c-1.4-.28-1.35 0 0 .23s1.35.02 0-.23zm-34.89 78.951a2.993 2.993 0 00-1.62.42c-.52 1.09 4.16-.19 1.62-.42zm-32.6 26.489c-.78-.11-2.92.75-1.14.91.78.12 2.92-.75 1.14-.91zm69.24-228.901c-.3.023-.61.023-.91 0-.03-.18 2.54-.13.91 0zm-13.28-1.7c-.52 0-1.62.05-.49 0 .52-.04 1.62-.06.49 0zm24.03 4.85a4.79 4.79 0 01-.88 0c.02-.15 2.6-.09.88 0zm8.27 2.68c-.28.022-.57.022-.85 0 .09-.1 2.62-.08.85 0zM1179 135.986c-1.44-.33-1.37.08 0 .38s1.34-.07 0-.38zm-26.99-114.201c-.3.014-.61.061-.9.14-.04.23 2.56-.19.9-.14zm53.22 5.82c-.27.005-.53.025-.8.06.09.07 2.64-.06.8-.06zm-25.47 94.202c-1.48-.34-1.16.31.07.57 1.49.35 1.15-.3-.07-.57zm-32.65-88.9c-1 0-.91.56 0 .54.91-.02.95-.56 0-.54zm26.57 68.198c-2.4-.28 1 1.47 1.13.59a1.77 1.77 0 00-1.13-.59v0zm-10.78-24.438c-1.38-.12-.48.77.38.82 1.39.12.48-.77-.38-.82zm-10.51-24.062c-1.22 0-.55.74.29.75 1.23-.01.56-.75-.29-.75zm-122.54 288.141c-.51 0-2 .33-1.14.88 1.06.71 3.57-.67 1.14-.88zm139.2-313.298c-.28.03-.56.108-.81.23.41.25 2.44-.43.81-.23zm-48.95 137.978c-1.31 0-1.46.48-.05.44 1.41-.04 1.47-.49.05-.44zm-2.06 16.18c-1.31 0-1.57.72-.09.65 1.31-.08 1.57-.75.09-.65zm3.23-27.391c-1.31 0-1.38.31 0 .32 1.38.01 1.35-.31 0-.32zm.63-8.709c-1.31-.08-1.33.21 0 .27 1.33.06 1.3-.17 0-.27zm.44-8.699c-1.29-.13-1.28.2 0 .32s1.28-.2 0-.32zm-71.76 115.068c-.58.023-1.14.195-1.64.5-.71 1.13 4-.38 1.64-.5zm-64.011 58.231c-.84-.08-2.52.93-.86 1 .81.09 2.52-.92.86-1zm120.881-107.78c-.5.003-.99.152-1.41.43-.15.91 4.01-.4 1.41-.43zm-90.87 77.819c-.72-.08-2.75.87-1.09 1 .72.04 2.75-.91 1.09-1zm106.4-154.469c-1.28-.17-1.27.28 0 .43 1.27.15 1.24-.28 0-.43zm-40.18 100.101c-.78 0-2.71.79-1 .82.8.01 2.72-.79 1-.82zm68.86-196.99c-.28.063-.57.087-.86.07.03-.25 2.6-.39.86-.07zm7.5 2.629c-.28.052-.57.079-.85.08.1-.13 2.69-.39.85-.08zm-17.24-5.579c-.29.06-.59.087-.88.08-.04-.18 2.48-.4.88-.08zm-16.62 85.77c-1.24-.17-1.25.36 0 .5s1.22-.32 0-.5zm39.53-79.95c-.42.06-.79.12-.84.14.11.01 2.78-.42.84-.14zm-35.31-7.052c-.5.11-1.53.24-.46 0 .53-.09 1.56-.21.46 0zm-19.57 28.222c-1 .09-.73.71.16.62.89-.09.73-.72-.16-.62zm12.98 40.929c-2.23 0 .79 1.21 1 .41-.07-.18-.51-.37-1-.41zm-14.97-57.41c-.81.12-1 .6-.05.45.81-.11 1.02-.59.05-.45zm8.42 36.71c-1.18 0-.66.72.24.69 1.18-.01.65-.72-.24-.69zm-1.64-46.118c-.51.1-1.47.38-.41.16.5-.1 1.46-.38.41-.16zM966.328 341.286c-1-.12-2 1.08-.44 1 1.04.16 2.04-1.04.44-1zm160.642-306.05c-.19 0-1.23.31-.67.32.56.01 2.22-.59.67-.32zm-68.15 151.01c-1.26.09-1.69.8-.15.68 1.26-.09 1.69-.81.15-.68zm3.85-17.529c-.58 0-1.07.2-1.1.34.28.6 3.79-.39 1.1-.34zm-15.57 38.39c-.94 0-2.37.8-.63.72.94-.02 2.37-.8.63-.72zm22.65-73.15c-1.16 0-1.31.36-.06.37 1.25.01 1.31-.35.06-.37zm-1.94 10.709c-.53 0-1 .09-1 .19.26.42 3.54-.12 1-.19zm-2.29 10.939c-.56 0-1 .14-1.05.25.31.41 3.71-.31 1.05-.25zm-42.39 74.591c-.76 0-2.65.84-.93.81.76.02 2.65-.84.93-.81zm-92.47 82.87c-.75-.05-2.43 1-.87 1 .73.05 2.42-.96.87-1zm29.439-29.531c-.66 0-2.63.91-1 1 .62 0 2.59-.93 1-1zm32.423-27.738a3.306 3.306 0 00-1.58.53c-.64 1.09 3.87-.51 1.58-.53zm83.278-148.19c-1-.06-1.33.4-.13.44 1.04.04 1.34-.44.13-.44zm17.79-73.861c-.36.1-.74.2-.85.21-.11.01 2.33-.69.85-.21zm10.66.609c-.27.085-.55.135-.84.15 0-.19 2.47-.63.84-.15zm18.56 5.152l-.85.19c.14 0 2.86-.62.85-.19zm-43.05-2.831l-.84.29c-.1.04 2.23-.75.84-.29zm32.42.261c-.27.085-.55.129-.83.13.06-.21 2.61-.61.83-.13zm-40.53 7.759c-.68.17-1.1.63-.13.37.68-.16 1.1-.63.13-.37zm4.97 47.531c-1.08 0-1 .58 0 .55 1-.03 1.03-.59 0-.55zm41.51-52.872c-.28.074-.56.124-.84.15.1-.15 2.75-.61.84-.15zm-46.44 81.993c-1.13 0-1.27.43-.06.47 1.21.04 1.27-.42.06-.47zm2.06-46.393c-1 .1-.82.68.12.58.94-.1.82-.69-.12-.58zm-2.88-16.669c-.87.16-.87.69.06.51.93-.18.86-.69-.06-.51zm-161.88 285.74c-.87-.09-2.06 1.09-.53 1 .87.13 2.06-1.05.53-1zm174.45-298.93c-.18 0-1.25.35-.68.34.57-.01 2.26-.65.68-.34zm-67.83 102.001c-.52 0-1 .16-1 .27.2.48 3.4-.3 1-.27zm-16.388 45.569c-.6.07-1.15.28-1.21.47.22.83 3.948-.53 1.21-.47zm-12.58 20.802c-.94 0-2.35.82-.61.71.95-.04 2.36-.82.61-.71zm18.968-39.181c-1.16.09-1.71.68-.2.54 1.16-.1 1.71-.68.2-.54zm5.37-14.619c-1.13.08-1.59.55-.17.44 1.13-.08 1.59-.56.17-.44zm-75.22 101.489c-.69 0-2.62.89-1 .86.7.03 2.63-.89 1-.86zm-58.351 56.179c-.71 0-2.37 1-.85 1 .71.03 2.37-.99.85-1zm86.639-81.21a3.235 3.235 0 00-1.53.48c-.37 1 4-.56 1.53-.48zm55.742-101.239c-1 0-1.4.46-.13.41 1.04-.02 1.4-.46.13-.41zm-114.191 153.42c-.66 0-2.54.92-1 .93.68.04 2.56-.93 1-.93zM1033.38 94.695c-.93.07-1.11.55-.05.46 1.06-.09 1.11-.55.05-.46zm33.55-49.398c-.7.22-1.24.27-.23-.05.7-.23 1.25-.28.23.05zm-8.5.069c-.26.1-.53.188-.81.26-.02-.02 2.31-.8.81-.26zm-12.39 3.709l-.83.31c-.1.02 2.19-.85.83-.31zm-22.24 72.241c-.47 0-.88.13-.92.27.19.61 3.09-.19.92-.27zm52.72-71.71c-.9.23-1.17.22-.11-.05.93-.29 1.2-.28.11.05zm-3.91-2.19c-.26.084-.53.138-.8.16.1-.18 2.65-.72.8-.16zm-42.78 60.47c-.88 0-1.4.43-.2.4.89-.01 1.4-.43.2-.4zm7.21-51.86c-.26.082-.5.21-.71.38.12.28 2.19-.8.71-.38zm42.76-6.518c-.43.11-.81.21-.84.23-.03.02 1.6-.37 1.58-.39l-.74.16zm-45.85 17.57c-.76.19-1 .66 0 .42.73-.18.95-.66 0-.42zm-.21 13.458c-.39.07-.71.22-.71.35.29.55 2.59-.52.71-.35zm-178.721 267.47c-.78-.08-2.09 1.09-.59 1 .79.12 2.09-1.04.59-1zm184.441-292.56c-.19 0-1.25.33-.68.34.57.01 2.26-.65.68-.34zm-90.682 125.32c-1.08.08-1.84.7-.29.56 1.08-.08 1.85-.72.29-.56zm-9.367 18.84c-1.13.08-2 .83-.34.69 1.13-.09 1.98-.85.34-.69zm17.678-34.499a2.113 2.113 0 00-1.12.341c.16.57 3.55-.461 1.12-.341zm7.431-13.821a1.866 1.866 0 00-1 .3c.14.53 3.35-.38 1-.3zm-38.57 68.901c-1 0-2.33.8-.59.69.98-.04 2.34-.8.59-.69zM824.569 321.906c-.73 0-2.37 1-.83 1 .78.02 2.37-.98.83-1zm146.86-183.93c-.94 0-1.51.52-.22.45.95-.04 1.52-.52.22-.45zM851.34 293.387c-.7 0-2.49.91-.91.91.7.04 2.49-.91.91-.91zm53.552-50.98c-.83 0-2.51.84-.79.77.83-.01 2.52-.84.79-.77zm-25.82 24.439a3.052 3.052 0 00-1.49.52c-.46 1.04 3.82-.54 1.49-.52zm106.87-156.069c-.326.004-.646.09-.93.25.08.44 2.86-.31.93-.25zm43.578-53.99c-.25.082-.5.145-.76.19.13-.12 2.54-.74.76-.19zm3.37 1.649c-.25.082-.51.136-.77.16.15-.15 2.67-.71.77-.16zm3.55 1.581l-.83.22c.54-.096 1.07-.22 1.59-.37-.26.032-.51.082-.76.15v0zm-1.72.25c-1 .24-1.07.21-.06 0s1.07-.25.06 0zm-11.4-2.662l-.78.26.78-.26zm-28.252 30.331c-.79.14-1.11.56-.09.37.8-.13 1.1-.56.09-.37zm-17.107 35.92c-.9 0-1.44.56-.22.5.9-.03 1.44-.56.22-.5zm13.89-24.469c-.83.08-1.24.5-.14.38.81-.08 1.23-.5.14-.38zm20.669-37.232c-.46.18-1.4.53-.41.16.47-.18 1.41-.53.41-.16zm-9.5 6.281c-.26.08-.51.198-.73.35.08.21 2.23-.84.73-.35zm-5.019 8.89a1.544 1.544 0 00-.72.35c.18.33 2.36-.73.72-.35zM801.619 352.277c-.43 0-1.7.4-1.27.94.68.57 3.17-.87 1.27-.94zM996.011 64.675c-.19 0-1.23.28-.68.31.55.03 2.19-.55.68-.31zM879.52 205.728c-1.07 0-2.12.77-.44.68 1.1-.04 2.14-.8.44-.68zm23.929-35.292a2.132 2.132 0 00-1.16.34c.07.61 3.55-.42 1.16-.34zm10.461-14.75c-.91 0-1.74.55-.33.47.94-.03 1.74-.55.33-.47zm9.73-14.081c-.87 0-1.65.52-.31.46.87 0 1.64-.46.31-.46zm-31.572 45.192a2.215 2.215 0 00-1.24.39c.06.7 3.75-.47 1.24-.39zM769.849 325.766c-.8 0-2.45.92-.83 1 .81.02 2.5-.95.83-1zm25.741-28.039c-.79 0-2.51.87-.86.9.79.04 2.5-.87.86-.9zm49.408-49.86c-.9 0-2.48.79-.74.75.9-.01 2.48-.79.74-.75zm-23.739 23.889c-.82 0-2.52.83-.82.83.82.02 2.52-.83.82-.83zm111.57-144.469c-.83 0-1.55.54-.3.49.83-.02 1.55-.54.3-.49zm-67.928 98.761c-1 0-2.32.76-.57.69 1-.02 2.32-.76.57-.69zM987.52 68.437c-.36.1-.71.2-.77.23.07.07 2.36-.64.77-.23zm5.419-.23c-.94.2-.95.14 0-.06s.94-.14 0 .06zm-1.228-1.222c-.84.2-1 .21-.08 0s1.03-.23.08 0zm1.64 2.381c-.271.047-.538.11-.8.19.2.05 2.86-.56.8-.19zm-.441.41c-1 .19-1 .16 0 0s.98-.17 0 0zm-24.392 10.221a3.277 3.277 0 00-.78.3c.01.17 2.26-.69.78-.3zm-12.077 15.338a1.916 1.916 0 00-.8.26c.14.31 2.57-.49.8-.26zm-5.79 9.151a1.775 1.775 0 00-.87.24c.11.37 2.74-.37.87-.24zm27.541-30.511c-.49.14-1.41.48-.38.18.49-.14 1.41-.48.38-.18zm-16.391 13.161a2.238 2.238 0 00-.77.29c.12.25 2.42-.62.77-.29zm-19.121 27.36a2.126 2.126 0 00-.95.24c.03.41 2.86-.3.95-.24zM745.951 355.875a2.19 2.19 0 00-1.43.57c-.22 1.36 3.76-.46 1.43-.57zM954.052 71.186c-.18 0-1.18.19-.67.28.51.09 2.14-.38.67-.28zM819.818 209.817c-1 0-2.23.669-.54.659 1.01.02 2.24-.669.54-.659zm15.511-18.791a2.42 2.42 0 00-1.29.34c-.04.74 3.76-.31 1.29-.34zm14.321-16.819a2.223 2.223 0 00-1.22.31c-.02.66 3.58-.28 1.22-.31zm25.72-30.002a2.088 2.088 0 00-1.1.26c-.01.61 3.25-.2 1.1-.26zm-12.431 14.582a2.132 2.132 0 00-1.15.28c-.01.62 3.4-.23 1.15-.28zM710.982 327.916c-.92-.09-2.62.84-.85 1 .91.03 2.62-.9.85-1zm25.609-27.65c-.9-.07-2.59.79-.83.88.9.07 2.59-.8.83-.88zm24.551-25.48c-.93-.06-2.56.75-.79.8.93.02 2.56-.75.79-.8zm22.559-23.43a2.751 2.751 0 00-1.49.4c-.21.95 4.14-.3 1.49-.4zm19.668-21.5c-.504-.01-1 .126-1.43.39-.1.86 4.11-.31 1.43-.39zm128.883-141.07a3 3 0 00-.83.22c.04.18 2.46-.48.83-.22zm19.158-12.438c-.41 0-.74.08-.73.07.01-.01 1.56-.19 1.5-.17l-.77.1zm1.298-1.422a3.993 3.993 0 01-.72.06s1.52-.2 1.47-.17a4.233 4.233 0 01-.75.11v0zm-2.53 1.109a3.634 3.634 0 00-.78.17c.12.14 2.52-.37.78-.17zm2.812-2l-.74.09 1.44-.18-.7.09z" fill="#fff" stroke="#fff" stroke-width="2.15" stroke-miterlimit="10"/><path d="M951.172 75.895c-1 .1-1 .18 0 .07 1-.11 1-.18 0-.07zm-64.102 54.011c-.81 0-1.68.47-.37.47.82.01 1.68-.47.37-.47zm37.079-35.3a3.59 3.59 0 00-.84.2c.08.24 2.55-.37.84-.2zm17.832-11.999a4.017 4.017 0 00-.86.23c-.03.18 2.47-.51.86-.23zm-33.541 25.58a2.262 2.262 0 00-.94.18c.02.32 2.85-.21.94-.18zm8.139-7.31a2.851 2.851 0 00-.88.18c.09.25 2.7-.3.88-.18zm-17.958 16.41a2.143 2.143 0 00-1 .2c-.01.43 2.96-.19 1-.2zM685.21 357.836c-.46 0-2 .26-1.55.89.72.63 3.73-.69 1.55-.89zM914.588 73.397c-.17 0-1.11 0-.68.2.43.2 2.01-.12.68-.2zM795.239 174.976a2.348 2.348 0 00-1.28.25c-.11.73 3.65-.05 1.28-.25zm-34.86 35.631c-1-.08-2.3.53-.62.64.97.06 2.3-.55.62-.64zm65.2-66.5c-.87-.08-1.9.37-.47.48.87.08 1.9-.37.47-.48zm-14.668 14.93a2.214 2.214 0 00-1.21.23c-.1.68 3.5-.01 1.21-.23zm-69.682 71.358c-1-.09-2.44.56-.66.68 1.02.09 2.43-.56.66-.68zm-68.609 69.541c-1-.12-2.77.69-.85.87 1.03.12 2.75-.7.85-.87zm47.719-48.231c-1-.1-2.56.6-.72.73 1.03.1 2.56-.6.72-.73zm-74.658 75.622c-1.06-.14-2.91.75-.93.94 1.06.14 2.9-.75.93-.94zm193.667-197.331c-.84-.08-1.82.36-.44.45.84.08 1.82-.36.44-.45zM697.522 274.807a2.698 2.698 0 00-1.6.36c-.32 1.07 4.37-.06 1.6-.36zm80.909-82.712a2.4 2.4 0 00-1.33.27c-.13.79 3.79-.07 1.33-.27zm134.53-116.019c-1 0-1 0 0 0s.97.03 0 0zm-.841.75c-2-.08.62-.07.77 0h-.77zm-1.598 1.439c-2-.06.58 0 .76 0h-.76zm.109.2c-.84 0-1.24.13-.16.16.83.03 1.24-.13.16-.16zm-58.332 38.901a2.365 2.365 0 00-1.08.14c-.03.48 3.17.04 1.08-.14zm50.56-31.38a2.069 2.069 0 00-.91.14c0 .35 2.7-.08.91-.14zm-28.66 16.741a4.47 4.47 0 00-1 .07c.07.24 2.93.01 1-.07zm36.321-24.791a3.998 3.998 0 00-.75 0 7.77 7.77 0 001.45 0 3.398 3.398 0 00-.7 0v0zm-46.68 30.76a3.088 3.088 0 00-1 .08c-.02.33 3.02.06 1-.08zm29.412-15.81a2.808 2.808 0 00-.9.12c.03.23 2.68-.12.9-.12zm-9.402 5.08a3.643 3.643 0 00-.92.09c.04.2 2.76-.08.92-.09zM616.589 357.207c-.5 0-2.3.15-1.81.85.74.69 4.29-.53 1.81-.85zm263.769-286.55c-.15 0-.89-.08-.58.14.31.22 1.63.08.58-.14zM721.412 191.986c-.87 0-2.28.58-.64.6.88.02 2.29-.58.64-.6zm52.756-50.381a2.26 2.26 0 00-1.2.21c-.13.71 3.42.05 1.2-.21zm-16.39 15.71c-.86-.07-2.08.46-.56.54.85.06 2.07-.46.56-.54zm-78.257 72.97a2.999 2.999 0 00-1.49.38c-.26.87 4.09-.31 1.49-.38zm60.71-56.089c-.87-.05-2.18.53-.6.58.89.04 2.18-.53.6-.58zm-39.013 36.179a2.998 2.998 0 00-1.43.35c-.2.78 3.94-.3 1.43-.35zM573.66 324.197a3.13 3.13 0 00-1.85.42c-.5 1.25 4.88-.01 1.85-.42zm82.541-72.971a3.007 3.007 0 00-1.57.38c-.29.91 4.27-.26 1.57-.38zm-52.62 46.25a3.118 3.118 0 00-1.74.39c-.42 1.11 4.68-.09 1.74-.39zm27.408-24.09a3.15 3.15 0 00-1.65.38c-.35 1 4.45-.16 1.65-.38zM873.712 74.087c-.83-.09-.88-.14 0 0s.87.1 0 0zm-4.701 1.89c-.82-.08-1.28.06-.19.16.82.09 1.28-.05.19-.16zm-8.149 7.528a2.25 2.25 0 00-.94.07c-.02.41 2.78.19.94-.07zm-71.341 44.001a2.162 2.162 0 00-1.16.18c-.09.6 3.32.05 1.16-.18zm84.587-52.111c-.76-.1-.82-.14 0 0s.8.1 0 0zm1.592-.36a2.35 2.35 0 00-.61 0c.1.06 2.08.25.61 0zm-3.059-1.539c-.4 0-.73-.07-.75-.06.15.05 2.63.25.75.06zM850.43 90.607a2.628 2.628 0 00-1 0c.09.27 2.89.17 1 0zm-46.581 24.669a2.412 2.412 0 00-1.11.14c-.06.48 3.21.06 1.11-.14zm12.992-8.67a2.982 2.982 0 00-1.06.08c-.02.32 3.1.08 1.06-.08zm11.89-5.999a3.42 3.42 0 00-1 0c-.02.28 2.99.15 1 0zm11.097-4.86a3.13 3.13 0 00-1 0c.02.26 2.93.19 1 0zM540.891 354.256c-.52 0-2.38.12-2 .86.82.72 4.54-.51 2-.86zM853.899 64.748c-.14 0-.72-.14-.51.1.21.24 1.33.21.51-.1zM617.841 234.726c-.85 0-2.63.74-.83.65.85-.02 2.63-.77.83-.65zm46.411-38.901c-.82 0-2.38.72-.71.64.82-.01 2.37-.71.71-.64zm-22.353 19.151c-.82 0-2.5.73-.76.62.82.01 2.5-.73.76-.62zm62.621-57.279a2.406 2.406 0 00-1.29.32c-.24.77 3.51-.22 1.29-.32zm-19.451 18.76c-.82 0-2.26.66-.67.63.82.02 2.26-.65.67-.63zm37.513-36.091a2.38 2.38 0 00-1.24.26c-.17.72 3.45-.08 1.24-.26zM500.95 321.807c-1-.14-3.24.69-1.15.89 1 .14 3.24-.69 1.15-.89zm91.101-67.39c-.87 0-2.75.69-.88.65.87.01 2.75-.7.88-.65zm-27.812 20.188a4.014 4.014 0 00-1.71.39c-.41.93 4.48-.28 1.71-.39zm-30.241 22.081a3.707 3.707 0 00-1.8.39c-.5 1.02 4.68-.19 1.8-.39zm249.1-199.248c-.74-.09-1.72.06-.42.19.73.08 1.72-.02.42-.19zm60.272-27.632l-.6-.13c.07.03 1.93.45.6.13zm-14.85 1.55a2.218 2.218 0 00-.86 0c.02.25 2.62.3.86 0zm-9.499 7.51a1.88 1.88 0 00-.95 0c-.06.46 2.77.33.95 0zm-79.502 46.46a2.474 2.474 0 00-1.19.18c-.15.62 3.32.03 1.19-.18zm99.889-56.44l-.67-.13.53.1c.66.12 1.01.19.14.03zm-4.589-.28c-.37 0-.71-.1-.76-.09-.05.01 2.46.42.76.09zm-65.04 35.461a3.076 3.076 0 00-1.09.07c-.07.37 3.11.12 1.09-.07zm-14.461 9.019a2.828 2.828 0 00-1.14.13c-.11.5 3.22.07 1.14-.13zm52.123-26.95a2.612 2.612 0 00-1 0c-.01.34 2.86.29 1 0zm-11.919 5.751c-.72-.09-1.65 0-.4.18.77.1 1.7-.03.4-.18zm52.298-22.711c-.48-.14-.85-.13-.17.07.49.14.87.13.17-.07zm-383.129 282.08c-.54 0-2.4.11-2.06.87.73.72 4.57-.52 2.06-.87zM832.789 56.727c-.13-.07-.62-.18-.49.09s1.15.28.49-.09zm-203.068 124.15c-.78 0-2.34.77-.72.72.78.01 2.33-.77.72-.72zm-22.841 21.579c-.78 0-2.46.84-.78.71.78-.04 2.42-.83.78-.71zm44.122-42.851c-.79 0-2.22.67-.67.69.79.03 2.19-.69.67-.69zm19.849-19.599c-.79-.06-2.12.53-.64.61.79.06 2.12-.52.64-.61zm-88.49 82.99a4.213 4.213 0 00-1.52.49c-.32.74 3.99-.75 1.52-.49zm-118.201 74.18a4.681 4.681 0 00-1.85.36c-.58.9 4.71-.24 1.85-.36zm-36.178 22.88a4.24 4.24 0 00-2 .39c-.67 1.16 4.97-.1 2-.39zm127.94-77.75a4.645 4.645 0 00-1.58.46c-.37.7 4.18-.72 1.58-.46zm-58.681 35.499c-.84 0-3 .62-1.05.6.84.02 3.01-.62 1.05-.6zm30.43-17.688a5.315 5.315 0 00-1.66.41c-.42.69 4.33-.58 1.66-.41zm161.708-136.682c-.77-.08-2 .37-.59.48.73.08 2.03-.37.59-.48zm109.443-61.22a4.866 4.866 0 00-.81-.11c-.01.14 2.34.43.81.11zm8.966-.258c-.31-.08-.62-.14-.7-.15-.08-.01 2.01.49.7.15zm-18.909 3.309a2.501 2.501 0 00-.89 0c-.04.27 2.6.34.89 0zm-82.178 45.501a2.599 2.599 0 00-1.16.14c-.16.51 3.23.06 1.16-.14zm109.501-48.4a3.474 3.474 0 00-.61-.14c-.07.09 1.72.51.61.14zm8.207-1.03c-.35-.16-.89-.18-.27.08.38.19.88.19.27-.08zm-46.99 11.579c-.69-.14-1.59.07-.42.29.7.14 1.59-.07.42-.29zm-54.72 28.249a3.274 3.274 0 00-1.12.08c-.06.41 3.13.13 1.12-.08zm14.819-7.488c-.71-.09-1.78.08-.47.23.71.09 1.77-.08.47-.23zm13.891-6.469c-.7-.11-1.7 0-.44.2.7.11 1.7-.03.44-.2zm13.223-6.601a2.339 2.339 0 00-1 0c-.11.42 2.89.37 1 0zM388.24 348.287c-.85-.22-3.55.8-1.38 1.05.84.21 3.54-.81 1.38-1.05zM814.52 47.605c-.26-.2-.82 0-.34.24.24.18.8.02.34-.24zm-292 185.201a4.778 4.778 0 00-1.56.52c-.37.77 4.05-.83 1.56-.52zm26.76-22.201c-.75 0-2.54.91-.85.77.75-.08 2.53-.96.85-.77zm48.08-48.269c-.77 0-2.29.76-.74.78.77.04 2.29-.76.74-.78zm-23.191 24.1c-.76 0-2.41.87-.79.81.76 0 2.41-.86.79-.81zm-80.427 65.1a6.064 6.064 0 00-1.63.45c-.44.62 4.22-.75 1.63-.45zm125.227-111.4c-.78-.07-2.19.59-.69.68.77.07 2.18-.6.69-.68zm-155.948 127.01a7.83 7.83 0 00-1.71.38c-.29.14 0 .191.66.111s2.96-.641 1.05-.491zm-108.272 51.51c-.85-.12-3.47.58-1.36.76.86.12 3.48-.58 1.36-.76zm39.311-20.329c-.81-.06-3.28.53-1.24.59.81.07 3.28-.53 1.24-.59zm35.908-16.37a6.611 6.611 0 00-1.8.33c-.56.6 4.55-.4 1.8-.33zm360.941-228a3.096 3.096 0 00-.67-.15c-.21.14 1.68.54.67.15zm-13.317.16a4.185 4.185 0 00-.78-.14c-.14.12 1.93.5.78.14zm-13.854.819a3.84 3.84 0 00-.87-.1c-.13.17 2.3.46.87.1zm-13.99 3.482a2.67 2.67 0 00-.95 0c-.14.29 2.6.36.95 0zm53.594-5.962c-.27-.16-1-.21-.39.09.27.15.97.2.39-.09zm-67.412 13.83a2 2 0 00-1 0c-.13.49 2.77.39 1 0zm-96.81 55.41a2.402 2.402 0 00-1.24.24c-.25.67 3.36-.02 1.24-.24zm52.809-32.09a2.861 2.861 0 00-1.1.06c-.14.39 3.03.19 1.1-.06zM658 108.377a2.782 2.782 0 00-1.19.15c-.21.53 3.25.08 1.19-.15zm17.568-10.299a2.841 2.841 0 00-1.14.1c-.17.43 3.14.12 1.14-.1zm46.32-23.472c-.68-.13-1.69 0-.48.25.68.12 1.69-.05.48-.25zm-14.599 7.47c-.68-.12-1.76 0-.49.24.72.11 1.72-.05.49-.24zm-395.767 263.25c-.58 0-2.43.07-2.27.83.62.69 4.7-.46 2.27-.83zM796.518 38.367a.648.648 0 00-.54 0c-.34.39 1.24.45.54 0zm-305.109 180.41c-.73 0-2.61 1-.92.85.73-.02 2.61-.95.92-.85zm-28.968 23.999c-.71 0-2.75.9-1 .72.72-.04 2.76-.89 1-.72zm104.478-102.479a2.178 2.178 0 00-1.32.38c-.37.99 3.5-.18 1.32-.38zm-48.529 51.801a2.762 2.762 0 00-1.45.55c-.42 1.11 3.76-.55 1.45-.55zm25.132-26.961c-.76 0-2.36.82-.8.87.8.05 2.35-.82.8-.87zm-145.45 109.16c-.72 0-3.07.56-1.13.4.72-.03 3.06-.55 1.13-.4zm190.669-154.322c-.73-.09-2.15.44-.7.57.73.06 2.15-.44.7-.57zM281.259 317.277c-.81-.12-3.59.51-1.48.69.81.11 3.59-.52 1.48-.69zm42.421-17.741c-.76-.06-3.39.44-1.34.49.76.06 3.39-.42 1.34-.49zm107.572-38.621a7.495 7.495 0 00-1.67.41c-.44.51 4.03-.63 1.67-.41zm-68.831 25.272c-.74 0-3.23.47-1.23.41.74.01 3.22-.47 1.23-.41zM747.52 46.196a4.347 4.347 0 00-.87-.13c-.17 0-.06.08.25.16s1.49.23.62-.03zm18.279-.741c-.26-.12-1.32-.24-.59 0 .31.15 1.31.27.59 0zm-37.06 2.152a4.103 4.103 0 00-.95-.09c-.17 0 0 .1.34.17s1.64.14.61-.08zm53.783-4.141c-.24-.13-1.11-.19-.51.11.22.13 1.09.19.51-.11zm-173.323 62.509a3.024 3.024 0 00-1.22.15c-.26.56 3.26.05 1.22-.15zm101.432-54.489a2.94 2.94 0 00-1 0c-.27.32 2.63.34 1 0zm-64.36 34.021c-.67-.1-1.9.13-.58.29.67.1 1.89-.13.58-.29zM628.5 94.5c-.5-.5-1.62.172-1.31.586.31.414 2.81.914 1.31-.586zm34.62-17.593c-.66-.12-1.82.08-.54.27.65.12 1.81-.08.54-.27zm31.291-17.301a2.06 2.06 0 00-1 0c-.19.49 2.76.35 1 0zM679.1 68.487c-.65-.13-1.74.07-.51.28.65.13 1.74-.06.51-.28zM234.518 342.355c-.61 0-2.44.06-2.38.81.6.66 4.78-.44 2.38-.81zM776.242 30.027c-.17-.06-.73-.16-.68.1.05.26 1.39.23.68-.1zM401.989 251.286c-.7 0-2.83.85-1.07.75.7 0 2.83-.84 1.07-.75zm112.722-111.23a2.204 2.204 0 00-1.36.41c-.44 1.08 3.53-.15 1.36-.41zm-81.46 85.762c-.73 0-2.69.94-1 .91.72.02 2.68-.95 1-.91zm56.21-58.542c-.75-.08-2.411.86-.861 1 .76.03 2.421-.91.861-1zm-27.102 29.561c-.75-.06-2.55.94-.93 1 .74.03 2.54-.97.93-1zm-93.93 72.111a9.027 9.027 0 00-1.73.35c-.5.48 4.06-.49 1.73-.35zm-160.91 46.658c-.74-.11-3.69.44-1.57.63.7.11 3.64-.45 1.57-.63zm45.492-15.42c-.72-.06-3.51.34-1.44.41.72.06 3.5-.35 1.44-.41zm41.508-10.581c-.7 0-3.3.34-1.31.31.74.01 3.31-.31 1.31-.31zm38.282-9.239c-.7 0-3.14.43-1.22.32.71-.03 3.15-.42 1.22-.32zm426.98-245.039a1.931 1.931 0 00-.76-.08c-.5.25 1.69.44.76.08zm-88.702 9.839c-.49-.11-1.83 0-.67.21.49.11 1.83.01.67-.21zm21.872-4.269c-.38-.09-1.82-.12-.76.09.38.1 1.82.13.76-.09zm-40.222 12.53a2.26 2.26 0 00-1 0c-.21.54 2.79.34 1 0zm63.53-14.421c-.29-.09-1.7-.18-.77 0 .29.13 1.7.22.77 0zm22.913-1.269c-.24-.1-1.52-.2-.73 0 .24.14 1.5.24.73 0zM600.521 81.606c-.65-.09-1.95.17-.62.33.62.13 1.89-.13.62-.33zm-19.502 10.401a2.943 2.943 0 00-1.2.13c-.3.52 3.17.08 1.2-.13zm55.142-29.18c-.63-.12-1.79.1-.56.31.64.12 1.8-.11.56-.31zm-75.88 40.779a3.016 3.016 0 00-1.25.16c-.31.59 3.28.06 1.25-.16zm-22.05 14.511c-.72-.1-2.21.46-.75.61.71.1 2.2-.46.75-.61zm80.571-46.042c-.64-.1-1.87.13-.59.31.64.11 1.87-.12.59-.31zM157.279 339.367c-.64 0-2.46 0-2.49.78.56.65 4.85-.41 2.49-.78zm593.919-315.76c-.18 0-.87-.12-.78.13.09.25 1.69.1.78-.13zM374.752 230.326c-.73-.07-2.75.88-1.07 1 .73.03 2.76-.92 1.07-1zm-33.583 26.4c-.69-.06-2.91.72-1.15.75.7.05 2.91-.72 1.15-.75zm64.87-57.119c-.75-.09-2.61.93-1 1 .76.14 2.62-.88 1-1zm29.143-31.591c-.76-.12-2.48.86-.93 1 .76.13 2.48-.85.93-1zM305.23 274.147c-.66 0-3.08.45-1.22.42.66.04 3.08-.46 1.22-.42zm-171.822 39.18c-.71-.12-3.8.37-1.69.58.71.12 3.8-.38 1.69-.58zm328.904-174.341c-.74-.12-2.36.71-.86.88.74.12 2.36-.7.86-.88zm-280.294 160.69c-.68-.06-3.61.23-1.53.34.69.06 3.61-.24 1.53-.34zm44.341-8.369c-.669 0-1.337.044-2 .13-.64.3 4.25-.07 2-.13zm40.819-7.15c-.67 0-3.21.27-1.3.26.64 0 3.2-.28 1.3-.26zm244.062-182.78a3.095 3.095 0 00-1.28.17c-.37.58 3.3.06 1.28-.17zm119.412-61.21c-.46-.08-1.94 0-.75.21.46.08 1.94-.04.75-.21zm51.927-6.81c-.29-.06-1.91-.11-.9.06.3.06 1.91.1.9-.06zm-27.06 2.249c-.36-.06-2 0-.87.11.33.09 1.96.08.87-.11zm53.793-3.929c-.26-.07-1.75-.11-.85.06.26.07 1.75.12.85-.06zm23.75-2.712c-.27-.08-1.54-.07-.71.12.27.08 1.54.07.71-.12zM610.759 48.437c-.6-.1-1.78.15-.57.32.6.11 1.79-.15.57-.32zm-56.241 29.889c-.62-.09-2 .2-.67.35.58.09 1.97-.21.67-.35zm-20.997 11.041a3.13 3.13 0 00-1.23.14c-.33.54 3.23.1 1.23-.14zm-45.94 26.62c-.69-.11-2.26.46-.81.63.75.1 2.27-.46.81-.63zm86.668-47.992c-.61-.09-1.92.17-.63.33.62.1 1.9-.17.63-.33zm18.721-9.869c-.61-.1-1.85.15-.6.32.61.1 1.85-.15.6-.32zm-513.21 278.2c-.67-.2-4 .67-1.86 1 .67.16 4-.72 1.86-1z" fill="#fff" stroke="#fff" stroke-width="2.15" stroke-miterlimit="10"/></svg>