<svg width="1455" height="1077" fill="none" xmlns="http://www.w3.org/2000/svg"><g opacity=".12"><path d="M20.098 129c42-44 118.826-11.644 176.7-10.297 28.925 2.101 57.793-1.701 86.753-.696 55.933.719 112.402 2.671 167.799-7.271a386.26 386.26 0 0092.688-28.264c24.965-11.586 48.548-25.809 74.197-35.82A578.365 578.365 0 01796.307 5C902.192-.708 1007.68 16.86 1113.3 21.95c115.54 4.635 226.8 155.55 338.3 113.05 1.5 153.743 0 197.5 0 352 1 87.5-1 168.257-1 255.257 0 66.442 1.71 176.531 1 243-39 0-60-.5-106.5 25.503-75.21 57.84-138.44 85.99-231.29 41.36-75.21-32.42-142.512-82.506-221.024-106.979-30.706-9.361-63.147-6.541-94.744-4.817-72.553 5.365-144.672 16.711-217.499 18.263-92.689 1.473-111.866-15.866-202.591 30.912-79.162 42.231-149.352 67.721-236.288 27.921-38.434-17-78.283-33.469-121.066-32.533 0-283.431-.5-572.516-.5-855.887z" stroke="#08102A" stroke-width=".525" stroke-linecap="round" stroke-linejoin="round"/><path d="M3.398 948.5c76.5-2.5 142.331 44.827 213.458 42.795 85.999 1.609 158.153-56.664 242.143-65.065 20.97-2.283 41.653 2.066 62.417 4.258a642.759 642.759 0 0084.47 2.557c61.641-1.804 122.756-10.867 184.054-16.917 58.706-7.682 100.907-2.774 155.413 21.197 77.147 29.953 148.877 80.375 232.497 89.915 51.15 0 89.46-21.36 129.75-49.74 20.27-14.759 46-29 66-36 30-5 54.5 13.5 79 7" stroke="#08102A" stroke-width=".525" stroke-linecap="round" stroke-linejoin="round"/><path d="M1.898 910.5c48 2.5 102.441 20.923 148.58 29.952 92.792 20.626 175.024-18.036 262.965-39.427 21.893-4.715 44.381-7.306 66.765-5.708 17.511.936 34.336 6.29 51.664 8.527 32.875 4.806 66.206 5.514 99.378 3.858 74.026-2.99 146.499-20.615 220.205-26.254 37.817-1.061 74.607 10.593 110.016 22.83 70.279 23.275 137.759 62.234 212.849 66.48 48.71-1.826 117.66-24.919 158.28-49.758 53-32.414 75.29-2.112 120-10" stroke="#08102A" stroke-width=".525" stroke-linecap="round" stroke-linejoin="round"/><path d="M2.398 873.5c80.144 13.823 170.761 38.232 252.686 24.363 56.858-8.435 111.866-26.79 169.032-33.388 24.039-2.705 48.467-2.797 72.324 1.461 19.006 3.162 36.962 10.661 56.104 13.298 40.797 6.963 82.553 5.788 123.532.971 64.323-6.233 126.42-27.145 190.629-32.898 39.53-.879 78.34 9.132 116.158 19.633 131.267 37.795 202.767 81.819 333.737 11.56 63-28 82.5-1 136-4.5" stroke="#08102A" stroke-width=".525" stroke-linecap="round" stroke-linejoin="round"/><path d="M.898 838c66 9.5 143.256 25.391 210.17 20.049 108.887-6.849 221.517-56.755 328.338-12.443 75.213 28.241 158.005 11.176 233.377-7.99 73.98-21.106 112.3-33.525 190.925-18.914C1092.94 841.223 1172.86 902.604 1302.6 844c62-28.005 100-15 150-6.5" stroke="#08102A" stroke-width=".525" stroke-linecap="round" stroke-linejoin="round"/><path d="M1.898 800c74 19.5 164.116 22.503 240.584 11.168 81.879-12.1 165.584-34.507 248.159-15.045 38.069 6.678 70.179 30.364 107.951 37.555 62.485 12.031 126.077-4.087 185.686-22.579 34.553-10.387 68.033-25.432 104.092-29.735 95.2-11.415 195.53 42.366 290.73 36.636 51.23-3.904 103.61-25.416 152-41.5 42.5-14.126 92 9 121.5 24" stroke="#08102A" stroke-width=".525" stroke-linecap="round" stroke-linejoin="round"/><path d="M2.398 761.5c80.133 28.263 176.469 16.611 258.085 2.605 66.629-12.488 135.198-25.33 202.717-11.894 122.55 24.827 120.598 90.816 271.526 54.14 45.808-10.775 88.876-30.306 133.554-44.518 91.273-25.341 191.89 4.811 284.82 5.667 100.5 0 192.5-71.5 299.5-4.5" stroke="#08102A" stroke-width=".525" stroke-linecap="round" stroke-linejoin="round"/><path d="M2.398 726c53.548 22.613 123.47 17.912 179.38 8.209 92.152-15.261 186.644-47.748 279.984-22.464 112.425 27.247 121.363 103.293 251.344 76.754 63.421-11.746 119.925-44.758 181.268-62.976 69.3-19.029 142.266-15.991 213.726-15.523 53.98 3.093 119.62 2.34 171.5-12.5 55.66-14.382 99-8 173 28.5" stroke="#08102A" stroke-width=".525" stroke-linecap="round" stroke-linejoin="round"/><path d="M2.898 689c133.657 60.122 313.735-88.997 477.71-16.33 111.672 47.555 110.062 119.172 255.476 77.884 53.137-15.056 101.399-42.691 152.777-62.291C944.143 667.865 1004.6 674.87 1063.1 668.5c53.74-6.769 123.66-16.998 177-27.5 73.05-11.746 157.5 11 213 48.5" stroke="#08102A" stroke-width=".525" stroke-linecap="round" stroke-linejoin="round"/><path d="M2.398 652c142.972 74.197 334.245-148.919 538.64 25.455 18.949 14.486 34.188 33.64 54.449 46.345 48.981 29.678 109.583 13.835 159.375-5.616 48.25-18.675 92.574-45.808 139.478-67.348 54.038-24.668 111.74-19.494 169.76-32.336 56.57-14.462 115.07-26.635 172.5-34.5 70.09-8.652 157.5 33 216 69" stroke="#08102A" stroke-width=".525" stroke-linecap="round" stroke-linejoin="round"/><path d="M2.398 615c47 30 116.723 12.868 166.207-2.359 162.24-58.068 264.928-80.601 392.443 58.615 55.271 75.647 138.589 49.952 210.308 15.182C890.598 618 952.598 596 1092.6 566.5c47.46-10 102-15.284 155-19.5 63.14-5.022 108.5 12 205 68.5" stroke="#08102A" stroke-width=".525" stroke-linecap="round" stroke-linejoin="round"/><path d="M2.398 580c103 67 277.376-113.047 430.005-45.916 49.734 19.782 89.218 57.976 123.075 98.408 32.144 43.114 58.216 69.63 116.204 61.571 72.005-11.666 131.454-59.222 195.605-91.125C947.598 563 1075.6 529.4 1146.1 518c97.5-15.765 212 0 306.5 62" stroke="#08102A" stroke-width=".525" stroke-linecap="round" stroke-linejoin="round"/><path d="M2.898 542c111 64 274.228-114.043 424.402-49.332 52.166 20.034 93.431 59.871 129.262 101.593 32.556 42.418 58.49 67.348 115.804 58.946 72.382-12.111 135.118-54.255 197.478-90.543C932.203 526.377 1087.34 484.592 1155.6 475c82-11.524 221.5 23 297.5 67" stroke="#08102A" stroke-width=".525" stroke-linecap="round" stroke-linejoin="round"/><path d="M3.398 506.5c112 52 273.751-101.337 417.852-43.43 46.71 16.403 86.445 47.406 122.14 80.955 41.595 41.093 62.667 68.261 126.899 58.215 74.003-13.001 139.936-48.833 205.309-83.74 73.096-39.031 180.392-71.042 279.502-87 100.5-11 190 29 297.5 73.5" stroke="#08102A" stroke-width=".525" stroke-linecap="round" stroke-linejoin="round"/><path d="M3.398 468c50.5 20 104.948 3.495 150.299-7.543 46.287-12.1 91.513-28.811 138.634-37.487 107.574-21.311 195.948 34.371 275.395 99.983 61.127 54.312 147.766 14.395 212.249-13.355 69.003-32.384 133.423-57.107 203.123-88.098 54.562-23.766 115.992-39 174.002-39 82 0 183 39 295.5 85.5" stroke="#08102A" stroke-width=".525" stroke-linecap="round" stroke-linejoin="round"/><path d="M2.898 430.5c48.57 13.024 109.135-.451 157.054-10.553 43.97-9.646 86.948-24.108 131.42-31.334 99.366-17.796 187.889 30.124 269.083 81.354 65.065 46.356 147.423 11.54 213.812-14.257 67.211-28.663 133.775-49.419 201.831-76.21 57.562-22.202 126.002-43 178.502-43 99.16-2.123 145 50 298 94" stroke="#08102A" stroke-width=".525" stroke-linecap="round" stroke-linejoin="round"/><path d="M3.398 393.5c89.584 7.169 186.336-21.382 273.351-38.401 99.869-20.033 189.727 22.008 278.307 62.154 67.256 34.747 143.542 6.689 210.033-16.323 112.859-41.79 203.6-71.968 322.511-93.93 46.8-8.79 111.68-5.1 169 9 57.31 14.1 110.5 64.5 196.5 77.5" stroke="#08102A" stroke-width=".525" stroke-linecap="round" stroke-linejoin="round"/><path d="M2.398 357c59.45-3.984 129.029-10.634 187.701-21.262 46.139-8.104 91.559-22.076 138.828-21.277 74.197-.753 143.77 27.807 214.029 47.828 69.437 24.531 142.206 4.464 209.817-16.871 116.637-37.84 220.016-70.602 341.827-87.918 45.21-6.381 85.5-.5 153 20.5s126.5 75 205 78.5" stroke="#08102A" stroke-width=".525" stroke-linecap="round" stroke-linejoin="round"/><path d="M3.398 320c52.5-9 113.075-12.593 164.864-19.876 42.235-4.224 83.215-16.358 125.461-20.147 76.8-7.842 151.59 14.839 226.46 28.012 75.27 14.143 136.488 3.801 209.189-16.323C849.856 257.604 960.39 236.698 1085.1 223c49.24-5.479 116.5 7.5 153.5 20.5 46.46 16.323 118.5 76.5 214 76.5" stroke="#08102A" stroke-width=".525" stroke-linecap="round" stroke-linejoin="round"/><path d="M3.398 283c58.639-23.674 133.451-15.26 195.023-24.996 41.926-5.708 83.328-15.981 125.928-15.034 55.317-.32 109.846 10.194 164.774 15.125 68.592 6.118 137.561-2.363 204.327-18.332 128.817-32.464 259.871-56.401 392.56-65.431 121.91-5.41 243.56 110.003 365.59 108.668" stroke="#08102A" stroke-width=".525" stroke-linecap="round" stroke-linejoin="round"/><path d="M2.898 246.5c31.5-17.5 72.481-20.62 105.071-21.864 35.569-.97 71.263-.879 106.638-5.399 45.237-7.751 90.885-12.637 136.841-10.274 65.51 2.283 131.751 11.792 196.861 0 121.592-19.473 240.398-56.07 363.781-63.763C1268.6 115.5 1266.1 252.5 1451.6 247" stroke="#08102A" stroke-width=".525" stroke-linecap="round" stroke-linejoin="round"/><path d="M3.398 210c55-38 123.851-20.43 180.617-24.185 38.377-.64 76.012-9.372 114.434-9.543 52.509-1.655 105.017 2.774 157.526-.274 47.839-1.05 93.122-16.072 138.782-28.515 64.357-17.019 129.285-32.441 195.285-41.55C906.885 91.824 987.598 95 1112.6 106c102 8.976 201.5 111.5 339.5 104.5" stroke="#08102A" stroke-width=".525" stroke-linecap="round" stroke-linejoin="round"/><path d="M2.898 171.5c61.5-44 121.782-20.205 177.156-20.49 35.603 1.712 70.829-5.148 106.41-5.011 53.41-1.085 107.071 1.815 160.253-4.566a393.971 393.971 0 0085.794-19.406c23.355-8.652 45.911-19.188 69.631-26.779a843.287 843.287 0 01189.67-41.596c108.669-8.64 217.798 2.717 326.468 5.959C1229.49 62.967 1314.6 202 1451.6 172" stroke="#08102A" stroke-width=".525" stroke-linecap="round" stroke-linejoin="round"/><path d="M1416.1 141.5c-.98 158.507 1.76 199.809-1.34 358.258-4.39 79.825 8.12 160.304 5.84 240.242.1 69.551-.93 176.415 0 246m-41-847.5c-1.33 165.516 2.78 216.837-1.5 382.25-3.91 76.229-.56 153.85 0 230.25 3.1 71.469 2.74 170.44 5 242m-39.69-866v224.194c-.68 63.352 2.28 126.705-2.44 189.955-3.85 72.576-2.1 148.104 0 220.851 4.87 75.738 9.9 168.102 13.13 244m-46.93-896v238.968c-.36 71.571 2.13 143.143-4.15 214.6-3.99 68.797-2.94 138.52 0 207.432 6.14 80.429 16.2 176.342 20.08 257m-52.17-937v254.235c.17 79.231 1.46 158.439-6.31 237.43-4.27 68.329-13.99 136.91-9.13 205.468 7.78 82.609 29.9 177.381 34.11 260.367m-54.91-978v295.876c2.28 94.389-3.77 186.724-12.99 280.6-3.51 49.472-9.72 99.138-5.54 148.725 8.32 87.107 32.61 182.27 36.94 269.799m-54.5-1015c0 144.55-.15 262.793-.15 407.32-2.07 72.222-11.42 144.125-17.41 216.095-3.05 39.77-7.82 79.642-5.08 119.537 7.99 92.712 35.66 186.96 40.14 280.048" stroke="#08102A" stroke-width=".525" stroke-linecap="round" stroke-linejoin="round"/><path d="M1162.6 34.5c-.12 146.202.56 281.983.01 428.173-3.09 71.286-12.46 142.252-18.8 213.321-3.13 39.336-8.3 78.763-5.52 118.213 8.16 93.716 37 185.024 41.58 279.103" stroke="#08102A" stroke-width=".525" stroke-linecap="round" stroke-linejoin="round"/><path d="M1125.8 23.12c.25 103.327 1.14 206.608 1.75 309.936.88 82.746 1.95 165.516-7.55 247.829-5.39 73.945-17.53 148.13-13.39 222.35 7.56 87.895 30.95 174.225 35.07 262.465m-54-1044.67c.28 106.215 1.69 212.43 2.6 318.634 0 69.837 3.16 139.753-3.2 209.429-5.54 82.495-17.68 165.037-16.27 247.794 5.27 84.653 25.45 168.005 29.16 252.773M1048.3 18.152c-.9 171.749 6.85 343.588 2.29 515.302-4.99 86.537-16.74 172.936-17.45 259.643 3.31 78.637 19.56 156.384 22.83 235.003M1007.98 14.832c-.36 172.776 5.29 345.551 3.65 518.304-4.01 85.783-14.612 171.395-17.294 257.2 1.495 71.4 13.694 142.252 16.654 213.564M966.88 11.406c-.239 177.992 4.68 355.985 4.201 533.966-2.523 84.31-12.796 168.346-15.89 252.565.708 60.784 8.368 121.375 11.05 182.068M925.354 8.223c-.32 189.064 4.783 378.129 4.566 567.171-1.245 50.819-5.902 101.592-7.705 152.354-1.45 23.492-5.959 46.539-5.856 70.133-.776 53.856 3.687 107.734 6.552 161.464M883.747 5.516c-.194 204.611 5.022 409.257 5.513 613.823-2.785 52.726-.719 105.976-8.287 158.302-4.874 55.499-2.283 111.581 1.438 167.091M841.855 3.758c.309 239.187 6.633 478.398 8.527 717.494 2.009 29.267-3.173 57.85-5.901 86.833-2.922 43.547-3.63 87.575.913 131.02M798.899 4.467c-1.142 141.613 2.169 283.26 3.664 424.862.719 64.368 1.267 128.748.662 193.105 4.635 43.856 6.518 87.758 8.607 131.797 2.066 23.366-3.733 46.184-5.707 69.356-3.425 38.48-6.062 77.679-.411 116.067M757.111 8.223c-2.283 146.327.651 292.711 1.45 439.039.399 66.286.627 132.584-.514 198.858 2.808 28.812 7.796 57.075 10.034 85.977 1.381 19.098 4.451 38.354 4.075 57.509-5.422 50.762-18.641 102.129-9.395 153.21M716.704 14.762c-2.888 147.252 0 294.504.559 441.756.24 48.764.331 97.517-.103 146.259.491 28.868-3.424 58.078 2.352 86.502 5.273 38.673 13.994 77.621 13.081 116.739-7.1 46.687-24.473 93.808-15.581 141.465M677.914 23.826c-3.425 219.657 2.842 439.621.878 659.187 4.738 43.159 17.203 86.045 15.468 129.616-8.39 46.378-33.526 91.536-25.307 139.798M640.974 35.15c-3.208 215.742 5.502 431.688 3.059 647.361 3.219 43 15.262 85.532 13.561 128.749-9.018 49.221-45.317 93.339-38.491 145.368" stroke="#08102A" stroke-width=".525" stroke-linecap="round" stroke-linejoin="round"/><path d="M606.091 48.494c-1.541 136.534 3.299 273.124 5.651 409.623 3.059 80.715-.696 161.715 3.607 242.258 2.283 35.032 10.011 70.259 7.123 105.382-11.061 53.262-58.49 96.182-54.518 153.154" stroke="#08102A" stroke-width=".525" stroke-linecap="round" stroke-linejoin="round"/><path d="M573.5 63.584c.115 140.974 7.215 281.822 10.981 422.682 3.197 89.036 1.541 178.152 6.028 267.108 13.309 79.242-73.935 128.429-74.517 204.783" stroke="#08102A" stroke-width=".525" stroke-linecap="round" stroke-linejoin="round"/><path d="M536.69 82.26c6.324 225.25 32.042 449.986 24.143 675.464-6.564 74.197-82.313 123.281-85.521 198.619" stroke="#08102A" stroke-width=".525" stroke-linecap="round" stroke-linejoin="round"/><path d="M496.301 97.852c9.577 130.38 21.973 260.624 32.635 390.936 2.34 39.176 8.572 78.284 7.02 117.574-1.016 30.614-3.185 60.921-4.383 91.513-1.142 19.143.251 38.867-3.63 57.736-15.913 73.056-79.322 128.988-84.322 205.331" stroke="#08102A" stroke-width=".525" stroke-linecap="round" stroke-linejoin="round"/><path d="M456.555 108.32a265413.434 265413.434 0 0048.457 423.846c5.57 35.763-.229 72.085-1.861 108.008-4.03 37.429-.731 75.909-9.269 112.733-19.109 75.259-74.916 138.406-80.737 217.522" stroke="#08102A" stroke-width=".525" stroke-linecap="round" stroke-linejoin="round"/><path d="M417.608 114.645c20.102 136.887 37.669 274.208 57.725 411.107 1.142 41.789-4.691 83.99-6.586 125.803-2.671 35.283-.97 71.377-11.084 105.667-20.729 76.606-68.489 145.46-74.288 226.015" stroke="#08102A" stroke-width=".525" stroke-linecap="round" stroke-linejoin="round"/><path d="M379.619 117.805c21.631 130.129 39.347 261.001 61.036 391.165-.8 45.032-4.977 90.257-7.26 135.278-2.283 33.331-1.142 67.222-8.379 100.04-17.864 86.056-65.498 164.614-71.149 253.41" stroke="#08102A" stroke-width=".525" stroke-linecap="round" stroke-linejoin="round"/><path d="M342.751 118.787c20.65 125.336 37.829 251.287 58.479 376.611-.617 45.089-3.984 90.44-5.788 135.529-1.986 32.179-1.141 64.757-5.216 96.798-13.025 96.776-61.252 186.063-66.206 284.325" stroke="#08102A" stroke-width=".525" stroke-linecap="round" stroke-linejoin="round"/><path d="M307.159 118.57c16.335 118.042 31.391 236.288 47.577 354.364 4.121 20.946 1.77 42.657 1.473 63.923-.97 34.622-2.135 69.117-3.048 103.739-.867 48.479-1.141 97.266-12.111 144.775-16.358 79.596-44.826 157.354-47.577 239.229" stroke="#08102A" stroke-width=".525" stroke-linecap="round" stroke-linejoin="round"/><path d="M273.017 118.125c12.396 125.495 25.843 250.922 38.217 376.371-.137 62.782-1.633 125.564-1.849 188.346 3.846 119.217-45.397 232.19-47.623 350.858" stroke="#08102A" stroke-width=".525" stroke-linecap="round" stroke-linejoin="round"/><path d="M240.508 118.422c8.253 128.554 19.406 256.949 27.647 385.503.308 67.793-.924 135.655-.765 203.493.72 111.501-39.05 218.744-40.066 330.132m-23.64-918.032c6.05 132.698 15.456 265.247 21.585 397.934.548 69.847-.205 139.821.08 209.691-1.141 103.659-32.681 204.463-33.103 308.197m-28.217-918.996c8.709 211.323 23.275 422.442 21.597 634.051-2.283 93.031-24.576 184.533-23.834 277.745M127.43 110.854c6.415 221.734 18.72 443.376 20.695 665.19-2.283 80.749-15.981 160.95-13.938 241.846M93.953 106.504c5.217 216.061 9.258 432.144 18.96 648.046 1.907 84.059-8.846 167.912-5.502 251.98M63.613 106.756c3.3 178.072 2.831 356.372 9.714 534.353 2.283 52.223 6.062 104.424 6.153 156.715.228 66.058-2.98 132.139 0 198.174M36.465 115.066c1.141 159.809 1.233 319.549 3.424 479.266 6.552 131.271 6.199 262.542 8.71 393.882" stroke="#08102A" stroke-width=".525" stroke-linecap="round" stroke-linejoin="round"/><path d="M1203.33 966c-.87.148-.57 2.134.33 1.929.9-.206.57-2.135-.33-1.929zm8.7 55.79c-.81.16-.71 1.94.23 1.73.93-.22.7-1.95-.23-1.73zm4.05 51.23c-.75.12-.95 1.55 0 1.36.79-.13.97-1.56 0-1.36zm-49.3-103.527c-.91 0-.35 2.032.35 1.975.92-.023.35-2.032-.35-1.975zm9.05 56.757c-.94 0-.51 1.75.23 1.73.94.01.51-1.76-.23-1.73zm4.02 46.4c-.89 0-.8 1.27 0 1.29.8.02.82-1.27 0-1.29zm-41.88-53.5c-1.82-.07.69 3.11.83 1.05-.03-.24-.12-.46-.27-.64-.15-.19-.34-.33-.56-.41v0zm-7.95-55.501c-1.08-.114-.4 1.895.3 1.929 1.08.103.4-1.929-.3-1.929zm11.65 101.411c-1.85-.25.36 2.42.74.87-.03-.21-.11-.4-.24-.55-.14-.15-.31-.27-.5-.32v0zm-51.72-113.17c-1.15-.229-.46 1.735.25 1.837 1.19.229.46-1.735-.25-1.837zm6.73 52.99c-1.94-.34.66 3.03.87 1.14a1.53 1.53 0 00-.29-.68c-.15-.2-.35-.36-.58-.46v0zm-14.78-109.722c-1.81 0 .8 3.425.85 1.142-.02-.25-.12-.487-.27-.688a1.403 1.403 0 00-.58-.454zm18.06 153.872c-1.21-.47-.74 1.05 0 1.26 1.23.48.77-1.03 0-1.26zm-52.28-112.572c-1.25-.308-.54 1.564.2 1.712 1.26.366.54-1.564-.2-1.712zm5.48 49.553c-1.3-.434-.6 1.301.15 1.529 1.3.434.62-1.312-.15-1.529zm-11.87-102.46c-1.14-.205-.54 1.644.21 1.747 1.18.216.54-1.644-.21-1.747zm14.68 143.949c-1.97-.76.34 2.29.84 1.02-.06-.22-.16-.43-.3-.6-.15-.18-.33-.32-.54-.42v0zm-47.37-62.392c-1.3-.48-.66 1.141.12 1.392 1.31.48.66-1.153-.12-1.392zm-4.26-45.544c-1.26-.342-.61 1.393.16 1.575 1.25.343.6-1.404-.16-1.575zm-8.579-95.829c-1.085-.137-.731 1.416.091 1.495 1.085.149.708-1.415-.091-1.495zm3.825 47.27c-1.94-.148.614 2.979.834 1.039a1.255 1.255 0 00-.27-.638 1.286 1.286 0 00-.564-.401zm11.384 132.345c-1.66-.69-.27 1.45.61 1.25.65-.24-.18-1.07-.61-1.25zM966.884 10.735c-1.005-.092-.925 1.312 0 1.335.924.023.902-1.312 0-1.335zm-5.985 700.644c-.811.057-1.142 1.45-.08 1.358.81-.023 1.084-1.358.08-1.358zm-2.999 37.133c-.844 0-1.141 1.073-.114 1.061 1.027-.011 1.107-1.073.114-1.061zm6.277 196.209c-1.267-.434-.707 1.027.092 1.267 1.267.445.696-1.028-.092-1.267zm-8.598-128.027c-1.039-.114-.811 1.279 0 1.359 1.084.114.856-1.29 0-1.359zm5.458 86.717c-1.986-.32.559 2.671.845.993a1.304 1.304 0 00-.845-.993v0zm-5.674-124.376c-.936 0-.959 1.142 0 1.142s.902-1.119 0-1.142zm2.456 80.408c-1.142-.194-.719 1.335.103 1.461 1.13.205.719-1.347-.103-1.461zm9.233-764.056a.727.727 0 00-.757.424.725.725 0 00.183.848.725.725 0 00.574.177.73.73 0 100-1.45v0zm.368 44.619c-.959 0-1.005 1.564 0 1.496 1.004-.069 1.016-1.564 0-1.496zm-.537-87.836a.708.708 0 100 1.404.707.707 0 100-1.404v0zm1.013 133.485c-.913.068-1.016 1.632 0 1.518 1.016-.114 1.05-1.633 0-1.518zm-1.711 793.848c-1.621-.651-.24 1.335.605 1.141.651-.205-.251-1.016-.605-1.141zM925.366 7.491c-1.016-.08-.959 1.37 0 1.393.959.023.936-1.37 0-1.393zm-.651 668.137a1.145 1.145 0 00-.742.89c.274 1.644 2.534-1.073.742-.89zm-4.636 75.703c-.776.057-1.142 1.039-.103.959.765-.057 1.073-1.039.103-.959zm9.134-152.274c-.719.262-1.233 1.666 0 1.141.662-.228 1.141-1.632 0-1.141zm.767-34.679c-.742.342-1.142 1.712 0 1.141.742-.365 1.198-1.735 0-1.141zm-12.868 214.257c-.845 0-.993 1.027 0 1.005.993-.023.936-1.028 0-1.005zm10.047-142.673c-.719.194-1.209 1.609-.079 1.256.719-.195 1.21-1.621.079-1.256zm-6.097 291.455c-1.952-.376.49 2.18.81.856a1.2 1.2 0 00-.81-.856v0zm-2.122-37.19c-1.918-.171.502 2.386.787.845a1.039 1.039 0 00-.787-.845v0zm-2.696-77.85c-.948-.057-.879 1.141 0 1.21.879.068.879-1.176 0-1.21zm.824 38.355c-1.05-.137-.799 1.21 0 1.302 1.096.137.844-1.222 0-1.302zm5.718-132.755a.897.897 0 00-.485.265.9.9 0 00-.235.5c.297 1.495 2.477-.81.72-.765zm4.861-428.06c-.844.149-1.141 1.873 0 1.633.868-.16 1.13-1.872 0-1.633zm-.648-49.391c-.879.114-1.062 1.803 0 1.62.902-.114 1.073-1.803 0-1.62zm-1.13-97.344c-.947 0-1.016 1.666 0 1.587 1.016-.08 1.062-1.656 0-1.587zm.512 48.282c-.913.08-1.039 1.735 0 1.61 1.039-.126 1.062-1.736 0-1.61zm-.901-95.347a.764.764 0 100 1.529.764.764 0 000-1.529v0zm4.203 430.112a1.575 1.575 0 00-.765 1.142c.434 1.598 2.682-1.872.765-1.142zm-4.386-475.475a.731.731 0 100 1.462.731.731 0 000-1.462zm3.003 288.5a1.206 1.206 0 00-.753 1.073c.422 1.884 2.705-1.404.753-1.073zm1.027 96.364c-.753.251-1.141 1.998 0 1.553.765-.24 1.199-2.032 0-1.553zm-.457-47.702c-.788.206-1.141 1.964 0 1.587.799-.217 1.176-1.963 0-1.587zm.743 94.024c-.73.263-1.209 1.998 0 1.495.742-.353 1.222-2.054 0-1.495zm-6.723 476.913c-1.141-.468-.707.708 0 .902 1.199.468.754-.673 0-.902zM883.748 4.8c-1.004-.07-.97 1.426 0 1.449.971.023.948-1.45 0-1.45zm2.09 722.617a.936.936 0 00-.674.753c.274 1.313 2.34-.97.674-.753zm.9-38.958c-.696.183-1.141 1.53 0 1.233.662-.171 1.05-1.541 0-1.233zM889.089 589c-.742.366-1.141 1.655 0 1.039.765-.365 1.176-1.655 0-1.039zm-.971 64.164a1.215 1.215 0 00-.72.879c.331 1.233 2.5-1.438.72-.879zm-4.484 104.297c-.696.114-1.073 1.027-.103.856.697-.137 1.062-1.016.103-.856zm-3.173 158.302c-1.826-.092.469 1.929.742.673a.907.907 0 00-.742-.673v0zm-1.475-33.537c-.982-.092-.799 1.141 0 1.141s.879-1.084 0-1.141zm-.628-35.5a.591.591 0 00-.756.571.589.589 0 00.485.583c.09.017.183.013.271-.013a.605.605 0 00.521-.096.597.597 0 000-.948.596.596 0 00-.521-.097v0zm2.111-64.689c-.73.08-1.016 1.016-.08.902.742-.069 1.028-1.016.08-.902zm-1.731 30.284c-.811 0-.936 1.141 0 1.084.936-.057.902-1.142 0-1.084zm10.442-191.783a1.318 1.318 0 00-.731.925c.377 1.13 2.569-1.656.731-.925zm-4.928-473.566c-.936 0-1.016 1.757 0 1.666 1.016-.091 1.039-1.746 0-1.666zm1.275 102.768c-.868.125-1.073 1.917 0 1.723.89-.103 1.095-1.906 0-1.723zm-.697-51.838c-.902.08-1.039 1.838 0 1.701s1.073-1.838 0-1.701zm-1.187-148.004c-.994 0-.971 1.541 0 1.541.97 0 .981-1.54 0-1.54zm4.841 500.828a1.628 1.628 0 00-.754 1.199c.389 1.643 2.672-1.918.754-1.199zm-4.646-453.262c-.97 0-.993 1.655 0 1.61.993-.046 1.004-1.656 0-1.61zm2.423 204.497c-.834.149-1.142 1.975 0 1.724.856-.149 1.13-1.963 0-1.724zm1.859 153.805c-.753.239-1.141 2.077 0 1.632.765-.24 1.199-2.066 0-1.632zm.318 48.582c-.731.262-1.21 2.077 0 1.575.719-.274 1.21-2.078 0-1.575zm-.821-98.887a1.378 1.378 0 00-.742 1.142c.434 2.043 2.683-1.484.742-1.142zm-.641-51.369a1.25 1.25 0 00-.742 1.142c.423 2.009 2.683-1.438.742-1.142zm-4.657 590.22c-1.027-.263-.673.73.057.822 1.028.251.674-.72-.057-.822zM841.865 3.006a.753.753 0 100 1.495.756.756 0 00.78-.438.75.75 0 00-.188-.874.753.753 0 00-.592-.183zm4.281 787.376c-.662.137-1.062 1.061-.103.822.662-.149 1.062-1.062.103-.822zm4.499-50.204c-.684.205-.981 1.335 0 1.016.685-.206.948-1.279 0-1.016zm-.493-97.231c-.708.331-1.142 1.507 0 .947.742-.342 1.119-1.518 0-.947zm.209 29.096a1.196 1.196 0 00-.445.346 1.195 1.195 0 00-.24.51c.365 1.084 2.443-1.473.685-.856zm-.071 31.768c-.685.229-1.039 1.507 0 1.142.685-.229 1.039-1.507 0-1.142zm-1.051 63.924c-.651.171-1.073 1.073-.092.799.64-.171 1.062-1.073.092-.799zm-5.444 50.259a.858.858 0 00-.674.651c.24 1.176 2.317-.776.674-.651zm-1.984-768.142a.799.799 0 100 1.597.799.799 0 000-1.597v0zm1.377 862.429c-.913 0-.833.993.057.959.89-.034.833-.959-.057-.959zm-.73-63.009c-.788.08-.97 1.141 0 1.061.776-.08.959-1.187 0-1.061zm-.205 32.292c-.856 0-.902 1.141 0 1.05.902-.092.925-1.153 0-1.05zm.355-730.199c-.947 0-1.038 1.838 0 1.735 1.039-.103 1.073-1.849 0-1.735zm2.453 162.947c-.833.148-1.141 2.066 0 1.815.879-.16 1.142-2.066 0-1.815zm-.89-54.962c-.879.114-1.141 2.009 0 1.804.913-.115 1.119-1.998 0-1.804zm1.77 109.764a1.27 1.27 0 00-.742 1.142c.434 2.203 2.694-1.393.742-1.142zm-3.859-269.572c-.993 0-1.038 1.746 0 1.678 1.039-.069 1.051-1.781 0-1.678zm1.246 105.302c-.914.092-1.062 1.93 0 1.781.947-.091 1.095-1.929 0-1.781zm4.441 321.865c-.708.251-1.141 2.123 0 1.644.719-.251 1.199-2.123 0-1.644zm1.184 87.04c-.742.377-1.073 1.609.068.993.742-.388 1.073-1.61-.068-.993zm-1.073-38.744c-.685.274-1.21 2.089 0 1.553.685-.286 1.21-2.089 0-1.553zm-1.151-151.83c-.776.205-1.141 2.134 0 1.769.788-.205 1.176-2.134 0-1.769zm.626 52.726a1.448 1.448 0 00-.73 1.221c.4 1.998 2.682-1.689.73-1.221zm-2.007 462.816c-.925 0-.696.822.091.776.788-.046.697-.822-.091-.776zM798.91 3.656c-.97 0-1.05 1.598 0 1.553 1.05-.046 1.039-1.553 0-1.553zm13.048 752.594c-.411.16-.731.513-.719.765.399 1.05 2.682-1.29.719-.765zm-.514 25.467c-.765.229-1.141 1.142-.068.731.765-.228 1.175-1.084.068-.731zm-4.166-114.297c-.879.423-1.141 1.473.069.857.867-.423 1.187-1.484-.069-.857zm1.588 26.015c-.867.366-1.141 1.416 0 .879.902-.365 1.21-1.427 0-.879zm1.359 28.63c-.833.297-1.141 1.484 0 1.039.879-.309 1.165-1.45 0-1.039zm-7.111 192.43c-.981.068-.958.97 0 .879.959-.091 1.005-.97 0-.879zm5.42-111.66c-.753.194-1.21 1.073-.103.753.754-.194 1.199-1.073.103-.753zm-6.027 83.407c-.411.057-.753.32-.765.583.365 1.198 2.763-.605.765-.583zm3.187-58.042c-.411.114-.753.411-.776.662.263 1.062 2.625-.925.776-.662zm-2.148 28.547c-.845.125-1.142 1.141 0 .97.799-.126 1.084-1.164 0-.97zm-.832-414.12c-.844.24-1.278 2.283 0 1.849.868-.205 1.302-2.271 0-1.849zm-3.632-284.664c-.936.091-1.142 1.974 0 1.815 1.004-.092 1.141-2.021 0-1.815zm.652 55.944c-.925.126-1.142 2.066 0 1.872.947-.125 1.164-2.089 0-1.872zm.73 57.097c-.902.149-1.141 2.146 0 1.895.902-.148 1.21-2.134 0-1.895zM798.65 52.192c-.971 0-1.073 1.735 0 1.655 1.073-.08 1.061-1.735 0-1.655zm.092 51.642c-.959.068-1.141 1.872 0 1.746 1.142-.126 1.096-1.861 0-1.746zm3.299 282.22a1.395 1.395 0 00-.811 1.267c.468 2.226 2.934-1.62.811-1.267zm1.425 164.615c-.822.297-1.347 2.283 0 1.712.833-.297 1.324-2.249 0-1.712zm-.079 50.122a1.721 1.721 0 00-.856 1.279c.468 1.792 3.037-2.032.856-1.279zm1.473 39.359c-.913.457-1.142 1.632.103.959.97-.445 1.187-1.644-.103-.959zm-3.595-311.546c-.879.183-1.21 2.203 0 1.906.913-.182 1.244-2.214 0-1.906zm1.952 169.122c-.833.263-1.313 2.283 0 1.792.845-.274 1.335-2.271 0-1.792zm2.452 441.562c-.993 0-.753.856.126.73.879-.125.742-.856-.126-.73zM757.12 7.434c-.901.068-1.141 1.666 0 1.575 1.142-.092 1.051-1.667 0-1.575zm14.498 764.159c-.845.251-.959 1.198.091.867.845-.251.971-1.198-.091-.867zm.148 23.857c-.776.206-1.141 1.005-.057.696.788-.194 1.119-.993.057-.696zm-3.033-56.334c-.845.263-.993 1.313.091.959.856-.274 1.004-1.301-.091-.959zm-2.547-25.967c-.879.32-1.028 1.221.079.788.857-.274 1.028-1.222-.079-.788zm-4.156 152.252c-.867.125-1.221 1.073-.091.89.868-.125 1.222-1.084.091-.89zm-2.063 53.467c-1.028.092-1.051.948 0 .822 1.05-.125 1.073-.947 0-.822zm3.503-229.121c-.89.365-1.039 1.279.091.788.891-.366 1.05-1.279-.091-.788zm-3.462 202.831c-.948.103-1.142 1.039 0 .891.901-.103 1.118-1.039 0-.891zm5.22-53.466c-.799.148-1.233 1.061-.114.833.799-.148 1.233-1.073.114-.833zm3.57-23.595c-.764.172-1.221.993-.114.708.719-.171 1.21-.97.114-.708zm-10.409-191.519a1.48 1.48 0 00-.811 1.198c.411 1.895 2.831-1.712.811-1.198zm-2.03-457.918c-.891.091-1.142 2.043 0 1.883.89-.091 1.095-2.043 0-1.883zm.808 117.07c-.868.126-1.141 2.192 0 1.964.822-.126 1.141-2.192 0-1.964zm-.48-59.185c-.879.114-1.142 2.123 0 1.94.879-.102 1.118-2.123 0-1.94zm-.434-113.762c-.89.079-1.073 1.94 0 1.803.902-.08 1.085-1.94 0-1.803zm3.802 553.737c-.89.365-1.038 1.461.126.936.89-.365 1.05-1.438-.126-.936zm-3.571-606.862c-.902.068-1.073 1.815 0 1.7 1.073-.114 1.062-1.814 0-1.7zm1.745 345.334c-.822.171-1.141 2.283 0 1.952.902-.16 1.188-2.249 0-1.952zm.41 58.615a1.446 1.446 0 00-.562.527 1.443 1.443 0 00-.214.74c.434 2.283 2.797-1.552.776-1.267zm.229 56.962c-.799.205-1.233 2.214 0 1.849.799-.229 1.233-2.226 0-1.849zm-.057 54.574a1.444 1.444 0 00-.799 1.232c.422 2.055 2.819-1.678.799-1.232zm-1.105-229.691c-.845.149-1.142 2.283 0 1.975.867-.148 1.176-2.169 0-1.975zm4.988 599.59c-1.05 0-.787.879.149.708.936-.171.776-.879-.149-.708zM716.725 13.93c-.833.102-1.141 1.712 0 1.575.788-.057 1.051-1.667 0-1.575zm12.03 738.235c-.388.114-.685.399-.651.65.445 1.085 2.489-.913.651-.65zM718.368 681.7c-.4.136-.696.468-.662.73.513 1.084 2.614-1.176.662-.73zm14.166 124.855c-.788.148-1.142.902-.069.685.788-.16 1.119-.902.069-.685zm-10.294-99.833c-.879.274-.902 1.073.114.731 1.016-.343.902-1.073-.114-.731zm3.308 21.46c-.879.251-.89 1.016.114.719 1.005-.297.891-1.016-.114-.719zm-1.414 120.574c-.423.08-.799.331-.845.548.171.936 2.74-.73.845-.548zm-9.522 75.259c-1.062.092-1.142.925 0 .799 1.141-.125 1.141-.924 0-.799zm1.141-24.998c-.959.091-1.256.97-.08.833.959-.125 1.221-.97.08-.833zm3.587-25.547c-.867.091-1.312.993-.148.833.867-.091 1.313-.993.148-.833zm9.623-47.223c-.765.126-1.244.902-.148.696.764-.137 1.244-.913.148-.696zm3.297-42.624c-.868.194-.879 1.062.102.822.982-.239.879-1.061-.102-.822zm-16.77-609.019c-.845.08-1.05 2.078 0 1.918.833-.091 1.05-2.089 0-1.918zm.265 59.052c-.833.091-1.05 2.146 0 1.975.8-.103 1.028-2.158 0-1.975zm-.242-115.851c-.844.08-1.05 1.986 0 1.826.834-.114 1.051-2.02 0-1.826zm1.155 523.441a1.202 1.202 0 00-.742 1.073c.354 1.986 2.614-1.301.742-1.073zm-.775-577.284c-.833.08-1.062 1.86 0 1.712.822-.08 1.004-1.86 0-1.712zm.214 230.146c-.811.103-1.05 2.203 0 2.009.845-.102 1.073-2.203 0-2.009zm1.155 295.131a1.266 1.266 0 00-.731 1.142c.366 2.18 2.649-1.29.731-1.142zm.077-113.384c-.776.137-1.084 2.192 0 1.952.799-.137 1.107-2.191 0-1.952zm.117 58.023c-.776.148-1.141 2.134 0 1.883.776-.171 1.119-2.135 0-1.883zm-.434-117.859c-.799.126-1.073 2.283 0 1.998.811-.126 1.096-2.226 0-1.998zm-.446-60.853c-.799.115-1.061 2.283 0 2.021.833-.114 1.085-2.226 0-2.021zm.319 591.93c-1.141 0-.833.902.149.708.981-.194.867-.902-.149-.708zM677.936 23.063c-.765.126-1.073 1.735 0 1.553.719-.137 1.039-1.747 0-1.553zm16.278 768.22c-.891.103-.799.925.091.799.89-.125.799-.981-.091-.799zm-3.573-31.173c-.891.114-.765 1.004.114.879.879-.126.73-1.005-.114-.879zm3.424 53.808c-.788.069-1.141.788-.091.685.81-.08 1.118-.799.091-.685zm-10.214-96.694c-.879.148-.765.867.114.696.879-.171.765-.833-.114-.696zm3.367 20.203c-.879.137-.765.822.114.674.879-.148.799-.822-.114-.674zm-7.18-45.157c-.845.137-.742 1.142.137.97.879-.171.753-1.141-.137-.97zm9.371 141.636c-.753.069-1.278.811-.194.697.753-.069 1.278-.799.194-.697zm-22.02 94.916c-1.073.068-1.222.89 0 .787 1.221-.102 1.198-.89 0-.787zm2.855-24.394c-.959 0-1.358.891-.148.811.958-.057 1.358-.948.148-.811zm12.556-48.423c-.788.057-1.37.868-.24.765.788-.057 1.37-.868.24-.765zm-6.907 23.822c-.856.057-1.404.902-.217.811.856-.057 1.404-.902.217-.811zm1.163-637.439c-.788.08-.971 2.134 0 1.986.799-.08 1.027-2.146 0-1.986zm-.308-59.335c-.788.08-.982 2.077 0 1.929.799-.08.993-2.112 0-1.929zm-.019-56.915c-.776.08-1.004 1.987 0 1.827.776-.091 1.005-1.986 0-1.827zm.806 177.112c-.776.08-.959 2.18 0 2.032.811-.08.982-2.181 0-2.032zM677.09 72.5c-.776.103-1.038 1.883 0 1.712.754-.091.993-1.883 0-1.712zm2.137 471.982c-.776.079-.97 2.02 0 1.883.765-.08.959-2.02 0-1.883zm-.765 106.969c-.765.069-.971 1.746 0 1.632.97-.114.958-1.746 0-1.632zm.585-165.185c-.765.079-.959 2.111 0 1.963.787-.08.97-2.112 0-1.963zm.02 113.566c-.776.08-.97 1.907 0 1.77.753-.069.959-1.895 0-1.77zm-.981-235.055c-.787.069-.959 2.18 0 2.032.822-.08.993-2.18 0-2.032zm.559 61.299c-.777.068-.959 2.157 0 2.009.787-.08.97-2.157 0-2.009zm-9.76 525.986c-2.123.366.639 1.347.97.286-.125-.297-.639-.309-.97-.286zM640.988 34.408c-.503.16-.925 1.027-.491 1.438.89.594 1.758-1.69.491-1.438zm10.567 705.371c-.879 0-.639.64.103.651.742.011.651-.639-.103-.651zm6.237 53.502c-1.667.171.514 1.45.685.423-.023-.217-.331-.411-.685-.423zm-.995 23.115c-.377 0-.708.149-.742.354.114.925 2.431-.125.742-.354zm-2.228-54.564c-1.621.148.537 1.575.685.468 0-.24-.331-.445-.685-.468zm-4.06 75.556a.983.983 0 00-.833.377c.011.913 2.568-.217.833-.377zm-1.952-117.243c-1.564.137.536 1.255.673.365-.034-.194-.331-.354-.673-.365zm-29.636 212.009c-1.084 0-1.324.845-.08.799 1.244-.045 1.313-.844.08-.799zm22.704-72.381c-.411 0-.822.206-.902.411-.023.948 2.728-.285.902-.411zm-9.497 23.594c-.845 0-1.495.788-.308.788.844.023 1.495-.788.308-.788zm-8.205 24.348c-.947 0-1.461.822-.228.81.948-.023 1.461-.81.228-.81zm20.042-416.3c-.764 0-.799 1.986 0 1.929.799-.057.811-1.986 0-1.929zm-2.295-181.452c-.753 0-.845 2.112 0 2.009.845-.103.879-2.112 0-2.009zm-.741-60.339c-.753.057-.879 2.1 0 1.975.879-.126.902-2.089 0-1.975zm-.514-58.672c-.742.08-.902 2.044 0 1.907.707-.069.879-1.998 0-1.907zm2.091 180.059c-.765 0-.833 2.1 0 2.009.833-.091.856-2.1 0-2.009zm2.797 323.589c-.845 0-.594 1.016.114 1.027.707.011.593-1.027-.114-1.027zM644 653.564c-.787-.057-.765 1.564 0 1.587.765.022.754-1.564 0-1.587zm-3.868-518.636c-.731.091-.948 1.964 0 1.804.73-.126.947-1.998 0-1.804zm4.29 468.318c-.776 0-.776 1.735 0 1.724.776-.012.776-1.735 0-1.724zm-.046-54.371c-.777 0-.788 1.884 0 1.85.787-.035.799-1.884 0-1.85zm-1.07-117.069c-.765 0-.811 2.066 0 1.986.81-.08.833-2.078 0-1.986zM640.291 82.42a1.144 1.144 0 00-.65 1.016c.319 2.02 2.328-1.118.65-1.016zm-21.245 873.82c-2.203.309.605 1.439.982.331-.103-.319-.639-.342-.982-.331zM606.103 47.788c-.456.182-.879 1.016-.456 1.392.833.491 1.666-1.7.456-1.392zm6.541 787.774c-.742-.137-1.336.593-.343.765.719.137 1.336-.594.343-.765zm8.366-22.59c-.799-.171-1.05.605-.194.765.856.159 1.027-.651.194-.765zm2.283-24.291c-.902-.183-.628.719 0 .833.982.183.708-.708 0-.833zm-2.283-32.453c-.902-.205-.548.753.08.879.844.205.49-.753-.08-.879zm-2.283-22.11c-1.438-.285.411 1.244.616.502.012-.171-.262-.411-.616-.502zm-2.099-19.738c-.844-.239-.502.56.069.708.89.24.502-.559-.069-.708zm-15.592 144.491a1.053 1.053 0 00-.948.331c-.159 1.039 2.717.057.948-.331zm-23.799 48.843c-.936-.091-1.564.731-.32.833.936.023 1.564-.833.32-.833zm-7.592 25.171c-1.142 0-1.427.799-.171.844 1.255.046 1.415-.799.171-.844zm18.823-49.94c-.822-.114-1.587.673-.411.81.821.103 1.586-.673.411-.81zm17.464-739.296c-.674.08-.868 1.883 0 1.735.685-.092.89-1.895 0-1.735zm1.621 111.134c-.719 0-.765 1.998 0 1.918.764-.08.799-1.918 0-1.918zm1.174 58.833c-.73 0-.719 2.009 0 1.952.719-.057.765-2.009 0-1.952zm1.269 59.541c-.742 0-.674 1.997 0 1.963.673-.034.742-1.998 0-1.963zm-3.426-175.323c-.697 0-.811 1.952 0 1.838.81-.114.844-1.963 0-1.838zm-.834-104.549c-.65.125-.936 1.803 0 1.598.651-.126.925-1.815 0-1.598zm7.409 452.853c-.787-.114-.582 1.735 0 1.792.799.114.605-1.746 0-1.792zm-1.907-113.693c-.753 0-.639 1.941 0 1.941s.639-1.952 0-1.941zm2.342 166.063c-.799-.171-.56 1.575 0 1.655.799.16.582-1.587 0-1.655zm-.08 48.011c-1.347-.171.217 2.762.514.97a1.139 1.139 0 00-.514-.97zm-1.176-156.075c-.765-.08-.605 1.86 0 1.883.605.023.696-1.872 0-1.883zm2.067 197.122c-.845-.239-.445.971.08 1.142.833.205.434-1.005-.08-1.142zm-46.472 270.923c-1.199 0-1.051.959.068.856 1.119-.103 1.05-.959-.068-.856zm5.593-895.555a1.146 1.146 0 00-.582.936c.308 1.495 2.043-1.325.582-.936zm14.02 607.145c-1.141-.708.217 2.283.468 1.016a1.64 1.64 0 00-.468-1.016v0zm2.557 72.122c-1.347-.617.285 1.78.559.787a1.14 1.14 0 00-.559-.787v0zm-13.905 85.119a.728.728 0 00-.868.194c-.273 1.153 2.443.582.868-.194zm12.125-128.497c-.799-.537-.4.491 0 .753.833.525.434-.491 0-.753zm.832 20.547c-1.278-.719.263 1.335.537.696a1.276 1.276 0 00-.537-.696v0zm-2.1 82.962c-.834-.354-1.016.536-.274.833.742.297 1.016-.536.274-.833zm-56.4 100.908c-.925-.194-1.667.628-.434.868.925.182 1.666-.639.434-.868zm-10.662 26.654c-1.085-.16-1.518.742-.251.89 1.084.149 1.506-.742.251-.89zm41.422-77.657c-.753-.251-1.564.514-.525.822.776.251 1.552-.502.525-.822zm-16.07 25.219c-.81-.229-1.667.547-.525.833.868.228 1.667-.548.525-.833zm45.829-101.138c-.89-.411-.559.651 0 .879.902.388.559-.65 0-.879zm-15.581-573.107c-.65 0-.696 1.838 0 1.747.697-.091.754-1.849 0-1.747zm1.567 54.221c-.674 0-.628 1.884.057 1.838.685-.045.628-1.883-.057-1.838zm1.79 56.15c-.708 0-.571 1.884.057 1.872.628-.011.571-1.895-.057-1.872zm8.241 315.611c-.787-.491-.342 1.142 0 1.381.788.537.343-1.153 0-1.381zm-6.37-258.663c-.719-.08-.502 1.86.068 1.883.571.023.503-1.86-.068-1.883zm-6.439-218.548c-.628.08-.776 1.781 0 1.632.662-.08.81-1.781 0-1.632zm9.98 330.54c-.753-.194-.4 1.712.057 1.78.753.194.411-1.712-.057-1.78zm2.418 102.153c-.776-.366-.342 1.404 0 1.552.776.32.343-1.461 0-1.552zm-1.018-49.324c-1.141-.228.274 3.116.491 1.142a1.457 1.457 0 00-.119-.625 1.459 1.459 0 00-.372-.517v0zm-12.11-430.491c-.594.126-.856 1.701 0 1.484.571-.125.867-1.712 0-1.484zm9.019 322.358c-.742-.137-.445 1.803.069 1.849.742.137.456-1.803-.069-1.849zm-66.662 530.471c-1.21-.137-1.141.971 0 .936 1.142-.034 1.142-.97 0-.936zm20.681-876c-.411.16-1.141.936-.502 1.221.902.331 1.986-1.723.502-1.221zm6.542 731.281c-.696-.331-1.255.571-.479.913.776.343 1.256-.57.479-.913zm17.67-56.502c-1.415-.651.16 1.883.537.844a1.153 1.153 0 00-.537-.844zm.662-61.572c-1.29-.971.171 1.518.514.844a1.527 1.527 0 00-.514-.844zm-.377 25.169c-1.358-.754.194 1.94.525.901a1.341 1.341 0 00-.525-.901v0zm-5.751 65.042c-1.541-.548-.239 1.826.423.765a.723.723 0 00-.423-.765v0zm-62.337 111.126a.838.838 0 00-.822.399c-.32 1.244 2.169.057.822-.399zm-12.249 29.108a.75.75 0 00-.731.468c-.103 1.312 2.146-.149.731-.468zm81.228-253.399c-.833-.777-.445.468 0 .833.822.776.434-.468 0-.833zm-35.1 168.54a.762.762 0 00-.856.263c-.456 1.267 2.192.468.856-.263zm-17.613 27.613a.831.831 0 00-.856.319c-.491 1.256 2.18.274.856-.319zm35.387-608.972c-.845 0-.731 1.735.091 1.678.822-.058.742-1.736-.091-1.678zm2.889 51.764c-.879 0-.64 1.723.091 1.735.731.011.639-1.724-.091-1.735zm-5.551-101.66c-.822.092-.833 1.736.08 1.61.913-.126.844-1.712-.08-1.61zm-2.317-46.905c-.787.137-.936 1.7.069 1.484.799-.149.947-1.724-.069-1.484zm22.921 478.286c-.844-.799-.388.97 0 1.278.834.811.366-.959 0-1.278zm-12.086-277.132c-.902-.137-.536 1.667.103 1.735.89.137.536-1.678-.103-1.735zm-12.673-244.039c-.787.206-1.027 1.655.057 1.336.777-.206 1.028-1.667-.057-1.336zm24.544 481.217c-.845-.765-.32.97 0 1.244.89.754.331-.981 0-1.244zm-8.925-184.922c-1.462-.16.422 3.151.616 1.142a1.325 1.325 0 00-.616-1.142v0zm7.371 144.502c-1.256-.799.296 2.683.536 1.142a2.143 2.143 0 00-.536-1.142zm-2.087-44.997c-.913-.457-.342 1.37.08 1.553.902.468.342-1.37-.08-1.553zm-2.499-48.514c-1.393-.365.388 3.059.593 1.141a1.556 1.556 0 00-.593-1.141v0zm-81.004 489.118c-.719 0-.833 1.142 0 1.039.834-.103.799-1.084 0-1.039zm20.948-858.514c-.822.17-.959 1.38.068 1.05.822-.171.971-1.381-.068-1.05zm34.028 640.877c-.891-.388-.662.834-.08 1.062.902.388.616-.833.08-1.062zm-6.075 31.87c-.776-.32-1.039.776-.32 1.038.719.263 1.039-.765.32-1.038zm7.308-71c-1.427-.605.16 2.1.525.902a1.138 1.138 0 00-.525-.902v0zm1.325-28.64c-.89-.593-.559.548 0 .856.834.594.502-.536 0-.856zm1.402-26.574c-.878-.696-.513.605 0 .947.879.697.503-.604 0-.947zm-55.933 219.12c-.525-.126-1.404.856-.57 1.027.57.126 1.404-.81.57-1.027zm-28.535 63.729c-.537 0-1.142 1.142-.32 1.142.537-.046 1.164-1.165.32-1.142zm62.083-125.484c-.673-.251-1.29.754-.491 1.016.8.263 1.279-.684.491-1.016zm-49.698 93.17a1.035 1.035 0 00-.811.536c-.308 1.37 2.123-.274.811-.536zm73.67-284.917c-.913-.731-.468 1.073-.057 1.358.902.73.468-1.05.057-1.358zm-40.11 222.578a.857.857 0 00-.856.4c-.434 1.358 2.168.16.856-.4zm9.678-618.823c-.879.057-.73 1.541.126 1.472.856-.068.73-1.541-.126-1.472zm-3.526-42.75c-.867.114-.822 1.496.114 1.359.936-.137.822-1.53-.114-1.359zm7.384 88.273c-.913 0-.65 1.552.126 1.541.776-.011.651-1.552-.126-1.541zm26.128 311.457c-.89-.754-.308.833.08 1.141.891.765.308-.856-.08-1.141zm-36.594-438.709c-.856.159-.913 1.427.092 1.221 1.004-.205.913-1.427-.092-1.221zm14.519 174.531c-.925-.091-.559 1.541.137 1.575.925.103.559-1.541-.137-1.575zm12.237 142.323c-.971-.366-.366 1.347.125 1.495.959.377.354-1.347-.125-1.495zm7.021 85.188c-.936-.616-.308 1.05.103 1.279.924.616.297-1.051-.103-1.279zm-10.995-131.704c-.959-.263-.411 1.438.137 1.564.959.262.411-1.438-.137-1.564zm7.673 90.747c-1.381-.628.422 2.659.616 1.141a1.766 1.766 0 00-.616-1.141v0zm-11.794-138.495c-.948-.171-.48 1.507.137 1.587.947.148.49-1.53-.137-1.587zm-73.807 606.233c-.616.08-.902 1.278-.057 1.141.616-.102.902-1.244.057-1.141zM456.5 107.84c-.868.114-.834 1.142.114.959.947-.183.833-1.187-.114-.959zm35.863 650.807a.594.594 0 10-.258 1.16.594.594 0 00.258-1.16v0zm6.371-35.339c-1.541-.309.114 2.225.536.833a.877.877 0 00-.536-.833zm-18.572 70.019c-.651-.183-1.301.936-.48 1.141.822.206 1.313-.902.48-1.141zm24.417-174.877c-.936-.582-.594.776-.068 1.073.981.537.639-.765.068-1.073zm-2.02 30.433c-1.484-.651.137 1.917.537.856a1.141 1.141 0 00-.537-.856v0zm-1.963 32.338c-1.507-.422.16 2.283.548.902a1.03 1.03 0 00-.548-.902v0zm-36.15 146.486a.934.934 0 00-.845.525c-.399 1.473 2.169-.114.845-.525zm-44.853 105.121a1.147 1.147 0 00-.707.753c-.092 1.45 2.02-.753.707-.753zm12.241-35.74c-.468 0-1.335 1.141-.479 1.141.468.046 1.312-1.141.479-1.141zm15.729-34.918a1.15 1.15 0 00-.845.593c-.353 1.45 2.135-.331.845-.593zm58.545-320.392c-.958-.685-.331.742.115 1.027.947.685.319-.742-.115-1.027zm-27.785-242.477c-1.621 0 .605 2.659.731.867a1.055 1.055 0 00-.731-.867v0zm-4.928-43.446c-1.656.172.616 2.569.742.777a.916.916 0 00-.742-.777v0zm-13.333-116.738c-.901.114-.799 1.255.126 1.141.924-.114.799-1.278-.126-1.141zm23.365 204.314c-.981-.194-.456 1.358.172 1.45.981.194.433-1.37-.172-1.45zm-14.815-129.364c-.925 0-.651 1.37.16 1.336.81-.035.65-1.37-.16-1.336zm19.848 173.254c-1.004-.274-.411 1.301.16 1.427.993.274.4-1.301-.16-1.427zm13.837 120.874c-1.416-.765.445 2.283.639 1.028a1.828 1.828 0 00-.639-1.028v0zm-38.161-333.317a.634.634 0 00-.58.441.631.631 0 00.226.692.631.631 0 00.491.112.643.643 0 00.454-.216.634.634 0 00.15-.481.62.62 0 00-.484-.543.636.636 0 00-.257-.005v0zm42.658 405.904c-.971-.628-.56 1.142-.08 1.45.97.628.548-1.176.08-1.45zm-8.801-110.142c-.994-.456-.332 1.142.148 1.302.993.468.331-1.108-.148-1.302zm-4.648-40.603c-.993-.365-.365 1.221.16 1.381.993.365.365-1.221-.16-1.381zm-80.153 539.775c-.411.137-.822.856-.468 1.21.708.457 1.518-1.438.468-1.21zm4.349-855.613c-.901 0-.73 1.05.137.89.868-.16.731-1.05-.137-.89zm52.565 516.889c-.959-.366-.742.89-.08 1.141.947.32.731-.925.08-1.141zm-10.81 119.742c-.765-.16-1.142 1.141-.309 1.267.834.126 1.142-1.107.309-1.267zm-11.723 38.171c-.651-.126-1.336 1.141-.457 1.256.651.102 1.336-1.142.457-1.256zm18.071-76.937c-.891-.205-.834 1.142-.103 1.29.731.149.833-1.153.103-1.29zm2.189-44.986c-1.621-.228.16 2.455.582.879a.955.955 0 00-.157-.528.959.959 0 00-.425-.351zm-51.287 197.729c-.491 0-1.416 1.244-.526 1.255.48.035 1.404-1.233.526-1.255zm-26.742 77.518a1.299 1.299 0 00-.708.856c-.08 1.552 2.009-.982.708-.856zm42.792-115.474c-.548-.079-1.416 1.142-.525 1.256.593.08 1.415-1.164.525-1.256zm39.886-229.998c-.982-.445-.708.936-.08 1.142.981.502.696-.879.08-1.142zm-70.923 306.295c-.457 0-1.336 1.347-.457 1.279.457.023 1.336-1.279.457-1.279zm67.964-417.464c-1.027-.479-.377.868.16 1.142 1.027.434.377-.925-.16-1.142zm-32.496-234.085c-.981-.057-.559 1.29.183 1.313.982.069.559-1.29-.183-1.313zm5.567 40.284c-1.655 0 .639 2.465.753.81a1.042 1.042 0 00-.753-.81v0zm5.641 40.933c-1.633-.114.627 2.5.742.868a1.146 1.146 0 00-.742-.868v0zm26.666 223.127c-1.016-.502-.65 1.302-.08 1.541 1.062.503.697-1.347.08-1.541zm-48.375-379.524c-.936 0-.662 1.21.171 1.142.833-.069.662-1.187-.171-1.142zm5.112 36.403c-.959 0-.605 1.267.171 1.256.971.011.617-1.267-.171-1.256zm42.394 304.047c-1.028-.56-.389.696.137.947 1.015.571.376-.696-.137-.947zm-20.181-143.37c-1.039-.239-.434 1.21.183 1.336 1.027.274.422-1.187-.183-1.336zM421.799 143.26c-1.769.399.662 1.826.765.468-.034-.286-.388-.491-.765-.468zm37.532 269.883c-1.039-.319-.388 1.142.182 1.29 1.039.32.4-1.13-.182-1.29zm5.298 37.68c-1.552-.502.56 2.283.719.936a1.442 1.442 0 00-.719-.936v0zM383.42 982.586c-.4.194-.81.97-.468 1.335.708.457 1.507-1.609.468-1.335zm-3.868-865.203c-1.336.16-.103 1.29.605.696.456-.377-.217-.753-.605-.696zm50.921 587.375c-.902-.126-.936 1.301-.103 1.392.833.092.936-1.312.103-1.392zm-5.983 41.859c-.776-.103-1.21 1.278-.297 1.37.913.091 1.199-1.29.297-1.37zm8.175-89.425c-.936-.16-.867 1.301-.068 1.415.799.114.856-1.301.068-1.415zm2.284-39.311c-.97-.24-.856 1.062-.08 1.233.947.228.822-1.073.08-1.233zm-21.393 169.978c-.662-.08-1.358 1.29-.422 1.358.662.114 1.37-1.244.422-1.358zm-53.66 165.893a1.367 1.367 0 00-.696.925c-.046 1.666 2.02-1.073.696-.925zm77.335-373.565c-1.005-.308-.822 1.142-.08 1.29 1.05.308.856-1.096.08-1.29zm-66.377 331.364a1.36 1.36 0 00-.776.856c-.194 1.655 2.089-.89.776-.856zm28.801-82.598c-.559 0-1.427 1.324-.48 1.358.56.023 1.427-1.358.48-1.358zm-14.93 41.094a1.296 1.296 0 00-.834.799c-.239 1.678 2.249-.708.834-.799zm53.888-373.05c-1.141-.399-.491.696.149.902 1.084.399.479-.696-.149-.902zm-38.562-249.839c-1.701.114.685 2.283.788.685a.89.89 0 00-.788-.685v0zm-5.591-36.504c-.982 0-.594 1.142.182 1.142.971.057.594-1.142-.182-1.142zm-10.354-65.671c-.948 0-.662 1.027.159.97.822-.057.663-1.027-.159-.97zm5 31.345c-.959 0-.628 1.142.172 1.142.799 0 .627-1.164-.172-1.142zm16.714 108.704c-1.016-.091-.537 1.221.194 1.267 1.015.091.536-1.221-.194-1.267zm22.815 149.513c-1.689-.343.617 2.134.776.821a1.269 1.269 0 00-.776-.821v0zm11.063 101.81c-1.758-.343.172 3.036.64 1.141a1.233 1.233 0 00-.64-1.141v0zm-5.891-68.901c-1.084-.342-.468.845.171 1.028 1.096.353.48-.845-.171-1.028zM411.651 323.5c-1.701 0 .673 2.34.787.788a1.14 1.14 0 00-.787-.788v0zm5.808 38.275c-1.062-.183-.491 1.142.194 1.256 1.05.194.491-1.153-.194-1.256zm5.697 37.282c-1.073-.24-.479 1.073.183 1.141 1.073.308.479-1.016-.183-1.141zM353.904 996.98c-.514.16-.993 1.701-.103 1.45.491-.16.959-1.678.103-1.45zm-11.221-878.604c-.902 0-.616.902.137.834.754-.069.617-.913-.137-.834zm44.697 627.612a.93.93 0 00-.833.754c.023 1.86 2.58-.457.833-.754zm7.137-93.853c-.959-.068-.993 1.461-.057 1.495.936.035.993-1.461.057-1.495zm1.907-42.017c-.993-.114-.993 1.244-.057 1.324.936.08.982-1.244.057-1.324zm1.998-40.559c-1.038-.16-.981 1.279-.068 1.393.913.114.97-1.279.068-1.393zm-5.709 132.093c-.913 0-1.039 1.461-.08 1.473.959.011.993-1.45.08-1.473zm-63.319 264.05c-.502.069-1.141 1.678-.262 1.496.502-.126 1.164-1.678.262-1.496zm9.807-44.643a1.355 1.355 0 00-.776.902c-.149 1.735 2.191-.947.776-.902zm25.9-87.666c-.605 0-1.438 1.472-.433 1.438.65.012 1.438-1.461.433-1.438zm-13.389 43.662a1.308 1.308 0 00-.844.856c-.206 1.769 2.305-.811.844-.856zm48.774-353.61c-1.073-.194-.97 1.552-.069 1.678.902.125.959-1.553.069-1.678zm-22.895 266.366a1.136 1.136 0 00-.868.776c-.125 1.838 2.523-.56.868-.776zm-9.706-509.846c-1.769.137.685 2.203.799.673a.892.892 0 00-.799-.673v0zm-10.856-71.285c-1.735.217.673 2.032.776.582a.807.807 0 00-.776-.582v0zm5.354 35.008c-1.746.182.685 2.134.788.639a.867.867 0 00-.788-.639v0zm-15.329-98.396c-1.689.251.639 1.701.753.479a.732.732 0 00-.753-.479zm4.85 30.341c-.959 0-.639 1.142.16 1.05.799-.091.696-1.073-.16-1.05zm27.11 177.775c-1.815 0 .685 2.192.81.708a.959.959 0 00-.81-.708v0zm10.674 69.814c-1.142-.16-.617 1.005.171 1.142 1.119.114.571-1.051-.171-1.142zm4.977 31.756c-1.142-.183-.628.89.16 1.004 1.13.183.627-.89-.16-1.004zm-21.208-138.201c-1.05-.08-.605 1.142.183 1.21 1.05.08.593-1.176-.183-1.21zm10.978 72.348c-1.837 0 .674 2.135.822.719a1.006 1.006 0 00-.306-.479 1.006 1.006 0 00-.516-.24zm14.853 94.538c-1.906-.194.628 1.678.822.627-.034-.251-.411-.525-.822-.627zm-75.225 527.617c-.446.22-.8 1.07-.457 1.49.753.52 1.507-1.74.457-1.49zm-16.962-893.132c-1.564.172.502 1.541.696.434-.046-.285-.422-.434-.696-.434zm40.351 630.809c-.845 0-1.335 1.563-.228 1.506.845-.011 1.335-1.563.228-1.506zm4.261-45.912c-.947 0-1.141 1.598-.068 1.53 1.073-.069 1.118-1.598.068-1.53zm1.139-50.578c-.982 0-1.141 1.61 0 1.541 1.141-.068 1.05-1.609 0-1.541zm2.501-86.342a.72.72 0 00-.574.177.73.73 0 00.574 1.273.739.739 0 00.757-.425.723.723 0 00-.183-.848.72.72 0 00-.574-.177zm-1.289 42.52c-1.016 0-1.142 1.426 0 1.392 1.141-.034 1.095-1.392 0-1.392zm-56.265 368.13c-.571.068-1.142 1.689-.217 1.541.559-.069 1.142-1.701.217-1.541zm8.322-46.23c-.582 0-1.302 1.632-.32 1.507.571 0 1.301-1.599.32-1.507zm10.741-45.592c-.605 0-1.393 1.598-.377 1.507.605-.023 1.404-1.575.377-1.507zm11.551-45.293a1.265 1.265 0 00-.891.868c-.102 1.849 2.569-.799.891-.868zm10.731-45.25a1.15 1.15 0 00-.571.297 1.152 1.152 0 00-.319.559c-.023 1.861 2.683-.742.89-.856zm-.98-444.689c-1.073 0-.765 1.142.16 1.142.924 0 .741-1.165-.16-1.142zm-23.231-174.305c-.925 0-.674 1.073.148 1.038.822-.034.674-1.084-.148-1.038zm4.384 32.566c-.947 0-.685 1.142.149 1.142.833 0 .684-1.142-.149-1.142zm9.312 69.917c-1.016 0-.719 1.222.16 1.142.879-.08.719-1.176-.16-1.142zm-4.725-35.511c-.981 0-.708 1.141.16 1.141s.696-1.187-.16-1.141zm-13.069-97.187c-.902 0-.662.982.137.948.799-.035.696-.948-.137-.948zm45.863 373.393c-1.084 0-1.141 1.723 0 1.723 1.142 0 1.107-1.723 0-1.723zm-13.869-133.85c-2.009.239.696 2.031.867.582a.862.862 0 00-.867-.582zm-9.472-70.853c-1.039 0-.742 1.221.16 1.141.902-.079.787-1.164-.16-1.141zm18.262 135.836c-2.112.228.696 1.792.89.525-.08-.274-.479-.514-.89-.525zm-4.29-31.438c-2.055.228.696 1.929.879.559-.012-.296-.434-.548-.879-.559zm8.162 60.123c-1.142 0-.891.913.125.891 1.016-.023.902-.902-.125-.891zm-61.982 545.408c-.605.14-.947 1.71-.057 1.56.594-.16.948-1.72.057-1.56zM272.97 117.679c-.81 0-.639.936.091.879.731-.057.64-.924-.091-.879zM309.546 658.3c-.879.091-1.141 1.712 0 1.553.856-.092 1.084-1.713 0-1.553zm-3.584 96.889a1.066 1.066 0 00-.821.891c.171 1.895 2.682-.833.821-.891zm4.565-184.761c-.902.103-1.142 1.621 0 1.473.879-.092 1.141-1.621 0-1.473zm-.524 43.342c-.89.103-1.141 1.587 0 1.427.868-.103 1.085-1.575 0-1.427zm-10.791 187.375a1.136 1.136 0 00-.857.89c.035 1.872 2.614-.822.857-.89zm-27.498 137.722a1.143 1.143 0 00-.765.891c-.011 1.894 2.306-.822.765-.891zm18.572-91.937c-.685 0-1.369 1.586-.319 1.506.685-.022 1.37-1.598.319-1.506zm-25.365 138.556c-.639 0-1.141 1.655-.171 1.552.639-.034 1.084-1.7.171-1.552zm46.188-462.864c-.913.091-1.142 1.861 0 1.712.89-.091 1.107-1.86 0-1.712zM280.643 892.75a1.232 1.232 0 00-.822.89c-.046 1.872 2.42-.764.822-.89zm28.493-183.928c-.868.08-1.142 1.678 0 1.541.844-.125 1.073-1.689 0-1.541zm-23.393-464.62a.586.586 0 00-.501.154.586.586 0 00-.097.746.595.595 0 00.712.242.597.597 0 00.686-.645.592.592 0 00-.533-.532.593.593 0 00-.267.035v0zm-3.539-34.586a.573.573 0 10.114 1.14.573.573 0 00-.114-1.14v0zm-3.355-32.992c-.845 0-.697 1.142.114 1.051.81-.092.742-1.119-.114-1.051zm10.55 103.158a.602.602 0 00-.534.136.604.604 0 00.649 1.005.602.602 0 00.736-.65.616.616 0 00-.299-.463.61.61 0 00-.552-.028v0zm20.614 202.363c-.422.068-.753.342-.731.605.434 1.118 2.774-.708.731-.605zm-16.918-166.348a.608.608 0 00-.632.925.607.607 0 00.757.217.614.614 0 00.693-.377.61.61 0 00-.061-.548.603.603 0 00-.757-.217v0zm10.742 104.857c-.959.114-.879 1.233.114 1.141.993-.091.868-1.267-.114-1.141zm-28.08-274.871c-.834 0-.685 1.027.091.981.776-.045.685-1.027-.091-.981zm31.344 306.845c-.97.125-.913 1.141.103 1.016 1.016-.126.879-1.165-.103-1.016zm-10.272-100.956a.593.593 0 10.125 1.142.592.592 0 00.588-.906.594.594 0 00-.713-.236v0zm3.562 35.137c-.948.103-.845 1.267.114 1.141.959-.125.89-1.255-.114-1.141zm-38.664 646.051c-.685.12-.902 1.65 0 1.58.662-.12.856-1.65 0-1.58zm-21.243-914.905a.475.475 0 00-.49.707.461.461 0 00.141.157.468.468 0 00.406.072.485.485 0 00.395-.12.488.488 0 00.155-.383.476.476 0 00-.395-.443.474.474 0 00-.212.01v0zm26.859 598.902c-.913.114-1.141 1.689 0 1.518.948-.148 1.142-1.689 0-1.518zm.585-136.682a1.145 1.145 0 00-.799.948c.388 1.769 2.819-1.119.799-.948zm-.254 43.128c-.21.051-.398.167-.54.33a1.042 1.042 0 00-.247.583c.376 1.712 2.819-1.062.787-.913zm-8.596 184.736a1.14 1.14 0 00-.89.868c.102 1.86 2.819-.777.89-.868zm8.402-140.583c-.891.137-1.142 1.735 0 1.529.901-.125 1.153-1.735 0-1.529zm-2.694 95.177a1.05 1.05 0 00-.856.89c.205 1.861 2.842-.856.856-.89zm-34.87 227.496c-.833 0-1.141 1.553-.137 1.53 1.005-.023 1.119-1.553.137-1.53zm21.56-136.828c-.212.04-.408.14-.565.288a1.131 1.131 0 00-.325.545c.046 1.872 2.762-.708.89-.833zm-15.829 90.84c-.811 0-1.267 1.53-.228 1.507.799.011 1.255-1.541.228-1.507zm7.6-45.559c-.788 0-1.347 1.53-.274 1.495.799.012 1.347-1.495.274-1.495zm3.822-684.983c-.788.092-.776 1.268.08 1.142.856-.126.765-1.267-.08-1.142zm5.298 71.525c-.821.125-.833 1.37.092 1.21.924-.16.822-1.37-.092-1.21zm2.741 36.584a.767.767 0 00-.451.258.772.772 0 00-.188.484c.434 1.495 2.408-.799.639-.742zm13.113 211.439a1.142 1.142 0 00-.787 1.073c.388 2.021 2.808-1.244.787-1.073zM244.626 179.65a.556.556 0 00-.215.059.579.579 0 00-.316.552.57.57 0 00.611.53.573.573 0 00.531-.61.57.57 0 00-.611-.531v0zm-2.211-32.04a.507.507 0 00-.398.149.51.51 0 00.249.864.529.529 0 00.217.003.507.507 0 00.398-.15.526.526 0 00.149-.397.515.515 0 00-.615-.469v0zm7.248 101.306c-.799.114-.799 1.336.091 1.142.89-.194.799-1.279-.091-1.142zm8.172 109.242c-.856.148-.89 1.392.091 1.141.982-.251.891-1.324-.091-1.141zm9.588 134.444c-.434.125-.765.456-.742.73.468 1.165 2.751-1.118.742-.73zm-2.079-30.9c-.422.114-.742.445-.73.742.445 1.232 2.716-.994.73-.742zm-2.327-33.034c-.41.103-.73.434-.707.742.445 1.358 2.648-.936.707-.742zm-2.523-34.69c-.867.16-.936 1.382.08 1.142s.936-1.347-.08-1.142zm-33.16 642.792c-.902 0-.947 1.57 0 1.55.948-.01.925-1.55 0-1.55zM203.66 119.014c-1.461.057-.297 1.506.57.867.537-.377-.091-.936-.57-.867zm14.94 694.425a.973.973 0 00-.799.811c.114 1.815 2.545-.651.799-.811zm6.77-88.191c-.867.102-1.141 1.632 0 1.472.845-.114 1.062-1.643 0-1.472zm-2.044 44.254c-.822.057-1.141 1.553-.114 1.45.822-.057 1.187-1.564.114-1.45zm1.997-134.479c-.833.16-1.141 1.633 0 1.37.845-.16 1.13-1.632 0-1.37zm.004 42.865c-.845.137-1.141 1.689 0 1.472.845-.137 1.107-1.689 0-1.472zm.055-84.846c-.834.183-1.142 1.701 0 1.415.822-.182 1.153-1.712 0-1.415zm-31.128 396.539c-.799-.08-.902 1.427-.125 1.484.776.057.901-1.427.125-1.484zm17.988-132.331c-.764 0-1.198 1.461-.217 1.45.765.011 1.21-1.461.217-1.45zm-6.895 43.844c-.753 0-1.141 1.427-.217 1.449.925.023 1.142-1.438.217-1.449zm-6.355 44.051c-.765-.069-1.038 1.415-.182 1.461.856.046.993-1.415.182-1.461zm22.384-504.801c-.891.206-1.05 1.45.068 1.142.891-.183 1.05-1.416-.068-1.142zm-14.508-256.206c-.97 0-.936 1.21.057 1.142.993-.069.936-1.267-.057-1.142zm6.097 108.726c-.937.125-.982 1.404.068 1.244 1.05-.16.982-1.404-.068-1.244zm2.168 37.474a.844.844 0 00-.731.765c.446 1.529 2.728-.845.731-.765zm10.339 217.376c-.811.194-1.142 1.917 0 1.598.81-.194 1.187-1.929 0-1.598zm-16.699-328.385c-.959.091-.947 1.301.068 1.142 1.016-.16.948-1.245-.068-1.142zm2.055 36.391c-.948.114-.97 1.358.068 1.221 1.039-.137.959-1.358-.068-1.221zm12.375 219.064c-.879.228-1.085 1.427.057 1.141.879-.274 1.073-1.472-.057-1.141zm1.597 32.588c-.856.263-1.142 1.416 0 1.039.913-.217 1.164-1.358 0-1.039zm-7.499-139.682c-.924.159-1.016 1.449.069 1.232 1.084-.217 1.016-1.449-.069-1.232zm2.086 36.812a.905.905 0 00-.731.81c.445 1.45 2.751-.993.731-.81zm-14.243-253.958c-.981 0-.913 1.141 0 1.084.914-.057.971-1.118 0-1.084zm-12.943 884.046c-.845 0-.731 1.39 0 1.5.73.1.753-1.41 0-1.5zm-28.194-918.781c-1.746 0 .411 2.02.719.627-.011-.331-.388-.593-.719-.627zm21.219 572.226c-.822.126-1.016 1.598 0 1.404.879-.125 1.039-1.609 0-1.404zm.558 44.736c-.833.091-.993 1.541 0 1.404s.993-1.541 0-1.404zm-1.083-85.726c-.811.172-1.051 1.576 0 1.324.833-.159 1.084-1.575 0-1.324zm-.468-40.25c-.81.183-1.141 1.644 0 1.359.811-.194 1.108-1.655 0-1.359zm.375 168.118c-.799 0-1.051 1.461-.08 1.393.799-.046 1.05-1.473.08-1.393zm-18.195 167.445c-.753-.114-.856 1.313-.137 1.393.72.08.857-1.324.137-1.393zm-3.436 42.303c-.765-.137-.719 1.313-.08 1.405.639.091.73-1.325.08-1.405zm18.208-167.854c-.776 0-1.062 1.404-.137 1.37.924-.034 1.073-1.404.137-1.37zm-9.989 83.567c-.753-.08-.97 1.336-.171 1.382.799.045.97-1.325.171-1.382zm5.216-41.743c-.753 0-1.038 1.358-.171 1.381.868.023 1.039-1.381.171-1.381zm7.408-294.869a1.143 1.143 0 00-.742 1.039c.377 1.769 2.637-1.393.742-1.039zm-13.375-303.42a.65.65 0 00-.493.182.645.645 0 00-.119.749.65.65 0 00.412.327.638.638 0 00.268.009.652.652 0 00.493-.182.631.631 0 00.119-.749.65.65 0 00-.412-.327.638.638 0 00-.268-.009v0zm-1.83-37.977a.625.625 0 00-.656.363.626.626 0 00.656.881.632.632 0 00.656-.881.621.621 0 00-.391-.342.626.626 0 00-.265-.021v0zm3.721 76.595c-.891.08-.913 1.392.068 1.278.982-.114.914-1.404-.068-1.278zm10.573 224.679c-.822.251-1.141 1.495 0 1.141.913-.274 1.142-1.518 0-1.141zm-15.995-338.268a.605.605 0 100 1.21.605.605 0 000-1.21zm-1.55-35.605c-.959 0-.811 1.141 0 1.141.81 0 .856-1.141 0-1.141zm8.902 188.062c-.89.114-.936 1.439.069 1.29 1.004-.148.936-1.438-.069-1.29zm7.191 150.962a.982.982 0 00-.719.844c.434 1.439 2.66-1.141.719-.844zm-1.632-36.312a.941.941 0 00-.72.822c.434 1.473 2.649-1.039.72-.822zm-1.711-37.52a.868.868 0 00-.708.799c.366 1.529 2.569-.948.708-.799zm-1.929-38.343c-.879.137-.959 1.462.068 1.279 1.027-.183.959-1.461-.068-1.279zm-14.394 650.805c-.81-.11-.57 1.29 0 1.43.822.13.582-1.28 0-1.43zm-34.369-917.15c-.902-.125-.708 1.142 0 1.142s.742-1.084 0-1.142zm20.635 668.114c-.799 0-.924 1.358 0 1.313.925-.046.891-1.359 0-1.313zm.218-39.86c-.822.069-.89 1.427 0 1.324.891-.103.913-1.415 0-1.324zm-2.316-80.795a.872.872 0 00-.674.799c.377 1.484 2.454-.97.674-.799zm1.142 38.868c-.811.115-.925 1.484 0 1.336.924-.148.958-1.484 0-1.336zm-1.053 121.43c-.776 0-.936 1.302-.092 1.313.845.011.936-1.313.092-1.313zm-1.211-198.696a.933.933 0 00-.685.856c.4 1.552 2.5-1.05.685-.856zm-1.882 238.249c-.765-.057-.891 1.267-.114 1.313.776.045.901-1.267.114-1.313zm-8.561 119.286c-.764-.171-.605 1.221 0 1.324.719.183.56-1.221 0-1.324zm2.022-39.973c-.754-.137-.731 1.221-.091 1.312.639.092.696-1.221.091-1.312zm3.093-39.725c-.753-.103-.821 1.233-.114 1.312.708.08.822-1.244.114-1.312zm-9.739-712.633c-.879 0-.776 1.267 0 1.267s.822-1.267 0-1.267zm1.381 38.903a.648.648 0 000 1.289.65.65 0 000-1.289zm1.474 39.69c-.856 0-.821 1.381 0 1.312.822-.068.879-1.381 0-1.312zm1.529 40.193c-.845 0-.845 1.415.057 1.324.902-.091.856-1.415-.057-1.324zm-5.638-156.602c-.891-.057-.742 1.141 0 1.233.742.091.787-1.199 0-1.233zm7.201 197.011c-.845.068-.879 1.449 0 1.324.879-.126.924-1.438 0-1.324zm8.037 235.031c-.776.183-1.038 1.701 0 1.404.811-.183 1.085-1.701 0-1.404zm-3.55-115.405c-.81.137-.97 1.495 0 1.278.856-.148 1.016-1.495 0-1.278zm2.524 75.533a1.011 1.011 0 00-.697.856c.377 1.427 2.523-1.187.697-.856zm-1.145-37.156a.964.964 0 00-.481.313.963.963 0 00-.215.532c.354 1.495 2.477-1.073.696-.845zm-4.323-117.675c-.822.103-.901 1.473.057 1.325.959-.149.914-1.473-.057-1.325zm1.518 39.974c-.833.115-.948 1.484 0 1.313.867-.125.982-1.495 0-1.313zm-4.612 593.188c-.788-.17-.468 1.2 0 1.34.822.18.502-1.19 0-1.34zM93.94 105.887c-.799 0-.696 1.221 0 1.244.697.023.72-1.21 0-1.244zm18.572 635.73a.628.628 0 10.17 1.245.628.628 0 00-.17-1.245v0zm.629 37.783a.63.63 0 000 1.245.627.627 0 00.388-1.035.627.627 0 00-.388-.21zm-5.539-150.87c-.788.114-.868 1.37.057 1.233s.822-1.382-.057-1.233zm3.257 73.717c-.811.057-.811 1.347.057 1.256.867-.092.81-1.325-.057-1.256zm-1.645-37.064c-.799.08-.834 1.324 0 1.21.833-.114.902-1.336 0-1.21zm1.654 189.408c-.788-.092-.788 1.141-.057 1.244.73.103.776-1.187.057-1.244zm-4.851-264.381c-.776.126-.902 1.495 0 1.313.822-.126.959-1.507 0-1.313zm.752 377.524c-.765-.171-.536 1.142 0 1.256.765.182.571-1.153 0-1.256zm.743-37.874c-.765-.149-.639 1.141 0 1.244.73.16.605-1.153 0-1.244zm4.897-112.825c-.799-.057-.822 1.199 0 1.233.822.034.764-1.21 0-1.233zm-3.356 75.132c-.776-.114-.719 1.142 0 1.245.719.102.662-1.165 0-1.245zM96.589 224.398c-.765 0-.754 1.392 0 1.347.753-.046.799-1.393 0-1.347zm-.984-40.386c-.777 0-.742 1.347 0 1.324.742-.023.764-1.324 0-1.324zm2.044 81.365c-.777 0-.777 1.415 0 1.358.776-.057.81-1.415 0-1.358zm-2.935-120.941c-.788 0-.72 1.29 0 1.29.719 0 .742-1.302 0-1.29zm10.151 406.268a.865.865 0 00-.65.799c.365 1.552 2.386-.925.65-.799zm-6.106-243.971c-.776 0-.8 1.45 0 1.37.799-.08.833-1.439 0-1.37zm4.335 164.932c-.776.091-.89 1.461 0 1.324.891-.137.914-1.506 0-1.324zm.939 39.954c-.765.102-.913 1.472 0 1.301.799-.103.947-1.461 0-1.301zm-1.963-80.705c-.777.069-.857 1.462 0 1.347.856-.114.89-1.472 0-1.347zm-2.193-82.665c-.776 0-.822 1.462 0 1.382.822-.08.856-1.461 0-1.382zm1.106 41.471c-.777.069-.834 1.461 0 1.37.833-.091.879-1.472 0-1.37zm6.36 616.16c-.947-.21-.285 1.69.388 1.24.366-.34.046-1.05-.388-1.24zM63.612 106.106c-.65.08-.73 1.347 0 1.301.73-.045.73-1.335 0-1.301zm15.671 671.366c-.845-.069-.72 1.141 0 1.198.719.057.742-1.164 0-1.198zm-6.392-145.198c-.799 0-.708 1.221.057 1.141.765-.08.72-1.164-.057-1.141zM78.2 741.125c-.855 0-.695 1.141 0 1.199.697.057.743-1.176 0-1.199zm-3.55-73.259c-.822 0-.708 1.141.057 1.141s.674-1.164-.057-1.141zm1.757 35.876c-.822 0-.697 1.21.068 1.21.765 0 .697-1.21-.068-1.21zm3.059 109.971c-.834-.103-.72 1.142 0 1.142.719 0 .73-1.085 0-1.142zm-1.05 145.084c-.8-.16-.571 1.141 0 1.141.822.286.582-1.05 0-1.141zm-.184-36.402c-.799-.149-.627 1.141 0 1.141.788.16.571-1.061 0-1.141zm.353-36.289c-.81-.125-.673 1.142 0 1.199.674.057.662-1.107 0-1.199zm.54-36.207c-.822-.103-.719 1.141 0 1.141.72 0 .685-1.061 0-1.141zM64.057 145.806c-.639 0-.73 1.404 0 1.324.73-.08.73-1.404 0-1.324zm2.396 164.191c-.685 0-.742 1.439 0 1.37.742-.068.765-1.449 0-1.37zm-.661-41.515c-.673 0-.73 1.45 0 1.37.73-.08.765-1.507 0-1.37zm1.346 83.19c-.708 0-.754 1.439 0 1.37.753-.068.765-1.438 0-1.37zm-1.975-124.569c-.662 0-.73 1.45 0 1.358.73-.091.754-1.438 0-1.358zm-.595-40.924c-.639 0-.719 1.439 0 1.347.72-.091.754-1.427 0-1.347zm4.502 289.723c-.754 0-.765 1.392 0 1.346.764-.045.787-1.392 0-1.346zm.602 40.66c-.765 0-.777 1.381 0 1.335.776-.045.742-1.381 0-1.335zm-1.87-123.259c-.72 0-.742 1.438 0 1.381.742-.057.73-1.439 0-1.381zm2.304 163.312c-.765 0-.788 1.358 0 1.313.787-.046.81-1.37 0-1.313zm1.051 38.959a.628.628 0 00.057 1.244.626.626 0 00.343-1.054.63.63 0 00-.4-.19v0zm-2.706-160.801c-.73 0-.753 1.404 0 1.359.753-.046.776-1.416 0-1.359zm11.051 560.619c-1.027-.183-.285 1.644.422 1.141.343-.319.023-1.016-.422-1.141zm-43.036-881.01c-.366.194-.651.947-.331 1.278.673.445 1.232-1.53.33-1.278zm8.529 621.778c-.88-.148-.628 1.142 0 1.142.924.194.707-1.05 0-1.142zm.955 35.934c-1.564 0 .342 2.18.616.73a.788.788 0 00-.617-.73v0zm-2.269-72.381c-1.495 0 .366 2.192.605.719a.8.8 0 00-.605-.719v0zm-1.301-35.706c-.845-.149-.583 1.084 0 1.141.89.183.627-1.05 0-1.141zm4.084 143.964c-.88-.137-.697 1.142 0 1.142.696 0 .696-1.05 0-1.142zm1.131 143.587c-.856-.114-.673 1.142 0 1.142.674 0 .697-1.073 0-1.142zm-6.459-323.096c-1.416-.092.342 2.169.57.73a.82.82 0 00-.57-.73v0zm5.955 287.141c-.856-.126-.684 1.141 0 1.141.685 0 .685-1.039 0-1.141zm-.249-35.899c-.857-.137-.697 1.141 0 1.141.696 0 .707-1.061 0-1.141zm-.137-35.912c-.867-.137-.696 1.141 0 1.141.868.217.697-1.016 0-1.141zm-7.603-289.585c-.776-.149-.582 1.21 0 1.29.787.148.593-1.21 0-1.29zm-1.494-240.34c-.582 0-.673 1.415 0 1.335.674-.08.697-1.415 0-1.335zm-.538-80.452c-.513.091-.718 1.495 0 1.324.537-.08.731-1.484 0-1.324zm.265 40.17c-.547.068-.696 1.449 0 1.324.697-.126.72-1.45 0-1.324zm-.493-80.133c-.49.114-.742 1.518 0 1.324.49-.114.742-1.518 0-1.324zm-.206-39.689a1.022 1.022 0 00-.48.879c.274 1.541 1.69-1.096.48-.879zm1.258 200.456c-.617 0-.662 1.369 0 1.324.662-.046.673-1.381 0-1.324zm.799 120.62c-.73-.08-.605 1.279 0 1.324.605.046.617-1.278 0-1.324zm.227 39.838c-.752-.114-.593 1.244 0 1.312.594.069.606-1.255 0-1.312zm.88 77.669c-1.37-.08.342 2.283.57.753a.85.85 0 00-.57-.753v0zm-1.358-157.573c-.696 0-.617 1.302 0 1.325.616.022.64-1.313 0-1.325zm-.262-40.238c-.662 0-.65 1.347 0 1.336.65-.012.673-1.347 0-1.336zm10.373 593.086c-.868-.115-.651 1.141 0 1.141.65 0 .696-1.084 0-1.141z" fill="#fff" stroke="#08102A" stroke-width="4.189" stroke-miterlimit="10"/><circle cx="1253.2" cy="1065.6" r="2.6" fill="#fff"/><circle cx="1248.2" cy="1011.6" r="2.6" fill="#fff"/><circle cx="1285.2" cy="992.6" r="2.6" fill="#fff"/><circle cx="1319.2" cy="969.6" r="2.6" fill="#fff"/><circle cx="1352.2" cy="950.6" r="2.6" fill="#fff"/><circle cx="1382.2" cy="940.6" r="2.6" fill="#fff"/><circle cx="1381.2" cy="905.6" r="2.6" fill="#fff"/><circle cx="1350.2" cy="911.6" r="2.6" fill="#fff"/><circle cx="1317.2" cy="930.6" r="2.6" fill="#fff"/><circle cx="1312.2" cy="881.6" r="2.6" fill="#fff"/><circle cx="1348.2" cy="868.6" r="2.6" fill="#fff"/><circle cx="1270.2" cy="898.6" r="2.6" fill="#fff"/><circle cx="1232.2" cy="910.6" r="2.6" fill="#fff"/><circle cx="1194.2" cy="915.6" r="2.6" fill="#fff"/><circle cx="1156.2" cy="913.6" r="2.6" fill="#fff"/><circle cx="1121.2" cy="907.6" r="2.6" fill="#fff"/><circle cx="1036.2" cy="835.6" r="2.6" fill="#fff"/><circle cx="1076.2" cy="846.6" r="2.6" fill="#fff"/><circle cx="1113.2" cy="857.6" r="2.6" fill="#fff"/><circle cx="1147.2" cy="864.6" r="2.6" fill="#fff"/><circle cx="1186.2" cy="867.6" r="2.6" fill="#fff"/><circle cx="1225.2" cy="866.6" r="2.6" fill="#fff"/><circle cx="1264.2" cy="857.6" r="2.6" fill="#fff"/><circle cx="1309.2" cy="841.6" r="2.6" fill="#fff"/><circle cx="1345.2" cy="829.6" r="2.6" fill="#fff"/><circle cx="1380.2" cy="826.6" r="2.6" fill="#fff"/><circle cx="1420.2" cy="831.6" r="2.6" fill="#fff"/><circle cx="1420.2" cy="786.6" r="2.6" fill="#fff"/><circle cx="1379.2" cy="773.6" r="2.6" fill="#fff"/><circle cx="1342.2" cy="773.6" r="2.6" fill="#fff"/><circle cx="1304.2" cy="785.6" r="2.6" fill="#fff"/><circle cx="1257.2" cy="800.6" r="2.6" fill="#fff"/><circle cx="1217.2" cy="811.6" r="2.6" fill="#fff"/><circle cx="1178.2" cy="817.6" r="2.6" fill="#fff"/><circle cx="1141.2" cy="817.6" r="2.6" fill="#fff"/><circle cx="1107.2" cy="813.6" r="2.6" fill="#fff"/><circle cx="1071.2" cy="806.6" r="2.6" fill="#fff"/><circle cx="1034.2" cy="797.6" r="2.6" fill="#fff"/><circle cx="994.198" cy="788.6" r="2.6" fill="#fff"/><circle cx="996.198" cy="753.6" r="2.6" fill="#fff"/><circle cx="999.198" cy="709.6" r="2.6" fill="#fff"/><circle cx="963.198" cy="673.6" r="2.6" fill="#fff"/><circle cx="1002.2" cy="671.6" r="2.6" fill="#fff"/><circle cx="1039.2" cy="669.6" r="2.6" fill="#fff"/><circle cx="1077.2" cy="666.6" r="2.6" fill="#fff"/><circle cx="1112.2" cy="661.6" r="2.6" fill="#fff"/><circle cx="1145.2" cy="656.6" r="2.6" fill="#fff"/><circle cx="1183.2" cy="651.6" r="2.6" fill="#fff"/><circle cx="1222.2" cy="644.6" r="2.6" fill="#fff"/><circle cx="1260.2" cy="638.6" r="2.6" fill="#fff"/><circle cx="1300.2" cy="639.6" r="2.6" fill="#fff"/><circle cx="1338.2" cy="642.6" r="2.6" fill="#fff"/><circle cx="1377.2" cy="652.6" r="2.6" fill="#fff"/><circle cx="1420.2" cy="670.6" r="2.6" fill="#fff"/><circle cx="1417.2" cy="632.6" r="2.6" fill="#fff"/><circle cx="1376.2" cy="612.6" r="2.6" fill="#fff"/><circle cx="1376.2" cy="574.6" r="2.6" fill="#fff"/><circle cx="1340.2" cy="558.6" r="2.6" fill="#fff"/><circle cx="1339.2" cy="598.6" r="2.6" fill="#fff"/><circle cx="1302.2" cy="587.6" r="2.6" fill="#fff"/><circle cx="1304.2" cy="549.6" r="2.6" fill="#fff"/><circle cx="1267.2" cy="546.6" r="2.6" fill="#fff"/><circle cx="1264.2" cy="582.6" r="2.6" fill="#fff"/><circle cx="1227.2" cy="585.6" r="2.6" fill="#fff"/><circle cx="1189.2" cy="591.6" r="2.6" fill="#fff"/><circle cx="1152.2" cy="598.6" r="2.6" fill="#fff"/><circle cx="1118.2" cy="605.6" r="2.6" fill="#fff"/><circle cx="1082.2" cy="613.6" r="2.6" fill="#fff"/><circle cx="1044.2" cy="622.6" r="2.6" fill="#fff"/><circle cx="1006.2" cy="627.6" r="2.6" fill="#fff"/><circle cx="966.198" cy="631.6" r="2.6" fill="#fff"/><circle cx="969.198" cy="596.6" r="2.6" fill="#fff"/><circle cx="1009.2" cy="585.6" r="2.6" fill="#fff"/><circle cx="1048.2" cy="575.6" r="2.6" fill="#fff"/><circle cx="1086.2" cy="567.6" r="2.6" fill="#fff"/><circle cx="1089.2" cy="528.6" r="2.6" fill="#fff"/><circle cx="1125.2" cy="521.6" r="2.6" fill="#fff"/><circle cx="1122.2" cy="560.6" r="2.6" fill="#fff"/><circle cx="1156.2" cy="556.6" r="2.6" fill="#fff"/><circle cx="1192.2" cy="551.6" r="2.6" fill="#fff"/><circle cx="1230.2" cy="548.6" r="2.6" fill="#fff"/><circle cx="1232.2" cy="512.6" r="2.6" fill="#fff"/><circle cx="1269.2" cy="515.6" r="2.6" fill="#fff"/><circle cx="1306.2" cy="520.6" r="2.6" fill="#fff"/><circle cx="1342.2" cy="529.6" r="2.6" fill="#fff"/><circle cx="1377.2" cy="541.6" r="2.6" fill="#fff"/><circle cx="1414.2" cy="557.6" r="2.6" fill="#fff"/><circle cx="1414.2" cy="522.6" r="2.6" fill="#fff"/><circle cx="1379.2" cy="508.6" r="2.6" fill="#fff"/><circle cx="1343.2" cy="497.6" r="2.6" fill="#fff"/><circle cx="1307.2" cy="487.6" r="2.6" fill="#fff"/><circle cx="1270.2" cy="480.6" r="2.6" fill="#fff"/><circle cx="1233.2" cy="474.6" r="2.6" fill="#fff"/><circle cx="1198.2" cy="472.6" r="2.6" fill="#fff"/><circle cx="1162.2" cy="473.6" r="2.6" fill="#fff"/><circle cx="1127.2" cy="479.6" r="2.6" fill="#fff"/><circle cx="1090.2" cy="487.6" r="2.6" fill="#fff"/><circle cx="1051.2" cy="497.6" r="2.6" fill="#fff"/><circle cx="1012.2" cy="508.6" r="2.6" fill="#fff"/><circle cx="971.198" cy="520.6" r="2.6" fill="#fff"/><circle cx="971.198" cy="477.6" r="2.6" fill="#fff"/><circle cx="971.198" cy="426.6" r="2.6" fill="#fff"/><circle cx="1007.2" cy="14.6" r="2.6" fill="#fff"/><circle cx="1008.2" cy="54.6" r="2.6" fill="#fff"/><circle cx="1048.2" cy="56.6" r="2.6" fill="#fff"/><circle cx="1008.2" cy="98.6" r="2.6" fill="#fff"/><circle cx="1009.2" cy="141.6" r="2.6" fill="#fff"/><circle cx="1009.2" cy="180.6" r="2.6" fill="#fff"/><circle cx="1010.2" cy="232.6" r="2.6" fill="#fff"/><circle cx="968.198" cy="238.6" r="2.6" fill="#fff"/><circle cx="969.198" cy="280.6" r="2.6" fill="#fff"/><circle cx="1010.2" cy="270.6" r="2.6" fill="#fff"/><circle cx="1010.2" cy="322.6" r="2.6" fill="#fff"/><circle cx="1052.2" cy="313.6" r="2.6" fill="#fff"/><circle cx="970.198" cy="333.6" r="2.6" fill="#fff"/><circle cx="970.198" cy="381.6" r="2.6" fill="#fff"/><circle cx="1012.2" cy="365.6" r="2.6" fill="#fff"/><circle cx="1052.2" cy="353.6" r="2.6" fill="#fff"/><circle cx="1090.2" cy="344.6" r="2.6" fill="#fff"/><circle cx="1128.2" cy="338.6" r="2.6" fill="#fff"/><circle cx="1128.2" cy="301.6" r="2.6" fill="#fff"/><circle cx="1163.2" cy="301.6" r="2.6" fill="#fff"/><circle cx="1163.2" cy="336.6" r="2.6" fill="#fff"/><circle cx="1199.2" cy="339.6" r="2.6" fill="#fff"/><circle cx="1236.2" cy="349.6" r="2.6" fill="#fff"/><circle cx="1235.2" cy="311.6" r="2.6" fill="#fff"/><circle cx="1198.2" cy="305.6" r="2.6" fill="#fff"/><circle cx="1199.2" cy="263.6" r="2.6" fill="#fff"/><circle cx="1235.2" cy="274.6" r="2.6" fill="#fff"/><circle cx="1235.2" cy="242.6" r="2.6" fill="#fff"/><circle cx="1199.2" cy="232.6" r="2.6" fill="#fff"/><circle cx="1163.2" cy="225.6" r="2.6" fill="#fff"/><circle cx="1163.2" cy="183.6" r="2.6" fill="#fff"/><circle cx="1198.2" cy="197.6" r="2.6" fill="#fff"/><circle cx="1199.2" cy="168.6" r="2.6" fill="#fff"/><circle cx="1163.2" cy="157.6" r="2.6" fill="#fff"/><circle cx="1236.2" cy="212.6" r="2.6" fill="#fff"/><circle cx="1163.2" cy="257.6" r="2.6" fill="#fff"/><circle cx="1090.2" cy="306.6" r="2.6" fill="#fff"/><circle cx="1049.2" cy="141.6" r="2.6" fill="#fff"/><circle cx="1050.2" cy="176.6" r="2.6" fill="#fff"/><circle cx="1050.2" cy="227.6" r="2.6" fill="#fff"/><circle cx="1051.2" cy="263.6" r="2.6" fill="#fff"/><circle cx="1088.2" cy="144.6" r="2.6" fill="#fff"/><circle cx="1126.2" cy="149.6" r="2.6" fill="#fff"/><circle cx="1126.2" cy="177.6" r="2.6" fill="#fff"/><circle cx="1126.2" cy="222.6" r="2.6" fill="#fff"/><circle cx="1128.2" cy="254.6" r="2.6" fill="#fff"/><circle cx="1088.2" cy="174.6" r="2.6" fill="#fff"/><circle cx="1090.2" cy="222.6" r="2.6" fill="#fff"/><circle cx="1090.2" cy="257.6" r="2.6" fill="#fff"/><circle cx="1048.2" cy="100.6" r="2.6" fill="#fff"/><circle cx="1088.2" cy="58.6" r="2.6" fill="#fff"/><circle cx="1126.2" cy="59.6" r="2.6" fill="#fff"/><circle cx="1126.2" cy="22.6" r="2.6" fill="#fff"/><circle cx="1162.2" cy="31.6" r="2.6" fill="#fff"/><circle cx="1198.2" cy="46.6" r="2.6" fill="#fff"/><circle cx="1235.2" cy="66.6" r="2.6" fill="#fff"/><circle cx="1271.2" cy="88.6" r="2.6" fill="#fff"/><circle cx="1307.2" cy="109.6" r="2.6" fill="#fff"/><circle cx="1343.2" cy="126.6" r="2.6" fill="#fff"/><circle cx="1379.2" cy="138.6" r="2.6" fill="#fff"/><circle cx="1416.2" cy="141.6" r="2.6" fill="#fff"/><circle cx="1416.2" cy="175.6" r="2.6" fill="#fff"/><circle cx="1451.2" cy="171.6" r="2.6" fill="#fff"/><circle cx="1379.2" cy="172.6" r="2.6" fill="#fff"/><circle cx="1343.2" cy="162.6" r="2.6" fill="#fff"/><circle cx="1307.2" cy="146.6" r="2.6" fill="#fff"/><circle cx="1271.2" cy="125.6" r="2.6" fill="#fff"/><circle cx="1234.2" cy="103.6" r="2.6" fill="#fff"/><circle cx="1235.2" cy="146.6" r="2.6" fill="#fff"/><circle cx="1235.2" cy="183.6" r="2.6" fill="#fff"/><circle cx="1271.2" cy="165.6" r="2.6" fill="#fff"/><circle cx="1270.2" cy="198.6" r="2.6" fill="#fff"/><circle cx="1271.2" cy="228.6" r="2.6" fill="#fff"/><circle cx="1271.2" cy="258.6" r="2.6" fill="#fff"/><circle cx="1271.2" cy="287.6" r="2.6" fill="#fff"/><circle cx="1308.2" cy="277.6" r="2.6" fill="#fff"/><circle cx="1307.2" cy="244.6" r="2.6" fill="#fff"/><circle cx="1306.2" cy="214.6" r="2.6" fill="#fff"/><circle cx="1343.2" cy="230.6" r="2.6" fill="#fff"/><circle cx="1343.2" cy="259.6" r="2.6" fill="#fff"/><circle cx="1379.2" cy="204.6" r="2.6" fill="#fff"/><circle cx="1379.2" cy="240.6" r="2.6" fill="#fff"/><circle cx="1380.2" cy="272.6" r="2.6" fill="#fff"/><circle cx="1343.2" cy="295.6" r="2.6" fill="#fff"/><circle cx="1307.2" cy="303.6" r="2.6" fill="#fff"/><circle cx="1307.2" cy="336.6" r="2.6" fill="#fff"/><circle cx="1271.2" cy="319.6" r="2.6" fill="#fff"/><circle cx="1343.2" cy="322.6" r="2.6" fill="#fff"/><circle cx="1343.2" cy="354.6" r="2.6" fill="#fff"/><circle cx="1380.2" cy="308.6" r="2.6" fill="#fff"/><circle cx="1380.2" cy="339.6" r="2.6" fill="#fff"/><circle cx="1416.2" cy="351.6" r="2.6" fill="#fff"/><circle cx="1416.2" cy="317.6" r="2.6" fill="#fff"/><circle cx="1416.2" cy="279.6" r="2.6" fill="#fff"/><circle cx="1416.2" cy="246.6" r="2.6" fill="#fff"/><circle cx="1416.2" cy="209.6" r="2.6" fill="#fff"/><circle cx="1452.2" cy="210.6" r="2.6" fill="#fff"/><circle cx="1451.2" cy="246.6" r="2.6" fill="#fff"/><circle cx="1452.2" cy="282.6" r="2.6" fill="#fff"/><circle cx="1452.2" cy="319.6" r="2.6" fill="#fff"/><circle cx="1451.2" cy="356.6" r="2.6" fill="#fff"/><circle cx="1307.2" cy="181.6" r="2.6" fill="#fff"/><circle cx="1343.2" cy="194.6" r="2.6" fill="#fff"/><circle cx="1451.2" cy="135.6" r="2.6" fill="#fff"/><circle cx="1162.2" cy="67.6" r="2.6" fill="#fff"/><circle cx="1199.2" cy="82.6" r="2.6" fill="#fff"/><circle cx="1088.2" cy="103.6" r="2.6" fill="#fff"/><circle cx="1126.2" cy="107.6" r="2.6" fill="#fff"/><circle cx="1162.2" cy="117.6" r="2.6" fill="#fff"/><circle cx="1199.2" cy="130.6" r="2.6" fill="#fff"/><circle cx="1048.2" cy="17.6" r="2.6" fill="#fff"/><circle cx="1088.2" cy="20.6" r="2.6" fill="#fff"/><circle cx="1012.2" cy="464.6" r="2.6" fill="#fff"/><circle cx="1011.2" cy="410.6" r="2.6" fill="#fff"/><circle cx="1052.2" cy="452.6" r="2.6" fill="#fff"/><circle cx="1052.2" cy="396.6" r="2.6" fill="#fff"/><circle cx="1091.2" cy="388.6" r="2.6" fill="#fff"/><circle cx="1128.2" cy="384.6" r="2.6" fill="#fff"/><circle cx="1162.2" cy="382.6" r="2.6" fill="#fff"/><circle cx="1163.2" cy="430.6" r="2.6" fill="#fff"/><circle cx="1199.2" cy="429.6" r="2.6" fill="#fff"/><circle cx="1198.2" cy="384.6" r="2.6" fill="#fff"/><circle cx="1235.2" cy="391.6" r="2.6" fill="#fff"/><circle cx="1235.2" cy="432.6" r="2.6" fill="#fff"/><circle cx="1271.2" cy="439.6" r="2.6" fill="#fff"/><circle cx="1271.2" cy="401.6" r="2.6" fill="#fff"/><circle cx="1271.2" cy="360.6" r="2.6" fill="#fff"/><circle cx="1307.2" cy="376.6" r="2.6" fill="#fff"/><circle cx="1344.2" cy="392.6" r="2.6" fill="#fff"/><circle cx="1380.2" cy="407.6" r="2.6" fill="#fff"/><circle cx="1416.2" cy="385.6" r="2.6" fill="#fff"/><circle cx="19.6" cy="128.6" r="2.6" fill="#fff"/><circle cx="19.6" cy="160.6" r="2.6" fill="#fff"/><circle cx="19.6" cy="200.6" r="2.6" fill="#fff"/><circle cx="20.6" cy="239.6" r="2.6" fill="#fff"/><circle cx="19.6" cy="277.6" r="2.6" fill="#fff"/><circle cx="19.6" cy="317.6" r="2.6" fill="#fff"/><circle cx="20.6" cy="355.6" r="2.6" fill="#fff"/><circle cx="20.6" cy="395.6" r="2.6" fill="#fff"/><circle cx="19.6" cy="434.6" r="2.6" fill="#fff"/><circle cx="19.6" cy="473.6" r="2.6" fill="#fff"/><circle cx="19.6" cy="513.6" r="2.6" fill="#fff"/><circle cx="20.6" cy="549.6" r="2.6" fill="#fff"/><circle cx="20.6" cy="589.6" r="2.6" fill="#fff"/><circle cx="20.6" cy="623.6" r="2.6" fill="#fff"/><circle cx="20.6" cy="659.6" r="2.6" fill="#fff"/><circle cx="20.6" cy="695.6" r="2.6" fill="#fff"/><circle cx="20.6" cy="733.6" r="2.6" fill="#fff"/><circle cx="20.6" cy="766.6" r="2.6" fill="#fff"/><circle cx="20.6" cy="804.6" r="2.6" fill="#fff"/><circle cx="20.6" cy="841.6" r="2.6" fill="#fff"/><circle cx="20.6" cy="877.6" r="2.6" fill="#fff"/><circle cx="20.6" cy="912.6" r="2.6" fill="#fff"/><circle cx="20.6" cy="948.6" r="2.6" fill="#fff"/><circle cx="20.6" cy="984.6" r="2.6" fill="#fff"/><circle cx="1452.2" cy="393.6" r="2.6" fill="#fff"/><circle cx="1380.2" cy="371.6" r="2.6" fill="#fff"/><circle cx="1307.2" cy="412.6" r="2.6" fill="#fff"/><circle cx="1307.2" cy="449.6" r="2.6" fill="#fff"/><circle cx="1344.2" cy="461.6" r="2.6" fill="#fff"/><circle cx="1343.2" cy="424.6" r="2.6" fill="#fff"/><circle cx="1380.2" cy="438.6" r="2.6" fill="#fff"/><circle cx="1380.2" cy="475.6" r="2.6" fill="#fff"/><circle cx="1415.2" cy="489.6" r="2.6" fill="#fff"/><circle cx="1415.2" cy="453.6" r="2.6" fill="#fff"/><circle cx="1416.2" cy="418.6" r="2.6" fill="#fff"/><circle cx="1451.2" cy="430.6" r="2.6" fill="#fff"/><circle cx="1451.2" cy="467.6" r="2.6" fill="#fff"/><circle cx="1452.2" cy="505.6" r="2.6" fill="#fff"/><circle cx="1128.2" cy="436.6" r="2.6" fill="#fff"/><circle cx="1091.2" cy="443.6" r="2.6" fill="#fff"/><circle cx="1451.2" cy="541.6" r="2.6" fill="#fff"/><circle cx="1451.2" cy="579.6" r="2.6" fill="#fff"/><circle cx="1159.2" cy="515.6" r="2.6" fill="#fff"/><circle cx="1196.2" cy="512.6" r="2.6" fill="#fff"/><circle cx="1050.2" cy="538.6" r="2.6" fill="#fff"/><circle cx="1010.2" cy="549.6" r="2.6" fill="#fff"/><circle cx="1415.2" cy="593.6" r="2.6" fill="#fff"/><circle cx="1451" cy="614.6" r="2.6" fill="#fff"/><circle cx="1451.2" cy="651.6" r="2.6" fill="#fff"/><circle cx="1451.2" cy="688.6" r="2.6" fill="#fff"/><circle cx="1034.2" cy="757.6" r="2.6" fill="#fff"/><circle cx="1037.2" cy="709.6" r="2.6" fill="#fff"/><circle cx="1071.2" cy="761.6" r="2.6" fill="#fff"/><circle cx="1074.2" cy="709.6" r="2.6" fill="#fff"/><circle cx="1106.2" cy="764.6" r="2.6" fill="#fff"/><circle cx="1109.2" cy="709.6" r="2.6" fill="#fff"/><circle cx="1137.2" cy="766.6" r="2.6" fill="#fff"/><circle cx="1140.2" cy="710.6" r="2.6" fill="#fff"/><circle cx="1175.2" cy="766.6" r="2.6" fill="#fff"/><circle cx="1178.2" cy="710.6" r="2.6" fill="#fff"/><circle cx="1214.2" cy="759.6" r="2.6" fill="#fff"/><circle cx="1254.2" cy="750.6" r="2.6" fill="#fff"/><circle cx="1302.2" cy="739.6" r="2.6" fill="#fff"/><circle cx="1339.2" cy="690.6" r="2.6" fill="#fff"/><circle cx="1340.2" cy="734.6" r="2.6" fill="#fff"/><circle cx="1377.2" cy="696.6" r="2.6" fill="#fff"/><circle cx="1420.2" cy="711.6" r="2.6" fill="#fff"/><circle cx="1451.2" cy="725.6" r="2.6" fill="#fff"/><circle cx="1378.2" cy="735.6" r="2.6" fill="#fff"/><circle cx="1420.2" cy="746.6" r="2.6" fill="#fff"/><circle cx="1451.2" cy="761.6" r="2.6" fill="#fff"/><circle cx="1451.2" cy="799.6" r="2.6" fill="#fff"/><circle cx="1300.2" cy="692.6" r="2.6" fill="#fff"/><circle cx="1255.2" cy="702.6" r="2.6" fill="#fff"/><circle cx="1216.2" cy="708.6" r="2.6" fill="#fff"/><circle cx="1420.2" cy="911.6" r="2.6" fill="#fff"/><circle cx="1420.2" cy="946.6" r="2.6" fill="#fff"/><circle cx="1452.2" cy="948.6" r="2.6" fill="#fff"/><circle cx="1452.2" cy="910.6" r="2.6" fill="#fff"/><circle cx="1381.2" cy="865.6" r="2.6" fill="#fff"/><circle cx="1420.2" cy="872.6" r="2.6" fill="#fff"/><circle cx="1452.2" cy="873.6" r="2.6" fill="#fff"/><circle cx="1451.2" cy="837.6" r="2.6" fill="#fff"/><circle cx="1240.2" cy="958.6" r="2.6" fill="#fff"/><circle cx="1278.2" cy="946.6" r="2.6" fill="#fff"/><circle cx="1290.2" cy="1048.6" r="2.6" fill="#fff"/><circle cx="1323.2" cy="1027.6" r="2.6" fill="#fff"/><circle cx="1354.2" cy="1006.6" r="2.6" fill="#fff"/><circle cx="1383.2" cy="993.6" r="2.6" fill="#fff"/><circle cx="1420.2" cy="985.6" r="2.6" fill="#fff"/><circle cx="1451.2" cy="984.6" r="2.6" fill="#fff"/><path d="M2.898 985c4-.333 14.2 0 19 0m-19-850.5c4-.333 12-2 17.5-5.5" stroke="#08102A" stroke-width=".55"/></g></svg>