<svg xmlns="http://www.w3.org/2000/svg" viewBox="0 0 512 512"><path d="M428.522 439.652H83.478C37.446 439.652 0 402.206 0 356.174V155.826c0-46.032 37.446-83.478 83.478-83.478h345.043c46.032 0 83.478 37.446 83.478 83.478v200.348c.001 46.032-37.445 83.478-83.477 83.478z" fill="#ff4b26"/><path d="M0 256v100.174c0 46.032 37.446 83.478 83.478 83.478h345.043c46.032 0 83.478-37.446 83.478-83.478V256H0z" fill="#d93f21"/><path d="M194.783 372.87c-2.652 0-5.315-.63-7.75-1.902a16.718 16.718 0 01-8.946-14.793V155.826a16.717 16.717 0 018.946-14.793 16.7 16.7 0 0117.25 1.065l144.696 100.174A16.687 16.687 0 01356.175 256a16.687 16.687 0 01-7.196 13.728L204.282 369.902a16.661 16.661 0 01-9.499 2.968z" fill="#e6f3ff"/><path d="M178.087 356.174a16.717 16.717 0 008.946 14.793 16.732 16.732 0 007.75 1.902c3.337 0 6.663-1 9.5-2.967l144.696-100.174A16.687 16.687 0 00356.175 256H178.087v100.174z" fill="#cfdbe6"/></svg>