<svg width="589" height="421" fill="none" xmlns="http://www.w3.org/2000/svg"><path d="M561.289 416.47a1.061 1.061 0 012.12 0 1.06 1.06 0 01-2.12 0zm-25.297.001a3.745 3.745 0 013.741-3.741 3.74 3.74 0 11-3.741 3.741zm-21.726-.002a2.844 2.844 0 012.842-2.842 2.845 2.845 0 012.843 2.842 2.846 2.846 0 01-2.843 2.843 2.847 2.847 0 01-2.842-2.843zm-23.59-.001a3.823 3.823 0 117.647.001 3.823 3.823 0 01-7.647-.001zm-21.492.001a2.699 2.699 0 112.698 2.698 2.704 2.704 0 01-2.698-2.698zm-21.93 0a2.014 2.014 0 014.025 0 2.015 2.015 0 01-2.015 2.011 2.017 2.017 0 01-2.01-2.011zm-24.859-.001a4.258 4.258 0 014.257-4.257 4.259 4.259 0 014.257 4.257 4.259 4.259 0 01-4.257 4.257 4.26 4.26 0 01-4.257-4.257zm-19.079.001a.724.724 0 011.446 0 .723.723 0 01-1.446 0zm-25.586.001a3.694 3.694 0 117.389 0 3.699 3.699 0 01-3.692 3.697 3.704 3.704 0 01-3.697-3.697zm-20.23 0c0-.722.587-1.314 1.31-1.314a1.311 1.311 0 010 2.624 1.31 1.31 0 01-1.31-1.31zm-24.703-.001a3.395 3.395 0 113.394 3.394 3.4 3.4 0 01-3.394-3.394zm-22 0a2.786 2.786 0 015.571 0 2.787 2.787 0 01-2.786 2.786 2.793 2.793 0 01-2.785-2.786zm-20.731-.001a.896.896 0 111.792 0 .898.898 0 01-.894.898.904.904 0 01-.898-.898zm-22.195.002a.48.48 0 01.478-.478c.267 0 .477.215.477.478a.479.479 0 01-.477.477.482.482 0 01-.478-.477zm-26.187-.001a4.05 4.05 0 014.051-4.051 4.051 4.051 0 11-4.051 4.051zm-22.36 0a3.794 3.794 0 113.793 3.793 3.799 3.799 0 01-3.793-3.793zm-22.129 0a3.314 3.314 0 013.311-3.311 3.315 3.315 0 013.312 3.311 3.312 3.312 0 01-6.623 0zm-20.554 0a1.25 1.25 0 012.5 0 1.25 1.25 0 01-2.5 0zm-24.356 0a2.984 2.984 0 015.965 0 2.986 2.986 0 01-2.982 2.987 2.99 2.99 0 01-2.983-2.987zm-21.89 0a2.268 2.268 0 014.537 0 2.272 2.272 0 01-2.269 2.269 2.27 2.27 0 01-2.268-2.269zm-23.79 0a3.442 3.442 0 013.439-3.438 3.44 3.44 0 010 6.877 3.445 3.445 0 01-3.439-3.439zm-20.312.001c0-.626.508-1.134 1.139-1.134a1.134 1.134 0 010 2.269 1.145 1.145 0 01-1.139-1.135zm-25.586-.002a4.116 4.116 0 014.113-4.113 4.113 4.113 0 010 8.226 4.122 4.122 0 01-4.113-4.113zm-19.367.001a.855.855 0 11.854.854.858.858 0 01-.854-.854zm-23.133.001a1.38 1.38 0 112.758-.002 1.38 1.38 0 01-2.758.002zm566.752.592a.596.596 0 01-.421-.171.619.619 0 01-.175-.42c0-.154.066-.311.175-.421a.604.604 0 01.421-.175.6.6 0 01.596.596.592.592 0 01-.596.591zm-25.928-28.083a3.314 3.314 0 013.311-3.307 3.302 3.302 0 013.298 3.307 3.297 3.297 0 01-3.298 3.302 3.307 3.307 0 01-3.311-3.302zm-21.929-.001a2.63 2.63 0 012.627-2.628 2.63 2.63 0 012.628 2.628 2.63 2.63 0 01-2.628 2.627 2.626 2.626 0 01-2.627-2.627zm-23.426-.001a3.433 3.433 0 116.867-.001 3.433 3.433 0 01-6.867.001zm-20.86 0a1.687 1.687 0 113.374.002 1.687 1.687 0 01-3.374-.002zm-23.453 0a2.519 2.519 0 115.038.002 2.519 2.519 0 01-5.038-.002zm-21.008 0a.911.911 0 111.822 0 .911.911 0 01-1.822 0zm-24.851 0a3.15 3.15 0 116.298 0 3.15 3.15 0 01-6.298 0zm-23.434 0a3.962 3.962 0 013.964-3.963 3.963 3.963 0 11-3.964 3.963zm-21.277-.001a2.632 2.632 0 115.265 0 2.632 2.632 0 01-5.265 0zm-23 .003a3.02 3.02 0 013.018-3.018 3.02 3.02 0 013.017 3.018 3.02 3.02 0 01-3.017 3.017 3.015 3.015 0 01-3.018-3.017zm-22.297-.001a2.69 2.69 0 112.689 2.69 2.693 2.693 0 01-2.689-2.69zm-23.062-.001a3.15 3.15 0 116.296.002 3.15 3.15 0 01-6.296-.002zm-22.954.002a3.488 3.488 0 013.487-3.487 3.487 3.487 0 11-3.487 3.487zm-22.722-.001a3.594 3.594 0 013.596-3.591 3.582 3.582 0 013.582 3.591 3.589 3.589 0 11-7.178 0zm-21.375-.001a2.355 2.355 0 012.352-2.352 2.356 2.356 0 012.352 2.352 2.356 2.356 0 01-2.352 2.352 2.355 2.355 0 01-2.352-2.352zm-20.719 0a.456.456 0 11.912 0 .456.456 0 01-.912 0zm-23.293.002a1.14 1.14 0 012.278 0c0 .626-.508 1.134-1.139 1.134a1.13 1.13 0 01-1.139-1.134zm-24.285-.002a2.802 2.802 0 115.605-.001 2.802 2.802 0 01-5.605.001zm-20.754-.001a.94.94 0 011.879 0 .94.94 0 01-1.879 0zm-22.957.003a1.283 1.283 0 112.565-.003 1.283 1.283 0 01-2.565.003zm-24.613-.003a3.284 3.284 0 013.28-3.281 3.285 3.285 0 013.281 3.281 3.281 3.281 0 01-6.561 0zm-19.778.002a.45.45 0 11.902 0 .45.45 0 01-.902 0zm-24.929 0a2.759 2.759 0 115.517 0 2.759 2.759 0 01-5.517 0zm-20.723-.001a.867.867 0 111.733-.003.867.867 0 01-1.733.003zm-23.891.001a2.147 2.147 0 114.294.002 2.147 2.147 0 01-4.294-.002zm567.514 1.498c-.394 0-.78-.157-1.06-.438a1.505 1.505 0 01-.438-1.06c0-.394.162-.779.438-1.06.28-.28.666-.438 1.06-.438s.784.163 1.06.438a1.502 1.502 0 010 2.12c-.28.281-.666.438-1.06.438zm-25.959-28.985a3.343 3.343 0 013.346-3.346 3.345 3.345 0 11-3.346 3.346zm-20.976-.002a1.707 1.707 0 113.416 0c0 .942-.767 1.709-1.708 1.709a1.71 1.71 0 01-1.708-1.709zm-24.332.002a3.422 3.422 0 013.42-3.421 3.417 3.417 0 013.421 3.421 3.417 3.417 0 01-3.421 3.421 3.422 3.422 0 01-3.42-3.421zm-21.172-.003c0-1.099.889-1.988 1.984-1.988a1.986 1.986 0 010 3.973 1.986 1.986 0 01-1.984-1.985zm-23.868.002a3.233 3.233 0 016.465 0 3.235 3.235 0 01-3.232 3.232 3.235 3.235 0 01-3.233-3.232zm-21.062 0a1.68 1.68 0 113.359 0c0 .929-.749 1.678-1.677 1.678a1.679 1.679 0 01-1.682-1.678zm-25.086-.002a4.156 4.156 0 014.156-4.156 4.156 4.156 0 014.153 4.156 4.154 4.154 0 01-8.309 0zm-18.988.002a.52.52 0 01.521-.521.52.52 0 01.521.521.522.522 0 01-1.042 0zm-24.188-.001a2.103 2.103 0 114.205.001 2.103 2.103 0 01-4.205-.001zm-22.211.001c0-.933.758-1.695 1.695-1.695a1.696 1.696 0 11-1.695 1.695zm-24.468 0a3.552 3.552 0 013.547-3.552 3.55 3.55 0 010 7.099 3.546 3.546 0 01-3.547-3.547zm-19.723-.001a.661.661 0 011.323 0 .66.66 0 01-.662.657.653.653 0 01-.661-.657zm-22.75-.001a.793.793 0 111.586 0 .793.793 0 01-1.586 0zm-24.246.002a2.419 2.419 0 012.426-2.418 2.417 2.417 0 110 4.836 2.422 2.422 0 01-2.426-2.418zm-23.852 0a3.659 3.659 0 113.662 3.657 3.66 3.66 0 01-3.662-3.657zm-20.793-.001c0-1.011.824-1.835 1.835-1.835 1.012 0 1.836.824 1.836 1.835a1.839 1.839 0 01-1.836 1.836 1.838 1.838 0 01-1.835-1.836zm-22.183-.001a1.409 1.409 0 112.818-.002 1.409 1.409 0 01-2.818.002zm-21.711.002a.5.5 0 11.999-.001.5.5 0 01-.999.001zm-25.567 0a3.454 3.454 0 013.46-3.451 3.448 3.448 0 013.447 3.451 3.446 3.446 0 01-3.447 3.452 3.454 3.454 0 01-3.46-3.452zm-20.261 0a1.1 1.1 0 112.2.001 1.1 1.1 0 01-2.2-.001zm-25.274-.002a3.757 3.757 0 117.515-.001 3.757 3.757 0 01-7.515.001zm-22.164.001a3.309 3.309 0 013.307-3.315 3.313 3.313 0 013.315 3.315 3.313 3.313 0 01-3.315 3.316 3.309 3.309 0 01-3.307-3.316zm-20.164 0a.86.86 0 011.717 0 .856.856 0 01-.859.854.856.856 0 01-.858-.854zm-25.262.001c0-1.932 1.568-3.5 3.5-3.5 1.931 0 3.5 1.568 3.5 3.5a3.501 3.501 0 01-3.5 3.499 3.504 3.504 0 01-3.5-3.499zm-20.48-.001c0-.758.617-1.376 1.375-1.376s1.375.618 1.375 1.376c0 .757-.617 1.375-1.375 1.375a1.378 1.378 0 01-1.375-1.375zm-24.84.001a3.595 3.595 0 117.193 0 3.595 3.595 0 01-7.193 0zm591.583 3.109a3.136 3.136 0 01-2.199-.907 3.162 3.162 0 01-.915-2.203 3.12 3.12 0 013.114-3.114c.823 0 1.625.328 2.203.915.578.579.906 1.384.906 2.199 0 .819-.328 1.616-.906 2.203a3.139 3.139 0 01-2.203.907zM560.062 334a2.28 2.28 0 014.56 0 2.28 2.28 0 01-4.56 0zm-22.386.001a2.055 2.055 0 114.109.001 2.055 2.055 0 01-4.109-.001zm-21.637.002c0-.592.482-1.073 1.073-1.073s1.073.481 1.073 1.073a1.07 1.07 0 01-1.073 1.068 1.068 1.068 0 01-1.073-1.068zm-23.961-.002a2.426 2.426 0 114.852-.002 2.426 2.426 0 01-4.852.002zM468.305 334a3.58 3.58 0 013.578-3.578 3.58 3.58 0 010 7.157 3.58 3.58 0 01-3.578-3.579zm-20.078.003c0-.574.464-1.038 1.042-1.038a1.037 1.037 0 110 2.076 1.044 1.044 0 01-1.042-1.038zm-25.844-.002a4.275 4.275 0 114.275 4.275 4.28 4.28 0 01-4.275-4.275zm-20.434.002a2.084 2.084 0 114.169-.001 2.084 2.084 0 01-4.169.001zm-21.519-.001a.998.998 0 111.995 0 .998.998 0 01-1.995 0zm-25.668 0a4.048 4.048 0 014.047-4.047 4.049 4.049 0 014.047 4.047 4.049 4.049 0 01-4.047 4.047 4.048 4.048 0 01-4.047-4.047zm-20.442.001c0-1.03.837-1.866 1.866-1.866 1.034 0 1.866.836 1.866 1.866a1.864 1.864 0 01-1.866 1.865 1.87 1.87 0 01-1.866-1.865zm-21.25-.002a.51.51 0 01.513-.513.513.513 0 11-.513.513zm-23.761 0c0-.915.74-1.655 1.655-1.655.911 0 1.656.74 1.656 1.655 0 .911-.74 1.656-1.656 1.656a1.657 1.657 0 01-1.655-1.656zm-21.586.001a.628.628 0 111.257 0 .63.63 0 01-.631.63.632.632 0 01-.626-.63zm-24.7-.002a2.71 2.71 0 115.422 0 2.71 2.71 0 01-5.422 0zm-20.64.002a.735.735 0 111.471 0 .734.734 0 11-1.471 0zm-25.828 0a3.953 3.953 0 013.955-3.955 3.96 3.96 0 013.955 3.955 3.957 3.957 0 01-3.955 3.955 3.957 3.957 0 01-3.955-3.955zm-21.403 0a2.743 2.743 0 015.484 0 2.742 2.742 0 01-5.484 0zm-21.625-.001a1.745 1.745 0 013.487 0c0 .964-.78 1.743-1.743 1.743-.96 0-1.744-.784-1.744-1.743zm-24.105.001a3.237 3.237 0 116.474.002 3.237 3.237 0 01-6.474-.002zm-20.598.001a1.217 1.217 0 112.435-.001 1.217 1.217 0 01-2.435.001zm-24.539-.002a3.15 3.15 0 116.297 0 3.15 3.15 0 01-6.297 0zm-21.722 0a2.25 2.25 0 114.502 0 2.25 2.25 0 11-4.502 0zm-24.528 0a4.167 4.167 0 014.165-4.165 4.16 4.16 0 014.166 4.165 4.166 4.166 0 01-8.33 0zm-19.976 0c0-.845.683-1.528 1.528-1.528.846 0 1.529.683 1.529 1.528 0 .846-.683 1.529-1.529 1.529a1.533 1.533 0 01-1.528-1.529zm-25.207.001a4.118 4.118 0 018.234 0 4.118 4.118 0 01-4.117 4.117 4.124 4.124 0 01-4.117-4.117zm592.107 1.892a1.91 1.91 0 01-1.336-.552 1.915 1.915 0 01-.557-1.341c0-.494.206-.985.557-1.335.35-.355.841-.557 1.336-.557a1.897 1.897 0 011.892 1.892c0 .5-.202.99-.552 1.341a1.92 1.92 0 01-1.34.552zm-23.084-29.38a.471.471 0 11.942 0 .475.475 0 01-.473.473.476.476 0 01-.469-.473zm-24.176-.001c0-1.122.911-2.033 2.032-2.033 1.122 0 2.033.911 2.033 2.033a2.034 2.034 0 01-4.065 0zm-24.031-.001a3.442 3.442 0 013.438-3.438 3.44 3.44 0 013.438 3.438 3.441 3.441 0 01-3.438 3.439 3.442 3.442 0 01-3.438-3.439zm-21.699.002a2.53 2.53 0 115.063 0 2.53 2.53 0 11-5.063 0zm-21.317 0a1.232 1.232 0 012.462 0c0 .679-.552 1.231-1.231 1.231a1.239 1.239 0 01-1.231-1.231zm-22.547 0c0-.64.517-1.157 1.161-1.157.64 0 1.156.517 1.156 1.157a1.16 1.16 0 01-2.317 0zm-24.343 0a2.895 2.895 0 115.79 0 2.895 2.895 0 01-5.79 0zm-21.731 0c0-1.108.902-2.01 2.011-2.01 1.108 0 2.01.902 2.01 2.01a2.014 2.014 0 01-2.01 2.011 2.014 2.014 0 01-2.011-2.011zm-24.804-.001a4.204 4.204 0 014.2-4.201 4.2 4.2 0 010 8.401 4.206 4.206 0 01-4.2-4.2zm-20.981.002a2.563 2.563 0 112.562 2.563 2.57 2.57 0 01-2.562-2.563zm-20.609-.002a.553.553 0 111.11-.005.553.553 0 01-1.11.005zm-26.246.001a4.195 4.195 0 014.191-4.192 4.195 4.195 0 014.192 4.192 4.195 4.195 0 01-4.192 4.191 4.194 4.194 0 01-4.191-4.191zm-20.137.001a1.707 1.707 0 113.414-.002 1.707 1.707 0 01-3.414.002zm-23.524-.001c0-1.45 1.17-2.623 2.615-2.623a2.622 2.622 0 11-2.615 2.623zm-20.933-.001c0-.516.42-.937.937-.937a.938.938 0 010 1.875.938.938 0 01-.937-.938zm-23.145.001a1.467 1.467 0 111.468 1.467 1.473 1.473 0 01-1.468-1.467zm-25.289 0a4.136 4.136 0 014.139-4.139 4.143 4.143 0 014.144 4.139 4.143 4.143 0 01-4.144 4.139 4.139 4.139 0 01-4.139-4.139zm-19.738-.001a1.262 1.262 0 112.523.001 1.262 1.262 0 01-2.523-.001zm-25.449 0a4.099 4.099 0 014.104-4.095 4.09 4.09 0 014.086 4.095 4.09 4.09 0 01-4.086 4.095 4.099 4.099 0 01-4.104-4.095zm-21.254.002a2.739 2.739 0 015.475 0 2.739 2.739 0 01-2.738 2.737 2.744 2.744 0 01-2.737-2.737zm-21.621-.002c0-.964.779-1.743 1.743-1.743.964 0 1.743.779 1.743 1.743a1.742 1.742 0 11-3.486 0zm-24.477.001c0-1.988 1.612-3.6 3.605-3.6a3.593 3.593 0 013.591 3.6 3.592 3.592 0 01-3.591 3.596 3.6 3.6 0 01-3.605-3.596zm-20.714-.001a1.71 1.71 0 011.703-1.708 1.706 1.706 0 010 3.412 1.709 1.709 0 01-1.704-1.704zm-22.88 0c0-1.081.88-1.966 1.963-1.966a1.965 1.965 0 010 3.929 1.965 1.965 0 01-1.962-1.963zm-23.742.002a3.099 3.099 0 013.097-3.097 3.099 3.099 0 013.096 3.097 3.099 3.099 0 01-3.096 3.096 3.099 3.099 0 01-3.097-3.096zm-22.84-.002a3.32 3.32 0 016.64 0 3.323 3.323 0 01-3.32 3.32 3.323 3.323 0 01-3.32-3.32zm591.307 3.124a3.142 3.142 0 01-2.207-.911 3.144 3.144 0 01-.92-2.212c0-.819.337-1.625.92-2.208a3.15 3.15 0 012.207-.919c.824 0 1.63.337 2.212.919.583.583.911 1.389.911 2.208 0 .823-.333 1.629-.911 2.212a3.162 3.162 0 01-2.212.911zm-23.689-30.614a1.076 1.076 0 112.155 0 1.077 1.077 0 11-2.155 0zm-22.289 0a.753.753 0 111.506 0 .753.753 0 01-1.506 0zM513 279.022a4.109 4.109 0 118.218.002 4.109 4.109 0 01-8.218-.002zm-20.695 0a2.195 2.195 0 114.39.002 2.195 2.195 0 01-4.39-.002zm-24.707 0a4.289 4.289 0 014.288-4.288 4.291 4.291 0 014.287 4.288 4.291 4.291 0 01-4.287 4.288 4.291 4.291 0 01-4.288-4.288zm-18.93 0c0-.332.267-.604.6-.604a.602.602 0 010 1.204.598.598 0 01-.6-.6zm-23.508-.001a1.496 1.496 0 012.992 0c0 .823-.671 1.493-1.494 1.493a1.49 1.49 0 01-1.498-1.493zm-24.504.001a3.382 3.382 0 013.377-3.381 3.38 3.38 0 010 6.758 3.379 3.379 0 01-3.377-3.377zm-23 0a3.77 3.77 0 013.776-3.776 3.779 3.779 0 013.775 3.776 3.779 3.779 0 01-3.775 3.775 3.77 3.77 0 01-3.776-3.775zm-21.66.001a2.815 2.815 0 012.812-2.812 2.815 2.815 0 012.812 2.812 2.812 2.812 0 01-5.624 0zm-22.148-.001a2.347 2.347 0 012.343-2.348 2.346 2.346 0 010 4.691 2.338 2.338 0 01-2.343-2.343zm-22.336-.001a2.07 2.07 0 114.139-.005 2.07 2.07 0 01-4.139.005zm-22.77 0a2.22 2.22 0 114.44 0 2.22 2.22 0 01-4.44 0zm-21.015 0a.63.63 0 111.258-.002.63.63 0 01-1.258.002zm-23.715.002c0-.951.771-1.726 1.721-1.726a1.723 1.723 0 110 3.447 1.717 1.717 0 01-1.721-1.721zm-25.039-.001a4.145 4.145 0 014.139-4.143 4.146 4.146 0 014.143 4.143 4.142 4.142 0 01-4.143 4.139 4.138 4.138 0 01-4.139-4.139zm-18.914-.001a.45.45 0 11.9-.001.45.45 0 01-.9.001zm-26.454.001a4.284 4.284 0 114.284 4.283 4.287 4.287 0 01-4.284-4.283zm-19.089.001a.753.753 0 111.506 0 .753.753 0 01-1.506 0zm-23.563-.002a1.712 1.712 0 113.424 0 1.712 1.712 0 01-3.424 0zm-22.176.001a1.266 1.266 0 112.532 0 1.266 1.266 0 01-2.532 0zm-21.879 0a.53.53 0 111.06-.001.53.53 0 01-1.06.001zm-23.238 0a1.155 1.155 0 112.313 0 1.155 1.155 0 11-2.313 0zm-23.105 0a1.648 1.648 0 013.293 0c0 .906-.736 1.642-1.646 1.642a1.638 1.638 0 01-1.647-1.642zm-24.765 0a3.796 3.796 0 113.797 3.797 3.799 3.799 0 01-3.798-3.797zm569.169.889a.894.894 0 01-.889-.885c0-.237.097-.46.263-.626a.884.884 0 01.626-.263c.233 0 .465.096.627.263a.88.88 0 01.258.626.882.882 0 01-.885.885zm-23.369-28.376c0-.417.337-.754.753-.754a.75.75 0 01.749.754.749.749 0 01-.749.749.75.75 0 01-.753-.749zm-23.715-.001a1.853 1.853 0 113.705.001 1.853 1.853 0 01-3.705-.001zm-24.902-.001a4.14 4.14 0 014.134-4.138 4.137 4.137 0 010 8.273 4.136 4.136 0 01-4.134-4.135zm-21.407.001a2.935 2.935 0 115.87.001 2.935 2.935 0 01-5.87-.001zm-21.207 0a1.526 1.526 0 013.049 0 1.526 1.526 0 01-3.049 0zm-23.824-.001a2.725 2.725 0 112.729 2.724 2.728 2.728 0 01-2.729-2.724zm-22.867 0a2.983 2.983 0 115.967.003 2.983 2.983 0 01-5.967-.003zm-23.551.001a3.924 3.924 0 117.848-.002 3.924 3.924 0 01-7.848.002zm-20.094.001a1.405 1.405 0 112.81-.001 1.405 1.405 0 01-2.81.001zm-22.179-.001a.961.961 0 111.923 0c0 .53-.43.963-.96.963a.965.965 0 01-.963-.963zm-22.961-.002a1.31 1.31 0 012.619 0c0 .723-.583 1.305-1.31 1.305a1.303 1.303 0 01-1.309-1.305zm-23.223.002a1.923 1.923 0 113.846 0 1.923 1.923 0 01-3.846 0zm-22.613 0a1.918 1.918 0 113.836-.002 1.918 1.918 0 01-3.836.002zm-23.227.001a2.524 2.524 0 015.05 0 2.523 2.523 0 01-2.523 2.522 2.527 2.527 0 01-2.527-2.522zm-23.015-.001a2.932 2.932 0 012.93-2.93 2.932 2.932 0 012.93 2.93 2.929 2.929 0 01-2.93 2.925 2.925 2.925 0 01-2.93-2.925zm-21.571 0a1.884 1.884 0 113.768 0 1.884 1.884 0 01-3.768 0zm-21.375 0c0-.359.289-.643.644-.643.355 0 .648.289.648.643a.646.646 0 01-.648.644.642.642 0 01-.644-.644zm-24.605.001a2.637 2.637 0 115.274 0 2.637 2.637 0 01-5.274 0zm-21.699-.002c0-.946.766-1.717 1.712-1.717a1.71 1.71 0 011.713 1.717 1.71 1.71 0 01-1.713 1.713 1.715 1.715 0 01-1.712-1.713zm-21.36.002a.466.466 0 11.469.464.46.46 0 01-.469-.464zm-24.609-.002a2.456 2.456 0 114.913-.001 2.456 2.456 0 01-4.913.001zm-23.126.001a2.97 2.97 0 012.975-2.97 2.968 2.968 0 110 5.935 2.966 2.966 0 01-2.974-2.965zm-23.554 0a3.912 3.912 0 017.823 0 3.912 3.912 0 01-7.823 0zm-22.461.001a3.755 3.755 0 013.754-3.754 3.75 3.75 0 013.753 3.754 3.75 3.75 0 01-3.753 3.753 3.755 3.755 0 01-3.754-3.753zm-23.074-.001a4.213 4.213 0 014.213-4.218 4.216 4.216 0 11-4.213 4.218zm-21.601-.001a3.198 3.198 0 016.394 0 3.198 3.198 0 01-6.394 0zm591.187 3.396a3.402 3.402 0 01-2.396-.989 3.444 3.444 0 01-.999-2.405c0-.889.368-1.765.999-2.396a3.417 3.417 0 012.396-.998c.893 0 1.769.368 2.404.998.631.631.99 1.507.99 2.396 0 .898-.359 1.765-.99 2.405a3.436 3.436 0 01-2.404.989zm-24.488-30.882a1.879 1.879 0 113.758 0 1.877 1.877 0 01-1.879 1.874 1.874 1.874 0 01-1.879-1.874zm-24.75 0a4.01 4.01 0 014.007-4.008 4.01 4.01 0 014.008 4.008 4.01 4.01 0 01-4.008 4.007 4.009 4.009 0 01-4.007-4.007zm-19.715-.002a1.105 1.105 0 111.104 1.104 1.105 1.105 0 01-1.104-1.104zm-23.692 0c0-1.208.982-2.19 2.19-2.19a2.19 2.19 0 11-2.19 2.19zm-23.566.001a3.139 3.139 0 013.136-3.136 3.139 3.139 0 013.136 3.136 3.136 3.136 0 11-6.272 0zm-20.891.001c0-.78.631-1.41 1.415-1.41.775 0 1.41.63 1.41 1.41a1.412 1.412 0 01-2.825 0zm-22.148-.001a.95.95 0 111.9 0 .95.95 0 01-1.9 0zm-22.387 0a.714.714 0 111.429 0 .714.714 0 01-1.429 0zm-25.84.001a3.95 3.95 0 013.951-3.942 3.943 3.943 0 010 7.884 3.95 3.95 0 01-3.951-3.942zm-20.777-.001c0-1.165.942-2.107 2.107-2.107 1.16 0 2.107.942 2.107 2.107a2.108 2.108 0 01-4.214 0zm-21.855.001a1.34 1.34 0 112.68 0 1.34 1.34 0 01-2.68 0zm-23.336-.001a2.072 2.072 0 114.144.002 2.072 2.072 0 01-4.144-.002zm-21.746 0a1.201 1.201 0 012.4 0c0 .661-.539 1.2-1.2 1.2a1.202 1.202 0 01-1.2-1.2zm-24.219-.001a2.799 2.799 0 012.799-2.799 2.8 2.8 0 110 5.598 2.801 2.801 0 01-2.799-2.799zm-23.379.001a3.569 3.569 0 013.565-3.566 3.566 3.566 0 11-3.565 3.566zm-23.148-.001c0-2.265 1.839-4.1 4.099-4.1a4.1 4.1 0 11-4.099 4.1zm-20.532.001a2.02 2.02 0 012.019-2.019 2.02 2.02 0 11-2.019 2.019zm-23.054 0a2.454 2.454 0 014.905 0 2.454 2.454 0 01-2.453 2.453 2.454 2.454 0 01-2.452-2.453zm-21.891 0a1.726 1.726 0 113.453 0 1.726 1.726 0 01-3.453 0zm-22.25 0c0-.753.613-1.366 1.366-1.366.754 0 1.367.613 1.367 1.366 0 .754-.613 1.367-1.367 1.367a1.368 1.368 0 01-1.366-1.367zm-23.77 0a2.52 2.52 0 112.519 2.518 2.524 2.524 0 01-2.519-2.518zm-23.832 0a3.74 3.74 0 117.481 0 3.738 3.738 0 01-3.736 3.744 3.743 3.743 0 01-3.745-3.744zm-21.343 0a2.466 2.466 0 114.931 0 2.466 2.466 0 01-4.931 0zm-20.922-.001a.77.77 0 111.542 0 .772.772 0 01-1.542 0zm-22.629.001c0-.438.35-.788.788-.788a.788.788 0 11-.788.788zm566.16 3.575a3.587 3.587 0 01-2.523-1.043 3.615 3.615 0 01-1.051-2.531c0-.938.385-1.857 1.051-2.523a3.558 3.558 0 012.523-1.051 3.57 3.57 0 012.531 1.051 3.588 3.588 0 011.043 2.523c0 .941-.381 1.865-1.043 2.531a3.622 3.622 0 01-2.531 1.043zm-24.488-31.063a1.873 1.873 0 113.749 0 1.874 1.874 0 11-3.749 0zm-23.555 0a2.812 2.812 0 115.624 0 2.812 2.812 0 01-5.624 0zm-23.566.001a3.764 3.764 0 013.762-3.762 3.758 3.758 0 013.762 3.762 3.758 3.758 0 01-3.762 3.762 3.767 3.767 0 01-3.762-3.762zm-19.297 0c0-.25.201-.452.455-.452a.45.45 0 110 .903.451.451 0 01-.455-.451zm-25.629-.001a3.467 3.467 0 016.933 0 3.467 3.467 0 01-6.933 0zm-21.473.001a2.319 2.319 0 012.322-2.317 2.314 2.314 0 012.312 2.317 2.314 2.314 0 01-2.312 2.317 2.319 2.319 0 01-2.322-2.317zm-21.887 0a1.59 1.59 0 113.18 0 1.59 1.59 0 01-3.18 0zm-22.828-.001a1.8 1.8 0 113.6 0 1.8 1.8 0 01-3.6 0zm-21.925 0a1.116 1.116 0 112.232-.002 1.116 1.116 0 01-2.232.002zm-25.411.002a3.913 3.913 0 017.823 0 3.912 3.912 0 01-7.823 0zm-20.726-.002a2.02 2.02 0 114.04.001 2.02 2.02 0 01-4.04-.001zm-23.817.002a3.227 3.227 0 013.224-3.224 3.227 3.227 0 013.224 3.224 3.226 3.226 0 01-3.224 3.223 3.226 3.226 0 01-3.224-3.223zm-22.714-.001a3.326 3.326 0 013.324-3.325 3.325 3.325 0 010 6.649 3.33 3.33 0 01-3.324-3.324zm-21.231-.002c0-1.073.867-1.94 1.936-1.94 1.077 0 1.945.872 1.945 1.94a1.94 1.94 0 11-3.881 0zm-23.676.002a2.997 2.997 0 115.996 0c0 1.655-1.34 3-2.995 3a3.008 3.008 0 01-3.001-3zm-21.664-.002a2.045 2.045 0 114.09 0 2.045 2.045 0 01-4.09 0zm-23.433.001a2.865 2.865 0 012.869-2.869 2.87 2.87 0 010 5.738 2.87 2.87 0 01-2.869-2.869zm-22.571.001a2.826 2.826 0 112.825 2.825 2.832 2.832 0 01-2.825-2.825zm-23.699 0a3.904 3.904 0 113.903 3.902 3.906 3.906 0 01-3.903-3.902zm-20.976-.001a2.27 2.27 0 114.542 0 2.273 2.273 0 01-2.269 2.273 2.276 2.276 0 01-2.273-2.273zm-21.532 0a1.183 1.183 0 112.367 0 1.183 1.183 0 01-2.367 0zm-23.765 0a2.336 2.336 0 012.339-2.339 2.331 2.331 0 012.33 2.339 2.333 2.333 0 01-2.33 2.338 2.34 2.34 0 01-2.34-2.338zm-21.707-.001a1.433 1.433 0 112.865.002 1.433 1.433 0 01-2.865-.002zm-23.723.002a2.538 2.538 0 012.536-2.536 2.532 2.532 0 012.536 2.536 2.534 2.534 0 01-2.536 2.536 2.54 2.54 0 01-2.536-2.536zm-23.094-.002a3.019 3.019 0 013.022-3.018 3.018 3.018 0 013.018 3.018 3.022 3.022 0 01-3.018 3.022 3.029 3.029 0 01-3.022-3.022zm568.386 3.706a3.743 3.743 0 01-2.619-1.082 3.762 3.762 0 01-1.091-2.628c0-.972.394-1.927 1.091-2.619a3.739 3.739 0 012.619-1.09c.977 0 1.936.398 2.628 1.09a3.747 3.747 0 011.082 2.619c0 .982-.395 1.928-1.082 2.628a3.755 3.755 0 01-2.628 1.082zm-25.476-31.197a2.865 2.865 0 115.728 0 2.865 2.865 0 01-5.728 0zm-21.238.001c0-.819.666-1.485 1.485-1.485.819 0 1.485.666 1.485 1.485 0 .819-.666 1.485-1.485 1.485a1.486 1.486 0 01-1.485-1.485zm-24.922-.001a3.79 3.79 0 013.789-3.789 3.79 3.79 0 013.788 3.789 3.792 3.792 0 01-3.788 3.788 3.787 3.787 0 01-3.789-3.788zm-22.613 0a3.79 3.79 0 013.793-3.793 3.794 3.794 0 010 7.586 3.786 3.786 0 01-3.793-3.793zm-20.328-.001c0-.828.674-1.503 1.502-1.503s1.503.675 1.503 1.503c0 .828-.675 1.502-1.503 1.502a1.504 1.504 0 01-1.502-1.502zm-22.125.001a1.007 1.007 0 112.014 0 1.007 1.007 0 01-2.014 0zm-22.336-.002c0-.407.333-.74.74-.74s.74.333.74.74a.74.74 0 11-1.48 0zm-25.777.002a3.893 3.893 0 117.787-.001 3.893 3.893 0 01-7.787.001zm-20.551 0c0-1.017.819-1.836 1.839-1.836a1.836 1.836 0 110 3.671 1.83 1.83 0 01-1.839-1.835zm-24.524-.001a3.747 3.747 0 013.745-3.745 3.747 3.747 0 013.745 3.745 3.747 3.747 0 01-3.745 3.745 3.747 3.747 0 01-3.745-3.745zm-20.035.001c0-.639.521-1.156 1.161-1.156.644 0 1.161.517 1.161 1.156a1.16 1.16 0 11-2.322 0zm-23.754 0a2.304 2.304 0 114.608 0 2.304 2.304 0 01-4.608 0zm-23.215-.001a2.9 2.9 0 015.799 0 2.9 2.9 0 11-5.799 0zm-20.367 0a.657.657 0 111.314 0 .657.657 0 01-1.314 0zm-23.808.002a1.849 1.849 0 113.698.002 1.849 1.849 0 01-3.698-.002zm-22.602-.002c0-1.007.819-1.831 1.827-1.831a1.83 1.83 0 110 3.662 1.83 1.83 0 01-1.827-1.831zm-22.574 0a1.79 1.79 0 111.791 1.791 1.787 1.787 0 01-1.791-1.791zm-21.652.001a.83.83 0 01.827-.828.83.83 0 01.828.828.83.83 0 01-.828.828.824.824 0 01-.827-.828zm-22.293.001a.51.51 0 01.512-.512.51.51 0 01.512.512.51.51 0 01-.512.513.51.51 0 01-.512-.513zm-24.438-.003a2.33 2.33 0 112.33 2.331 2.327 2.327 0 01-2.33-2.331zm-23.543.003a3.258 3.258 0 116.516 0 3.258 3.258 0 01-6.516 0zm-22.121-.002a2.77 2.77 0 012.772-2.772 2.776 2.776 0 012.773 2.772 2.776 2.776 0 01-2.773 2.773 2.768 2.768 0 01-2.772-2.773zm-24.117.002a4.265 4.265 0 118.533-.002 4.265 4.265 0 01-8.533.002zm-20.703 0a2.352 2.352 0 114.704 0 2.352 2.352 0 01-4.704 0zm-22.149-.001a1.893 1.893 0 113.783.002 1.893 1.893 0 01-3.783-.002zm567.263 2.87a2.872 2.872 0 01-2.023-.837 2.879 2.879 0 01-.841-2.028c0-.749.311-1.489.841-2.023a2.864 2.864 0 012.023-.841c.758 0 1.498.311 2.028.841a2.872 2.872 0 010 4.051 2.89 2.89 0 01-2.028.837zm-26.364-30.359a3.744 3.744 0 013.745-3.749 3.749 3.749 0 110 7.498 3.744 3.744 0 01-3.745-3.749zm-19.926.001c0-.587.477-1.064 1.06-1.064a1.065 1.065 0 010 2.128c-.583 0-1.06-.477-1.06-1.064zm-25.645.001a4.093 4.093 0 014.091-4.091 4.093 4.093 0 014.091 4.091 4.093 4.093 0 01-4.091 4.091 4.093 4.093 0 01-4.091-4.091zm-22.582-.001a4.062 4.062 0 014.065-4.064 4.067 4.067 0 014.064 4.064 4.067 4.067 0 01-4.064 4.065 4.06 4.06 0 01-4.065-4.065zm-20.14-.001a1.58 1.58 0 113.158.004 1.58 1.58 0 01-3.158-.004zm-23.035.001c0-1.108.893-2.006 2.006-2.006 1.112 0 2.01.898 2.01 2.006a2.007 2.007 0 11-4.016 0zm-23.02-.001a2.41 2.41 0 012.409-2.409 2.408 2.408 0 012.409 2.409 2.41 2.41 0 01-2.409 2.409 2.41 2.41 0 01-2.409-2.409zm-21.691.001a1.48 1.48 0 112.959.001 1.48 1.48 0 01-2.959-.001zm-24.344 0a3.211 3.211 0 013.215-3.215 3.217 3.217 0 013.215 3.215 3.214 3.214 0 11-6.43 0zm-22.684-.001a3.281 3.281 0 016.561 0 3.28 3.28 0 11-6.561 0zm-20.168.001a.832.832 0 111.664 0 .832.832 0 01-1.664 0zm-23.695.001a1.918 1.918 0 113.836-.002 1.918 1.918 0 01-3.836.002zm-23.574-.002a2.88 2.88 0 012.877-2.878 2.88 2.88 0 012.878 2.878 2.88 2.88 0 01-2.878 2.877 2.88 2.88 0 01-2.877-2.877zm-23.422 0a3.679 3.679 0 013.683-3.675 3.67 3.67 0 013.666 3.675 3.67 3.67 0 01-3.666 3.675 3.679 3.679 0 01-3.683-3.675zm-21.398.002a2.464 2.464 0 012.465-2.462 2.464 2.464 0 11-2.465 2.462zm-23.864-.002c0-2.045 1.66-3.71 3.71-3.71s3.71 1.66 3.71 3.71c0 2.045-1.66 3.71-3.71 3.71a3.712 3.712 0 01-3.71-3.71zm-20.539.001a1.643 1.643 0 113.285.001 1.643 1.643 0 01-3.285-.001zm-23.086.001a2.107 2.107 0 014.214 0 2.111 2.111 0 01-2.107 2.111 2.111 2.111 0 01-2.107-2.111zm-22.984-.001a2.474 2.474 0 114.949 0 2.474 2.474 0 01-4.949 0zm-21.719-.001a1.584 1.584 0 013.167 0 1.58 1.58 0 01-1.581 1.581 1.582 1.582 0 01-1.586-1.581zm-23.676.002a2.642 2.642 0 012.646-2.641 2.641 2.641 0 010 5.282 2.643 2.643 0 01-2.646-2.641zm-24.269-.002a4.296 4.296 0 014.3-4.292 4.294 4.294 0 010 8.585 4.296 4.296 0 01-4.3-4.293zm-20.903.002a2.591 2.591 0 012.589-2.589 2.591 2.591 0 012.588 2.589 2.59 2.59 0 01-2.588 2.588 2.59 2.59 0 01-2.589-2.588zm-22.226 0a2.19 2.19 0 114.381.001 2.19 2.19 0 01-4.381-.001zm-21.789-.001a1.375 1.375 0 112.75 0 1.375 1.375 0 01-2.75 0zm566.741 1.869a1.865 1.865 0 01-1.866-1.87 1.877 1.877 0 011.866-1.87c.495 0 .976.197 1.322.552a1.864 1.864 0 010 2.641c-.346.35-.827.547-1.322.547zm-25.464-29.358a2.848 2.848 0 015.698 0 2.848 2.848 0 01-5.698 0zm-23.89.002a4.127 4.127 0 018.251 0 4.127 4.127 0 01-8.251 0zm-22.336.001a3.845 3.845 0 013.845-3.846 3.842 3.842 0 013.846 3.846 3.842 3.842 0 01-3.846 3.845 3.847 3.847 0 01-3.845-3.845zm-19.645-.001a.88.88 0 111.76 0 .88.88 0 01-1.76 0zm-25.867 0a4.128 4.128 0 118.256 0 4.13 4.13 0 01-4.126 4.13 4.137 4.137 0 01-4.13-4.13zm-20.242-.002a1.76 1.76 0 113.52-.002 1.76 1.76 0 01-3.52.002zm-22.364 0a1.512 1.512 0 113.023.001 1.512 1.512 0 01-3.023-.001zm-22.05.001c0-.517.42-.938.937-.938a.938.938 0 010 1.875.938.938 0 01-.937-.937zm-25.524 0a3.847 3.847 0 013.85-3.85 3.853 3.853 0 013.85 3.85 3.85 3.85 0 11-7.7 0zm-21.336 0a2.571 2.571 0 115.143.003 2.571 2.571 0 01-5.143-.003zm-22.644-.001a2.6 2.6 0 012.597-2.597 2.597 2.597 0 11-2.597 2.597zm-23.453.002a3.443 3.443 0 116.886 0 3.443 3.443 0 01-6.886 0zm-22.543 0a3.369 3.369 0 116.738.002 3.369 3.369 0 01-6.738-.002zm-21.895.001a2.653 2.653 0 115.304 0 2.656 2.656 0 01-2.658 2.654 2.65 2.65 0 01-2.646-2.654zm-21.07-.002a1.105 1.105 0 111.104 1.104 1.105 1.105 0 01-1.104-1.104zm-24.223 0a2.708 2.708 0 012.707-2.707 2.709 2.709 0 012.707 2.707 2.708 2.708 0 01-5.414 0zm-20.805 0a.9.9 0 01.903-.902.9.9 0 110 1.804.904.904 0 01-.903-.902zm-22.828-.001a1.113 1.113 0 111.113 1.113c-.613 0-1.113-.5-1.113-1.113zm-24.363.001a2.856 2.856 0 115.713 0 2.856 2.856 0 01-5.713 0zm-21.633 0a1.879 1.879 0 113.757 0 1.879 1.879 0 01-3.757 0zm-21.273-.001a.533.533 0 111.067-.001.533.533 0 01-1.067.001zm-24.418 0a2.34 2.34 0 012.343-2.343 2.346 2.346 0 012.343 2.343 2.347 2.347 0 01-2.343 2.344 2.341 2.341 0 01-2.343-2.344zm-23.067.002a2.797 2.797 0 012.795-2.794 2.796 2.796 0 012.794 2.794 2.797 2.797 0 01-2.794 2.795 2.797 2.797 0 01-2.795-2.795zm-22.32-.001a2.494 2.494 0 012.492-2.492 2.494 2.494 0 012.492 2.492 2.494 2.494 0 01-2.492 2.492 2.494 2.494 0 01-2.492-2.492zm-23.16.001a3.043 3.043 0 116.088 0 3.043 3.043 0 11-6.088 0zm568.416.56a.564.564 0 01-.561-.561c0-.149.062-.289.167-.394a.566.566 0 01.394-.167.56.56 0 01.561.561.578.578 0 01-.162.398.585.585 0 01-.399.163zm-23.221-28.048a.605.605 0 11.605.604.609.609 0 01-.605-.605zm-23.535 0c0-.846.683-1.529 1.529-1.529a1.53 1.53 0 010 3.057 1.533 1.533 0 01-1.529-1.528zm-21.863 0a.774.774 0 111.55 0 .777.777 0 01-.775.776.78.78 0 01-.775-.776zm-24.516-.001a2.676 2.676 0 115.351 0 2.676 2.676 0 01-5.351 0zm-21.754 0a1.814 1.814 0 111.814 1.813 1.818 1.818 0 01-1.814-1.813zm-24.371.002a3.56 3.56 0 117.121 0 3.56 3.56 0 01-7.121 0zm-20.566-.002a1.525 1.525 0 013.048 0c0 .841-.683 1.524-1.524 1.524a1.53 1.53 0 01-1.524-1.524zm-22.145 0a1.047 1.047 0 112.094 0 1.047 1.047 0 01-2.094 0zm-23.031.002a1.467 1.467 0 112.935 0 1.467 1.467 0 01-2.935 0zm-23.566-.003a2.416 2.416 0 012.417-2.417 2.42 2.42 0 012.418 2.417 2.42 2.42 0 01-2.418 2.418 2.425 2.425 0 01-2.417-2.418zm-23.184.003a2.98 2.98 0 115.961 0 2.98 2.98 0 01-2.983 2.982 2.988 2.988 0 01-2.978-2.982zm-21.148-.002a1.525 1.525 0 013.048 0c0 .841-.683 1.524-1.524 1.524a1.53 1.53 0 01-1.524-1.524zm-23.922.001a2.826 2.826 0 115.652.001 2.826 2.826 0 01-5.652-.001zm-22.176-.001a2.387 2.387 0 114.774 0 2.386 2.386 0 11-4.774 0zm-23.668.001a3.443 3.443 0 113.443 3.442 3.449 3.449 0 01-3.443-3.442zm-21.125 0a1.948 1.948 0 113.898 0 1.948 1.948 0 11-3.898 0zm-22.68 0a2.016 2.016 0 114.031.001 2.016 2.016 0 01-4.031-.001zm-21.203.001a.601.601 0 011.2 0 .6.6 0 01-1.2 0zm-25.191-.002a3.18 3.18 0 116.359 0 3.178 3.178 0 01-3.184 3.18 3.176 3.176 0 01-3.175-3.18zm-22.981 0a3.55 3.55 0 013.548-3.547 3.55 3.55 0 013.548 3.547 3.55 3.55 0 01-3.548 3.548 3.55 3.55 0 01-3.548-3.548zm-19.679-.001a.61.61 0 01.608-.609.61.61 0 010 1.218.616.616 0 01-.608-.609zm-24.34.003a2.333 2.333 0 114.665 0 2.333 2.333 0 11-4.665 0zm-23.121-.002a2.845 2.845 0 012.842-2.842 2.845 2.845 0 012.843 2.842 2.845 2.845 0 01-2.843 2.843 2.848 2.848 0 01-2.842-2.843zm-22.333.001a2.558 2.558 0 115.117 0 2.558 2.558 0 01-5.116 0zm-24.265 0a4.21 4.21 0 014.209-4.209 4.21 4.21 0 014.209 4.21 4.21 4.21 0 01-4.209 4.209 4.216 4.216 0 01-4.209-4.21zm-22.051-.002a3.647 3.647 0 013.644-3.644 3.647 3.647 0 013.644 3.644 3.647 3.647 0 01-3.644 3.644 3.647 3.647 0 01-3.644-3.644zm591.633 4.043c-1.06 0-2.103-.43-2.856-1.178a4.078 4.078 0 01-1.187-2.865c0-1.06.438-2.102 1.187-2.855a4.056 4.056 0 012.856-1.187c1.068 0 2.111.438 2.864 1.187a4.05 4.05 0 011.178 2.855 4.087 4.087 0 01-1.178 2.865 4.094 4.094 0 01-2.864 1.178zM561.23 59.109a1.116 1.116 0 112.233 0 1.116 1.116 0 01-2.233 0zm-22.234.001a.73.73 0 01.732-.731.73.73 0 110 1.463.728.728 0 01-.732-.732zm-24.555 0a2.671 2.671 0 115.343-.001 2.671 2.671 0 01-5.343 0zm-22.164.002c0-1.227.999-2.225 2.225-2.225 1.227 0 2.225.998 2.225 2.225a2.226 2.226 0 01-4.45 0zm-23.453 0a3.057 3.057 0 113.057 3.057 3.052 3.052 0 01-3.057-3.057zm-21.199-.002a1.652 1.652 0 113.3.002 1.652 1.652 0 01-3.3-.002zm-24.875 0a3.91 3.91 0 013.907-3.907 3.91 3.91 0 013.907 3.907 3.908 3.908 0 01-7.814 0zm-20.258 0c0-.85.692-1.542 1.542-1.542.85 0 1.542.692 1.542 1.542a1.541 1.541 0 11-3.084 0zm-24.387-.001a3.32 3.32 0 116.639.001 3.32 3.32 0 01-6.639-.001zm-20.359.002a1.065 1.065 0 112.13.002 1.065 1.065 0 01-2.13-.002zm-22.859-.001a1.306 1.306 0 112.611 0 1.306 1.306 0 01-2.611 0zm-23.668 0a2.362 2.362 0 014.721 0 2.362 2.362 0 01-4.721 0zm-22.164-.001a1.909 1.909 0 111.909 1.91 1.908 1.908 0 01-1.909-1.91zm-23.453.001a2.751 2.751 0 012.754-2.755 2.757 2.757 0 012.755 2.755 2.757 2.757 0 01-2.755 2.755 2.751 2.751 0 01-2.754-2.755zm-22.036 0a2.17 2.17 0 012.168-2.169 2.17 2.17 0 012.168 2.168 2.17 2.17 0 01-2.168 2.168 2.17 2.17 0 01-2.168-2.168zm-22.164.001a1.717 1.717 0 013.434 0c0 .947-.766 1.713-1.717 1.713a1.713 1.713 0 01-1.717-1.713zm-24.793-.002a3.901 3.901 0 013.898-3.898 3.9 3.9 0 013.898 3.898 3.9 3.9 0 01-3.898 3.898 3.901 3.901 0 01-3.898-3.898zm-19.855.002a1.14 1.14 0 112.279.002 1.14 1.14 0 01-2.279-.002zm-22.277-.001a.797.797 0 111.593-.001.797.797 0 01-1.593 0zm-23.61 0a1.796 1.796 0 113.591 0 1.796 1.796 0 01-3.591 0zm-24.855 0a4.034 4.034 0 118.069.001 4.034 4.034 0 01-8.069-.001zm-20.872 0a2.288 2.288 0 014.578 0 2.289 2.289 0 01-4.577 0zm-23.359 0a3.037 3.037 0 013.036-3.036 3.04 3.04 0 013.035 3.035 3.034 3.034 0 01-3.035 3.036 3.034 3.034 0 01-3.036-3.036zm-20.41-.001a.826.826 0 111.651 0 .827.827 0 01-.828.828.823.823 0 01-.823-.828zm-24.137.001a2.352 2.352 0 114.705 0 2.352 2.352 0 01-4.705 0zm567.724 3.119a3.121 3.121 0 01-2.199-.911 3.148 3.148 0 01-.915-2.208c0-.815.337-1.62.915-2.199a3.144 3.144 0 012.199-.915c.823 0 1.625.337 2.207.915.578.583.911 1.376.911 2.2 0 .823-.328 1.624-.911 2.207a3.151 3.151 0 01-2.207.91zM561.68 31.623a.67.67 0 111.34 0 .67.67 0 01-1.34 0zm-26.106 0a4.156 4.156 0 014.152-4.152 4.155 4.155 0 014.152 4.152 4.155 4.155 0 01-4.152 4.152 4.156 4.156 0 01-4.152-4.152zm-22.25.001a3.785 3.785 0 117.57.002 3.785 3.785 0 01-7.57-.002zm-21.613-.002a2.786 2.786 0 012.79-2.79 2.792 2.792 0 012.79 2.79 2.792 2.792 0 01-2.79 2.79 2.786 2.786 0 01-2.79-2.79zm-20.531.001a.7.7 0 01.7-.701c.386 0 .697.31.697.7a.702.702 0 01-.697.701.702.702 0 01-.7-.7zm-24.246 0a2.333 2.333 0 114.668 0 2.333 2.333 0 11-4.668 0zm-20.93 0c0-.36.289-.648.648-.648a.65.65 0 11-.648.648zm-24.836-.001a2.865 2.865 0 015.729 0 2.866 2.866 0 01-2.865 2.865 2.862 2.862 0 01-2.864-2.865zm-23.957 0a4.217 4.217 0 014.213-4.222 4.226 4.226 0 014.231 4.223 4.226 4.226 0 01-4.231 4.222 4.214 4.214 0 01-4.213-4.223zm-20.586.001a2.182 2.182 0 114.367 0 2.185 2.185 0 01-2.181 2.186 2.189 2.189 0 01-2.186-2.186zm-22.852-.001a2.416 2.416 0 014.831 0 2.412 2.412 0 01-2.413 2.414 2.413 2.413 0 01-2.418-2.414zm-23.304 0a3.118 3.118 0 013.114-3.114 3.115 3.115 0 11-3.114 3.114zm-20.875.001a1.37 1.37 0 112.742 0 1.37 1.37 0 11-2.742 0zm-23.574 0a2.338 2.338 0 014.673 0 2.338 2.338 0 01-4.673 0zm-22.411-.001a2.124 2.124 0 114.248 0 2.124 2.124 0 01-4.248 0zm-21.183 0a.693.693 0 011.384 0 .694.694 0 01-.692.692.694.694 0 01-.692-.692zm-25.434 0a3.514 3.514 0 013.517-3.517 3.52 3.52 0 013.517 3.517 3.52 3.52 0 01-3.517 3.517 3.514 3.514 0 01-3.517-3.517zm-21.183.001a2.075 2.075 0 114.154-.002 2.075 2.075 0 01-4.154.002zm-23.293-.001a2.754 2.754 0 115.509 0 2.754 2.754 0 11-5.509 0zm-22.961-.002a3.108 3.108 0 013.105-3.104 3.109 3.109 0 013.105 3.105 3.109 3.109 0 01-3.105 3.105 3.108 3.108 0 01-3.105-3.105zm-21.625.003c0-1.17.946-2.115 2.115-2.115a2.114 2.114 0 110 4.23 2.114 2.114 0 01-2.115-2.115zm-24.34-.001a3.838 3.838 0 013.837-3.837 3.84 3.84 0 013.845 3.837 3.841 3.841 0 01-7.682 0zm-19.856-.002a1.083 1.083 0 012.164 0 1.081 1.081 0 11-2.164 0zm-23.476.003a1.936 1.936 0 113.873.002 1.936 1.936 0 01-3.873-.002zm-21.766-.001a1.095 1.095 0 112.189 0 1.095 1.095 0 01-2.189 0zm566.466 3.369c-.885 0-1.752-.36-2.378-.985a3.417 3.417 0 01-.99-2.387 3.4 3.4 0 01.99-2.387 3.397 3.397 0 012.378-.986c.889 0 1.761.364 2.387.986.626.626.985 1.498.985 2.387s-.359 1.752-.985 2.387a3.381 3.381 0 01-2.387.985zM561.016 4.134a1.33 1.33 0 112.663 0 1.331 1.331 0 11-2.663 0zm-22.321.001a1.032 1.032 0 012.063 0 1.032 1.032 0 01-2.063 0zm-25.265-.001a3.679 3.679 0 117.357 0 3.679 3.679 0 01-7.357 0zm-19.836-.001a.905.905 0 111.813 0 .906.906 0 11-1.813 0zm-23.352.002a1.643 1.643 0 111.643 1.642 1.646 1.646 0 01-1.643-1.642zm-23.207.001a2.231 2.231 0 114.462.003 2.231 2.231 0 01-4.462-.003zm-24.09 0c0-2.05 1.665-3.71 3.71-3.71a3.715 3.715 0 013.71 3.71c0 2.05-1.665 3.71-3.71 3.71a3.715 3.715 0 01-3.71-3.71zm-20.777-.001a1.867 1.867 0 013.732 0c0 1.03-.837 1.866-1.866 1.866a1.868 1.868 0 01-1.866-1.866zm-23.727 0a2.983 2.983 0 012.987-2.987 2.985 2.985 0 012.988 2.987 2.985 2.985 0 01-2.988 2.988 2.985 2.985 0 01-2.987-2.988zm-22.015 0a2.386 2.386 0 014.769 0 2.386 2.386 0 01-4.769 0zm-24.102 0a3.872 3.872 0 013.868-3.867 3.866 3.866 0 013.867 3.867 3.868 3.868 0 01-7.735 0zm-22.273.001a3.53 3.53 0 113.53 3.53 3.536 3.536 0 01-3.53-3.53zm-21.895-.001a2.802 2.802 0 115.607-.001 2.802 2.802 0 01-5.607.001zm-21.34 0a1.535 1.535 0 113.07.003 1.535 1.535 0 01-3.07-.003zm-23.679 0a2.6 2.6 0 012.597-2.602 2.602 2.602 0 010 5.203 2.603 2.603 0 01-2.597-2.601zm-21.93-.001a1.909 1.909 0 113.819 0 1.909 1.909 0 11-3.819 0zm-21.359 0a.66.66 0 111.32-.002.66.66 0 01-1.32.002zm-24.098.001a2.14 2.14 0 012.137-2.137 2.14 2.14 0 012.138 2.137 2.14 2.14 0 01-2.138 2.138 2.14 2.14 0 01-2.137-2.138zm-22.598 0c0-1.169.951-2.12 2.12-2.12 1.17 0 2.12.951 2.12 2.12a2.119 2.119 0 11-4.24 0zm-24.121 0a3.63 3.63 0 013.631-3.631 3.63 3.63 0 11-3.631 3.63zm-23.121 0A4.137 4.137 0 01110.045 0a4.136 4.136 0 014.134 4.135 4.136 4.136 0 01-4.134 4.134 4.137 4.137 0 01-4.135-4.134zm-19.594.001c0-.613.5-1.113 1.113-1.113s1.112.5 1.112 1.113-.495 1.112-1.112 1.112a1.114 1.114 0 01-1.113-1.112zm-23.453-.001a1.95 1.95 0 011.95-1.95 1.95 1.95 0 011.948 1.95 1.948 1.948 0 01-1.949 1.949 1.95 1.95 0 01-1.949-1.95zM41 4.133a1.197 1.197 0 112.394.003A1.197 1.197 0 0141 4.133zm-23.191.001c0-.98.797-1.782 1.782-1.782a1.781 1.781 0 110 3.565 1.787 1.787 0 01-1.782-1.783zm-24.477.001A3.637 3.637 0 01-3.033.5 3.637 3.637 0 01.603 4.135a3.637 3.637 0 01-3.636 3.636 3.637 3.637 0 01-3.635-3.636zM584.96 8.17a4.061 4.061 0 01-2.847-1.179 4.075 4.075 0 01-1.187-2.856c0-1.055.433-2.098 1.187-2.846A4.033 4.033 0 01584.96.101a4.037 4.037 0 012.855 6.889 4.066 4.066 0 01-2.855 1.178z" opacity=".08" fill="#070E27"/></svg>