<svg width="32" height="32" viewBox="0 0 32 32" fill="none" xmlns="http://www.w3.org/2000/svg">
<path fill-rule="evenodd" clip-rule="evenodd" d="M16 32C7.16344 32 0 24.8366 0 16C0 7.16344 7.16344 0 16 0C24.8366 0 32 7.16344 32 16C32 24.8366 24.8366 32 16 32ZM10.1838 10.3677C11.3899 10.3677 12.3677 9.38994 12.3677 8.18384C12.3677 6.97774 11.3899 6 10.1838 6C8.97774 6 8 6.97774 8 8.18384C8 9.38994 8.97774 10.3677 10.1838 10.3677ZM14.3677 11.9816H17.987V13.6396C17.987 13.6396 18.9692 11.6753 21.6415 11.6753C24.0253 11.6753 26 12.8496 26 16.4291V23.977H22.2494V17.3437C22.2494 15.2322 21.1221 14.9999 20.2631 14.9999C18.4803 14.9999 18.1751 16.5376 18.1751 17.6191V23.977H14.3677V11.9816ZM12.0876 11.9816H8.28013V23.977H12.0876V11.9816Z" fill="currentColor"/>
</svg>
