<svg width="32" height="32" viewBox="0 0 32 32" fill="none" xmlns="http://www.w3.org/2000/svg">
<path fill-rule="evenodd" clip-rule="evenodd" d="M16 32C7.16344 32 0 24.8366 0 16C0 7.16344 7.16344 0 16 0C24.8366 0 32 7.16344 32 16C32 24.8366 24.8366 32 16 32ZM24.625 11.5C25.5 11.375 26.25 11.25 27 10.875C26.5 11.75 25.75 12.5 24.875 13C25.125 18.875 20.875 25.25 13.25 25.25C11 25.25 8.875 24.5 7 23.375C9.125 23.625 11.375 23 12.875 21.875C11 21.875 9.5 20.625 9 19C9.625 19.125 10.25 19 10.875 18.875C9 18.375 7.625 16.625 7.625 14.75C8.25 15 8.875 15.25 9.5 15.25C7.75 14 7.125 11.625 8.25 9.75C10.375 12.25 13.375 13.875 16.75 14C16.125 11.5 18.125 9 20.75 9C21.875 9 23 9.5 23.75 10.25C24.75 10 25.625 9.75 26.375 9.25C26.125 10.25 25.5 11 24.625 11.5Z" fill="currentColor"/>
</svg>
