<svg width="32" height="32" fill="none" xmlns="http://www.w3.org/2000/svg"><path fill-rule="evenodd" clip-rule="evenodd" d="M16 32C7.163 32 0 24.837 0 16S7.163 0 16 0s16 7.163 16 16-7.163 16-16 16zm-5.816-21.632a2.184 2.184 0 100-4.368 2.184 2.184 0 000 4.368zm4.184 1.614h3.619v1.658s.982-1.965 3.655-1.965c2.383 0 4.358 1.175 4.358 4.754v7.548h-3.75v-6.633c0-2.112-1.128-2.344-1.987-2.344-1.783 0-2.088 1.538-2.088 2.62v6.357h-3.807V11.982zm-2.28 0H8.28v11.995h3.808V11.982z" fill="currentColor"/></svg>