<svg class="svg-icon" style="width:1em;height:1em;vertical-align:middle" viewBox="0 0 1024 1024" xmlns="http://www.w3.org/2000/svg" fill="currentColor" overflow="hidden"><path d="M512 16C238.064 16 16 238.064 16 512s222.064 496 496 496 496-222.064 496-496S785.936 16 512 16zM307.488 346.672h409.008c5.184 0 10.064 1.232 14.464 3.296L534.272 488.032c-17.104 17.12-27.696 17.12-44.8 0L292.864 350.048c4.464-2.112 9.376-3.376 14.624-3.376zm443.328 305.52c0 18.96-15.36 34.336-34.304 34.336H307.488c-18.944 0-34.304-15.376-34.304-34.336V391.296c0-1.728.256-3.376.512-5.024l201.92 143.312c20.096 20.112 52.688 20.112 72.784 0l201.92-143.312c.24 1.648.512 3.296.512 5.024v260.896z"/></svg>