<svg width="32" height="32" fill="none" xmlns="http://www.w3.org/2000/svg"><path fill-rule="evenodd" clip-rule="evenodd" d="M16 32C7.163 32 0 24.837 0 16S7.163 0 16 0s16 7.163 16 16-7.163 16-16 16zm8.625-20.5c.875-.125 1.625-.25 2.375-.625A5.776 5.776 0 0124.875 13c.25 5.875-4 12.25-11.625 12.25-2.25 0-4.375-.75-6.25-1.875 2.125.25 4.375-.375 5.875-1.5C11 21.875 9.5 20.625 9 19c.625.125 1.25 0 1.875-.125-1.875-.5-3.25-2.25-3.25-4.125.625.25 1.25.5 1.875.5-1.75-1.25-2.375-3.625-1.25-5.5 2.125 2.5 5.125 4.125 8.5 4.25-.625-2.5 1.375-5 4-5 1.125 0 2.25.5 3 1.25 1-.25 1.875-.5 2.625-1-.25 1-.875 1.75-1.75 2.25z" fill="currentColor"/></svg>