<?xml version="1.0" standalone="no"?>
<!DOCTYPE svg PUBLIC "-//W3C//DTD SVG 20010904//EN"
 "http://www.w3.org/TR/2001/REC-SVG-20010904/DTD/svg10.dtd">
<svg version="1.0" xmlns="http://www.w3.org/2000/svg"
 width="1088.000000pt" height="1088.000000pt" viewBox="0 0 1088.000000 1088.000000"
 preserveAspectRatio="xMidYMid meet">
<metadata>
Created by potrace 1.14, written by Peter Selinger 2001-2017
</metadata>
<g transform="translate(0.000000,1088.000000) scale(0.100000,-0.100000)"
fill="#000000" stroke="none">
<path d="M8147 10845 c-37 -18 -68 -31 -70 -28 -2 2 -10 -3 -17 -12 -7 -8 -19
-15 -26 -15 -17 0 -56 -21 -66 -35 -4 -5 -8 -7 -8 -3 0 9 -82 -32 -91 -45 -3
-5 -10 -9 -15 -9 -14 -1 -38 -11 -44 -18 -8 -10 -84 -44 -93 -42 -4 1 -10 -5
-13 -13 -3 -8 -10 -13 -14 -10 -5 3 -14 -1 -22 -8 -7 -7 -17 -15 -23 -16 -5
-2 -9 -7 -7 -13 1 -5 -2 -7 -7 -4 -15 10 -101 -36 -102 -53 0 -9 -3 -11 -5 -5
-3 7 -40 -8 -97 -39 -51 -28 -94 -54 -97 -57 -3 -3 -30 -18 -60 -33 -30 -15
-62 -32 -70 -37 -14 -9 -121 -72 -210 -123 -19 -11 -47 -27 -62 -34 -16 -8
-28 -18 -28 -22 0 -4 -6 -8 -13 -8 -11 0 -65 -30 -143 -81 -10 -6 -26 -15 -34
-19 -8 -4 -21 -13 -28 -20 -7 -7 -20 -13 -28 -13 -8 0 -14 -4 -14 -10 0 -5 -5
-10 -11 -10 -6 0 -31 -13 -56 -30 -24 -16 -48 -30 -53 -30 -5 0 -14 -8 -19
-17 -6 -10 -11 -14 -11 -10 0 4 -20 -6 -44 -23 -25 -16 -49 -30 -55 -30 -6 0
-11 -4 -11 -10 0 -5 -7 -10 -15 -10 -8 0 -15 -3 -15 -7 0 -5 -18 -17 -40 -27
-22 -11 -40 -23 -40 -28 0 -5 -4 -6 -10 -3 -5 3 -10 2 -10 -3 0 -4 -27 -23
-60 -42 -33 -19 -60 -38 -60 -42 0 -5 -4 -6 -10 -3 -5 3 -10 1 -10 -4 0 -6 -5
-11 -11 -11 -6 0 -17 -7 -26 -15 -8 -8 -19 -13 -24 -10 -5 4 -9 1 -9 -5 0 -6
-11 -15 -25 -20 -14 -5 -25 -14 -25 -20 0 -5 -4 -10 -10 -10 -10 0 -116 -65
-137 -84 -6 -6 -36 -26 -67 -45 -31 -18 -56 -38 -56 -43 0 -5 -4 -7 -9 -3 -5
3 -15 -1 -23 -8 -7 -7 -28 -22 -45 -32 -18 -11 -33 -23 -33 -28 0 -4 -5 -5
-12 -1 -7 5 -9 2 -5 -8 4 -12 1 -14 -14 -11 -10 3 -19 1 -19 -3 0 -5 -18 -20
-40 -34 -22 -14 -40 -28 -40 -32 0 -5 -6 -8 -14 -8 -7 0 -25 -11 -40 -25 -14
-13 -26 -22 -26 -19 0 3 -6 -1 -14 -8 -8 -7 -12 -16 -9 -20 2 -4 -2 -5 -9 -3
-8 3 -23 -2 -34 -12 -11 -10 -28 -22 -37 -28 -35 -21 -134 -91 -173 -122 -23
-18 -44 -33 -48 -33 -4 0 -18 -12 -31 -26 -13 -14 -26 -24 -28 -22 -3 2 -17
-7 -31 -19 -15 -13 -31 -23 -36 -23 -6 0 -10 -3 -10 -7 0 -5 -20 -21 -45 -36
-25 -16 -45 -33 -45 -38 0 -5 -5 -9 -11 -9 -18 0 -59 -37 -51 -45 4 -5 2 -5
-4 -2 -13 7 -60 -30 -57 -44 2 -4 -3 -6 -10 -3 -7 2 -30 -11 -51 -31 -21 -19
-42 -35 -47 -35 -4 0 -16 -8 -26 -18 -10 -11 -49 -43 -88 -72 -38 -29 -72 -56
-75 -59 -3 -4 -21 -18 -40 -31 -19 -13 -64 -48 -100 -78 -134 -111 -153 -127
-164 -137 -6 -6 -31 -26 -56 -45 -24 -19 -57 -46 -72 -60 -15 -14 -43 -39 -63
-57 -19 -18 -35 -31 -35 -29 0 4 -86 -73 -152 -135 -26 -25 -48 -43 -48 -40 0
3 -15 -11 -33 -31 -19 -21 -36 -38 -40 -38 -12 0 -105 -99 -99 -106 4 -4 2 -4
-4 -1 -6 3 -21 -5 -32 -18 -12 -14 -27 -25 -34 -25 -6 0 -9 -2 -6 -5 3 -3 -22
-32 -55 -63 -33 -31 -77 -74 -98 -94 -22 -20 -39 -41 -39 -47 0 -6 -4 -11 -9
-11 -13 0 -76 -70 -74 -81 2 -5 -1 -8 -6 -6 -9 2 -151 -139 -151 -149 0 -3
-25 -30 -55 -60 -30 -31 -55 -59 -55 -62 -1 -4 -25 -34 -55 -66 -30 -33 -51
-64 -48 -70 3 -6 3 -8 -2 -4 -8 8 -15 2 -67 -64 -21 -25 -38 -51 -38 -58 0 -6
-4 -8 -10 -5 -5 3 -10 0 -10 -9 0 -8 -4 -16 -8 -18 -4 -1 -25 -25 -45 -53 -60
-81 -66 -88 -93 -122 -15 -19 -22 -38 -18 -45 4 -7 4 -10 -1 -6 -8 8 -45 -33
-45 -51 0 -6 -4 -11 -8 -11 -5 0 -15 -12 -23 -27 -8 -16 -21 -36 -30 -46 -9
-9 -22 -30 -30 -45 -7 -15 -21 -38 -31 -51 -10 -13 -16 -27 -13 -31 3 -4 -2
-11 -11 -14 -8 -3 -13 -10 -10 -15 4 -5 2 -11 -3 -13 -21 -7 -206 -372 -197
-387 3 -5 -1 -11 -9 -15 -8 -3 -15 -16 -15 -28 0 -13 -7 -32 -15 -42 -11 -15
-12 -23 -3 -33 9 -11 7 -12 -7 -7 -11 5 -16 3 -12 -3 3 -5 0 -21 -8 -36 -8
-15 -11 -27 -8 -27 3 0 -1 -7 -8 -17 -8 -9 -13 -18 -11 -20 1 -1 2 -4 1 -5 -3
-11 -11 -46 -13 -58 -1 -9 -5 -20 -8 -26 -4 -6 -9 -21 -12 -35 -3 -13 -10 -43
-16 -67 -18 -73 -24 -116 -25 -159 0 -22 -3 -39 -7 -37 -8 5 -8 13 -12 -198
l-3 -167 109 -3 c61 -2 111 -1 113 2 4 7 100 4 112 -3 4 -2 16 -2 25 2 10 3
52 4 94 1 42 -3 77 -3 79 0 2 3 74 3 160 0 86 -3 159 -2 162 3 2 4 13 2 24 -3
10 -6 19 -7 19 -3 0 4 17 7 37 6 21 -1 56 -3 79 -4 22 -1 46 1 52 5 7 4 12 2
12 -4 0 -6 4 -9 8 -6 8 5 89 7 167 5 22 0 43 0 48 1 19 5 65 3 80 -3 9 -3 19
-2 22 4 4 5 11 6 17 3 13 -9 97 -9 105 -1 3 3 16 2 29 -3 14 -6 24 -6 24 0 0
5 12 5 30 0 17 -5 32 -5 35 0 3 5 16 5 30 0 13 -5 27 -6 29 -1 3 4 26 5 51 1
25 -4 45 -3 45 1 0 4 13 4 30 -1 16 -5 32 -5 35 -1 2 4 25 5 50 1 25 -4 48 -3
51 1 2 5 16 4 29 -1 13 -5 27 -6 29 -1 3 4 26 5 51 1 25 -4 45 -3 45 1 0 4 13
4 29 -1 16 -4 32 -5 36 -2 7 7 116 5 123 -2 2 -3 15 -1 28 4 16 6 24 6 24 -1
0 -6 4 -8 8 -5 8 5 89 7 167 5 22 0 43 0 48 1 19 5 65 3 80 -3 9 -3 19 -2 22
4 4 5 11 6 17 3 13 -9 97 -9 105 -1 3 3 16 2 29 -3 13 -5 24 -6 24 -2 0 4 19
6 42 6 41 -1 43 -3 41 -30 -2 -25 -17 -124 -28 -189 -20 -115 -100 -429 -142
-558 -14 -43 -26 -84 -27 -90 -1 -7 -5 -17 -8 -23 -4 -6 -9 -21 -12 -35 -11
-56 -160 -456 -253 -679 -19 -47 -38 -94 -43 -105 -4 -11 -17 -40 -28 -65 -11
-25 -27 -61 -35 -80 -9 -19 -31 -69 -50 -110 -19 -41 -40 -92 -48 -112 -7 -21
-17 -38 -21 -38 -4 0 -8 -6 -8 -13 0 -8 -13 -41 -29 -74 -16 -33 -48 -100 -71
-148 -58 -123 -246 -499 -310 -620 -143 -272 -253 -477 -327 -608 -25 -45 -59
-107 -76 -137 -36 -65 -172 -302 -199 -345 -10 -16 -21 -37 -25 -45 -4 -8 -35
-61 -70 -119 -35 -57 -63 -105 -63 -108 0 -2 -16 -29 -35 -59 -19 -30 -35 -59
-35 -64 0 -6 -4 -10 -10 -10 -5 0 -10 -4 -10 -9 0 -5 -58 -103 -129 -218 -71
-114 -127 -210 -125 -212 14 -15 486 220 839 418 66 37 127 71 135 75 8 4 24
12 35 19 11 7 63 37 115 67 52 30 102 60 111 65 9 6 35 20 59 33 53 30 489
293 595 360 44 28 100 63 125 78 132 81 624 406 628 416 2 4 8 8 14 8 6 0 27
12 47 27 19 15 77 56 129 91 138 93 367 257 497 355 5 4 37 27 70 52 33 24 65
48 70 52 6 5 24 17 40 27 17 11 37 28 46 38 9 10 21 18 27 18 6 0 12 3 14 8 2
4 32 29 68 57 155 117 575 459 610 495 8 8 40 36 70 60 30 25 69 59 86 75 18
17 68 62 110 100 198 177 493 468 644 634 47 51 94 103 105 115 40 42 131 150
220 261 77 96 76 94 115 148 19 27 45 60 56 75 124 158 343 528 423 717 12 28
29 62 37 78 8 15 12 27 8 27 -3 0 -2 6 4 13 26 33 108 309 132 447 6 36 14 76
17 90 11 52 14 368 3 375 -6 4 -668 7 -1471 7 -1220 1 -1462 4 -1466 15 -3 7
-1 31 5 53 5 22 6 37 1 34 -5 -3 -5 5 1 18 8 20 14 49 37 173 8 44 11 60 13
60 1 0 3 10 6 23 2 12 6 32 8 45 3 12 5 23 7 25 2 2 3 7 13 47 4 17 11 40 16
53 7 16 6 22 -3 22 -8 0 -9 3 -1 8 9 6 22 42 23 65 1 4 7 22 14 40 15 35 39
127 37 141 -1 5 2 12 7 15 18 13 31 69 19 82 -8 9 -8 10 1 5 6 -3 15 6 22 24
5 17 7 30 3 30 -4 0 -2 4 3 8 6 4 19 34 29 67 10 33 22 65 26 70 4 6 11 24 15
40 10 38 9 34 24 70 7 17 24 61 38 100 14 38 28 74 31 80 4 5 7 15 7 20 1 6 8
26 17 45 14 34 29 70 33 80 1 3 8 19 15 35 7 17 14 32 15 35 0 3 11 28 24 55
12 28 24 55 25 60 1 6 12 32 24 59 13 28 20 56 18 62 -3 8 1 11 10 7 8 -3 14
-2 12 3 -3 13 46 134 54 134 5 0 8 8 8 18 0 10 7 27 15 38 8 10 15 27 15 37 0
9 5 17 10 17 6 0 9 3 8 8 -1 4 9 30 22 57 13 28 24 52 25 55 0 3 30 64 65 135
35 72 64 132 65 135 6 19 38 86 44 90 6 5 33 58 36 70 0 3 6 15 13 26 6 12 8
24 5 28 -3 3 -1 6 6 6 10 0 22 22 31 55 2 6 14 27 27 48 13 20 20 37 16 37 -5
0 -3 4 2 8 15 11 47 72 38 72 -4 0 -3 4 3 8 18 11 85 152 79 163 -4 5 -3 8 2
7 4 -2 9 1 10 5 1 4 9 15 18 23 8 9 13 20 10 25 -4 5 -2 9 4 9 5 0 15 16 22
35 7 19 17 35 21 35 4 0 8 6 8 14 0 7 7 19 15 26 8 7 15 21 15 31 0 11 4 19 8
19 5 0 22 28 38 63 16 34 32 64 37 65 4 2 7 8 7 14 0 5 9 22 20 38 11 15 17
30 13 34 -3 3 -1 6 6 6 7 0 9 5 6 10 -3 6 -3 10 2 10 4 0 19 21 32 48 14 26
32 55 40 66 9 10 14 19 11 20 -3 0 11 26 30 56 19 30 34 57 35 60 2 16 60 110
67 110 5 0 7 4 4 9 -3 5 2 19 12 32 11 13 25 39 33 57 8 17 17 32 20 32 4 0 9
8 12 18 4 9 17 35 31 57 14 22 31 51 39 65 27 50 42 75 48 80 10 9 79 131 79
141 0 5 5 9 11 9 5 0 7 5 4 10 -3 6 -2 10 3 10 5 0 17 17 28 37 10 21 27 46
37 57 9 11 17 24 17 29 0 6 11 25 25 43 14 18 25 36 25 39 0 4 8 19 19 33 58
83 117 189 106 189 -7 0 -42 -15 -78 -32z m-240 -450 c0 -8 -4 -12 -9 -9 -5 3
-6 10 -3 15 9 13 12 11 12 -6z m-857 -455 c0 -5 -5 -10 -11 -10 -5 0 -7 5 -4
10 3 6 8 10 11 10 2 0 4 -4 4 -10z m0 -134 c0 -3 -4 -8 -10 -11 -5 -3 -10 -1
-10 4 0 6 5 11 10 11 6 0 10 -2 10 -4z m-700 -200 c0 -3 -4 -8 -10 -11 -5 -3
-10 -1 -10 4 0 6 5 11 10 11 6 0 10 -2 10 -4z m854 -192 c3 -8 2 -12 -4 -9 -6
3 -10 10 -10 16 0 14 7 11 14 -7z m-798 -9 c-1 -8 -5 -17 -8 -21 -5 -4 -4 16
1 34 3 9 9 -1 7 -13z m924 -39 c0 -3 -4 -8 -10 -11 -5 -3 -10 -1 -10 4 0 6 5
11 10 11 6 0 10 -2 10 -4z m-600 -51 c0 -5 -5 -3 -10 5 -5 8 -10 20 -10 25 0
6 5 3 10 -5 5 -8 10 -19 10 -25z m153 -490 c-3 -9 -8 -14 -10 -11 -3 3 -2 9 2
15 9 16 15 13 8 -4z m-898 -193 c-3 -3 -11 0 -18 7 -9 10 -8 11 6 5 10 -3 15
-9 12 -12z m-1335 -126 c0 -3 -4 -8 -10 -11 -5 -3 -10 -1 -10 4 0 6 5 11 10
11 6 0 10 -2 10 -4z m1575 -34 c-3 -3 -11 0 -18 7 -9 10 -8 11 6 5 10 -3 15
-9 12 -12z m370 8 c-3 -5 -12 -10 -18 -10 -7 0 -6 4 3 10 19 12 23 12 15 0z
m-505 -281 c0 -5 -4 -9 -8 -9 -5 0 -9 7 -9 15 0 8 4 12 9 9 4 -3 8 -9 8 -15z
m-1330 -199 c8 -5 11 -10 5 -10 -5 0 -17 5 -25 10 -8 5 -10 10 -5 10 6 0 17
-5 25 -10z m-1079 -513 c-10 -9 -11 -8 -5 6 3 10 9 15 12 12 3 -3 0 -11 -7
-18z m486 -12 c0 -8 -4 -12 -9 -9 -5 3 -6 10 -3 15 9 13 12 11 12 -6z m1923
-180 c0 -5 -5 -3 -10 5 -5 8 -10 20 -10 25 0 6 5 3 10 -5 5 -8 10 -19 10 -25z
m-2880 5 c0 -5 -2 -10 -4 -10 -3 0 -8 5 -11 10 -3 6 -1 10 4 10 6 0 11 -4 11
-10z m311 -53 c-10 -9 -11 -8 -5 6 3 10 9 15 12 12 3 -3 0 -11 -7 -18z m2087
-32 c-3 -3 -9 2 -12 12 -6 14 -5 15 5 6 7 -7 10 -15 7 -18z m-678 -169 c0 -3
-4 -8 -10 -11 -5 -3 -10 -1 -10 4 0 6 5 11 10 11 6 0 10 -2 10 -4z m837 -211
c0 -8 -4 -12 -9 -9 -5 3 -6 10 -3 15 9 13 12 11 12 -6z m-2737 -117 c0 -4 -4
-8 -9 -8 -6 0 -12 4 -15 8 -3 5 1 9 9 9 8 0 15 -4 15 -9z m124 4 c3 -5 -1 -9
-9 -9 -8 0 -15 4 -15 9 0 4 4 8 9 8 6 0 12 -4 15 -8z m176 0 c0 -5 -7 -9 -15
-9 -8 0 -12 4 -9 9 3 4 9 8 15 8 5 0 9 -4 9 -8z m2170 -2 c-8 -5 -19 -10 -25
-10 -5 0 -3 5 5 10 8 5 20 10 25 10 6 0 3 -5 -5 -10z m-2426 -318 c3 -5 -1 -9
-9 -9 -8 0 -12 4 -9 9 3 4 7 8 9 8 2 0 6 -4 9 -8z m134 -287 c-3 -3 -9 2 -12
12 -6 14 -5 15 5 6 7 -7 10 -15 7 -18z m-213 -35 c-3 -5 -12 -10 -18 -10 -7 0
-6 4 3 10 19 12 23 12 15 0z m1055 0 c0 -5 -2 -10 -4 -10 -3 0 -8 5 -11 10 -3
6 -1 10 4 10 6 0 11 -4 11 -10z m-845 -69 c3 -5 2 -12 -3 -15 -5 -3 -9 1 -9 9
0 17 3 19 12 6z m-450 -91 c-3 -5 -12 -10 -18 -10 -7 0 -6 4 3 10 19 12 23 12
15 0z m275 -314 c0 -2 -7 -7 -16 -10 -8 -3 -12 -2 -9 4 6 10 25 14 25 6z
m1325 -6 c3 -6 -1 -7 -9 -4 -18 7 -21 14 -7 14 6 0 13 -4 16 -10z m132 -145
c0 -8 -4 -12 -9 -9 -4 3 -8 9 -8 15 0 5 4 9 8 9 5 0 9 -7 9 -15z m-1697 -9 c0
-2 -7 -7 -16 -10 -8 -3 -12 -2 -9 4 6 10 25 14 25 6z m790 -6 c8 -5 11 -10 5
-10 -5 0 -17 5 -25 10 -8 5 -10 10 -5 10 6 0 17 -5 25 -10z m1164 2 c3 -5 -1
-9 -9 -9 -8 0 -12 4 -9 9 3 4 7 8 9 8 2 0 6 -4 9 -8z m-2340 -188 c3 -8 2 -12
-4 -9 -6 3 -10 10 -10 16 0 14 7 11 14 -7z m-119 -134 c3 -5 1 -10 -4 -10 -6
0 -11 5 -11 10 0 6 2 10 4 10 3 0 8 -4 11 -10z m756 -193 c-10 -9 -11 -8 -5 6
3 10 9 15 12 12 3 -3 0 -11 -7 -18z"/>
</g>
</svg>
